<svg xmlns="http://www.w3.org/2000/svg" width="704" height="1440" viewBox="0 0 22 45"><title>6845832_27788</title><defs><linearGradient id="g1" x2="1" gradientTransform="matrix(3.666 -1.106 .77 2.554 2.841 43.294)" gradientUnits="userSpaceOnUse"><stop offset="0" stop-color="#e00000"/><stop offset="1" stop-color="#830000"/></linearGradient><linearGradient id="g2" x2="1" gradientTransform="matrix(-3.666 -1.106 -.77 2.554 19.165 43.294)" gradientUnits="userSpaceOnUse"><stop offset="0" stop-color="#830000"/><stop offset="1" stop-color="#e00000"/></linearGradient><linearGradient id="g3" x2="1" gradientTransform="matrix(-4.071 0 0 8.003 20.39 8.15)" gradientUnits="userSpaceOnUse"><stop offset=".005" stop-color="#c0c0bf"/><stop offset=".033" stop-color="#e2e5e4"/><stop offset=".908" stop-color="#d2d2d1"/><stop offset=".981" stop-color="#b4b7b3"/><stop offset=".992" stop-color="#adb1ad"/></linearGradient><linearGradient id="g4" x2="1" gradientTransform="matrix(0 -4.177 -4.774 0 21.012 15.749)" gradientUnits="userSpaceOnUse"><stop offset="0" stop-color="gray"/><stop offset="1" stop-color="#fff"/></linearGradient><linearGradient id="g6" x2="1" gradientTransform="matrix(1.021 0 0 7.68 18.842 8.175)" gradientUnits="userSpaceOnUse"><stop offset=".496" stop-color="#acacac"/><stop offset="1" stop-color="#fff"/></linearGradient><linearGradient id="g7" x2="1" gradientTransform="matrix(4.071 0 0 8.003 1.591 8.15)" gradientUnits="userSpaceOnUse"><stop offset=".005" stop-color="#c0c0bf"/><stop offset=".033" stop-color="#e2e5e4"/><stop offset=".908" stop-color="#d2d2d1"/><stop offset=".981" stop-color="#b4b7b3"/><stop offset=".992" stop-color="#adb1ad"/></linearGradient><linearGradient id="g8" x2="1" gradientTransform="matrix(0 -4.177 4.774 0 .968 15.749)" gradientUnits="userSpaceOnUse"><stop offset="0" stop-color="gray"/><stop offset="1" stop-color="#fff"/></linearGradient><linearGradient id="g10" x2="1" gradientTransform="matrix(-4.071 0 0 8.003 20.39 32.884)" gradientUnits="userSpaceOnUse"><stop offset=".005" stop-color="#c0c0bf"/><stop offset=".033" stop-color="#e2e5e4"/><stop offset=".908" stop-color="#d2d2d1"/><stop offset=".981" stop-color="#b4b7b3"/><stop offset=".992" stop-color="#adb1ad"/></linearGradient><linearGradient id="g11" x2="1" gradientTransform="matrix(0 -4.177 -4.774 0 21.012 40.483)" gradientUnits="userSpaceOnUse"><stop offset="0" stop-color="gray"/><stop offset="1" stop-color="#fff"/></linearGradient><linearGradient id="g13" x2="1" gradientTransform="matrix(1.021 0 0 7.68 18.842 32.909)" gradientUnits="userSpaceOnUse"><stop offset=".496" stop-color="#acacac"/><stop offset="1" stop-color="#fff"/></linearGradient><linearGradient id="g14" x2="1" gradientTransform="matrix(4.071 0 0 8.003 1.591 32.884)" gradientUnits="userSpaceOnUse"><stop offset=".005" stop-color="#c0c0bf"/><stop offset=".033" stop-color="#e2e5e4"/><stop offset=".908" stop-color="#d2d2d1"/><stop offset=".981" stop-color="#b4b7b3"/><stop offset=".992" stop-color="#adb1ad"/></linearGradient><linearGradient id="g15" x2="1" gradientTransform="matrix(0 -4.177 4.774 0 .968 40.483)" gradientUnits="userSpaceOnUse"><stop offset="0" stop-color="gray"/><stop offset="1" stop-color="#fff"/></linearGradient><linearGradient id="g17" x2="1" gradientTransform="matrix(18.107 0 0 45 1.934 0)" gradientUnits="userSpaceOnUse"><stop offset=".005" stop-color="#c0c0bf"/><stop offset=".033" stop-color="#e2e5e4"/><stop offset=".908" stop-color="#d2d2d1"/><stop offset=".981" stop-color="#b4b7b3"/><stop offset=".992" stop-color="#adb1ad"/></linearGradient><linearGradient id="g18" x2="1" gradientTransform="matrix(.02 1.133 1.066 -.019 15.307 1.531)" gradientUnits="userSpaceOnUse"><stop offset="0" stop-color="#535350"/><stop offset=".995" stop-color="#8c8c89"/></linearGradient><linearGradient id="g19" x2="1" gradientTransform="rotate(45.18 6.556 26.33)scale(-4.97 4.538)" gradientUnits="userSpaceOnUse"><stop offset="0" stop-color="#5a5a57"/><stop offset=".995" stop-color="#d9d9d8"/></linearGradient><linearGradient id="g20" x2="1" gradientTransform="matrix(-1.444 0 0 .769 17.139 1.263)" gradientUnits="userSpaceOnUse"><stop offset="0" stop-color="#f2f4f3"/><stop offset=".397" stop-color="#dcdcdb"/><stop offset="1" stop-color="gray"/></linearGradient><linearGradient id="g21" x2="1" gradientTransform="rotate(91.01 2.61 4.07)scale(1.133 1.066)" gradientUnits="userSpaceOnUse"><stop offset="0" stop-color="#535350"/><stop offset=".995" stop-color="#8c8c89"/></linearGradient><linearGradient id="g22" x2="1" gradientTransform="rotate(-45.18 4.46 -.147)scale(4.97 4.538)" gradientUnits="userSpaceOnUse"><stop offset="0" stop-color="#5a5a57"/><stop offset=".995" stop-color="#d9d9d8"/></linearGradient><linearGradient id="g23" x2="1" gradientTransform="matrix(1.444 0 0 .769 4.892 1.263)" gradientUnits="userSpaceOnUse"><stop offset="0" stop-color="#f2f4f3"/><stop offset=".397" stop-color="#dcdcdb"/><stop offset="1" stop-color="gray"/></linearGradient><linearGradient id="g24" x2="1" gradientTransform="matrix(.874 .526 -.441 .732 1.984 12.005)" gradientUnits="userSpaceOnUse"><stop offset="0" stop-color="#242424"/><stop offset="1" stop-color="#010101"/></linearGradient><linearGradient id="g25" x2="1" gradientTransform="rotate(33.5 -19.525 6.894)scale(2.223 1.67)" gradientUnits="userSpaceOnUse"><stop offset=".005" stop-color="#c0c0bf"/><stop offset=".295" stop-color="#edefee"/><stop offset="1" stop-color="#adb1ad"/></linearGradient><linearGradient id="g26" x2="1" gradientTransform="matrix(1.959 0 0 .814 .008 13.748)" gradientUnits="userSpaceOnUse"><stop offset="0" stop-color="#5a5a57"/><stop offset=".995" stop-color="#d9d9d8"/></linearGradient><linearGradient id="g27" x2="1" gradientTransform="matrix(-.874 .526 .441 .732 20.002 12.005)" gradientUnits="userSpaceOnUse"><stop offset="0" stop-color="#242424"/><stop offset="1" stop-color="#010101"/></linearGradient><linearGradient id="g28" x2="1" gradientTransform="rotate(146.5 8.919 9.184)scale(2.223 -1.67)" gradientUnits="userSpaceOnUse"><stop offset=".005" stop-color="#c0c0bf"/><stop offset=".295" stop-color="#edefee"/><stop offset="1" stop-color="#adb1ad"/></linearGradient><linearGradient id="g29" x2="1" gradientTransform="matrix(-1.96 0 0 .814 21.978 13.748)" gradientUnits="userSpaceOnUse"><stop offset="0" stop-color="#5a5a57"/><stop offset=".995" stop-color="#d9d9d8"/></linearGradient><linearGradient id="g30" x2="1" gradientTransform="matrix(1.436 0 0 16.474 17.992 24.343)" gradientUnits="userSpaceOnUse"><stop offset="0" stop-color="#242424"/><stop offset="1" stop-color="#010101"/></linearGradient><linearGradient id="g31" x2="1" gradientTransform="matrix(0 -5.306 1.673 0 10.125 44.79)" gradientUnits="userSpaceOnUse"><stop offset="0" stop-color="#c9c9c9"/><stop offset="1" stop-color="#fff"/></linearGradient><linearGradient id="g32" x2="1" gradientTransform="matrix(13.657 0 0 26.861 4.159 15.122)" gradientUnits="userSpaceOnUse"><stop offset=".033" stop-color="#e2e5e4"/><stop offset=".908" stop-color="#d2d2d1"/></linearGradient><linearGradient id="g33" x2="1" gradientTransform="matrix(9.228 0 0 27.887 2.776 14.131)" gradientUnits="userSpaceOnUse"><stop offset="0" stop-color="#fff"/><stop offset=".543" stop-color="#dcdcdb"/><stop offset=".825" stop-color="#808780"/></linearGradient><linearGradient id="g34" x2="1" gradientTransform="matrix(1.47 0 0 12.274 2.559 11.43)" gradientUnits="userSpaceOnUse"><stop offset="0" stop-color="#242424"/><stop offset="1" stop-color="#010101"/></linearGradient><linearGradient id="g35" x2="1" gradientTransform="matrix(1.436 0 0 16.474 2.547 24.343)" gradientUnits="userSpaceOnUse"><stop offset="0" stop-color="#242424"/><stop offset="1" stop-color="#010101"/></linearGradient><linearGradient id="g36" x2="1" gradientTransform="matrix(1.47 0 0 12.274 17.946 11.43)" gradientUnits="userSpaceOnUse"><stop offset="0" stop-color="#242424"/><stop offset="1" stop-color="#010101"/></linearGradient><linearGradient id="g37" x2="1" gradientTransform="matrix(12.603 0 0 2.543 4.686 41.52)" gradientUnits="userSpaceOnUse"><stop offset="0" stop-color="#242424"/><stop offset="1" stop-color="#151515"/></linearGradient><linearGradient id="g38" x2="1" gradientTransform="matrix(16.197 0 0 10.107 2.889 0)" gradientUnits="userSpaceOnUse"><stop offset=".005" stop-color="#cacac9"/><stop offset=".033" stop-color="#f2f4f3"/><stop offset=".9" stop-color="#dcdcdb"/><stop offset="1" stop-color="#b7bbb7"/></linearGradient><linearGradient id="g39" x2="1" gradientTransform="matrix(18.712 9.616 -6.001 11.677 5.24 -4.574)" gradientUnits="userSpaceOnUse"><stop offset=".033" stop-color="#f2f4f3"/><stop offset=".583" stop-color="#fff"/><stop offset="1" stop-color="#dcdcdb"/></linearGradient><linearGradient id="g40" x2="1" gradientTransform="matrix(.436 0 0 21.726 4.754 18.29)" gradientUnits="userSpaceOnUse"><stop offset=".01" stop-color="#6b6b6b"/><stop offset=".046" stop-color="#9d9d9c"/><stop offset=".093" stop-color="#444443"/><stop offset=".902" stop-color="#1d1d1b"/><stop offset=".959" stop-color="#3c3c3b"/><stop offset=".995"/></linearGradient><linearGradient id="g41" x2="1" gradientTransform="matrix(.436 0 0 21.726 16.793 18.29)" gradientUnits="userSpaceOnUse"><stop offset=".01" stop-color="#6b6b6b"/><stop offset=".046" stop-color="#9d9d9c"/><stop offset=".093" stop-color="#444443"/><stop offset=".902" stop-color="#1d1d1b"/><stop offset=".959" stop-color="#3c3c3b"/><stop offset=".995"/></linearGradient><linearGradient id="g42" x2="1" gradientTransform="rotate(208.74 12.826 29.477)scale(28.01 53.051)" gradientUnits="userSpaceOnUse"><stop offset="0" stop-color="#a2a2a2"/><stop offset=".972" stop-color="#fff"/></linearGradient><linearGradient id="g44" x2="1" gradientTransform="rotate(-8.383 2.235 -79.73)scale(8.067 11.394)" gradientUnits="userSpaceOnUse"><stop offset="0" stop-color="#fff"/><stop offset="1" stop-color="#ececec"/></linearGradient><linearGradient id="g45" x2="1" gradientTransform="rotate(-68.04 .498 8.98)scale(10.654 23.503)" gradientUnits="userSpaceOnUse"><stop offset=".008" stop-color="#adb1ad"/><stop offset=".055" stop-color="#b4b7b3"/><stop offset=".479" stop-color="#fff"/><stop offset=".876" stop-color="#b4b7b3"/><stop offset="1" stop-color="#f2f2f2"/></linearGradient><linearGradient id="g46" x2="1" gradientTransform="rotate(68.04 10.515 25.295)scale(-10.654 23.503)" gradientUnits="userSpaceOnUse"><stop offset=".008" stop-color="#adb1ad"/><stop offset=".019" stop-color="#b4b7b3"/><stop offset=".092" stop-color="#d2d2d1"/><stop offset="1" stop-color="#fff"/></linearGradient><linearGradient id="g48" x2="1" gradientTransform="matrix(15.958 0 0 7.427 3.008 8.411)" gradientUnits="userSpaceOnUse"><stop offset="0" stop-color="#242424"/><stop offset="1" stop-color="#010101"/></linearGradient><linearGradient id="g49" x2="1" gradientTransform="matrix(8.309 0 0 7.428 3.008 8.43)" gradientUnits="userSpaceOnUse"><stop offset="0" stop-color="#f2f4f3"/><stop offset=".508" stop-color="#dcdcdb"/><stop offset="1" stop-color="gray"/></linearGradient><linearGradient id="g53" x2="1" gradientTransform="matrix(0 -.042 .089 0 10.987 8.552)" gradientUnits="userSpaceOnUse"><stop offset="0"/><stop offset="1" stop-color="#fff"/></linearGradient><linearGradient id="g54" x2="1" gradientTransform="matrix(6.077 0 0 2.54 4.686 41.52)" gradientUnits="userSpaceOnUse"><stop offset="0" stop-color="gray"/><stop offset=".492" stop-color="#dcdcdb"/><stop offset="1" stop-color="#f2f4f3"/></linearGradient><linearGradient id="g55" x2="1" gradientTransform="matrix(1.436 0 0 16.474 17.992 24.343)" gradientUnits="userSpaceOnUse"><stop offset=".005" stop-color="#9c9c9a"/><stop offset=".602" stop-color="#8a8a83"/><stop offset="1" stop-color="#2d2721"/></linearGradient><linearGradient id="g56" x2="1" gradientTransform="matrix(1.47 0 0 12.274 2.559 11.43)" gradientUnits="userSpaceOnUse"><stop offset="0" stop-color="#2d2721"/><stop offset=".398" stop-color="#8a8a83"/><stop offset=".995" stop-color="#9c9c9a"/></linearGradient><linearGradient id="g57" x2="1" gradientTransform="matrix(1.436 0 0 16.474 2.547 24.343)" gradientUnits="userSpaceOnUse"><stop offset="0" stop-color="#2d2721"/><stop offset=".398" stop-color="#8a8a83"/><stop offset=".995" stop-color="#9c9c9a"/></linearGradient><linearGradient id="g58" x2="1" gradientTransform="matrix(1.47 0 0 12.274 17.946 11.43)" gradientUnits="userSpaceOnUse"><stop offset=".005" stop-color="#9c9c9a"/><stop offset=".602" stop-color="#8a8a83"/><stop offset="1" stop-color="#2d2721"/></linearGradient><linearGradient id="g63" x2="1" gradientTransform="matrix(.026 -.047 .071 .039 16.438 41.679)" gradientUnits="userSpaceOnUse"><stop offset="0"/><stop offset="1" stop-color="#fff"/></linearGradient><linearGradient id="g65" x2="1" gradientTransform="matrix(.504 0 0 .853 11.066 39.625)" gradientUnits="userSpaceOnUse"><stop offset="0" stop-color="#242424"/><stop offset="1" stop-color="#010101"/></linearGradient><linearGradient id="g66" x2="1" gradientTransform="translate(11.068 39.998)scale(.498)" gradientUnits="userSpaceOnUse"><stop offset="0" stop-color="#010101"/><stop offset="1" stop-color="#242424"/></linearGradient><linearGradient id="g67" x2="1" gradientTransform="matrix(.112 0 0 3.226 11.261 40.243)" gradientUnits="userSpaceOnUse"><stop offset="0" stop-color="#242424"/><stop offset="1" stop-color="#010101"/></linearGradient><linearGradient id="g68" x2="1" gradientTransform="matrix(-.304 0 0 2.463 20.104 19.29)" gradientUnits="userSpaceOnUse"><stop offset=".005" stop-color="#c0c0bf"/><stop offset=".105" stop-color="#fff"/><stop offset=".295" stop-color="#edefee"/><stop offset=".845" stop-color="#adb1ad"/><stop offset="1" stop-color="#bfc5c1"/></linearGradient><linearGradient id="g69" x2="1" gradientTransform="matrix(.304 0 0 2.463 1.797 19.29)" gradientUnits="userSpaceOnUse"><stop offset=".005" stop-color="#c0c0bf"/><stop offset=".105" stop-color="#fff"/><stop offset=".295" stop-color="#edefee"/><stop offset=".845" stop-color="#adb1ad"/><stop offset="1" stop-color="#bfc5c1"/></linearGradient><linearGradient id="g70" x2="1" gradientTransform="matrix(2.048 -.152 .013 .177 6.844 8.453)" gradientUnits="userSpaceOnUse"><stop offset="0"/><stop offset=".905" stop-color="#454545"/></linearGradient><linearGradient id="g71" x2="1" gradientTransform="matrix(5.878 -.611 .041 .394 5.848 8.704)" gradientUnits="userSpaceOnUse"><stop offset="0" stop-color="#262626"/><stop offset=".905" stop-color="#454545"/></linearGradient><linearGradient id="g72" x2="1" gradientTransform="matrix(.014 .134 -.024 .002 8.829 8.403)" gradientUnits="userSpaceOnUse"><stop offset="0" stop-color="#9c9c9a"/><stop offset=".061" stop-color="#515148"/><stop offset=".226" stop-color="#b7bbb7"/><stop offset=".719" stop-color="#9c9c9a"/><stop offset=".843" stop-color="#e5e5e4"/><stop offset=".995" stop-color="#9c9c9a"/></linearGradient><linearGradient id="g73" x2="1" gradientTransform="matrix(1.855 .727 -.071 .181 13.965 8.093)" gradientUnits="userSpaceOnUse"><stop offset="0"/><stop offset=".905" stop-color="#454545"/></linearGradient><linearGradient id="g74" x2="1" gradientTransform="matrix(5.58 1.998 -.268 .749 12.868 7.676)" gradientUnits="userSpaceOnUse"><stop offset="0" stop-color="#262626"/><stop offset=".905" stop-color="#454545"/></linearGradient><linearGradient id="g75" x2="1" gradientTransform="matrix(-.055 .153 -.033 -.012 15.754 8.805)" gradientUnits="userSpaceOnUse"><stop offset="0" stop-color="#9c9c9a"/><stop offset=".061" stop-color="#515148"/><stop offset=".226" stop-color="#b7bbb7"/><stop offset=".719" stop-color="#9c9c9a"/><stop offset=".843" stop-color="#e5e5e4"/><stop offset=".995" stop-color="#9c9c9a"/></linearGradient><linearGradient id="g76" x2="1" gradientTransform="matrix(1.264 0 0 .228 10.382 .13)" gradientUnits="userSpaceOnUse"><stop offset="0" stop-color="#242424"/><stop offset="1" stop-color="#010101"/></linearGradient><linearGradient id="g77" x2="1" gradientTransform="matrix(.816 0 0 .221 10.605 .138)" gradientUnits="userSpaceOnUse"><stop offset="0" stop-color="#9c9c9a"/><stop offset=".061" stop-color="#515148"/><stop offset=".226" stop-color="#b7bbb7"/><stop offset=".719" stop-color="#9c9c9a"/><stop offset=".843" stop-color="#e5e5e4"/><stop offset=".995" stop-color="#9c9c9a"/></linearGradient><radialGradient id="g5" cx="0" cy="0" r="1" gradientTransform="matrix(.498 .012 -.086 2.901 19.863 12.099)" gradientUnits="userSpaceOnUse"><stop offset="0" stop-color="#f2f4f3"/><stop offset="1" stop-color="gray"/></radialGradient><radialGradient id="g9" cx="0" cy="0" r="1" gradientTransform="matrix(.498 -.011 .079 2.901 2.134 11.947)" gradientUnits="userSpaceOnUse"><stop offset="0" stop-color="#f2f4f3"/><stop offset="1" stop-color="gray"/></radialGradient><radialGradient id="g12" cx="0" cy="0" r="1" gradientTransform="matrix(.498 .012 -.086 2.901 19.863 36.834)" gradientUnits="userSpaceOnUse"><stop offset="0" stop-color="#f2f4f3"/><stop offset="1" stop-color="gray"/></radialGradient><radialGradient id="g16" cx="0" cy="0" r="1" gradientTransform="matrix(.498 -.011 .079 2.901 2.134 36.681)" gradientUnits="userSpaceOnUse"><stop offset="0" stop-color="#f2f4f3"/><stop offset="1" stop-color="gray"/></radialGradient><radialGradient id="g43" cx="0" cy="0" r="1" gradientTransform="rotate(60 .863 5.423)scale(.234 1.662)" gradientUnits="userSpaceOnUse"><stop offset="0" stop-color="#f2f4f3"/><stop offset="1" stop-color="gray"/></radialGradient><radialGradient id="g47" cx="0" cy="0" r="1" gradientTransform="matrix(.799 .269 -1.216 3.608 5.61 5.506)" gradientUnits="userSpaceOnUse"><stop offset="0" stop-color="#f2f4f3"/><stop offset="1" stop-color="gray"/></radialGradient><radialGradient id="g50" cx="0" cy="0" r="1" gradientTransform="matrix(1.195 .228 -1.534 6.461 18.436 13.204)" gradientUnits="userSpaceOnUse"><stop offset="0" stop-color="#f2f4f3"/><stop offset="1" stop-color="gray"/></radialGradient><radialGradient id="g51" cx="0" cy="0" r="1" gradientTransform="matrix(.05 1.802 -8.057 .179 10.099 6.867)" gradientUnits="userSpaceOnUse"><stop offset="0" stop-color="#f2f4f3"/><stop offset="1" stop-color="gray"/></radialGradient><radialGradient id="g52" cx="0" cy="0" r="1" gradientTransform="matrix(2.335 2.878 -1.594 4.591 4.772 15.359)" gradientUnits="userSpaceOnUse"><stop offset="0" stop-color="#f2f4f3"/><stop offset="1" stop-color="gray"/></radialGradient><radialGradient id="g59" cx="0" cy="0" r="1" gradientTransform="matrix(.088 0 0 9.102 2.11 24.026)" gradientUnits="userSpaceOnUse"><stop offset="0" stop-color="#b2b2b2"/><stop offset="1" stop-color="#fff"/></radialGradient><radialGradient id="g60" cx="0" cy="0" r="1" gradientTransform="matrix(.191 0 0 8.782 2.355 22.198)" gradientUnits="userSpaceOnUse"><stop offset="0" stop-color="#f2f4f3"/><stop offset="1" stop-color="gray"/></radialGradient><radialGradient id="g61" cx="0" cy="0" r="1" gradientTransform="matrix(-.088 0 0 9.102 19.865 24.026)" gradientUnits="userSpaceOnUse"><stop offset="0" stop-color="#b2b2b2"/><stop offset="1" stop-color="#fff"/></radialGradient><radialGradient id="g62" cx="0" cy="0" r="1" gradientTransform="matrix(-.192 0 0 8.785 19.62 22.198)" gradientUnits="userSpaceOnUse"><stop offset="0" stop-color="#f2f4f3"/><stop offset="1" stop-color="gray"/></radialGradient><radialGradient id="g64" cx="0" cy="0" r="1" gradientTransform="translate(11.317 39.798)scale(.516)" gradientUnits="userSpaceOnUse"><stop offset=".484" stop-color="#010101"/><stop offset=".933" stop-color="#242424"/><stop offset="1" stop-color="#030303"/></radialGradient></defs><style>.s26{fill:#1e1e1e}.s36{fill:#272727}.s40{fill:gray}.s41{fill:#868686}.s42{fill:#8c8c8c}.s43{fill:#929292}.s44{fill:#989898}.s45{fill:#9e9e9e}.s46{fill:#a4a4a4}.s47{fill:#aaa}.s48{fill:#b0b0b0}.s49{fill:#b6b6b6}.s50{fill:#bcbcbc}.s51{fill:#c3c3c3}.s52{fill:#c9c9c9}.s53{fill:#cfcfcf}.s54{fill:#d5d5d5}.s55{fill:#dbdbdb}.s56{fill:#e1e1e1}.s57{fill:#e7e7e7}.s58{fill:#ededed}.s59{fill:#f3f3f3}.s60{fill:#f9f9f9}.s61{fill:#fff}.s63{fill:gray}.s63,.s64,.s65,.s66{mix-blend-mode:soft-light}.s64{fill:#868686}.s65{fill:#8c8c8c}.s66{fill:#929292}.s67{fill:#989898}.s67,.s68,.s69,.s70,.s71,.s72{mix-blend-mode:soft-light}.s68{fill:#9e9e9e}.s69{fill:#a4a4a4}.s70{fill:#aaa}.s71{fill:#b0b0b0}.s72{fill:#b6b6b6}.s73{fill:#bcbcbc}.s73,.s74,.s75,.s76,.s77,.s78{mix-blend-mode:soft-light}.s74{fill:#c3c3c3}.s75{fill:#c9c9c9}.s76{fill:#cfcfcf}.s77{fill:#d5d5d5}.s78{fill:#dbdbdb}.s79{fill:#e1e1e1}.s79,.s80,.s81,.s82,.s83,.s84{mix-blend-mode:soft-light}.s80{fill:#e7e7e7}.s81{fill:#ededed}.s82{fill:#f3f3f3}.s83{fill:#f9f9f9}.s84{fill:#fff}.s115{fill:#252125}.s120{fill:#231e22}</style><g id="Složka 3"><g id="&lt;Group&gt;"><path id="&lt;Path&gt;" d="M2.9 43.3s.7.3 1.7.7c1.1.5 2.7.7 2.7.7s-1.8.4-3.3-.2c-1.1-.4-1.1-1.2-1.1-1.2" style="fill:url(#g1)"/><path d="M19.1 43.3s-.7.3-1.7.7c-1.1.5-2.7.7-2.7.7s1.8.4 3.3-.2c1.1-.4 1.1-1.2 1.1-1.2" style="fill:url(#g2)"/><path d="m18.2 15.3.3.9c1.1 0 1.9-1.6 1.9-2.6V9.8c0-.9-.8-1.6-1.9-1.6h-.3c-1 0-1.9.7-1.9 1.6v3.8c0 1 .9 1.7 1.9 1.7" style="fill:url(#g3)"/><path d="M20.4 13.6c0 1-.8 2.6-1.9 2.6l-.3-.9c-1 0-1.9-.7-1.9-1.6v-2.2h4.1z" style="mix-blend-mode:multiply;fill:url(#g4)"/><path d="M20.4 12.1c-.1 1.6-.3 2.9-.6 2.9s-.5-1.3-.4-2.9c0-1.6.3-2.9.5-2.9.3 0 .5 1.3.5 2.9" style="mix-blend-mode:hard-light;fill:url(#g5)"/><path d="M19.9 8.7q-.5-.4-1.1-.5v7.7h.5q.3-.3.6-.7z" style="mix-blend-mode:multiply;fill:url(#g6)"/><path d="m3.8 15.3-.4.9c-1 0-1.8-1.6-1.8-2.6V9.8c0-.9.8-1.6 1.8-1.6h.4c1 0 1.9.7 1.9 1.6v3.8c0 1-.9 1.7-1.9 1.7" style="fill:url(#g7)"/><path d="M1.6 13.6c0 1 .8 2.6 1.8 2.6l.4-.9c1 0 1.8-.7 1.9-1.6v-2.2H1.6z" style="mix-blend-mode:multiply;fill:url(#g8)"/><path d="M2.6 11.9c.1 1.6-.1 2.9-.4 2.9-.3.1-.5-1.2-.6-2.8 0-1.6.2-2.9.5-3 .2 0 .5 1.3.5 2.9" style="mix-blend-mode:hard-light;fill:url(#g9)"/><path d="m18.2 40 .3.9c1.1 0 1.9-1.6 1.9-2.5v-3.8c0-1-.8-1.7-1.9-1.7h-.3c-1 0-1.9.7-1.9 1.7v3.8c0 .9.9 1.6 1.9 1.6" style="fill:url(#g10)"/><path d="M20.4 38.4c0 .9-.8 2.5-1.9 2.5l-.3-.9c-1 0-1.9-.7-1.9-1.6v-2.2h4.1z" style="mix-blend-mode:multiply;fill:url(#g11)"/><path d="M20.4 36.8c-.1 1.6-.3 2.9-.6 2.9s-.5-1.3-.4-2.9c0-1.6.3-2.9.5-2.9.3 0 .5 1.3.5 2.9" style="mix-blend-mode:hard-light;fill:url(#g12)"/><path d="M19.9 33.4q-.5-.4-1.1-.5v7.7h.5q.3-.3.6-.7z" style="mix-blend-mode:multiply;fill:url(#g13)"/><path d="m3.8 40-.4.9c-1 0-1.8-1.6-1.8-2.5v-3.8c0-1 .8-1.7 1.8-1.7h.4c1 0 1.9.7 1.9 1.7v3.8c0 .9-.9 1.6-1.9 1.6" style="fill:url(#g14)"/><path d="M1.6 38.4c0 .9.8 2.5 1.8 2.5l.4-.9c1 0 1.8-.7 1.9-1.6v-2.2H1.6z" style="mix-blend-mode:multiply;fill:url(#g15)"/><path d="M2.6 36.7c.1 1.6-.1 2.9-.4 2.9s-.5-1.3-.6-2.9c0-1.6.2-2.9.5-2.9.2 0 .5 1.3.5 2.9" style="mix-blend-mode:hard-light;fill:url(#g16)"/><path d="M18.3 2.2C17 1 15.1.9 15.1.9S13.8 0 11 0 6.9.9 6.9.9s-2 .1-3.2 1.3C2.2 3.7 1.9 6.8 1.9 7.8v20.7c0 1.1.3 13.8.4 14.6.1 1.5 6.3 1.9 8.7 1.9s8.6-.4 8.7-1.9c.1-.8.3-13.5.3-14.6V7.8c0-1-.2-4.1-1.7-5.6" style="fill:url(#g17)"/><path d="m15.1.9 1.3 1.7s1 .6 1.5 1c.4.3 1.1 1 1.1 1s.1-1.3-1-2.3c-1.2-1-2.9-1.4-2.9-1.4" style="fill:url(#g18)"/><path d="M19 4.6s-.8-.8-1.1-1c-.4-.3-1.5-1-1.5-1l-1-1.4c.6.3 2 1 2.6 1.6s.9 1 1 1.8" style="fill:url(#g19)"/><path d="m16.4 1.6-.7-.3c0 .1.3.3.6.5.4.2.8.3.8.2.1-.1-.2-.3-.6-.5-.3-.1-.5-.2-.7-.2z" style="mix-blend-mode:soft-light;fill:url(#g20)"/><path d="M6.9.9 5.7 2.6s-1.1.6-1.5 1c-.5.3-1.2 1-1.2 1s-.1-1.3 1-2.3C5.3 1.3 6.9.9 6.9.9" style="fill:url(#g21)"/><path d="M3 4.6s.9-.8 1.2-1c.3-.3 1.5-1 1.5-1l1-1.4c-.7.3-2 1-2.7 1.6-.6.6-.8 1-1 1.8" style="fill:url(#g22)"/><path d="m5.6 1.6.7-.3c.1.1-.2.3-.6.5s-.8.3-.8.2.3-.3.6-.5c.3-.1.6-.2.7-.2z" style="mix-blend-mode:soft-light;fill:url(#g23)"/><path d="m2.6 12.2-.9.6.1.1c-.7.5-1.8 1.4-1.8 1.4s.1.2.3.2 1.7-.6 1.7-.6v-.3c.1-.1.2-.2.3-.2.2 0 .5.1.5.1z" style="fill:url(#g24)"/><path d="M2.2 12.7c-.1.2-.4.4-.5.6s-.3.4-.3.4l-1.4.6s.2-.5.5-.9c.6-.6 1.4-.7 1.7-.7" style="fill:url(#g25)"/><path d="M2 13.9s-1 .6-1.7.7c0 0-.2-.1-.3-.1v-.2c.4-.5 1.4-.6 1.4-.6z" style="fill:url(#g26)"/><path id="&lt;Compound Path&gt;" d="M1.4 13.7s-1 .1-1.4.6v.2q.1.1.2.1h.1c.7-.1 1.7-.7 1.7-.7zm0 .1.4.1c-.2.1-1 .5-1.6.6q-.2 0-.2-.1c-.1 0 0-.1 0-.1.3-.4 1.3-.5 1.4-.5" class="s26"/><path d="m19.4 12.2.9.6-.1.1c.7.5 1.8 1.4 1.8 1.4s-.1.2-.3.2-1.7-.6-1.7-.6l-.1-.3c0-.1-.1-.2-.2-.2-.2 0-.5.1-.5.1z" style="fill:url(#g27)"/><path d="M19.8 12.7c.1.2.4.4.5.6l.2.4 1.5.6s-.2-.5-.5-.9c-.6-.6-1.4-.7-1.7-.7" style="fill:url(#g28)"/><path d="M20 13.9s1 .6 1.7.7l.2-.1q.1-.1.1-.2c-.4-.5-1.5-.6-1.5-.6z" style="fill:url(#g29)"/><path d="m20.5 13.7-.5.2s1 .6 1.7.7q.2 0 .2-.1c.1-.1.1-.2.1-.2-.4-.5-1.5-.6-1.5-.6m0 .1c.1 0 1.1.1 1.4.5 0 0 .1.1 0 .2h-.2c-.6 0-1.4-.4-1.6-.6z" class="s26"/><path d="m19.4 24.3-1.4.4.1 15.7 1.3.4z" style="fill:url(#g30)"/><path d="M2.2 39.4c0 2 0 3.5.1 3.7.1 1.5 6.3 1.9 8.7 1.9s8.6-.4 8.7-1.9c.1-.2.1-1.7.2-3.7z" style="mix-blend-mode:multiply;fill:url(#g31)"/><path d="M17.8 15.8c-2.7-1.2-6.8-.4-6.8-.4s-4.1-.8-6.8.4v23.7c0 .8.5 1.8 1.3 2.1 1 .3 2.7.4 5.5.4 2.9 0 4.5-.1 5.5-.5.8-.2 1.3-1.2 1.3-2z" style="fill:url(#g32)"/><path d="M11.1 14.2s-2 4.9-2 14.7C9.1 38.6 12 42 12 42s-6.5.4-7.9-1.2c-2.4-2.8-1-25.4 0-25.5 1-.2 4.3-1.6 7-1.1" style="mix-blend-mode:soft-light;fill:url(#g33)"/><path d="M2.6 11.4s1.2 4.1 1.3 5.6c.2 1.5.1 6.7.1 6.7l-1.4-.8z" style="fill:url(#g34)"/><path d="m2.5 24.3 1.5.4-.1 15.7-1.3.4z" style="fill:url(#g35)"/><path d="m2.6 22.9-.1 1.4 1.5.4v-1z" class="s36"/><path d="M19.4 11.4s-1.2 4.1-1.3 5.6c-.2 1.5-.1 6.7-.1 6.7l1.4-.8z" style="fill:url(#g36)"/><path d="M19.4 22.9v1.4l-1.4.4v-1z" class="s36"/><path d="M16.5 41.5c-1.4.3-5.5.3-5.5.3s-4.1 0-5.6-.3l-.7 2c1.5.5 6.3.6 6.3.6s4.7-.1 6.3-.6z" style="fill:url(#g37)"/><path d="M15.1.9C14.4.3 12.8 0 11 0S7.5.3 6.9.9c-2.3 2.1-4 9.2-4 9.2S5 7.9 11 7.9s8.1 2.2 8.1 2.2-1.7-7.1-4-9.2" style="fill:url(#g38)"/><g style="mix-blend-mode:soft-light"><path d="M6.6 2.1c-.1-.3-2.6-.5-3.8 1.8-1.6 2.9-.3 8.9-.1 9 .2 0 4-10.4 3.9-10.8" class="s40"/><path d="M6.5 2.1c-.1-.2-2.5-.4-3.7 1.8-1.5 2.8-.3 8.7-.1 8.7.2.1 4-10.1 3.8-10.5" class="s41"/><path d="M6.5 2.2c-.1-.3-2.5-.4-3.7 1.7-1.5 2.7-.3 8.4-.1 8.5S6.6 2.5 6.5 2.2" class="s42"/><path d="M6.4 2.2c-.1-.3-2.5-.3-3.6 1.7-1.4 2.6-.3 8.2-.1 8.3s3.9-9.7 3.7-10" class="s43"/><path d="M6.4 2.2C6.3 2 3.9 2 2.8 4c-1.3 2.5-.3 7.9-.1 8s3.8-9.4 3.7-9.8" class="s44"/><path d="M6.3 2.3C6.2 2 3.9 2.1 2.9 4c-1.3 2.4-.4 7.7-.2 7.8s3.8-9.2 3.6-9.5" class="s45"/><path d="M6.3 2.3c-.1-.2-2.5-.1-3.4 1.7-1.3 2.3-.4 7.4-.2 7.5s3.7-8.9 3.6-9.2" class="s46"/><path d="M6.2 2.3c-.1-.2-2.4 0-3.3 1.7-1.2 2.2-.4 7.2-.2 7.3s3.7-8.7 3.5-9" class="s47"/><path d="M6.2 2.3c-.1-.2-2.4.1-3.3 1.8-1.1 2.1-.4 6.9-.2 7s3.6-8.5 3.5-8.8" class="s48"/><path d="M6.1 2.4c-.1-.2-2.4 0-3.2 1.7-1 2-.4 6.7-.2 6.8s3.6-8.2 3.4-8.5" class="s49"/><path d="M6.1 2.4c-.1-.2-2.4.1-3.2 1.7-.9 1.9-.4 6.4-.2 6.6.2.1 3.5-8 3.4-8.3" class="s50"/><path d="M6 2.4c-.1-.1-2.3.2-3.1 1.7-.9 1.8-.4 6.2-.2 6.3.2.2 3.5-7.7 3.3-8" class="s51"/><path d="M6 2.5c-.1-.2-2.3.2-3 1.6-.9 1.8-.5 6-.3 6.1S6.2 2.7 6 2.5" class="s52"/><path d="M5.9 2.5c-.1-.2-2.3.3-2.9 1.7-.8 1.6-.5 5.7-.3 5.8s3.4-7.2 3.2-7.5" class="s53"/><path d="M5.9 2.5c-.1-.1-2.3.4-2.9 1.7-.7 1.5-.5 5.4-.3 5.6.2.1 3.4-7 3.2-7.3" class="s54"/><path d="M5.9 2.6C5.8 2.4 3.6 3 3 4.2c-.6 1.4-.5 5.2-.3 5.4.3.1 3.3-6.8 3.2-7" class="s55"/><path d="M5.8 2.6c-.1-.1-2.3.5-2.8 1.6-.6 1.4-.5 5-.3 5.1.3.2 3.3-6.5 3.1-6.7" class="s56"/><path d="M5.8 2.6c-.1-.1-2.3.6-2.8 1.7-.5 1.2-.5 4.7-.2 4.8.2.2 3.1-6.3 3-6.5" class="s57"/><path d="M5.7 2.7c-.1-.2-2.2.6-2.6 1.6-.5 1.1-.6 4.4-.3 4.6.2.2 3.1-6 2.9-6.2" class="s58"/><path d="M5.7 2.7c-.1-.1-2.3.6-2.6 1.6-.4 1-.6 4.2-.3 4.4.2.1 3-5.8 2.9-6" class="s59"/><path d="M5.6 2.7c-.1-.1-2.2.7-2.5 1.6-.4 1-.5 4-.3 4.2.2.1 3-5.6 2.8-5.8" class="s60"/><path d="M5.6 2.8c-.1-.1-2.2.7-2.5 1.5-.3.9-.5 3.8-.3 3.9.2.2 2.9-5.3 2.8-5.4" class="s61"/></g><g style="mix-blend-mode:soft-light"><path d="M15.2 1.8c.1-.3 3 .2 4 2.1 1.1 2.4.4 8.5.2 8.5-.2.1-4.4-10.3-4.2-10.6" class="s40"/><path d="M15.2 1.8c.1-.3 3.1.2 4 2.1 1.1 2.3.4 8.2.2 8.3s-4.3-10-4.2-10.4" class="s41"/><path d="M15.3 1.8c.1-.2 3 .3 3.9 2.1 1 2.2.4 8 .2 8.1s-4.3-9.8-4.1-10.2" class="s42"/><path d="M15.4 1.9c.1-.3 2.9.2 3.7 2 1 2.2.5 7.8.3 7.9s-4.2-9.6-4-9.9" class="s43"/><path d="M15.4 1.9c.1-.2 2.9.3 3.7 2 1 2.1.5 7.6.3 7.7s-4.1-9.4-4-9.7" class="s44"/><path d="M15.5 1.9c.1-.2 2.8.4 3.6 2.1.9 1.9.5 7.3.3 7.4s-4.1-9.1-3.9-9.5" class="s45"/><path d="M15.5 2c.1-.3 2.8.3 3.6 2 .9 1.9.5 7.1.3 7.2-.3.1-4-8.9-3.9-9.2" class="s46"/><path d="M15.6 2c.1-.2 2.8.4 3.5 2 .8 1.8.4 6.8.2 7-.2.1-3.9-8.7-3.7-9" class="s47"/><path d="M15.6 2c.1-.2 2.8.5 3.5 2 .8 1.8.4 6.6.2 6.7-.2.2-3.8-8.4-3.7-8.7" class="s48"/><path d="M15.7 2.1c.1-.2 2.7.4 3.3 1.9.8 1.7.5 6.4.3 6.5s-3.8-8.1-3.6-8.4" class="s49"/><path d="M15.8 2.1c.1-.2 2.6.5 3.2 1.9.8 1.6.5 6.2.3 6.3s-3.7-7.9-3.5-8.2" class="s50"/><path d="M15.8 2.2c.1-.2 2.6.5 3.2 1.8.7 1.6.5 6 .3 6.1s-3.6-7.7-3.5-7.9" class="s51"/><path d="M15.9 2.2C16 2 18.4 2.7 19 4c.6 1.5.5 5.8.3 5.9s-3.6-7.5-3.4-7.7" class="s52"/><path d="M15.9 2.2c.1-.1 2.6.6 3.1 1.8.6 1.4.5 5.6.3 5.7s-3.5-7.2-3.4-7.5" class="s53"/><path d="M16 2.3c.1-.2 2.5.5 3 1.7.5 1.4.5 5.3.3 5.5-.2.1-3.5-7-3.3-7.2" class="s54"/><path d="M16.1 2.3c.1-.1 2.4.6 2.9 1.8s.5 5 .3 5.2c-.2.1-3.4-6.8-3.2-7" class="s55"/><path d="M16.1 2.3c.1-.1 2.4.7 2.8 1.8.5 1.2.6 4.8.4 5-.3.1-3.3-6.5-3.2-6.8" class="s56"/><path d="M16.2 2.4c.1-.2 2.3.6 2.7 1.7.5 1.1.6 4.6.3 4.7-.2.2-3.2-6.2-3-6.4" class="s57"/><path d="M16.2 2.4c.1-.1 2.3.7 2.7 1.7s.5 4.4.3 4.5c-.2.2-3.1-6-3-6.2" class="s58"/><path d="M16.3 2.4c.1-.1 2.3.8 2.6 1.7.4 1 .5 4.2.3 4.3-.2.2-3.1-5.8-2.9-6" class="s59"/><path d="M16.3 2.5c.1-.1 2.3.7 2.6 1.6s.5 3.9.3 4.1-3-5.5-2.9-5.7" class="s60"/><path d="M16.4 2.5c.1-.1 2.2.8 2.5 1.6.2.8.5 3.7.3 3.9s-3-5.3-2.8-5.5" class="s61"/></g><path d="M15.1.9C14.4.3 12.8 0 11 0S7.5.3 6.9.9c-2.3 2.1-4 9.2-4 9.2S5 7.9 11 7.9s8.1 2.2 8.1 2.2-1.7-7.1-4-9.2" style="mix-blend-mode:multiply;fill:url(#g39)"/><path d="M16.5 41c.1.7 1 2.7 1.2 2.9.2.1 1.6-.4 1.7-.6.1-.1-2-2.7-2.1-2.8-.2-.1-.8.3-.8.5" class="s63"/><path d="M16.5 41c.1.7 1 2.6 1.2 2.8s1.6-.3 1.6-.5c.1-.1-1.9-2.6-2-2.7-.2-.1-.8.2-.8.4" class="s64"/><path d="M16.6 41c0 .7.9 2.6 1.1 2.8s1.5-.3 1.6-.5c.1-.1-1.9-2.6-2-2.7-.2-.1-.8.3-.7.4" class="s65"/><path d="M16.6 41c0 .7.9 2.6 1.1 2.8.2.1 1.5-.3 1.6-.5.1-.1-1.9-2.6-2-2.7-.2-.1-.7.3-.7.4" class="s66"/><path d="M16.6 41.1c.1.6.9 2.5 1.1 2.6.2.2 1.5-.2 1.5-.4.1-.1-1.8-2.6-1.9-2.6-.2-.1-.7.2-.7.4" class="s67"/><path d="M16.6 41.1c.1.6.9 2.4 1.1 2.6s1.4-.2 1.5-.4c.1-.1-1.8-2.5-2-2.6-.1-.1-.6.2-.6.4" class="s68"/><path d="M16.6 41.1c.1.6.9 2.4 1.1 2.6.2.1 1.4-.2 1.5-.4.1-.1-1.8-2.5-2-2.6-.1-.1-.6.2-.6.4" class="s69"/><path d="M16.7 41.1c0 .5.8 2.4 1 2.5.2.2 1.4-.1 1.4-.3.1-.1-1.7-2.5-1.9-2.6-.1 0-.6.2-.5.4" class="s70"/><path d="M16.7 41.1c0 .5.9 2.4 1 2.5.2.2 1.3-.1 1.4-.3.1-.1-1.7-2.4-1.9-2.5-.1-.1-.5.2-.5.3" class="s71"/><path d="M16.7 41.1c.1.5.9 2.3 1 2.5.2.1 1.3-.1 1.4-.3.1-.1-1.7-2.4-1.9-2.5-.1-.1-.5.2-.5.3" class="s72"/><path d="M16.7 41.1c.1.5.9 2.3 1.1 2.5.1.1 1.2-.1 1.2-.3.1-.1-1.7-2.4-1.8-2.5-.1 0-.5.2-.5.3" class="s73"/><path d="M16.7 41.1c.1.5.9 2.3 1.1 2.4.1.2 1.1 0 1.2-.2.1-.1-1.7-2.3-1.8-2.4s-.5.1-.5.2" class="s74"/><path d="M16.8 41.2c0 .4.8 2.1 1 2.3.1.1 1.1 0 1.2-.2.1-.1-1.7-2.3-1.8-2.4s-.5.1-.4.3" class="s75"/><path d="M16.8 41.2c0 .4.8 2.1 1 2.3.2.1 1.1 0 1.2-.2 0-.1-1.7-2.3-1.8-2.4-.2 0-.4.1-.4.3" class="s76"/><path d="M16.8 41.2c0 .4.8 2.1 1 2.2.2.2 1 .1 1.1-.1.1-.1-1.6-2.3-1.7-2.3-.2-.1-.4.1-.4.2" class="s77"/><path d="M16.8 41.2c.1.4.8 2.1 1 2.2s1 .1 1.1-.1c.1-.1-1.6-2.2-1.7-2.3-.2-.1-.4.1-.4.2" class="s78"/><path d="M16.8 41.2c.1.4.9 2 1 2.2.2.1 1 0 1.1-.1 0-.1-1.6-2.2-1.7-2.3-.2 0-.4.1-.4.2" class="s79"/><path d="M16.9 41.2c0 .3.8 2 .9 2.1.2.2 1 .1 1 0 .1-.1-1.5-2.2-1.7-2.2-.1-.1-.3 0-.2.1" class="s80"/><path d="M16.9 41.2c0 .3.8 2 .9 2.1.2.2.9.1 1 0s-1.5-2.1-1.7-2.2c-.1-.1-.2 0-.2.1" class="s81"/><path d="M16.9 41.2c0 .3.8 1.9 1 2.1.1.1.8.1.9 0 0-.1-1.5-2.1-1.7-2.2-.1-.1-.2 0-.2.1" class="s82"/><path d="M16.9 41.3c.1.2.8 1.8 1 1.9.1.2.8.2.8.1.1-.1-1.5-2.1-1.6-2.1-.1-.1-.2 0-.2.1" class="s83"/><path d="M16.9 41.3c.1.2.8 1.8 1 1.9.1.2.7.2.8.1s-1.5-2-1.6-2.1-.2 0-.2.1" class="s84"/><path d="M5.4 41.5c-.1.6-.8 2.6-1 2.7s-1.8-.7-1.9-.8c0-.2 2-2.5 2.2-2.6.1-.1.7.5.7.7" class="s63"/><path d="M5.4 41.5c-.1.6-.8 2.5-1 2.7-.2.1-1.7-.7-1.8-.8-.1-.2 2-2.5 2.1-2.5.1-.1.7.4.7.6" class="s64"/><path d="M5.4 41.5c-.1.6-.9 2.5-1 2.6-.2.1-1.7-.6-1.8-.8 0-.1 2-2.3 2.1-2.4.2-.1.7.4.7.6" class="s65"/><path d="M5.4 41.5c-.1.6-.9 2.4-1 2.6-.2.1-1.7-.6-1.7-.8-.1-.1 1.9-2.3 2-2.4.2 0 .7.4.7.6" class="s66"/><path d="M5.4 41.5c-.1.6-.9 2.4-1.1 2.5-.1.1-1.5-.5-1.6-.7S4.6 41 4.8 41c.1-.1.6.4.6.5" class="s67"/><path d="M5.3 41.5c0 .6-.8 2.3-1 2.5-.1.1-1.5-.5-1.6-.7 0-.2 1.9-2.2 2.1-2.3.1-.1.6.4.5.5" class="s68"/><path d="M5.3 41.5c0 .6-.8 2.3-1 2.4s-1.5-.4-1.5-.6c-.1-.2 1.9-2.2 2-2.3.1 0 .5.4.5.5" class="s69"/><path d="M5.3 41.5c0 .6-.8 2.2-1 2.4-.2.1-1.4-.5-1.5-.6 0-.2 1.9-2.2 2-2.2.1-.1.5.3.5.4" class="s70"/><path d="M5.3 41.5c0 .6-.8 2.2-1 2.3s-1.4-.4-1.4-.5c-.1-.2 1.8-2.1 1.9-2.2s.5.3.5.4" class="s71"/><path d="M5.3 41.6c0 .5-.9 2-1 2.2-.2.1-1.3-.4-1.4-.5-.1-.2 1.8-2.1 1.9-2.2.1 0 .5.3.5.5" class="s72"/><path d="M5.3 41.6c0 .5-.9 2-1 2.1-.2.1-1.3-.3-1.4-.5 0-.1 1.8-2 2-2 0-.1.4.2.4.4" class="s73"/><path d="M5.3 41.6c0 .5-.9 1.9-1 2.1-.2.1-1.3-.3-1.3-.5-.1-.1 1.7-1.9 1.9-2 .1 0 .4.2.4.4" class="s74"/><path d="M5.3 41.6c0 .5-.9 1.9-1.1 2-.1.1-1.1-.2-1.2-.4-.1-.1 1.8-1.9 1.9-2 .1 0 .4.2.4.4" class="s75"/><path d="M5.3 41.6c0 .5-.9 1.8-1.1 2-.1.1-1.1-.2-1.1-.4-.1-.1 1.7-1.9 1.8-1.9.1-.1.4.2.4.3" class="s76"/><path d="M5.3 41.6c0 .5-.9 1.8-1.1 1.9-.1.1-1-.1-1.1-.3s1.7-1.8 1.8-1.9c.1 0 .3.2.4.3" class="s77"/><path d="M5.2 41.6c.1.4-.8 1.7-1 1.9-.2.1-1-.2-1.1-.3 0-.2 1.7-1.8 1.8-1.9.1 0 .3.2.3.3" class="s78"/><path d="M5.2 41.6c.1.4-.9 1.7-1 1.8-.2.1-1-.1-1-.2-.1-.2 1.6-1.8 1.8-1.8 0 0 .2.1.2.2" class="s79"/><path d="M5.2 41.6c.1.4-.9 1.6-1 1.8-.2.1-.9-.1-1-.2-.1-.2 1.6-1.7 1.8-1.8 0 0 .2.1.2.2" class="s80"/><path d="M5.2 41.6c.1.4-.9 1.6-1 1.7-.2.1-.9 0-1-.2 0-.1 1.7-1.6 1.8-1.7 0 0 .2.1.2.2" class="s81"/><path d="M5.2 41.6c.1.4-.9 1.5-1.1 1.7-.1.1-.8 0-.8-.2-.1-.1 1.6-1.6 1.7-1.6 0 0 .2 0 .2.1" class="s82"/><path d="M5.2 41.7c.1.3-.9 1.4-1.1 1.5-.1.1-.7.1-.8-.1 0-.1 1.6-1.5 1.7-1.6.1 0 .2 0 .2.2" class="s83"/><path d="M5.2 41.7c.1.3-.9 1.3-1.1 1.5-.1.1-.7.1-.7-.1-.1-.1 1.5-1.5 1.6-1.5.1-.1.2-.1.2.1" class="s84"/><path d="M5 40c-.1 0-.2-.1-.2-.2V18.5c0-.1.1-.2.2-.2s.2.1.2.2v21.3c0 .1-.1.2-.2.2" style="fill:url(#g40)"/><path d="M17 40c-.1 0-.2-.1-.2-.2V18.5c0-.1.1-.2.2-.2s.2.1.2.2v21.3c0 .1-.1.2-.2.2" style="fill:url(#g41)"/><path d="M18 11.8 2.5 43.6C3.7 44.7 8.8 45 11 45c2.4 0 8.6-.4 8.7-1.9.1-.8.3-13.5.3-14.6V12.9c-1.1-.6-2-1.1-2-1.1" style="mix-blend-mode:multiply;fill:url(#g42)"/><path d="M5.2 2.2c-.7.4-1.4.7-1.5.6s.5-.6 1.3-1c.8-.5 1.5-.8 1.6-.7 0 .1-.6.6-1.4 1.1" style="mix-blend-mode:hard-light;fill:url(#g43)"/><path d="M6.9.9c-2.3 2.1-4 9.6-4 9.6s1.2-1.2 4.2-1.8c.2-1.5.4-4.4.7-6C8.2.3 10.3.2 10.3 0 8.8.1 7.5.4 6.9.9" class="s84"/><path d="M15.1.9c2.3 2.1 4 9.6 4 9.6s-1.2-1.2-4.2-1.8c-.1-1.8-.4-4.6-.9-6.5-.5-2.3-2.2-2-2.3-2.2 1.5.1 2.9.4 3.4.9" style="mix-blend-mode:multiply;fill:url(#g44)"/><path d="M2.9 10.5s1.6-6.9 3.6-9.2c.5-.6.9-.7.9-.7s-.5.2-1.1.9C4.5 3.9 3 10.4 3 10.4z" style="fill:url(#g45)"/><path d="M19.1 10.5s-1.5-6.9-3.6-9.2c-.5-.6-.9-.7-.9-.7s.5.2 1.1.9c1.8 2.4 3.3 8.9 3.3 8.9z" style="fill:url(#g46)"/><path d="M6.4 5.8c-.7 2-1.6 3.5-2 3.3-.4-.1-.3-1.9.4-3.9s1.6-3.5 2-3.3c.5.1.3 1.9-.4 3.9" style="mix-blend-mode:hard-light;fill:url(#g47)"/><path d="M11 8.4s-6.1-.1-8 2.7l1.2 4.7s2.7-.4 6.8-.4c4 0 6.8.4 6.8.4l1.2-4.7c-1.9-2.8-8-2.7-8-2.7" style="fill:url(#g48)"/><path d="M11 8.4s-6.1 0-8 2.7l1.2 4.8s1.8-.4 4.6-.5c.2-2.4 2.5-7 2.5-7z" style="mix-blend-mode:soft-light;fill:url(#g49)"/><g id="&lt;Clip Group&gt;"><path d="M19.6 13.4c-.8 3.6-2 6.4-2.7 6.3-.7-.2-.5-3.2.3-6.7.9-3.6 2.1-6.4 2.8-6.3.6.2.5 3.2-.4 6.7" style="mix-blend-mode:hard-light;fill:url(#g50)"/><path d="M10.1 8.7c-4.4 0-8-.8-8-1.8s3.6-1.8 8-1.8 8 .8 8 1.8-3.6 1.8-8 1.8" style="mix-blend-mode:hard-light;fill:url(#g51)"/><path d="M7.1 18.2c-.9 2.6-2.6 3.3-3.9 1.7-1.3-1.5-1.6-4.9-.8-7.4.9-2.6 2.7-3.3 4-1.7s1.6 4.9.7 7.4" style="mix-blend-mode:hard-light;fill:url(#g52)"/></g><path d="m2.9 10.1.1 1s1.7-2.6 8.2-2.6c5.4 0 7.8 2.6 7.8 2.6l.1-1s-2.5-2.2-7.8-2.2c-6.5 0-8.4 2.2-8.4 2.2" style="fill:#010101"/><g style="mix-blend-mode:soft-light"><path id="&lt;Mesh&gt;" d="M4.7 9.8c1.2-.7 3.4-1.3 6.3-1.3v-.1c-2.9 0-5.1.6-6.4 1.3-.6.4-1 .7-1.3 1q-.1.1-.1.2-.1 0-.1.1l-.1.1h.1c-.1.1.3-.6 1.6-1.3m-1.6 1.3q.5 2.4 1.1 4.7.1 0 .1-.1zm.1.1-.1-.1 1.2 4.6q-.6-2.3-1.1-4.5m4.4 4.2q-.9 0-1.7.1-.4.1-.9.1-.2 0-.4.1h-.3q0 .1-.1.1.2 0 .4-.1H5q.5-.1.9-.1.8-.1 1.7-.2 1.7-.1 3.4-.1-1.7 0-3.4.1m0-.1q-.9.1-1.7.2-.4 0-.9.1h-.4q-.1.1-.3.1h.3q.2-.1.4-.1.5 0 .9-.1.8-.1 1.7-.1 1.7-.1 3.4-.1v-.1q-1.7 0-3.4.1m3.4-.1v.1zm6.4.4h-.5q-.4-.1-.8-.1-.9-.1-1.7-.2-1.7-.1-3.4-.1v.1q1.7 0 3.4.1.8 0 1.7.1.4.1.8.1.3 0 .5.1h.3q-.2 0-.3-.1m0 .1q-.2-.1-.5-.1-.4 0-.8-.1-.9-.1-1.7-.1-1.7-.1-3.4-.1 1.7 0 3.4.1.8.1 1.7.2.4 0 .8.1zq.1.1.3.1v-.1zm.3 0 1.2-4.6-.1.1q-.6 2.2-1.1 4.5m0 0v.1q.6-2.3 1.2-4.7zm-.4-5.9c1.3.7 1.6 1.4 1.6 1.3h.1l-.1-.1q0-.1-.1-.1l-.2-.2c-.2-.3-.6-.6-1.3-1-1.2-.7-3.4-1.3-6.3-1.3v.1c2.9 0 5 .6 6.3 1.3M3.2 11.1q0-.1.1-.2l.1-.1c.3-.3.7-.6 1.3-1C6 9.1 8.1 8.6 11 8.5c-2.9 0-5.1.6-6.3 1.3-1.3.7-1.7 1.4-1.6 1.3zm-.1 0H3l1.2 4.8v-.1q-.6-2.3-1.1-4.7m-.1 0h-.1l1.2 4.8h.1zm4.6 4.3q-.9.1-1.7.2-.4 0-.9.1h-.4q-.2.1-.4.1v.1q.2-.1.4-.1t.4-.1q.5 0 .9-.1.8 0 1.7-.1 1.7-.1 3.4-.1v-.1q-1.7 0-3.4.1m0 .1q-.9.1-1.7.1-.4.1-.9.1-.2.1-.4.1t-.4.1h-.1.5q.2-.1.5-.1.4-.1.8-.1.8-.1 1.7-.1 1.7-.2 3.4-.2-1.7 0-3.4.1m9.8.2h-.5q-.4-.1-.8-.1-.9-.1-1.7-.2-1.7-.1-3.4-.1v.1q1.7 0 3.4.1.8.1 1.7.1.4.1.8.1.2.1.4.1.3 0 .5.1 0-.1-.1-.1-.2 0-.3-.1m-.1.1q-.2 0-.4-.1-.4 0-.8-.1-.9 0-1.7-.1-1.7-.1-3.4-.1 1.7 0 3.4.2.8 0 1.7.1.4 0 .8.1.2 0 .4.1h.5q-.2-.1-.5-.1m.4 0q.1 0 .1.1l1.2-4.8h-.1q-.6 2.4-1.2 4.7m-.4-6c.6.4 1 .7 1.2 1q.1.1.2.1.1.1.1.2h.1c0 .1-.3-.6-1.6-1.3S13.9 8.5 11 8.5c2.9.1 5 .6 6.3 1.3m0 .1q.9.45 1.2.9l.2.2.1.1v.1l.1-.1h-.1q0-.1-.1-.2-.1 0-.2-.1c-.2-.3-.6-.6-1.2-1-1.3-.7-3.4-1.2-6.3-1.3v.1c2.9 0 5 .6 6.3 1.3M3.2 11.1q0-.1.1-.1l.2-.2q.3-.45 1.2-.9C6 9.2 8.1 8.6 11 8.6v-.1c-2.9.1-5 .6-6.3 1.3-.6.4-1 .7-1.3 1l-.1.1q-.1.1-.1.2h-.1l.1.1zm-.3 0q.6 2.4 1.2 4.9v-.1zm4.7 4.5q-.9 0-1.7.1-.4 0-.8.1-.3 0-.5.1h-.5v.1q.2 0 .3-.1h.7q.4-.1.8-.1.8-.1 1.7-.2 1.7-.1 3.4-.1v-.1q-1.7 0-3.4.2m-3.3.1q0 .1-.1.1.1 0 .1-.1m6.7-.4v.1zm6.5.6h-.2q-.2-.1-.4-.1-.4-.1-.8-.1-.9-.1-1.7-.1-1.7-.2-3.4-.2v.1q1.7 0 3.4.1.8.1 1.7.2.4 0 .8.1zq.2.1.4.1l-.1-.1zm.2-.1q.1 0 .1.1 0-.1-.1-.1m.1.1q.6-2.4 1.3-4.8H19zm0 0 .1.1q.6-2.5 1.2-4.9-.7 2.4-1.3 4.8M3.1 11q0-.1.1-.1 0-.1.1-.2c.3-.3.7-.6 1.3-1C5.9 9 8.1 8.4 11 8.4v-.1c-2.9.1-5.1.7-6.4 1.4-.6.3-1.1.7-1.3.9l-.2.2q0 .1-.1.2l-.1.1H3zm-.1.1h-.1zm.2.1-.1-.1zm1 4.7h-.1zm13.5-.2v.1zm1.1-4.6h.1zm.2 0h.1zm-1.7-1.4c.7.3 1.1.7 1.3 1l.2.2q.1 0 .1.1l.1.1h.1L19 11l-.2-.2q0-.1-.1-.2c-.3-.2-.7-.6-1.3-.9-1.3-.7-3.5-1.3-6.4-1.4v.1c2.9 0 5.1.6 6.3 1.3M3 11q.1-.1.1-.2l.2-.2c.3-.2.7-.6 1.3-.9C5.9 9 8.1 8.4 11 8.3c-2.9 0-5.1.6-6.4 1.3-.7.3-1.1.7-1.3 1l-.2.2-.1.1-.1.2zm.1.1H3zm1 4.8v.1zm.1-.1v.1zm6.8-.4v.1zm6.8.5.1.1zm1.1-4.8h.1zm-1.5-1.4c.6.3 1 .7 1.3.9q.1.1.1.2l.2.2.1.1-.1-.2-.1-.1-.2-.2c-.2-.3-.7-.7-1.3-1-1.3-.7-3.5-1.3-6.4-1.3 2.9.1 5.1.7 6.4 1.4" style="fill:url(#g53)"/></g><path d="M10.5 41.8c-1.2 0-4 0-5.1-.3l-.7 2c1.3.5 5.1.5 6.1.6z" style="mix-blend-mode:soft-light;fill:url(#g54)"/><path d="m19.4 24.3-1.4.4.1 15.7 1.3.4zm-.1.1v16.3l-1.1-.4-.2-15.6z" style="fill:url(#g55)"/><path d="M2.6 11.4v11.5l1.4.8s.1-5.2-.1-6.7c-.1-1.5-1.3-5.6-1.3-5.6m.1.5c.3 1.1 1 3.9 1.2 5.1.1 1.3.1 5.8 0 6.6l-1.3-.7z" style="fill:url(#g56)"/><path d="m2.5 24.3.1 16.5 1.3-.4.1-15.7zm.1.1 1.2.3-.1 15.6-1.1.4z" style="fill:url(#g57)"/><path d="M19.4 11.4s-1.2 4.1-1.3 5.6c-.2 1.5-.1 6.7-.1 6.7l1.4-.8zm-.1.5.1 11-1.3.7c-.1-.8-.1-5.3 0-6.6.2-1.2.9-4 1.2-5.1" style="fill:url(#g58)"/><path d="M2.2 24c0 5 0 9.1-.1 9.1 0 0-.1-4.1-.1-9.1s.1-9.1.1-9.1c.1 0 .1 4.1.1 9.1" style="mix-blend-mode:multiply;fill:url(#g59)"/><path d="M2.5 22.2c0 4.8 0 8.8-.1 8.8-.2 0-.2-4-.2-8.8 0-4.9 0-8.8.2-8.8.1 0 .1 3.9.1 8.8" style="mix-blend-mode:hard-light;fill:url(#g60)"/><path d="M19.8 24c0 5 0 9.1.1 9.1 0 0 .1-4.1.1-9.1s-.1-9.1-.1-9.1c-.1 0-.1 4.1-.1 9.1" style="mix-blend-mode:multiply;fill:url(#g61)"/><path d="M19.4 22.2c0 4.8.1 8.8.2 8.8s.2-4 .2-8.8c0-4.9-.1-8.8-.2-8.8s-.2 3.9-.2 8.8" style="mix-blend-mode:hard-light;fill:url(#g62)"/><g style="mix-blend-mode:soft-light"><path d="M13.8 41.9q.7 0 1.4-.1h.7q.1-.1.3-.1h.2l.1-.1h-.1q-.1.1-.2.1h-.3q-.4.1-.7.1-.7 0-1.4.1H11v.1q1.4 0 2.8-.1m3.3 1.5h.1q-.4-.9-.7-1.8l-.1.1q.4.8.7 1.7M11 42v-.1zm-5.2-.3q.1 0 .3.1h.7q.7.1 1.4.1 1.4.1 2.8.1v-.1H8.2q-.7-.1-1.4-.1-.3 0-.7-.1zq-.1 0-.2-.1h-.1v.1zm-.2-.1q.1.1.2.1h.3q.4.1.7.1.7 0 1.4.1H11q-1.4 0-2.8-.1-.7 0-1.4-.1h-.7q-.1-.1-.3-.1h-.3zm-.1.1v-.1q-.3.9-.7 1.8h.1q.3-.9.6-1.7m0-.1-.8 1.8h.1q.4-.9.7-1.8m2.3 2.2q-.8-.1-1.5-.2-.4 0-.8-.1-.2 0-.4-.1h-.3.1q.1.1.2.1.2 0 .4.1.4 0 .8.1.7.1 1.5.1l3.2.2v-.1q-1.6 0-3.2-.1m3.2.1v.1zm6.1-.5h-.2q-.2.1-.4.1-.4.1-.8.1l-1.6.2q-1.5.1-3.1.1v.1l3.2-.2q.7 0 1.5-.1.4-.1.8-.1.2-.1.4-.1.1 0 .2-.1h.1zm.1 0q-.3-.9-.7-1.8.3.9.7 1.8m-3.4-1.5q.7-.1 1.4-.1.3 0 .7-.1h.3q.1 0 .2-.1h.1-.3q-.2 0-.4.1h-.6q-.7.1-1.4.1-1.4.1-2.8.1zm0-.1q.7 0 1.4-.1h.6q.2-.1.4-.1h.3v-.1c-.9.2-1.8.2-2.7.3H11v.1q1.4 0 2.8-.1m0 0c.9-.1 1.8-.1 2.7-.3q-.2 0-.3.1h-.4q-.3 0-.7.1-.6 0-1.3.1H11zm0 0q.7-.1 1.3-.1.4-.1.7-.1h.4q.1-.1.3-.1.1 0 .1-.1c-.2.1-.3.1-.4.1h-.4q-.3.1-.7.1-.6.1-1.3.1-1.4.1-2.8.1zm-8-.2q.2 0 .3.1h.7q.7.1 1.4.1 1.4.1 2.8.1v-.1H8.2c-.9-.1-1.8-.1-2.7-.3v.1zm2.4.2H11zq-.7-.1-1.4-.1-.3-.1-.7-.1h-.3q-.2-.1-.4-.1h.1c.9.2 1.8.2 2.7.3m-2.7-.2q0-.1-.1-.1-.3 1-.7 2v-.1zm-.1-.1q-.4 1-.7 2 .4-1 .7-2m2.4 2.3q-.8 0-1.5-.1-.4-.1-.8-.1-.2-.1-.4-.1-.1 0-.2-.1h-.2c.1.1.3.1.4.1q.2.1.4.1.4.1.7.1l1.6.2q1.6.1 3.2.1zm9.3-.4q-.1.1-.2.1-.2 0-.4.1-.4 0-.8.1-.8.1-1.5.1L11 44q1.6 0 3.2-.1.7-.1 1.5-.2.4 0 .8-.1.2 0 .4-.1c.1 0 .3 0 .3-.1zm.1 0 .1.1-.8-2v.1q.4.9.7 1.8m.1.1-.8-2zm-3.5-1.8q.7 0 1.3-.1.4 0 .7-.1h.4c.1 0 .2 0 .4-.1h-.4q-.2.1-.4.1-.3 0-.7.1h-1.3q-1.4.1-2.8.1v.1q1.4 0 2.8-.1m2.7-.1v-.1zm-.1.1.1-.1zm-5.4.2v-.1zm-5.2-.3h.3q.4 0 .7.1.7 0 1.4.1H11q-1.4 0-2.8-.1-.7 0-1.4-.1-.3 0-.7-.1h-.3c-.1 0-.2 0-.4-.1v.1q.2 0 .4.1m0-.1h.3q.4.1.7.1.7.1 1.4.1 1.4.1 2.8.1v-.1q-1.4 0-2.8-.1H6.8q-.3-.1-.6-.1-.2 0-.4-.1h-.4c.2.1.3.1.4.1m-.4 0v-.1q-.4 1.1-.8 2.1h.1q.3-1 .7-2m0-.1q-.5 1.1-.9 2.2l.1-.1q.4-1 .8-2.1m2.4 2.5-1.6-.2q-.3 0-.7-.1-.2 0-.4-.1c-.1 0-.3 0-.4-.1v.1l1.5.3q.8.1 1.6.1l3.2.2V44q-1.6 0-3.2-.1m3.2.1v.1zm5.9-.5q-.2.1-.4.1-.4.1-.8.1-.8.1-1.5.2-1.6.1-3.2.1v.1l3.2-.2q.7 0 1.5-.1c.6-.1 1.1-.2 1.6-.3l-.1-.1c0 .1-.2.1-.3.1m.4 0h.1q-.4-1-.8-2.1 0 .1-.1.1zm.1 0 .1.1q-.5-1.1-.9-2.2.4 1.1.8 2.1m-.9-1.9v-.1zM4.8 43.4h-.1zm3 .5q-.8 0-1.6-.1l-1.5-.3q.2.1.4.1t.4.1q.3.1.7.1l1.6.2q1.6.1 3.2.1zm7.9-.1q-.8.1-1.5.1l-3.2.2q1.6 0 3.2-.1.7-.1 1.5-.2.4 0 .8-.1.2-.1.4-.1t.4-.1c-.5.1-1 .2-1.6.3m1.4-.4h.1zm-.6-1.9q.1 0 .1-.1 0 .1-.1.1m-.1.2.1-.1zm-10.9 0v-.1zm-.1-.2v-.1zm-.5 1.9h-.1zm-.2.1h-.1zm3.1.5-1.6-.2q-.4 0-.7-.1-.2-.1-.4-.1t-.4-.1h-.1q.1.1.3.1.1 0 .1.1h.4l.8.2q.8.1 1.6.1 1.6.1 3.2.1-1.6 0-3.2-.1m9.1-.4q-.2 0-.4.1-.4.1-.8.1-.8.1-1.5.2-1.6.1-3.2.1 1.6 0 3.2-.1.8 0 1.5-.1l.8-.2h.4q.1-.1.2-.1.2 0 .3-.1h-.1q-.2.1-.4.1m.4-.1h.1zm-.1-.1.1.1zm-.7-1.9q.1 0 .1-.1 0 .1-.1.1m-5.5.3v-.1zm-5.5-.2q0-.1-.1-.1.1 0 .1.1m-.8 1.8v.1zm-.1.1-.1.1zm3.2.5q-.8 0-1.6-.1l-.8-.2H5q0-.1-.1-.1-.2 0-.3-.1l-.1.1q.2 0 .3.1H5q.2.1.4.1.4.1.8.1l1.6.2q1.6.1 3.2.1v-.1q-1.6 0-3.2-.1m3.2.1v.1zm6.1-.5q-.1 0-.2.1h-.4l-.8.2q-.7.1-1.5.1-1.6.1-3.2.1v.1q1.6 0 3.2-.1l1.6-.2q.3 0 .7-.1.2 0 .4-.1h.2q.2-.1.4-.1l-.1-.1q-.1.1-.3.1m.3-.1.1.1zm-.8-2.1" style="fill:url(#g63)"/></g><path d="M11.8 39.8c0 .3-.2.5-.5.5s-.5-.2-.5-.5.2-.5.5-.5.5.2.5.5" style="fill:url(#g64)"/><path d="M11.3 40.5c-.1 0-.2-.1-.2-.3v-.3c0-.2.1-.3.2-.3q.3 0 .3.3v.3q0 .3-.3.3" style="fill:url(#g65)"/><path d="M11.6 40.2q0 .3-.3.3c-.1 0-.2-.1-.2-.3 0-.1.1-.2.2-.2.2 0 .3.1.3.2" style="fill:url(#g66)"/><path d="M11.3 43.5v-3.3q.1 0 .1.1v3.1q0 .1-.1.1" style="fill:url(#g67)"/><path d="M19.9 19.3q.2.2.2 1.2c0 .6-.1 1.4-.3 1.4v-.8h.1s.1-.3.1-.6c0-.4-.1-.7-.1-.7h-.1z" style="fill:url(#g68)"/><path d="M19.9 19.8s.1.3.1.7c0 .3-.1.6-.1.6z" class="s115"/><path d="M2 19.3q-.2.2-.2 1.2c0 .6.1 1.4.3 1.4v-.8H2s-.1-.3-.1-.6c0-.4.1-.7.1-.7h.1z" style="fill:url(#g69)"/><path d="M2 19.8s-.1.3-.1.7c0 .3.1.6.1.6z" class="s115"/><path d="M6.9 8.5h-.1l2.1-.1v.1z" style="fill:url(#g70)"/><path d="M6 9.1q-.1 0-.1-.1v-.1s1.6-.4 2.9-.5c1.5-.2 2.9-.1 2.9-.1h.1l-.1.1s-1.4 0-2.9.1c-1.3.2-2.8.6-2.8.6" style="fill:url(#g71)"/><path d="m9.1 8.5-.5.1-.1-.2h.6z" style="fill:url(#g72)"/><path d="m5.5 8.7 1.4-.2v-.1l-.7.1z" class="s120"/><path d="m15.8 8.9-1.9-.6v-.1l1.9.6z" style="fill:url(#g73)"/><path d="M18.4 9.8h-.1s-1.2-.5-2.6-.9c-1.3-.3-3-.4-3-.4l-.1-.1q0-.1.1-.1s1.8.2 3 .5c1.5.4 2.7.9 2.7.9z" style="fill:url(#g74)"/><path d="m15.9 9-.5-.1.1-.2.5.2z" style="fill:url(#g75)"/><path d="m12.4 7.9 1.6.4v-.1l-.6-.2z" class="s120"/><path d="M2.9 10.1q.4-.4.8-.7.3-.1.5-.2.2-.2.5-.3 1-.4 2-.6c1.4-.4 2.9-.5 4.3-.5s2.9.1 4.3.5q1 .2 2 .6.2.1.5.3l.4.2q.5.3.9.7-.4-.4-.9-.6-.2-.2-.4-.3-.3-.1-.5-.2-1-.4-2.1-.6c-1.4-.4-2.8-.5-4.2-.5s-2.9.1-4.3.5q-1 .2-2 .6-.2.1-.5.2-.2.1-.5.3-.4.2-.8.6" class="s61"/><path d="M11.6.2c0 .1-.2.2-.6.2-.3 0-.6-.1-.6-.2 0 0 .3-.1.6-.1.4 0 .6.1.6.1" style="fill:url(#g76)"/><path d="m10.6.2.4.2h.1l.3-.2-.2-.1-.2.2-.2-.2z" style="fill:url(#g77)"/></g></g></svg>