<svg version="1.2" xmlns="http://www.w3.org/2000/svg" viewBox="-14 26 550 800" width="550" height="800"><defs><linearGradient id="P" gradientUnits="userSpaceOnUse"/><linearGradient id="g1" x2="1" href="#P" gradientTransform="matrix(0,-405.356,571.457,0,-31.529,483.549)"><stop stop-color="#808080"/><stop offset=".06" stop-color="#9d9ba5"/><stop offset="1" stop-color="#808080"/></linearGradient><linearGradient id="g2" x2="1" href="#P" gradientTransform="matrix(0,-193.166,77.409,0,218.31,507.402)"><stop stop-color="#acacac"/><stop offset="1" stop-color="#fff"/></linearGradient><linearGradient id="g3" x2="1" href="#P" gradientTransform="matrix(0,189.599,-94.499,0,329.452,503.822)"><stop stop-color="#acacac"/><stop offset="1" stop-color="#fff"/></linearGradient><linearGradient id="g4" x2="1" href="#P" gradientTransform="matrix(36.041,0,0,437.299,13.423,52.305)"><stop stop-color="#acacac"/><stop offset="1" stop-color="#fff"/></linearGradient><linearGradient id="g5" x2="1" href="#P" gradientTransform="matrix(35.541,0,0,436.371,466.052,52.757)"><stop stop-color="#fff"/><stop offset="1" stop-color="#acacac"/></linearGradient><linearGradient id="g6" x2="1" href="#P" gradientTransform="matrix(0,76.279,-14.536,0,260.656,497.865)"><stop stop-color="#c7c7c7"/><stop offset="1" stop-color="#fff"/></linearGradient><radialGradient id="g7" cx="0" cy="0" r="1" href="#P" gradientTransform="matrix(37.974,-0.951,4.265,171.811,57.129,284.559)"><stop stop-color="#f2f4f3"/><stop offset="1" stop-color="#808080"/></radialGradient><radialGradient id="g8" cx="0" cy="0" r="1" href="#P" gradientTransform="matrix(32.645,-0.805,4.267,171.856,463.017,274.489)"><stop stop-color="#f2f4f3"/><stop offset="1" stop-color="#808080"/></radialGradient><radialGradient id="g9" cx="0" cy="0" r="1" href="#P" gradientTransform="matrix(206.609,-5.774,6.865,215.142,255.219,254.459)"><stop stop-color="#dee0df"/><stop offset="1" stop-color="#808080"/></radialGradient><radialGradient id="g10" cx="0" cy="0" r="1" href="#P" gradientTransform="matrix(232.629,-5.776,3.749,150.995,257.003,670.787)"><stop stop-color="#dee0df"/><stop offset="1" stop-color="#808080"/></radialGradient><linearGradient id="g11" x2="1" href="#P" gradientTransform="matrix(118.086,-32.701,63.476,229.219,356.129,449.891)"><stop stop-color="#808080"/><stop offset=".08" stop-color="#6f6f6f"/><stop offset="1" stop-color="#c7c2b8"/></linearGradient><linearGradient id="g12" x2="1" href="#P" gradientTransform="matrix(152.447,36.379,-60.717,254.433,18.686,426.52)"><stop stop-color="#c7c2b8"/><stop offset=".92" stop-color="#6f6f6f"/><stop offset="1" stop-color="#808080"/></linearGradient><linearGradient id="g13" x2="1" href="#P" gradientTransform="matrix(-2.095,.428,-0.409,-1.999,127.116,85.584)"><stop stop-color="#fff"/><stop offset="1"/></linearGradient><linearGradient id="g14" x2="1" href="#P" gradientTransform="matrix(-2.095,-0.476,.366,-1.612,123.021,484.938)"><stop stop-color="#fff"/><stop offset="1"/></linearGradient><linearGradient id="g15" x2="1" href="#P" gradientTransform="matrix(-0.476,2.071,-7.75,-1.781,86.171,638.742)"><stop stop-color="#fff"/><stop offset="1"/></linearGradient><linearGradient id="g16" x2="1" href="#P" gradientTransform="matrix(-0.5,2.071,-7.392,-1.784,94.17,600.154)"><stop stop-color="#fff"/><stop offset="1"/></linearGradient><linearGradient id="g17" x2="1" href="#P" gradientTransform="matrix(-0.524,2.071,-7.065,-1.787,101.406,568.065)"><stop stop-color="#fff"/><stop offset="1"/></linearGradient><linearGradient id="g18" x2="1" href="#P" gradientTransform="matrix(-0.548,2.071,-6.762,-1.788,107.762,543.022)"><stop stop-color="#fff"/><stop offset="1"/></linearGradient><linearGradient id="g19" x2="1" href="#P" gradientTransform="matrix(-0.571,2.047,-6.354,-1.773,112.142,514.218)"><stop stop-color="#fff"/><stop offset="1"/></linearGradient><linearGradient id="g20" x2="1" href="#P" gradientTransform="matrix(0,-109.791,22.871,0,247.69,829.224)"><stop stop-color="#525252"/><stop offset="1" stop-color="#fff"/></linearGradient><linearGradient id="g21" x2="1" href="#P" gradientTransform="matrix(-0.5,-0.952,1.558,-0.818,161.99,687.424)"><stop/><stop offset="1" stop-color="#fff"/></linearGradient><linearGradient id="g22" x2="1" href="#P" gradientTransform="matrix(0,-47.777,8.829,0,260.491,727.32)"><stop stop-color="#c7c2b8"/><stop offset=".92" stop-color="#6f6f6f"/><stop offset="1" stop-color="#808080"/></linearGradient></defs><style>.a{fill:#90542d}.b{fill:#fff}.c{fill:#fdfdfd}.d{fill:#fbfbfb}.e{fill:#f9f9f8}.f{fill:#f7f7f6}.g{fill:#f5f5f4}.h{fill:#f3f3f2}.i{fill:#f1f1f0}.j{fill:#efefed}.k{fill:#ededeb}.l{fill:#ebebe9}.m{fill:#eae9e7}.n{fill:#e8e7e5}.o{fill:#e6e5e3}.p{fill:#e4e3e0}.q{fill:#e2e1de}.r{fill:#e0dfdc}.s{fill:#deddda}.t{fill:#dcdbd8}.u{fill:#dad9d5}.v{fill:#d8d7d3}.w{fill:#d6d5d1}.x{mix-blend-mode:soft-light;fill:url(#g1)}.y{mix-blend-mode:multiply;fill:url(#g2)}.z{mix-blend-mode:multiply;fill:url(#g3)}.A{mix-blend-mode:multiply;fill:url(#g4)}.B{mix-blend-mode:multiply;fill:url(#g5)}.C{mix-blend-mode:multiply;fill:url(#g6)}.D{opacity:.5;mix-blend-mode:soft-light;fill:url(#g7)}.E{opacity:.5;mix-blend-mode:soft-light;fill:url(#g8)}.F{mix-blend-mode:soft-light;fill:url(#g9)}.G{mix-blend-mode:soft-light;fill:url(#g10)}.H{opacity:.5;mix-blend-mode:soft-light;fill:url(#g11)}.I{opacity:.5;mix-blend-mode:soft-light;fill:url(#g12)}.J{fill:url(#g13)}.K{fill:url(#g14)}.L{fill:url(#g15)}.M{fill:url(#g16)}.N{fill:url(#g17)}.O{fill:url(#g18)}.P{fill:url(#g19)}.Q{fill:#808080}.R{fill:#838383}.S{fill:#858585}.T{fill:#888}.U{fill:#8a8a8a}.V{fill:#8d8d8d}.W{fill:#909090}.X{fill:#929292}.Y{fill:#959595}.Z{fill:#989898}.a0{fill:#9a9a9a}.a1{fill:#9d9d9d}.a2{fill:#9f9f9f}.a3{fill:#a2a2a2}.a4{fill:#a5a5a5}.a5{fill:#a7a7a7}.a6{fill:#aaa}.a7{fill:#adadad}.a8{fill:#afafaf}.a9{fill:#b2b2b2}.aa{fill:#b4b4b4}.ab{fill:#b7b7b7}.ac{fill:#92562e}.ad{fill:#935830}.ae{fill:#955a31}.af{fill:#975b33}.ag{fill:#985d34}.ah{fill:#9a5f36}.ai{fill:#9c6137}.aj{fill:#9d6339}.ak{fill:#9f653a}.al{fill:#a1673c}.am{fill:#a2683d}.an{fill:#a46a3f}.ao{fill:#a66c40}.ap{fill:#a76e42}.aq{fill:#a97043}.ar{fill:#ab7245}.as{fill:#ac7446}.at{fill:#ae7548}.au{fill:#b07749}.av{fill:#b1794b}.aw{fill:#b37b4c}.ax{mix-blend-mode:multiply;fill:url(#g20)}.ay{fill:url(#g21)}.az{opacity:.5;mix-blend-mode:soft-light;fill:url(#g22)}</style><path class="a" d="m119 515.9h277c58.3 0 105.6-47.3 105.6-105.6v-278.7c0-58.3-47.3-105.6-105.6-105.6h-277c-58.3 0-105.6 47.3-105.6 105.6v278.7c0 58.3 47.3 105.6 105.6 105.6z"/><g style="mix-blend-mode:multiply"><path class="b" d="m149.6 58.5c4.9 3.4-13.5 115.3-12.9 223.5 0.5 103.4-5.4 206-8.4 207.5-6.2 3.1-56.8-13.4-62.4-49.6-5.6-36.2-2.5-324.8 3.2-344.2 6.2-21.3 70.2-44.2 80.5-37.2z"/><path class="c" d="m148.3 59.7c4.8 3.3-12.9 114.6-12.3 222.2 0.5 102.8-5 204.9-7.9 206.4-6 3.1-55-13.3-60.4-49.4-5.4-36-2.4-323.1 3.1-342.4 6-21.2 67.5-43.8 77.5-36.8z"/><path class="d" d="m147 60.8c4.6 3.3-12.2 114-11.7 221.1 0.5 102.2-4.6 203.6-7.4 205.1-5.8 3.1-53.2-13.2-58.4-49.1-5.3-35.8-2.3-321.4 3-340.6 5.8-21 64.9-43.5 74.5-36.5z"/><path class="e" d="m145.8 61.9c4.4 3.3-11.7 113.4-11.2 220 0.5 101.7-4.2 202.4-6.9 203.9-5.6 3-51.3-13.2-56.4-48.8-5.1-35.7-2.2-319.8 2.9-338.9 5.6-20.9 62.2-43.1 71.6-36.2z"/><path class="f" d="m144.5 63c4.3 3.3-11 112.8-10.5 218.8 0.4 101.1-3.9 201.3-6.5 202.8-5.4 3-49.5-13.1-54.4-48.6-4.9-35.5-2.2-318 2.8-337.1 5.4-20.8 59.6-42.8 68.6-35.9z"/><path class="g" d="m143.2 64.1c4.1 3.3-10.4 112.2-9.9 217.7 0.4 100.5-3.5 200-6 201.5-5.2 3-47.7-13-52.4-48.3-4.7-35.3-2.1-316.3 2.7-335.3 5.2-20.7 56.9-42.4 65.6-35.6z"/><path class="h" d="m141.9 65.3c4 3.2-9.7 111.5-9.3 216.5 0.4 99.9-3.1 198.8-5.5 200.3-5 3-45.9-13-50.4-48.1-4.6-35.1-2-314.6 2.6-333.5 5-20.5 54.3-42 62.6-35.2z"/><path class="i" d="m140.6 66.4c3.8 3.2-9.1 110.9-8.7 215.3 0.5 99.4-2.7 197.7-5 199.1-4.8 3-44.1-12.9-48.4-47.8-4.4-34.9-1.9-312.9 2.5-331.7 4.8-20.4 51.6-41.7 59.6-34.9z"/><path class="j" d="m139.4 67.5c3.6 3.2-8.5 110.3-8.1 214.2 0.4 98.8-2.4 196.5-4.6 197.9-4.6 3-42.3-12.8-46.4-47.5-4.2-34.7-1.9-311.3 2.3-329.9 4.7-20.4 49.1-41.4 56.8-34.7z"/><path class="k" d="m138.1 68.6c3.5 3.2-7.9 109.7-7.5 213 0.4 98.3-2 195.3-4.1 196.8-4.4 2.9-40.4-12.8-44.4-47.3-4-34.6-1.8-309.6 2.2-328.1 4.5-20.3 46.4-41.1 53.8-34.4z"/><path class="l" d="m136.8 69.8c3.3 3.1-7.2 109-6.9 211.8 0.4 97.7-1.6 194.1-3.6 195.5-4.2 3-38.6-12.7-42.4-47-3.8-34.3-1.7-307.9 2.1-326.3 4.2-20.2 43.8-40.7 50.8-34z"/><path class="m" d="m135.5 70.9c3.2 3.1-6.6 108.4-6.2 210.7 0.3 97.1-1.3 192.9-3.2 194.3-4 2.9-36.8-12.6-40.5-46.8-3.6-34.1-1.5-306.2 2.1-324.5 4-20 41.1-40.3 47.8-33.7z"/><path class="n" d="m134.2 72c3.1 3.1-5.9 107.8-5.6 209.5 0.3 96.6-0.9 191.7-2.7 193.1-3.8 2.9-35-12.5-38.4-46.5-3.5-33.9-1.6-304.5 1.9-322.7 3.8-19.9 38.5-40 44.8-33.4z"/><path class="o" d="m132.9 73.1c2.9 3.1-5.3 107.2-5 208.4 0.3 96-0.5 190.5-2.2 191.9-3.6 2.9-33.2-12.5-36.5-46.2-3.2-33.8-1.4-302.9 1.9-321 3.6-19.8 35.8-39.6 41.8-33.1z"/><path class="p" d="m131.7 74.2c2.7 3.1-4.8 106.6-4.5 207.3 0.3 95.4-0.1 189.3-1.7 190.7-3.4 2.8-31.4-12.4-34.4-46-3.1-33.6-1.4-301.1 1.7-319.2 3.4-19.7 33.2-39.3 38.9-32.8z"/><path class="q" d="m130.4 75.3c2.6 3.1-4.1 106-3.8 206.1 0.2 94.9 0.3 188.1-1.3 189.5-3.2 2.9-29.6-12.3-32.5-45.7-2.9-33.4-1.2-299.5 1.7-317.4 3.2-19.5 30.5-38.9 35.9-32.5z"/><path class="r" d="m129.1 76.5c2.4 3.1-3.5 105.3-3.2 204.9 0.2 94.3 0.7 186.9-0.8 188.3-3 2.8-27.7-12.3-30.5-45.5-2.7-33.2-1.2-297.7 1.6-315.6 3-19.4 27.9-38.6 32.9-32.1z"/><path class="s" d="m127.8 77.6c2.3 3.1-2.8 104.7-2.6 203.8 0.2 93.7 1.1 185.7-0.3 187-2.8 2.9-25.9-12.1-28.5-45.2-2.5-33-1.1-296 1.5-313.8 2.8-19.3 25.2-38.2 29.9-31.8z"/><path class="t" d="m126.5 78.7c2.1 3.1-2.2 104.1-2 202.6 0.3 93.2 1.5 184.5 0.2 185.9-2.6 2.8-24.1-12.1-26.5-44.9-2.4-32.9-1-294.4 1.4-312.1 2.6-19.2 22.6-37.9 26.9-31.5z"/><path class="u" d="m125.3 79.8c1.9 3.1-1.6 103.5-1.4 201.5 0.2 92.6 1.8 183.3 0.6 184.7-2.4 2.8-22.3-12.1-24.5-44.7-2.2-32.7-1-292.7 1.3-310.2 2.4-19.2 19.9-37.6 24-31.3z"/><path class="v" d="m124 81c1.8 3-1 102.8-0.8 200.3 0.2 92 2.2 182.1 1.1 183.4-2.2 2.8-20.5-12-22.5-44.4-2-32.5-0.9-291 1.2-308.4 2.2-19.1 17.3-37.2 21-30.9z"/><path class="w" d="m122.7 82.1c1.6 3-0.3 102.2-0.2 199.1 0.2 91.5 2.6 181 1.6 182.3-2 2.8-18.6-11.9-20.5-44.2-1.8-32.2-0.8-289.3 1.1-306.6 2-18.9 14.6-36.9 18-30.6z"/></g><g style="mix-blend-mode:multiply"><path class="b" d="m372.5 59.9c-4.9 3.3 13.6 113.9 13.1 222.1-0.5 103.4 5 206 8 207.5 6.2 3.1 56.8-13.4 62.4-49.6 5.6-36.2 2.5-324.8-3.2-344.2-6.2-21.3-70-42.8-80.3-35.8z"/><path class="c" d="m373.8 60.9c-4.8 3.4 13 113.4 12.5 221-0.5 102.8 4.6 204.9 7.5 206.4 6 3.1 55-13.3 60.4-49.4 5.4-36 2.4-323.1-3.1-342.4-6-21.2-67.3-42.5-77.3-35.6z"/><path class="d" d="m375 62c-4.6 3.3 12.4 112.8 11.9 219.9-0.5 102.2 4.3 203.6 7.1 205.1 5.8 3.1 53.2-13.2 58.4-49.1 5.2-35.8 2.3-321.4-3-340.6-5.8-21-64.7-42.3-74.4-35.3z"/><path class="e" d="m376.3 63.1c-4.4 3.2 11.8 112.2 11.3 218.8-0.5 101.7 3.9 202.4 6.6 203.9 5.6 3 51.4-13.2 56.4-48.8 5.1-35.7 2.2-319.8-2.9-338.9-5.6-20.9-62.1-42-71.4-35z"/><path class="f" d="m377.6 64.1c-4.3 3.3 11.1 111.7 10.6 217.7-0.4 101.1 3.6 201.3 6.2 202.8 5.4 3 49.5-13.1 54.4-48.6 4.9-35.5 2.2-318-2.8-337.1-5.4-20.8-59.4-41.7-68.4-34.8z"/><path class="g" d="m378.9 65.2c-4.2 3.2 10.4 111.1 10 216.6-0.5 100.5 3.2 200 5.7 201.5 5.2 3 47.7-13 52.4-48.3 4.7-35.3 2.1-316.3-2.7-335.3-5.2-20.7-56.8-41.4-65.4-34.5z"/><path class="h" d="m380.1 66.2c-4 3.3 9.9 110.6 9.4 215.6-0.4 99.9 2.9 198.8 5.3 200.3 5 3 45.9-13 50.4-48.1 4.5-35.1 2-314.6-2.6-333.5-5-20.5-54.1-41.1-62.5-34.3z"/><path class="i" d="m381.4 67.3c-3.8 3.2 9.2 110 8.8 214.4-0.4 99.4 2.5 197.7 4.8 199.1 4.8 3 44.1-12.9 48.4-47.8 4.4-34.9 1.9-312.9-2.5-331.7-4.8-20.4-51.5-40.8-59.5-34z"/><path class="j" d="m382.7 68.3c-3.7 3.3 8.6 109.5 8.2 213.4-0.4 98.8 2.1 196.5 4.3 197.9 4.6 3 42.3-12.8 46.4-47.5 4.2-34.7 1.9-311.3-2.4-329.9-4.6-20.4-48.8-40.6-56.5-33.9z"/><path class="k" d="m383.9 69.4c-3.5 3.2 8 108.9 7.6 212.2-0.4 98.3 1.8 195.3 3.9 196.8 4.4 2.9 40.4-12.8 44.4-47.3 4-34.6 1.8-309.6-2.2-328.1-4.5-20.3-46.3-40.3-53.7-33.6z"/><path class="l" d="m385.2 70.4c-3.3 3.2 7.3 108.4 7 211.2-0.4 97.7 1.4 194.1 3.4 195.5 4.2 3 38.6-12.7 42.4-47 3.8-34.3 1.7-307.9-2.1-326.3-4.2-20.2-43.7-40-50.7-33.4z"/><path class="m" d="m386.5 71.5c-3.2 3.2 6.7 107.8 6.3 210.1-0.3 97.1 1.1 192.9 3 194.3 4 2.9 36.8-12.6 40.4-46.8 3.7-34.1 1.6-306.2-2-324.5-4-20-41-39.7-47.7-33.1z"/><path class="n" d="m387.7 72.6c-3 3.1 6.1 107.2 5.8 208.9-0.4 96.6 0.7 191.7 2.5 193.1 3.8 2.9 35-12.5 38.4-46.5 3.5-33.9 1.6-304.5-1.9-322.7-3.8-19.9-38.4-39.4-44.8-32.8z"/><path class="o" d="m389 73.6c-2.9 3.2 5.4 106.7 5.1 207.9-0.3 96 0.3 190.5 2.1 191.9 3.6 2.9 33.2-12.5 36.5-46.2 3.2-33.8 1.4-302.9-1.9-321-3.6-19.8-35.8-39.1-41.8-32.6z"/><path class="p" d="m390.3 74.7c-2.7 3.1 4.8 106.1 4.5 206.8-0.3 95.4 0 189.3 1.6 190.7 3.4 2.8 31.4-12.4 34.4-46 3.1-33.6 1.4-301.1-1.7-319.2-3.4-19.7-33.1-38.8-38.8-32.3z"/><path class="q" d="m391.5 75.7c-2.5 3.1 4.2 105.6 3.9 205.7-0.2 94.9-0.4 188.1 1.2 189.5 3.2 2.9 29.6-12.3 32.5-45.7 2.9-33.4 1.2-299.5-1.7-317.4-3.2-19.5-30.5-38.5-35.9-32.1z"/><path class="r" d="m392.8 76.8c-2.4 3.1 3.6 105 3.3 204.6-0.3 94.3-0.8 186.9 0.7 188.3 3 2.8 27.7-12.3 30.5-45.5 2.7-33.2 1.2-297.7-1.6-315.6-3-19.4-27.8-38.3-32.9-31.8z"/><path class="s" d="m394.1 77.8c-2.2 3.1 2.9 104.5 2.6 203.6-0.2 93.7-1.1 185.7 0.3 187 2.8 2.9 25.9-12.1 28.5-45.2 2.5-33 1.1-296-1.5-313.8-2.8-19.3-25.2-38-29.9-31.6z"/><path class="t" d="m395.4 78.9c-2.1 3.1 2.2 103.9 2 202.4-0.2 93.2-1.5 184.5-0.2 185.9 2.6 2.8 24.1-12.1 26.5-44.9 2.4-32.9 1-294.4-1.4-312.1-2.6-19.2-22.5-37.7-26.9-31.3z"/><path class="u" d="m396.6 80c-1.9 3 1.7 103.3 1.4 201.3-0.1 92.6-1.8 183.3-0.6 184.7 2.4 2.8 22.3-12.1 24.5-44.7 2.2-32.7 0.9-292.7-1.3-310.2-2.4-19.2-19.9-37.5-24-31.1z"/><path class="v" d="m397.9 81c-1.8 3 1 102.8 0.8 200.3-0.2 92-2.2 182.1-1.1 183.4 2.2 2.8 20.5-12 22.5-44.4 2-32.5 0.9-291-1.2-308.4-2.2-19.1-17.3-37.2-21-30.9z"/><path class="w" d="m399.2 82.1c-1.6 3 0.3 102.2 0.2 199.1-0.2 91.5-2.6 180.9-1.6 182.3 2 2.8 18.6-11.9 20.5-44.2 1.8-32.2 0.8-289.3-1.1-306.6-2-18.9-14.6-36.9-18-30.6z"/></g><path class="x" d="m408.3 74.4h-294.5l14.5 415.1h269.3z"/><path class="y" d="m13.4 320.3v90c0 58.3 47.3 105.6 105.6 105.6h277c58.3 0 105.6-47.3 105.6-105.6v-90z"/><path class="a" d="m259.3 500.2c-122.6 0-211.5-49.8-251.5-0.9-36.8 44.9-29.3 243.3 40 290.2 69.3 46.9 371.5 54.7 433.7-13.7 62.2-68.4 78.2-251 12.4-287.7-65.8-36.7-112 12.1-234.6 12.1z"/><path class="z" d="m15 748.7l497.5-24.7c31.2-75.5 33.9-184.6-5.7-225.8-4.2-3.6-7.7-6.6-10.3-8.4-0.9-0.6-1.7-1.2-2.6-1.7-12.3-6.9-24-10.8-35.6-12.5-50.2-7.6-99.4 24.6-199 24.6-84.3 0-152.7-23.5-200.1-22.4-21.6 0.6-38.9 6.2-51.4 21.5-29.8 36.4-30.6 173.7 7.2 249.4z"/><path class="a" d="m245.8 498.6c-110.7 0-178.3-38.4-214.4-9.5-33.1 26.7-39 153.1 23.6 180.9 62.5 27.8 335.1 32.5 391.2-8.1 56.2-40.5 72.1-156.8 12.7-178.6-59.3-21.7-102.5 15.3-213.1 15.3z"/><path class="A" d="m49.5 52.3c-22.1 19.4-36.1 47.7-36.1 79.3v278.7c0 31.6 14 59.9 36.1 79.3z"/><path class="B" d="m466.1 52.8v436.3c21.7-19.3 35.5-47.4 35.5-78.8v-278.7c0-31.4-13.8-59.5-35.5-78.8z"/><path class="C" d="m458.9 483.3c-59.3-21.7-102.5 15.3-213.1 15.3-110.7 0-178.3-38.4-214.4-9.5-15.2 12.2-24.5 45.5-24.3 80.6h488.2c4.8-38.4-5.6-75.1-36.4-86.4z"/><path class="D" d="m95.1 283.6c2.4 94.9-12.7 172.3-33.7 172.8-21 0.5-39.9-76-42.2-170.9-2.4-94.9 12.7-172.3 33.7-172.8 20.9-0.5 39.8 76 42.2 170.9z"/><path class="E" d="m495.7 273.7c2.3 94.9-10.4 172.2-28.4 172.6-18.1 0.5-34.6-76.1-36.9-171-2.4-94.9 10.3-172.2 28.4-172.6 18-0.5 34.5 76.1 36.9 171z"/><path class="F" d="m256.4 469.7c-114.3 0.5-207.3-95.3-207.9-214.3-0.7-119 91.2-215.7 205.5-216.2 114.4-0.5 207.3 95.3 208 214.3 0.6 119-91.3 215.7-205.6 216.2z"/><path class="G" d="m489.6 665c2.1 83.4-100.4 153.6-228.9 156.8-128.4 3.2-234.2-61.9-236.3-145.2-2.1-83.4 100.4-153.6 228.9-156.8 128.4-3.2 234.3 61.8 236.3 145.2z"/><path class="H" d="m458.9 483.3c-21.3-7.8-40.6-8-61.6-5.1l35.8 190.9c5.2-2.2 9.6-4.6 13.1-7.2 56.2-40.5 72.1-156.8 12.7-178.6z"/><path class="I" d="m127.9 486c-44.1-7.8-75.6-13.6-96.5 3.1-33.1 26.7-39 153.1 23.6 180.9 8.5 3.9 21.1 7.2 36.5 10.1z"/><g style="opacity:.2;mix-blend-mode:soft-light"><path class="J" d="m139 83.2q-5.9 1.2-5.9 1.2 39.9 199.6 39.9 199.6 0 0 6-1.2 0 0-40-199.6zm40 199.6q-6 1.2-6 1.2 0 0.3 0.1 0.5 0 0 6-1.3-0.1-0.2-0.1-0.4zm0.1 0.4q-6 1.3-6 1.3c2.6 13.5 15.5 24.1 29.3 23.9q0 0 0.1-6c-11.1 0.1-21.4-8.4-23.4-19.2zm23.4 19.2q-0.1 6-0.1 6c0.2 0 0.3 0.1 0.5 0.1q0 0 0-6.1-0.2 0-0.4 0zm0.4 0q0 6.1 0 6.1 53.8 0 107.6 0 0 0 0-6.1-53.8 0-107.6 0zm107.6 0q0 6.1 0 6.1c0.2 0 0.3-0.1 0.5-0.1q0 0-0.1-6-0.2 0-0.4 0zm0.4 0q0.1 6 0.1 6c12.9 0.2 25.2-9.1 28.7-21.6q0 0-5.8-1.7c-2.8 10-12.7 17.4-23 17.3zm23-17.3q5.8 1.7 5.8 1.7 0.1-0.2 0.1-0.4 0 0-5.8-1.7-0.1 0.2-0.1 0.4zm0.1-0.4q5.8 1.7 5.8 1.7 0 0 58.4-204.6 0 0-5.9-1.7-58.3 204.6-58.3 204.6zm-200.9-200.3q-3 0.6-6 1.2 39.9 199.6 39.9 199.6 3-0.6 6-1.2 0 0-39.9-199.6zm39.9 199.6q-3 0.6-6 1.2 0.1 0.3 0.2 0.5 2.9-0.6 5.9-1.2-0.1-0.2-0.1-0.5zm0.1 0.5q-3 0.6-5.9 1.2c3.1 16.3 18.6 29 35.2 28.8q0-3 0-6.1c-13.8 0.2-26.7-10.4-29.3-23.9zm29.3 23.9q0 3.1 0 6.1 0.2 0 0.5 0 0-3 0-6c-0.2 0-0.3-0.1-0.5-0.1zm0.5 0.1q0 3 0 6 53.8 0 107.6 0 0-3 0-6-53.8 0-107.6 0zm107.6 0q0 3 0 6 0.2 0 0.5 0 0-3 0-6.1c-0.2 0-0.3 0.1-0.5 0.1zm0.5-0.1q0 3.1 0 6.1c15.6 0.2 30.3-10.9 34.5-25.9q-2.9-0.9-5.8-1.8c-3.5 12.5-15.8 21.8-28.7 21.6zm28.7-21.6q2.9 0.9 5.8 1.8 0.1-0.3 0.2-0.5-2.9-0.9-5.9-1.7 0 0.2-0.1 0.4zm0.1-0.4q3 0.8 5.9 1.7 0 0 58.3-204.6c-1.9-0.6-3.9-1.2-5.8-1.7q-58.4 204.6-58.4 204.6zm-212.7-200.8q0 0-2.1 0.4 39.9 199.6 39.9 199.6 2.1-0.4 2.1-0.4 0 0-39.9-199.6zm39.9 199.6q0 0-2.1 0.4c0.1 0.2 0.1 0.4 0.2 0.6q2.1-0.5 2.1-0.5-0.1-0.2-0.2-0.5zm0.2 0.5q0 0-2.1 0.5c3.3 17.2 19.7 30.7 37.2 30.5q0.1-2.2 0.1-2.2c-16.6 0.2-32.1-12.5-35.2-28.8zm35.2 28.8q0 0-0.1 2.2 0.3 0 0.6 0 0-2.2 0-2.2-0.3 0-0.5 0zm0.5 0q0 0 0 2.2 53.8 0 107.6 0 0-2.2 0-2.2-53.8 0-107.6 0zm107.6 0q0 0 0 2.2 0.2 0 0.5 0 0-2.2 0-2.2-0.3 0-0.5 0zm0.5 0q0 0 0 2.2c16.5 0.1 32.1-11.6 36.6-27.5q-2.1-0.6-2.1-0.6c-4.2 15-18.9 26.1-34.5 25.9zm34.5-25.9q0 0 2.1 0.6 0-0.3 0.1-0.6-2-0.5-2-0.5-0.1 0.2-0.2 0.5zm0.2-0.5q0 0 2 0.5 0 0 58.4-204.6-2.1-0.5-2.1-0.5-58.3 204.6-58.3 204.6z"/></g><g style="opacity:.2;mix-blend-mode:soft-light"><path class="K" d="m134.9 487.6q-6-1.3-6-1.3-40.1 176.5-40.1 176.5 0 0 5.9 1.4 0 0 40.2-176.6zm-40.2 176.6q-5.9-1.4-5.9-1.4 0 0.3-0.1 0.5 0 0 6 1.2zm-0.1 0.3q-5.9-1.2-5.9-1.2c-0.4 2-0.5 4.1-0.1 6.1q0 0 6-1c-0.3-1.3-0.2-2.6 0-3.9zm0 3.9q-6 1-6 1c1 6.1 5.8 11.4 11.8 12.9q0 0 1.5-5.9c-3.8-0.9-6.7-4.2-7.3-8zm7.3 8q-1.5 5.9-1.5 5.9 0.2 0 0.4 0.1 0 0 1.5-5.9-0.2-0.1-0.4-0.1zm0.4 0.1q-1.5 5.9-1.5 5.9c53.9 12.7 109.2 19.2 164.5 19.4q0 0 0-6.1c-54.8-0.1-109.7-6.7-163-19.2zm163 19.2q0 6.1 0 6.1 0.2 0 0.5 0 0 0 0-6.1-0.2 0-0.5 0zm0.5 0q0 6.1 0 6.1c57-0.2 113.8-12.5 166.3-34.5q0 0-2.4-5.6c-51.7 21.7-107.9 33.8-163.9 34zm163.9-34q2.4 5.6 2.4 5.6 0.2-0.1 0.4-0.2c0 0-0.8-1.8-2.5-5.5q-0.2 0-0.3 0.1zm0.3-0.1c1.7 3.7 2.5 5.5 2.5 5.5 5.2-2.2 8.9-7.4 9.4-13.1q0 0-6.1-0.6c-0.3 3.6-2.6 6.8-5.8 8.2zm5.8-8.2q6.1 0.6 6.1 0.6c0.2-1.8 0-3.7-0.4-5.5q0 0-5.9 1.4c0.3 1.2 0.3 2.4 0.2 3.5zm-0.2-3.5q5.9-1.4 5.9-1.4-0.1-0.2-0.1-0.5 0 0-5.9 1.6zm-0.1-0.3q5.9-1.6 5.9-1.6c0 0-15-56.5-45.1-169.5 0 0-2 0.5-5.9 1.6q45.1 169.5 45.1 169.5zm-306.6-163.3q-2.9-0.7-5.9-1.4-40.1 176.6-40.1 176.6 2.9 0.7 5.9 1.3 0 0 40.1-176.5zm-40.1 176.5q-3-0.6-5.9-1.3-0.1 0.3-0.2 0.5 3 0.7 6 1.3 0.1-0.2 0.1-0.5zm-0.1 0.5q-3-0.6-6-1.3c-0.5 2.8-0.6 5.7-0.1 8.5q3-0.6 6-1.1c-0.4-2-0.3-4.1 0.1-6.1zm-0.1 6.1q-3 0.5-6 1.1c1.3 8.3 8 15.6 16.3 17.6q0.8-2.9 1.5-5.9c-6-1.4-10.8-6.7-11.8-12.8zm11.8 12.8q-0.7 3-1.5 5.9 0.3 0.1 0.5 0.2 0.7-3 1.5-5.9-0.2-0.1-0.5-0.2zm0.5 0.2q-0.8 2.9-1.5 5.9c54.4 12.8 110.1 19.4 166 19.5q0-3 0-6c-55.4-0.2-110.7-6.8-164.5-19.4zm164.5 19.4q0 3 0 6 0.2 0 0.4 0 0-3 0-6-0.2 0-0.4 0zm0.4 0q0 3 0 6c57.9-0.2 115.4-12.6 168.7-34.9q-1.2-2.8-2.4-5.6c-52.5 22-109.3 34.2-166.3 34.5zm166.3-34.5q1.2 2.8 2.4 5.6 0.2-0.2 0.5-0.3-1.3-2.7-2.5-5.5-0.2 0.1-0.4 0.2zm0.4-0.2q1.2 2.8 2.5 5.5c7.2-3.1 12.3-10.2 13-18q-3.1-0.3-6.1-0.6c-0.5 5.6-4.2 10.8-9.4 13.1zm9.4-13.1q3 0.3 6.1 0.6c0.2-2.5 0-5.1-0.6-7.6q-3 0.7-5.9 1.5c0.5 1.8 0.6 3.6 0.4 5.5zm-0.4-5.5q2.9-0.8 5.9-1.5-0.1-0.3-0.1-0.5-3 0.7-5.9 1.5 0 0.2 0.1 0.5zm-0.1-0.5q2.9-0.8 5.9-1.5 0-0.1-45.1-169.5-3 0.7-5.9 1.5c30.1 113 45.1 169.5 45.1 169.5zm-318.4-163.1q0 0-2.1-0.4-40.1 176.5-40.1 176.5 2.1 0.5 2.1 0.5 0 0 40.1-176.6zm-40.1 176.6q0 0-2.1-0.5-0.1 0.3-0.1 0.6 2 0.4 2 0.4 0.1-0.2 0.2-0.5zm-0.2 0.5q0 0-2-0.4c-0.7 3-0.7 6.2-0.2 9.2q2.1-0.3 2.1-0.3c-0.5-2.8-0.4-5.7 0.1-8.5zm-0.1 8.5q0 0-2.1 0.3c1.5 9.2 8.8 17.2 17.9 19.4q0.5-2.1 0.5-2.1c-8.3-2-15-9.3-16.3-17.6zm16.3 17.6q0 0-0.5 2.1 0.2 0.1 0.5 0.1 0.5-2 0.5-2-0.2-0.1-0.5-0.2zm0.5 0.2q0 0-0.5 2c54.6 12.9 110.4 19.5 166.5 19.7q0-2.2 0-2.2c-55.9-0.1-111.6-6.7-166-19.5zm166 19.5q0 0 0 2.2 0.2 0 0.4 0 0-2.2 0-2.2-0.2 0-0.4 0zm0.4 0q0 0 0 2.2c58.3-0.3 115.9-12.7 169.5-35.2q-0.8-1.9-0.8-1.9c-53.3 22.3-110.8 34.7-168.7 34.9zm168.7-34.9q0 0 0.8 1.9c0.2-0.1 0.4-0.1 0.5-0.2q-0.8-2-0.8-2-0.3 0.1-0.5 0.3zm0.5-0.3q0 0 0.8 2c7.9-3.4 13.5-11.3 14.3-19.7q-2.1-0.3-2.1-0.3c-0.7 7.8-5.8 14.9-13 18zm13-18q0 0 2.1 0.3c0.3-2.9 0.1-5.7-0.6-8.4q-2.1 0.5-2.1 0.5c0.6 2.5 0.8 5.1 0.6 7.6zm-0.6-7.6q0 0 2.1-0.5-0.1-0.3-0.2-0.6-2 0.5-2 0.6 0 0.2 0.1 0.5zm-0.1-0.5q0-0.1 2-0.6 0 0-45.1-169.5-2 0.6-2 0.6 45.1 169.4 45.1 169.5z"/></g><g style="opacity:.2;mix-blend-mode:soft-light"><path class="L" d="m214.8 639.1c-28-1.3-71.3-2.1-125.9-12.2q-1.4 5.9-1.3 5.9c55.8 10.4 98.7 11 127 12.3q42.7 0.7 42.7 0.7 0 0 0-6.1 0 0-42.5-0.6zm42.5 0.6q0 6.1 0 6.1 0.2 0 0.5 0 0 0-0.1-6.1-0.2 0-0.4 0zm46.7-0.7c-30.8 0.9-46.3 0.7-46.3 0.7q0.1 6.1 0.1 6.1c0 0 15.4 0.2 46.4-0.8 30.9-1.2 77.5-2.7 138.7-12.2q0 0-1.1-6c-60.4 9.4-107.1 10.9-137.8 12.2zm-89.4 6.1c-28.3-1.3-71.2-1.9-127-12.3q-0.7 3-1.4 5.9c56.9 10.6 99.7 11.2 128.2 12.5q42.9 0.7 42.9 0.7 0-3.1 0-6.1 0 0-42.7-0.7zm42.7 0.7q0 3 0 6.1 0.2 0 0.5 0 0-3.1 0-6.1-0.3 0-0.5 0zm46.9-0.8c-31 1-46.4 0.8-46.4 0.8q0 3 0 6.1c0 0 15.5 0.1 46.6-0.8 31.1-1.2 77.7-2.7 139.6-12.3q-0.6-3-1.1-6c-61.2 9.5-107.8 11-138.7 12.2zm-89.8 6.2c-28.5-1.3-71.3-1.9-128.2-12.5q0 0-0.5 2.1c57.4 10.7 100 11.2 128.7 12.6q42.9 0.6 42.9 0.6 0-2.1 0-2.1 0 0-42.9-0.7zm42.9 0.7q0 0 0 2.1 0.2 0 0.5 0 0-2.1 0-2.1-0.3 0-0.5 0zm47.1-0.8c-31.1 0.9-46.6 0.8-46.6 0.8q0 0 0 2.1c0 0 15.5 0.2 46.7-0.8 31.1-1.2 77.7-2.7 139.9-12.3q-0.4-2.1-0.4-2.1c-61.9 9.6-108.5 11.1-139.6 12.3z"/></g><g style="opacity:.2;mix-blend-mode:soft-light"><path class="M" d="m217.3 600.5c-26.8-1.3-68.2-2.1-120.2-12.2q-1.5 6-1.5 6c53.3 10.3 94.5 10.9 121.5 12.3q40.8 0.6 40.8 0.6 0 0 0-6.1 0 0-40.6-0.6zm40.6 0.6q0 6.1 0 6.1 0.2 0 0.5 0 0 0 0-6.1-0.3 0-0.5 0zm44.7-0.7c-29.4 0.9-44.2 0.7-44.2 0.7q0 6.1 0 6.1c0 0 14.8 0.2 44.4-0.7 29.6-1.3 74.2-2.8 132.7-12.3q0 0-1.2-5.9c-57.6 9.3-102.3 10.9-131.7 12.1zm-85.5 6.2c-27-1.4-68.2-2-121.5-12.3q-0.7 2.9-1.4 5.9c54.5 10.5 95.4 11.1 122.7 12.4q41 0.7 41 0.7 0-3 0-6.1 0 0-40.8-0.6zm40.8 0.6q0 3.1 0 6.1 0.2 0 0.5 0 0-3 0-6.1-0.3 0-0.5 0zm44.9-0.7c-29.6 0.9-44.4 0.7-44.4 0.7q0 3.1 0 6.1c0 0 14.9 0.2 44.6-0.8 29.8-1.2 74.4-2.7 133.6-12.3q-0.6-3-1.1-6c-58.5 9.5-103.1 11-132.7 12.3zm-85.9 6.1c-27.3-1.3-68.2-1.9-122.7-12.4q0 0-0.5 2c54.9 10.7 95.7 11.2 123.2 12.6q41 0.6 41 0.6 0-2.1 0-2.1 0 0-41-0.7zm41 0.7q0 0 0 2.1 0.2 0 0.5 0 0-2.1 0-2.1-0.3 0-0.5 0zm45.1-0.8c-29.7 1-44.6 0.8-44.6 0.8q0 0 0 2.1c0 0 14.9 0.2 44.7-0.7 29.9-1.3 74.4-2.7 133.9-12.4q-0.4-2.1-0.4-2.1c-59.2 9.6-103.8 11.1-133.6 12.3z"/></g><g style="opacity:.2;mix-blend-mode:soft-light"><path class="N" d="m219.3 568.4c-25.6-1.3-65.3-2-114.9-12.1q-1.5 5.9-1.5 5.9c50.9 10.3 90.3 11 116.2 12.3q39 0.6 39 0.6 0 0 0-6 0 0-38.8-0.7zm38.8 0.7q0 6 0 6 0.2 0 0.5 0 0 0 0-6-0.3 0-0.5 0zm42.8-0.8c-28.2 0.9-42.3 0.8-42.3 0.8q0 6 0 6c0 0 14.1 0.2 42.5-0.7 28.2-1.2 70.9-2.8 126.8-12.2q0 0-1.2-6c-55 9.3-97.8 10.9-125.8 12.1zm-81.8 6.2c-25.9-1.3-65.3-2-116.2-12.3q-0.7 2.9-1.5 5.9c52.1 10.6 91.3 11.1 117.5 12.5q39.2 0.6 39.2 0.6 0-3 0-6.1 0 0-39-0.6zm39 0.6q0 3.1 0 6.1 0.2 0 0.5 0 0-3 0-6.1-0.3 0-0.5 0zm43-0.7c-28.4 0.9-42.5 0.7-42.5 0.7q0 3.1 0 6.1c0 0 14.2 0.2 42.7-0.7 28.5-1.3 71.1-2.7 127.8-12.4-0.4-2-0.8-3.9-1.2-5.9-55.9 9.4-98.6 11-126.8 12.2zm-82.2 6.2c-26.2-1.4-65.4-1.9-117.5-12.5q0 0-0.5 2c52.6 10.7 91.6 11.2 117.9 12.6 26.2 0.4 39.3 0.7 39.3 0.7q0-2.2 0-2.2 0 0-39.2-0.6zm39.2 0.6q0 0 0 2.2 0.2 0 0.5 0 0-2.2 0-2.2-0.3 0-0.5 0zm43.2-0.7c-28.5 0.9-42.7 0.7-42.7 0.7q0 0 0 2.2c0 0 14.2 0.1 42.7-0.8 28.6-1.3 71.2-2.7 128.2-12.4q-0.4-2.1-0.4-2.1c-56.7 9.7-99.3 11.1-127.8 12.4z"/></g><g style="opacity:.2;mix-blend-mode:soft-light"><path class="O" d="m220.2 543.4c-24.3-1.3-62.2-2.1-109.3-12.1q-1.6 5.8-1.6 5.8c48.5 10.3 86 11 110.7 12.3 24.8 0.9 37.2 0.7 37.2 0.7q0 0 0-6.1c0 0-12.3 0.2-37-0.6zm37 0.6q0 6.1 0 6.1 0.3 0 0.5 0 0 0 0-6.1-0.2 0-0.5 0zm40.8-0.7c-26.9 0.9-40.3 0.7-40.3 0.7q0 6.1 0 6.1c0 0 13.5 0.2 40.5-0.7 27-1.3 67.7-2.8 120.8-12.3q0 0-1.2-5.9c-52.3 9.3-93.1 10.9-119.8 12.1zm-78 6.1c-24.7-1.3-62.2-2-110.7-12.3q-0.8 3-1.5 5.9c49.7 10.6 87 11.2 112 12.5 24.9 0.8 37.4 0.7 37.4 0.7q0-3 0-6.1c0 0-12.4 0.2-37.2-0.7zm37.2 0.7q0 3.1 0 6.1 0.3 0 0.5 0 0-3 0-6.1-0.2 0-0.5 0zm41-0.7c-27 0.9-40.5 0.7-40.5 0.7q0 3.1 0 6.1c0 0 13.6 0.2 40.7-0.8 27.2-1.2 67.9-2.7 121.9-12.3q-0.6-3-1.3-6c-53.1 9.5-93.8 11-120.8 12.3zm-78.4 6.1c-25-1.3-62.3-1.9-112-12.5q0 0-0.6 2.1c50.2 10.7 87.4 11.2 112.5 12.6 25 0.8 37.5 0.6 37.5 0.6q0-2.1 0-2.1c0 0-12.5 0.1-37.4-0.7zm37.4 0.7q0 0 0 2.1 0.3 0 0.5 0 0-2.1 0-2.1-0.2 0-0.5 0zm41.2-0.8c-27.1 1-40.7 0.8-40.7 0.8q0 0 0 2.1c0 0 13.6 0.2 40.8-0.7 27.3-1.3 67.9-2.7 122.2-12.4q-0.4-2.1-0.4-2.1c-54 9.6-94.7 11.1-121.9 12.3z"/></g><g style="opacity:.2;mix-blend-mode:soft-light"><path class="P" d="m220.4 514.6c-23.4-1.3-59.9-2.1-105-12.1q-1.6 5.9-1.6 5.9c46.5 10.2 82.7 11 106.4 12.2 23.8 0.9 35.8 0.7 35.8 0.7q0 0 0-6.1c0 0-11.9 0.2-35.6-0.6zm35.6 0.6q0 6.1 0 6.1 0.2 0 0.4 0 0 0 0-6.1-0.2 0-0.4 0zm39.2-0.7c-25.8 0.9-38.8 0.7-38.8 0.7q0 6.1 0 6.1c0 0 13 0.2 39-0.7 25.9-1.3 65.1-2.8 116.2-12.3q0 0-1.3-5.9c-50.2 9.3-89.5 10.9-115.1 12.1zm-75 6.1c-23.7-1.2-59.9-2-106.4-12.2q-0.8 2.9-1.7 5.8c47.9 10.6 83.8 11.2 107.9 12.5 24 0.8 36 0.7 36 0.7q0-3.1 0-6.1c0 0-12 0.2-35.8-0.7zm35.8 0.7q0 3 0 6.1 0.2 0 0.4 0 0-3.1 0-6.1-0.2 0-0.4 0zm39.4-0.7c-26 0.9-39 0.7-39 0.7q0 3 0 6.1c0 0 13.1 0.1 39.3-0.8 26.1-1.2 65.3-2.7 117.2-12.3q-0.6-3-1.3-6c-51.1 9.5-90.3 11-116.2 12.3zm-75.4 6.1c-24.1-1.3-60-1.9-107.9-12.5q0 0-0.5 2.1c48.3 10.7 84.1 11.2 108.3 12.6 24.1 0.8 36.1 0.6 36.1 0.6q0-2.1 0-2.1c0 0-12 0.1-36-0.7zm36 0.7q0 0 0 2.1 0.2 0 0.4 0 0-2.1 0-2.1-0.2 0-0.4 0zm39.7-0.8c-26.2 0.9-39.3 0.8-39.3 0.8q0 0 0 2.1c0 0 13.1 0.2 39.4-0.7 26.2-1.3 65.3-2.8 117.5-12.4q-0.4-2.1-0.4-2.1c-51.9 9.6-91.1 11.1-117.2 12.3z"/></g><g style="mix-blend-mode:soft-light"><path class="Q" d="m14.1 606.2c12.6-4.3 91 6 127.3 21.8 36.4 15.8 74.7 70.9 81.1 72.9 52.4 16.4 35.8 112.9-46.4 109.1-9.3-0.4-108-1-143.3-44.3-35.3-43.3-35.5-153.9-18.7-159.5z"/><path class="R" d="m219.8 703.2c50 16 34.3 108.3-44.2 105.2-9.1-0.3-105.5-1.2-140.2-43.3-34.8-42.3-35.5-148.4-19.3-153.9 12.1-4.1 88.4 6.8 123.8 21.9 35.3 15.2 73.6 68.1 79.9 70.1z"/><path class="S" d="m217.1 705.4c47.5 15.7 32.8 103.8-42 101.5-8.8-0.3-103-1.6-137-42.5-34.4-41.1-35.7-142.7-20.1-148 11.8-4.1 85.9 7.3 120.3 21.9 34.3 14.5 72.6 65.1 78.8 67.1z"/><path class="T" d="m214.4 707.7c45 15.3 31.3 99.3-39.8 97.6-8.6-0.2-100.5-1.9-133.9-41.5-33.9-40-35.8-137.2-20.7-142.3 11.3-3.9 83.2 8 116.7 21.9 33.3 13.8 71.7 62.3 77.7 64.3z"/><path class="U" d="m211.7 710c42.6 14.9 29.8 94.8-37.6 93.7-8.3-0.1-98-2.2-130.8-40.6-33.4-38.8-35.8-131.5-21.4-136.5 11-3.8 80.7 8.7 113.2 21.9 32.2 13.2 70.7 59.4 76.6 61.5z"/><path class="V" d="m209 712.3c40.1 14.4 28.4 90.3-35.4 89.9-8.1-0.1-95.4-2.7-127.6-39.7-32.9-37.8-36-126-22.2-130.8 10.7-3.7 78.2 9.3 109.8 21.9 31.1 12.6 69.6 56.6 75.4 58.7z"/><path class="W" d="m206.3 714.5c37.7 14.1 26.9 86-33.1 86.1-7.9 0-93-3-124.6-38.8-32.4-36.7-36-120.3-22.8-125 10.2-3.6 75.6 10 106.2 22 30.1 11.9 68.7 53.6 74.3 55.7z"/><path class="X" d="m203.6 716.8c35.2 13.6 25.4 81.6-30.9 82.2-7.7 0.1-90.5-3.3-121.4-37.8-31.9-35.6-36.2-114.8-23.5-119.3 9.8-3.5 73 10.6 102.6 22 29.1 11.2 67.7 50.8 73.2 52.9z"/><path class="Y" d="m200.9 719c32.8 13.1 23.9 77.3-28.7 78.5-7.4 0.1-88-3.7-118.3-36.9-31.4-34.6-36.3-109.2-24.2-113.6 9.5-3.4 70.5 11.2 99.2 22 28 10.5 66.7 47.9 72 50z"/><path class="Z" d="m198.2 721.3c30.3 12.6 22.4 73-26.5 74.6-7.2 0.3-85.5-4-115.1-36-31-33.4-36.4-103.6-24.9-107.8 9-3.2 67.8 11.9 95.6 22 27 9.9 65.7 45.1 70.9 47.2z"/><path class="a0" d="m195.5 723.6c27.9 12 20.8 68.7-24.3 70.8-6.9 0.3-83-4.4-112-35.1-30.5-32.3-36.5-98-25.6-102 8.7-3.2 65.3 12.4 92.1 22 26 9.2 64.7 42.1 69.8 44.3z"/><path class="a1" d="m192.7 725.8c25.6 11.4 19.4 64.5-21.9 67-6.8 0.4-80.6-4.7-109-34.2-30-31.2-36.5-92.4-26.2-96.2 8.2-3.1 62.7 13.1 88.5 22 24.9 8.6 63.7 39.3 68.6 41.4z"/><path class="a2" d="m190 728.1c23.2 10.7 17.9 60.3-19.7 63.1-6.6 0.5-78.1-5-105.8-33.2-29.6-30.1-36.7-86.9-27-90.5 7.9-3 60.2 13.7 85 22 23.9 7.9 62.8 36.4 67.5 38.6z"/><path class="a3" d="m187.3 730.4c20.8 10 16.4 56.2-17.5 59.2-6.4 0.6-75.6-5.3-102.7-32.3-29.1-28.9-36.8-81.2-27.7-84.7 7.6-2.9 57.7 14.4 81.6 22 22.8 7.3 61.7 33.5 66.3 35.8z"/><path class="a4" d="m184.6 732.6c18.5 9.3 14.9 52.2-15.3 55.5-6.1 0.6-73.1-5.7-99.6-31.4-28.6-27.9-36.8-75.7-28.3-79 7.1-2.8 55.1 15.1 78 22.1 21.8 6.6 60.8 30.6 65.2 32.8z"/><path class="a5" d="m181.9 734.9c16.1 8.5 13.3 48.2-13.1 51.6-5.9 0.8-70.6-6-96.4-30.5-28.1-26.7-37-70-29.1-73.2 6.8-2.7 52.5 15.7 74.5 22.1 20.8 6 59.8 27.7 64.1 30z"/><path class="a6" d="m179.2 737.2c13.8 7.7 11.8 44.3-10.9 47.8-5.7 0.8-68.2-6.4-93.3-29.6-27.7-25.6-37.1-64.5-29.7-67.5 6.4-2.5 49.9 16.4 70.9 22.1 19.7 5.3 58.8 24.8 63 27.2z"/><path class="a7" d="m176.5 739.4c11.5 6.8 10.3 40.6-8.7 44-5.4 1-65.7-6.6-90.2-28.7-27.2-24.5-37.1-58.9-30.4-61.7 6-2.4 47.4 17 67.5 22.1 18.6 4.7 57.7 21.9 61.8 24.3z"/><path class="a8" d="m173.8 741.7c9.3 5.9 8.8 36.9-6.4 40.1-5.3 1.2-63.3-6.9-87.1-27.7-26.8-23.4-37.3-53.3-31.1-56 5.6-2.3 44.8 17.7 63.9 22.2 17.6 4 56.8 18.9 60.7 21.4z"/><path class="a9" d="m171.1 743.9c7 4.9 7.3 33.4-4.2 36.4-5.1 1.2-60.8-7.3-84-26.8-26.3-22.3-37.4-47.8-31.8-50.2 5.2-2.3 42.2 18.3 60.4 22.1 16.6 3.4 55.9 16 59.6 18.5z"/><path class="aa" d="m168.4 746.2c4.9 3.9 5.9 29.9-2 32.5-4.8 1.6-58.4-7.5-80.8-25.9-25.9-21-37.5-42.2-32.5-44.4 4.8-2.2 39.6 19 56.8 22.1 15.5 2.8 55 13 58.5 15.7z"/><path class="ab" d="m165.7 748.5c2.8 2.8 4.6 26.5 0.2 28.6-4.4 2.2-55.9-7.8-77.7-24.9-25.4-20-37.6-36.6-33.2-38.7 4.5-2.1 37.1 19.7 53.4 22.1 14.4 2.2 54.2 9.8 57.3 12.9z"/></g><g style="mix-blend-mode:soft-light"><path class="Q" d="m508.2 606.2c-12.6-4.3-91 6-127.3 21.8-36.4 15.8-74.7 70.9-81.1 72.9-52.4 16.4-35.8 112.9 46.5 109.1 9.2-0.4 107.9-1 143.2-44.3 35.3-43.3 35.5-153.9 18.7-159.5z"/><path class="R" d="m302.5 703.2c-50 16-34.3 108.3 44.2 105.2 9.1-0.3 105.5-1.2 140.2-43.3 34.8-42.3 35.5-148.4 19.3-153.9-12.1-4.1-88.4 6.8-123.8 21.9-35.3 15.2-73.6 68.1-79.9 70.1z"/><path class="S" d="m305.2 705.4c-47.5 15.7-32.8 103.8 42 101.5 8.8-0.3 103-1.6 137-42.5 34.4-41.1 35.7-142.7 20.1-148-11.8-4.1-85.8 7.3-120.3 21.9-34.3 14.5-72.6 65.1-78.8 67.1z"/><path class="T" d="m307.9 707.7c-45 15.3-31.3 99.3 39.8 97.6 8.6-0.2 100.5-1.9 133.9-41.5 33.9-40 35.8-137.2 20.8-142.3-11.4-3.9-83.3 8-116.8 21.9-33.2 13.8-71.7 62.3-77.7 64.3z"/><path class="U" d="m310.6 710c-42.6 14.9-29.8 91.6 37.6 93.7 8.3 0.3 98-2.2 130.8-40.6 33.4-38.8 35.8-131.5 21.4-136.5-11-3.8-80.7 8.7-113.2 21.9-32.2 13.2-70.7 59.4-76.6 61.5z"/><path class="V" d="m313.3 712.3c-40.1 14.4-28.3 86.5 35.4 89.9 8.1 0.4 95.4-2.7 127.6-39.7 32.9-37.8 36-126 22.2-130.8-10.7-3.7-78.2 9.3-109.8 21.9-31.1 12.6-69.6 56.6-75.4 58.7z"/><path class="W" d="m316 714.5c-37.7 14.1-26.7 81.6 33.1 86.1 7.9 0.6 93-3 124.6-38.8 32.4-36.7 36.1-120.3 22.8-125-10.2-3.6-75.6 10-106.2 22-30.1 11.9-68.7 53.6-74.3 55.7z"/><path class="X" d="m318.7 716.8c-35.2 13.6-25.1 76.6 30.9 82.2 7.6 0.8 90.5-3.3 121.4-37.8 32-35.6 36.2-114.8 23.5-119.3-9.8-3.5-73 10.6-102.6 22-29.1 11.2-67.7 50.8-73.2 52.9z"/><path class="Y" d="m321.4 719c-32.8 13.1-23.5 71.9 28.7 78.5 7.4 0.9 88-3.7 118.3-36.9 31.4-34.6 36.3-109.2 24.2-113.6-9.5-3.4-70.4 11.2-99.1 22-28.1 10.5-66.8 47.9-72.1 50z"/><path class="Z" d="m324.2 721.3c-30.4 12.6-21.9 67.2 26.4 74.6 7.1 1.1 85.5-4 115.2-36 30.9-33.4 36.3-103.6 24.8-107.8-9-3.2-67.8 11.9-95.6 22-27 9.9-65.7 45.1-70.8 47.2z"/><path class="a0" d="m326.9 723.6c-28 12-20.2 62.6 24.2 70.8 6.9 1.2 83-4.4 112-35.1 30.5-32.3 36.5-98 25.6-102-8.7-3.2-65.3 12.4-92.1 22-26 9.2-64.7 42.1-69.7 44.3z"/><path class="a1" d="m329.6 725.8c-25.6 11.4-18.6 58.3 22 67 6.6 1.4 80.5-4.7 108.9-34.2 30-31.2 36.5-92.4 26.3-96.2-8.3-3.1-62.8 13.1-88.6 22-24.9 8.6-63.7 39.3-68.6 41.4z"/><path class="a2" d="m332.3 728.1c-23.2 10.7-16.9 54 19.7 63.1 6.4 1.6 78.1-5 105.8-33.2 29.6-30.1 36.7-86.9 27-90.5-7.9-3-60.2 13.7-85 22-23.9 7.9-62.8 36.4-67.5 38.6z"/><path class="a3" d="m335 730.4c-20.8 10-15.2 50 17.5 59.2 6.1 1.8 75.6-5.3 102.7-32.3 29.1-28.9 36.8-81.2 27.7-84.7-7.6-2.9-57.6 14.4-81.5 22-22.9 7.3-61.8 33.5-66.4 35.8z"/><path class="a4" d="m337.7 732.6c-18.5 9.3-14.8 52.2 15.3 55.5 6.1 0.6 73.1-5.7 99.6-31.4 28.6-27.9 36.9-75.7 28.3-79-7.1-2.8-55 15.1-78 22.1-21.8 6.6-60.7 30.6-65.2 32.8z"/><path class="a5" d="m340.4 734.9c-16.1 8.5-13.3 48.2 13.1 51.6 5.9 0.8 70.7-6 96.4-30.5 28.2-26.7 37-70 29.1-73.2-6.8-2.7-52.5 15.7-74.5 22.1-20.7 6-59.8 27.7-64.1 30z"/><path class="a6" d="m343.1 737.2c-13.8 7.7-11.8 44.3 10.9 47.8 5.7 0.8 68.2-6.4 93.3-29.6 27.7-25.6 37.1-64.5 29.7-67.5-6.4-2.5-49.9 16.4-70.9 22.1-19.7 5.3-58.8 24.8-63 27.2z"/><path class="a7" d="m345.8 739.4c-11.5 6.8-10.3 40.6 8.7 44 5.5 1 65.7-6.6 90.2-28.7 27.2-24.4 37.1-58.9 30.4-61.7-6-2.4-47.4 17-67.4 22.1-18.7 4.7-57.8 21.9-61.9 24.3z"/><path class="a8" d="m348.5 741.7c-9.2 5.9-8.8 36.9 6.5 40.1 5.2 1.2 63.2-6.9 87-27.7 26.8-23.4 37.3-53.3 31.1-56-5.6-2.3-44.8 17.7-63.9 22.2-17.6 4-56.8 18.9-60.7 21.4z"/><path class="a9" d="m351.2 743.9c-7 4.9-7.3 33.4 4.2 36.4 5.1 1.3 60.8-7.3 84-26.8 26.3-22.3 37.4-47.8 31.8-50.2-5.2-2.3-42.2 18.3-60.4 22.1-16.6 3.4-55.9 16-59.6 18.5z"/><path class="aa" d="m353.9 746.2c-4.8 3.9-5.9 29.9 2 32.5 4.8 1.6 58.4-7.5 80.8-25.9 25.9-21 37.5-42.2 32.5-44.4-4.8-2.2-39.6 19-56.8 22.1-15.5 2.8-55 13-58.5 15.7z"/><path class="ab" d="m356.6 748.5c-2.8 2.8-4.6 26.5-0.2 28.6 4.4 2.2 55.9-7.8 77.7-24.9 25.4-20 37.6-36.6 33.2-38.7-4.5-2.1-37.1 19.7-53.3 22.1-14.5 2.2-54.3 9.8-57.4 12.9z"/></g><path class="a" d="m170.7 810.5h181.3c13.4 0 25-10.1 28.2-24.5l14.5-66.4c4.3-20-9.5-39.3-28.2-39.3h-203.1c-17.4 0-30.8 16.7-28.8 35.7l7.3 66.4c1.7 16 14.1 28.1 28.8 28.1z"/><path class="ac" d="m171 808h180.5c13.3 0 24.9-9.7 28-23.6l14.5-64.3c4.4-19.4-9.4-38.1-28.1-38.1h-202.1c-17.4 0-30.8 16.2-28.7 34.6l7.2 64.2c1.8 15.6 14.1 27.2 28.7 27.2z"/><path class="ad" d="m171.3 805.6h179.7c13.3 0 24.8-9.5 27.9-22.9l14.4-62.2c4.3-18.7-9.4-36.8-27.9-36.8h-201.3c-17.2 0-30.6 15.7-28.5 33.4l7.2 62.2c1.7 15 13.9 26.3 28.5 26.3z"/><path class="ae" d="m171.6 803.1h178.9c13.2 0 24.7-9.1 27.8-22.1l14.3-60c4.3-18.1-9.3-35.6-27.8-35.6h-200.4c-17.1 0-30.4 15.1-28.4 32.3l7.2 60.1c1.7 14.4 13.9 25.3 28.4 25.3z"/><path class="af" d="m171.9 800.7h178.1c13.2 0 24.6-8.8 27.7-21.3l14.2-57.9c4.4-17.5-9.2-34.4-27.7-34.4h-199.4c-17.1 0-30.4 14.6-28.3 31.2l7.1 57.9c1.8 14 13.9 24.5 28.3 24.5z"/><path class="ag" d="m172.2 798.3h177.3c13.1 0 24.5-8.5 27.6-20.6l14.2-55.8c4.2-16.8-9.3-33-27.6-33h-198.6c-17 0-30.2 14-28.1 29.9l7.1 55.9c1.7 13.4 13.7 23.6 28.1 23.6z"/><path class="ah" d="m172.5 795.8h176.5c13.1 0 24.4-8.1 27.5-19.7l14.1-53.7c4.3-16.2-9.2-31.8-27.5-31.8h-197.6c-17 0-30.1 13.5-28.1 28.8l7.1 53.7c1.7 13 13.7 22.7 28 22.7z"/><path class="ai" d="m172.8 793.4h175.7c13 0 24.3-7.9 27.4-19l14-51.6c4.3-15.5-9.1-30.5-27.3-30.5h-196.8c-16.9 0-29.9 13-27.9 27.7l7 51.6c1.7 12.4 13.7 21.8 27.9 21.8z"/><path class="aj" d="m173.1 791h174.9c13 0 24.2-7.6 27.2-18.3l14-49.4c4.2-14.9-9.1-29.3-27.2-29.3h-195.9c-16.7 0-29.7 12.4-27.7 26.6l7 49.4c1.6 12 13.6 21 27.7 21z"/><path class="ak" d="m173.4 788.5h174.1c12.9 0 24.1-7.2 27.1-17.4l13.9-47.3c4.3-14.3-9-28.1-27-28.1h-195c-16.7 0-29.7 11.9-27.7 25.5l7 47.3c1.7 11.4 13.5 20 27.6 20z"/><path class="al" d="m173.7 786.1h173.4c12.8 0 23.9-6.9 26.9-16.7l13.9-45.2c4.2-13.6-9.1-26.8-27-26.8h-194.1c-16.6 0-29.5 11.4-27.5 24.3l6.9 45.3c1.7 10.9 13.5 19.1 27.5 19.1z"/><path class="am" d="m174.1 783.6h172.5c12.7 0 23.8-6.5 26.8-15.8l13.8-43.1c4.2-13-9-25.5-26.8-25.5h-193.2c-16.6 0-29.4 10.8-27.4 23.1l6.9 43.1c1.6 10.4 13.4 18.2 27.4 18.2z"/><path class="an" d="m174.4 781.2h171.7c12.7 0 23.7-6.2 26.7-15.1l13.7-41c4.2-12.3-8.9-24.2-26.7-24.2h-192.3c-16.5 0-29.2 10.3-27.3 22l6.9 41c1.7 9.8 13.4 17.3 27.3 17.3z"/><path class="ao" d="m174.7 778.7h170.9c12.6 0 23.6-5.9 26.6-14.2l13.6-38.9c4.2-11.7-8.9-23-26.6-23h-191.4c-16.4 0-29.1 9.7-27.1 20.9l6.8 38.8c1.7 9.4 13.3 16.4 27.2 16.4z"/><path class="ap" d="m175 776.3h170.1c12.6 0 23.5-5.6 26.4-13.5l13.7-36.7c4.1-11.1-8.9-21.8-26.5-21.8h-190.5c-16.3 0-29 9.2-27 19.7l6.8 36.8c1.6 8.8 13.2 15.5 27 15.5z"/><path class="aq" d="m175.3 773.9h169.3c12.5 0 23.4-5.3 26.3-12.8l13.6-34.6c4.1-10.4-8.8-20.5-26.4-20.5h-189.6c-16.2 0-28.8 8.7-26.9 18.6l6.8 34.6c1.6 8.4 13.2 14.7 26.9 14.7z"/><path class="ar" d="m175.6 771.4h168.5c12.5 0 23.3-4.9 26.2-11.9l13.5-32.5c4.1-9.8-8.8-19.3-26.2-19.3h-188.7c-16.2 0-28.7 8.2-26.8 17.5l6.7 32.5c1.7 7.8 13.2 13.7 26.8 13.7z"/><path class="as" d="m175.9 769h167.7c12.4 0 23.2-4.6 26.1-11.2l13.4-30.4c4.1-9.1-8.7-18-26.1-18h-187.8c-16.1 0-28.6 7.7-26.6 16.4l6.7 30.3c1.6 7.4 13 12.9 26.6 12.9z"/><path class="at" d="m176.2 766.6h166.9c12.4 0 23.1-4.4 26-10.5l13.3-28.2c4.1-8.5-8.7-16.7-25.9-16.7h-187c-16 0-28.4 7.1-26.5 15.1l6.7 28.3c1.6 6.8 13 12 26.5 12z"/><path class="au" d="m176.5 764.1h166.1c12.3 0 23-4 25.9-9.6l13.3-26.2c4-7.8-8.7-15.4-25.9-15.4h-186c-16 0-28.3 6.5-26.4 14l6.6 26.2c1.7 6.3 13 11 26.4 11z"/><path class="av" d="m176.8 761.6h165.3c12.3 0 22.9-3.6 25.8-8.8l13.2-24c4-7.2-8.6-14.2-25.7-14.2h-185.2c-15.8 0-28.1 6-26.2 12.9l6.6 24c1.6 5.8 12.8 10.1 26.2 10.1z"/><path class="aw" d="m177.1 759.2h164.5c12.2 0 22.8-3.3 25.6-8.1l13.2-21.8c4-6.6-8.6-13-25.6-13h-184.2c-15.8 0-28.1 5.5-26.2 11.8l6.6 21.9c1.6 5.2 12.8 9.2 26.1 9.2z"/><path class="ax" d="m3.2 719.4c10.1 31 24.8 56.7 44.6 70.1 69.3 46.9 371.5 54.7 433.7-13.7 13.1-14.5 24.2-34.1 32.9-56.4z"/><g style="opacity:.2;mix-blend-mode:soft-light"><path class="ay" d="m144.7 704.1c1.7-4.6 7.4-11.3 17.3-16.7q-0.5-0.9-0.5-0.9c-10.1 5.4-15.9 12.3-17.8 17.2-2 4.9-0.9 7.5-1.1 7.5q0 0 1.1-0.2c0.2 0-0.8-2.3 1-6.9zm-1 6.9q-1.1 0.2-1.1 0.2 0.4 2.3 1.4 4.6 0 0 1-0.5c-0.7-1.4-1.1-2.8-1.3-4.3zm1.3 4.3q-1 0.5-1 0.5c0 0.1 0.2 0.3 0.2 0.3q0 0 0.9-0.5c0 0-0.1-0.2-0.1-0.3zm55.9 10.1c-10.2-0.2-20.4-0.6-30.4-1.7-9.3-1-21.5-2.9-25.4-8.1q-0.9 0.5-0.9 0.5c4.7 6.2 16.8 7.5 26.2 8.7 10.1 1.1 20.3 1.4 30.5 1.6 20.4 0.3 40.9-0.1 61.5-0.4q-0.1 0-0.1-1.1c-20.5 0.3-41 0.8-61.4 0.5zm61.4-0.5q0 1.1 0.1 1.1 0.2 0 0.4 0 0 0 0-1.1-0.2 0-0.5 0zm93.3-3.1c-10.2 1-20.5 1.5-30.8 1.9-20.6 0.4-41.3 0.8-62 1.2q0 1.1 0 1.1 31.1-0.6 62.1-1.2c10.3-0.5 20.6-1 30.8-2 9.6-1.1 21.9-2.1 27.6-6.9q0 0-0.9-0.6c-4.7 4-17.4 5.5-26.8 6.5zm26.8-6.5q0.9 0.6 0.9 0.6c0 0 0.2-0.1 0.2-0.2q0 0-0.9-0.6c0 0.1-0.2 0.2-0.2 0.2zm0.2-0.2q0.9 0.6 0.9 0.6c1.3-2.1 1.9-4.6 2-7.1q0 0-1-0.1c-0.1 2.4-0.7 4.7-1.9 6.6zm1.9-6.6q1 0.1 1 0.1c0.4-10-7.2-19.2-17-21.7q0.1 0-0.3 1c9.4 2.5 16.6 11.2 16.3 20.6zm-16.3-20.6q0.4-1 0.3-1-0.2-0.1-0.4-0.1 0 0-0.2 1c0.1 0.1 0.2 0.1 0.3 0.1zm-0.3-0.1q0.2-1 0.2-1c-11.3-1.8-24.4-1.2-36.7-1.4q0 0.1 0 1.1c12.2 0.1 25.5-0.4 36.5 1.3zm-36.5-1.3q0-1 0-1.1-33.1 0.2-66.2 0.3 0 0 0 1.1 33.1-0.2 66.2-0.3zm-66.2 0.3q0-1.1 0-1.1-0.2 0-0.5 0 0 0 0 1.1 0.3 0 0.5 0zm-0.5 0q0-1.1 0-1.1c-22.1-0.1-44.2-1.2-66.2-1.8q0 0 0 1c22 0.6 44.1 1.8 66.2 1.9zm-75.8-2q9.6 0.1 9.6 0.1 0-1 0-1 0 0-9.6-0.2c-6.1 0.3-16.7-0.9-27.4 2.8q0 0 0.5 0.9c10-3.4 21-2.4 26.9-2.6zm-45.2 18.9c1.9-4.9 7.7-11.8 17.8-17.2q0 0-2.8-5.4c-11.2 6.1-17.9 13.7-20.6 20.2-2.7 6.7-1.3 10.7-1.5 10.6q6-0.8 6-0.7c0.2 0-0.9-2.6 1.1-7.5zm-1.1 7.5q0-0.1-6 0.7c0.3 2.3 1 4.5 1.9 6.5q5.5-2.6 5.5-2.6-1-2.3-1.4-4.6zm1.4 4.6q0 0-5.5 2.6c0.1 0.2 0.1 0.3 0.3 0.5q5.4-2.8 5.4-2.8c0 0-0.2-0.2-0.2-0.3zm56.9 10.6c-10.2-0.2-20.4-0.5-30.5-1.6-9.4-1.2-21.5-2.5-26.2-8.7q0 0-5.4 2.8c4.2 6.5 10.2 7.7 15.3 9.3 5.2 1.3 10.4 2.1 15.6 2.6 10.4 1.2 20.8 1.5 31.1 1.7 20.6 0.3 41.1-0.1 61.6-0.4q-0.1-6.1 0-6.1c-20.6 0.3-41.1 0.7-61.5 0.4zm61.5-0.4q-0.1 0 0 6.1 0.3 0 0.5 0-0.1-6.1-0.1-6.1-0.2 0-0.4 0zm93.3-3.2c-10.2 1-20.5 1.5-30.8 2q-31 0.6-62.1 1.2 0 0 0.1 6.1 31.1-0.6 62.2-1.3c10.4-0.4 20.8-0.9 31.2-1.9q7.9-0.7 15.7-2.2c5.3-1.5 10.7-1.5 16.4-7.4q-5.1-3.4-5.1-3.4c-5.7 4.8-18 5.8-27.6 6.9zm27.6-6.9q0 0 5.1 3.4c0.1-0.1 0.3-0.3 0.4-0.5q-5.3-3.1-5.3-3.1c0 0.1-0.2 0.2-0.2 0.2zm0.2-0.2q0 0 5.3 3.1c1.8-3.1 2.7-6.6 2.8-10q-6.1-0.2-6.1-0.2c-0.1 2.5-0.7 5-2 7.1zm2-7.1q0 0 6.1 0.2c0.5-13.1-9.4-24.7-21.4-27.7q-1.7 5.8-1.7 5.8c9.8 2.5 17.4 11.7 17 21.7zm-17-21.7q0 0 1.7-5.8-0.2-0.1-0.5-0.2-1.6 5.9-1.6 5.9 0.2 0 0.4 0.1zm-0.4-0.1q0 0 1.6-5.9c-13.7-2.1-25.6-1.3-38.3-1.5 0 4 0 6 0 6 12.3 0.2 25.4-0.4 36.7 1.4zm-36.7-1.4c0 0 0-2 0-6q-33.1 0.1-66.2 0.2 0 6.1 0 6.1 33.1-0.1 66.2-0.3zm-66.2 0.3q0 0 0-6.1-0.2 0-0.4 0-0.1 6.1-0.1 6.1 0.3 0 0.5 0zm-0.5 0q0 0 0.1-6.1c-22-0.1-44-1.2-66.1-1.8q-0.2 6.1-0.2 6.1c22 0.6 44.1 1.7 66.2 1.8zm-75.8-2q9.6 0.2 9.6 0.2 0 0 0.2-6.1 0 0-9.8-0.2c-6.6 0.6-15.8-1.4-30.2 3.5q2.8 5.4 2.8 5.4c10.7-3.7 21.3-2.5 27.4-2.8z"/></g><path class="az" d="m160.4 728.5h211.8c8.7 0 16.7-3.5 22.5-9.2 4.2-19.9-9.6-39-28.2-39h-203.1c-17.2 0-30.6 16.4-28.8 35.2 6 7.8 15.3 13 25.8 13z"/></svg>