<svg xmlns="http://www.w3.org/2000/svg" width="550" height="800" viewBox="-14 26 550 800"><defs><linearGradient id="P" gradientUnits="userSpaceOnUse"/><linearGradient id="g1" x2="1" gradientTransform="matrix(0 -405.356 571.457 0 -31.529 483.549)" href="#P"><stop stop-color="gray"/><stop offset=".06" stop-color="#9d9ba5"/><stop offset="1" stop-color="gray"/></linearGradient><linearGradient id="g2" x2="1" gradientTransform="matrix(0 -193.166 77.409 0 218.31 507.402)" href="#P"><stop stop-color="#acacac"/><stop offset="1" stop-color="#fff"/></linearGradient><linearGradient id="g3" x2="1" gradientTransform="matrix(0 189.599 -94.499 0 329.452 503.822)" href="#P"><stop stop-color="#acacac"/><stop offset="1" stop-color="#fff"/></linearGradient><linearGradient id="g4" x2="1" gradientTransform="matrix(36.041 0 0 437.299 13.423 52.305)" href="#P"><stop stop-color="#acacac"/><stop offset="1" stop-color="#fff"/></linearGradient><linearGradient id="g5" x2="1" gradientTransform="matrix(35.541 0 0 436.371 466.052 52.757)" href="#P"><stop stop-color="#fff"/><stop offset="1" stop-color="#acacac"/></linearGradient><linearGradient id="g6" x2="1" gradientTransform="matrix(0 76.279 -14.536 0 260.656 497.865)" href="#P"><stop stop-color="#c7c7c7"/><stop offset="1" stop-color="#fff"/></linearGradient><linearGradient id="g11" x2="1" gradientTransform="rotate(-15.479 1833.23 -1085.265)scale(122.53 237.846)" href="#P"><stop stop-color="gray"/><stop offset=".08" stop-color="#6f6f6f"/><stop offset="1" stop-color="#c7c2b8"/></linearGradient><linearGradient id="g12" x2="1" gradientTransform="matrix(152.447 36.379 -60.717 254.433 18.686 426.52)" href="#P"><stop stop-color="#c7c2b8"/><stop offset=".92" stop-color="#6f6f6f"/><stop offset="1" stop-color="gray"/></linearGradient><linearGradient id="g13" x2="1" gradientTransform="matrix(-2.095 .428 -.409 -1.999 127.116 85.584)" href="#P"><stop stop-color="#fff"/><stop offset="1"/></linearGradient><linearGradient id="g14" x2="1" gradientTransform="rotate(192.8 88.71 235.57)scale(2.148 1.653)" href="#P"><stop stop-color="#fff"/><stop offset="1"/></linearGradient><linearGradient id="g15" x2="1" gradientTransform="matrix(-.476 2.071 -7.75 -1.781 86.171 638.742)" href="#P"><stop stop-color="#fff"/><stop offset="1"/></linearGradient><linearGradient id="g16" x2="1" gradientTransform="matrix(-.5 2.071 -7.392 -1.784 94.17 600.154)" href="#P"><stop stop-color="#fff"/><stop offset="1"/></linearGradient><linearGradient id="g17" x2="1" gradientTransform="rotate(104.2 -170.432 323.508)scale(2.136 7.287)" href="#P"><stop stop-color="#fff"/><stop offset="1"/></linearGradient><linearGradient id="g18" x2="1" gradientTransform="rotate(104.81 -155.169 312.997)scale(2.142 6.994)" href="#P"><stop stop-color="#fff"/><stop offset="1"/></linearGradient><linearGradient id="g19" x2="1" gradientTransform="rotate(105.6 -139.117 299.676)scale(2.125 6.597)" href="#P"><stop stop-color="#fff"/><stop offset="1"/></linearGradient><linearGradient id="g20" x2="1" gradientTransform="matrix(0 -109.791 22.871 0 247.69 829.224)" href="#P"><stop stop-color="#525252"/><stop offset="1" stop-color="#fff"/></linearGradient><linearGradient id="g21" x2="1" gradientTransform="matrix(-.5 -.952 1.558 -.818 161.99 687.424)" href="#P"><stop/><stop offset="1" stop-color="#fff"/></linearGradient><linearGradient id="g22" x2="1" gradientTransform="matrix(0 -47.777 8.829 0 260.491 727.32)" href="#P"><stop stop-color="#c7c2b8"/><stop offset=".92" stop-color="#6f6f6f"/><stop offset="1" stop-color="gray"/></linearGradient><radialGradient id="g7" cx="0" cy="0" r="1" gradientTransform="matrix(37.974 -.951 4.265 171.811 57.129 284.559)" href="#P"><stop stop-color="#f2f4f3"/><stop offset="1" stop-color="gray"/></radialGradient><radialGradient id="g8" cx="0" cy="0" r="1" gradientTransform="matrix(32.645 -.805 4.267 171.856 463.017 274.489)" href="#P"><stop stop-color="#f2f4f3"/><stop offset="1" stop-color="gray"/></radialGradient><radialGradient id="g9" cx="0" cy="0" r="1" gradientTransform="matrix(206.609 -5.774 6.865 215.142 255.219 254.459)" href="#P"><stop stop-color="#dee0df"/><stop offset="1" stop-color="gray"/></radialGradient><radialGradient id="g10" cx="0" cy="0" r="1" gradientTransform="matrix(232.629 -5.776 3.749 150.995 257.003 670.787)" href="#P"><stop stop-color="#dee0df"/><stop offset="1" stop-color="gray"/></radialGradient></defs><style>.a{fill:#90542d}.b{fill:#fff}.c{fill:#fdfdfd}.d{fill:#fbfbfb}.e{fill:#f9f9f8}.f{fill:#f7f7f6}.g{fill:#f5f5f4}.h{fill:#f3f3f2}.i{fill:#f1f1f0}.j{fill:#efefed}.k{fill:#ededeb}.l{fill:#ebebe9}.m{fill:#eae9e7}.n{fill:#e8e7e5}.o{fill:#e6e5e3}.p{fill:#e4e3e0}.q{fill:#e2e1de}.r{fill:#e0dfdc}.s{fill:#deddda}.t{fill:#dcdbd8}.u{fill:#dad9d5}.v{fill:#d8d7d3}.w{fill:#d6d5d1}.Q{fill:gray}.R{fill:#838383}.S{fill:#858585}.T{fill:#888}.U{fill:#8a8a8a}.V{fill:#8d8d8d}.W{fill:#909090}.X{fill:#929292}.Y{fill:#959595}.Z{fill:#989898}.a0{fill:#9a9a9a}.a1{fill:#9d9d9d}.a2{fill:#9f9f9f}.a3{fill:#a2a2a2}.a4{fill:#a5a5a5}.a5{fill:#a7a7a7}.a6{fill:#aaa}.a7{fill:#adadad}.a8{fill:#afafaf}.a9{fill:#b2b2b2}.aa{fill:#b4b4b4}.ab{fill:#b7b7b7}</style><path d="M119 515.9h277c58.3 0 105.6-47.3 105.6-105.6V131.6C501.6 73.3 454.3 26 396 26H119C60.7 26 13.4 73.3 13.4 131.6v278.7c0 58.3 47.3 105.6 105.6 105.6" class="a"/><g style="mix-blend-mode:multiply"><path d="M149.6 58.5c4.9 3.4-13.5 115.3-12.9 223.5.5 103.4-5.4 206-8.4 207.5-6.2 3.1-56.8-13.4-62.4-49.6s-2.5-324.8 3.2-344.2c6.2-21.3 70.2-44.2 80.5-37.2" class="b"/><path d="M148.3 59.7c4.8 3.3-12.9 114.6-12.3 222.2.5 102.8-5 204.9-7.9 206.4-6 3.1-55-13.3-60.4-49.4-5.4-36-2.4-323.1 3.1-342.4 6-21.2 67.5-43.8 77.5-36.8" class="c"/><path d="M147 60.8c4.6 3.3-12.2 114-11.7 221.1.5 102.2-4.6 203.6-7.4 205.1-5.8 3.1-53.2-13.2-58.4-49.1-5.3-35.8-2.3-321.4 3-340.6 5.8-21 64.9-43.5 74.5-36.5" class="d"/><path d="M145.8 61.9c4.4 3.3-11.7 113.4-11.2 220 .5 101.7-4.2 202.4-6.9 203.9-5.6 3-51.3-13.2-56.4-48.8-5.1-35.7-2.2-319.8 2.9-338.9 5.6-20.9 62.2-43.1 71.6-36.2" class="e"/><path d="M144.5 63c4.3 3.3-11 112.8-10.5 218.8.4 101.1-3.9 201.3-6.5 202.8-5.4 3-49.5-13.1-54.4-48.6s-2.2-318 2.8-337.1c5.4-20.8 59.6-42.8 68.6-35.9" class="f"/><path d="M143.2 64.1c4.1 3.3-10.4 112.2-9.9 217.7.4 100.5-3.5 200-6 201.5-5.2 3-47.7-13-52.4-48.3s-2.1-316.3 2.7-335.3c5.2-20.7 56.9-42.4 65.6-35.6" class="g"/><path d="M141.9 65.3c4 3.2-9.7 111.5-9.3 216.5.4 99.9-3.1 198.8-5.5 200.3-5 3-45.9-13-50.4-48.1-4.6-35.1-2-314.6 2.6-333.5 5-20.5 54.3-42 62.6-35.2" class="h"/><path d="M140.6 66.4c3.8 3.2-9.1 110.9-8.7 215.3.5 99.4-2.7 197.7-5 199.1-4.8 3-44.1-12.9-48.4-47.8-4.4-34.9-1.9-312.9 2.5-331.7 4.8-20.4 51.6-41.7 59.6-34.9" class="i"/><path d="M139.4 67.5c3.6 3.2-8.5 110.3-8.1 214.2.4 98.8-2.4 196.5-4.6 197.9-4.6 3-42.3-12.8-46.4-47.5-4.2-34.7-1.9-311.3 2.3-329.9 4.7-20.4 49.1-41.4 56.8-34.7" class="j"/><path d="M138.1 68.6c3.5 3.2-7.9 109.7-7.5 213 .4 98.3-2 195.3-4.1 196.8-4.4 2.9-40.4-12.8-44.4-47.3-4-34.6-1.8-309.6 2.2-328.1 4.5-20.3 46.4-41.1 53.8-34.4" class="k"/><path d="M136.8 69.8c3.3 3.1-7.2 109-6.9 211.8.4 97.7-1.6 194.1-3.6 195.5-4.2 3-38.6-12.7-42.4-47S82.2 122.2 86 103.8c4.2-20.2 43.8-40.7 50.8-34" class="l"/><path d="M135.5 70.9c3.2 3.1-6.6 108.4-6.2 210.7.3 97.1-1.3 192.9-3.2 194.3-4 2.9-36.8-12.6-40.5-46.8-3.6-34.1-1.5-306.2 2.1-324.5 4-20 41.1-40.3 47.8-33.7" class="m"/><path d="M134.2 72c3.1 3.1-5.9 107.8-5.6 209.5.3 96.6-.9 191.7-2.7 193.1-3.8 2.9-35-12.5-38.4-46.5-3.5-33.9-1.6-304.5 1.9-322.7 3.8-19.9 38.5-40 44.8-33.4" class="n"/><path d="M132.9 73.1c2.9 3.1-5.3 107.2-5 208.4.3 96-.5 190.5-2.2 191.9-3.6 2.9-33.2-12.5-36.5-46.2-3.2-33.8-1.4-302.9 1.9-321 3.6-19.8 35.8-39.6 41.8-33.1" class="o"/><path d="M131.7 74.2c2.7 3.1-4.8 106.6-4.5 207.3.3 95.4-.1 189.3-1.7 190.7-3.4 2.8-31.4-12.4-34.4-46-3.1-33.6-1.4-301.1 1.7-319.2 3.4-19.7 33.2-39.3 38.9-32.8" class="p"/><path d="M130.4 75.3c2.6 3.1-4.1 106-3.8 206.1.2 94.9.3 188.1-1.3 189.5-3.2 2.9-29.6-12.3-32.5-45.7s-1.2-299.5 1.7-317.4c3.2-19.5 30.5-38.9 35.9-32.5" class="q"/><path d="M129.1 76.5c2.4 3.1-3.5 105.3-3.2 204.9.2 94.3.7 186.9-.8 188.3-3 2.8-27.7-12.3-30.5-45.5-2.7-33.2-1.2-297.7 1.6-315.6 3-19.4 27.9-38.6 32.9-32.1" class="r"/><path d="M127.8 77.6c2.3 3.1-2.8 104.7-2.6 203.8.2 93.7 1.1 185.7-.3 187-2.8 2.9-25.9-12.1-28.5-45.2-2.5-33-1.1-296 1.5-313.8 2.8-19.3 25.2-38.2 29.9-31.8" class="s"/><path d="M126.5 78.7c2.1 3.1-2.2 104.1-2 202.6.3 93.2 1.5 184.5.2 185.9-2.6 2.8-24.1-12.1-26.5-44.9-2.4-32.9-1-294.4 1.4-312.1 2.6-19.2 22.6-37.9 26.9-31.5" class="t"/><path d="M125.3 79.8c1.9 3.1-1.6 103.5-1.4 201.5.2 92.6 1.8 183.3.6 184.7-2.4 2.8-22.3-12.1-24.5-44.7-2.2-32.7-1-292.7 1.3-310.2 2.4-19.2 19.9-37.6 24-31.3" class="u"/><path d="M124 81c1.8 3-1 102.8-.8 200.3.2 92 2.2 182.1 1.1 183.4-2.2 2.8-20.5-12-22.5-44.4-2-32.5-.9-291 1.2-308.4 2.2-19.1 17.3-37.2 21-30.9" class="v"/><path d="M122.7 82.1c1.6 3-.3 102.2-.2 199.1.2 91.5 2.6 181 1.6 182.3-2 2.8-18.6-11.9-20.5-44.2-1.8-32.2-.8-289.3 1.1-306.6 2-18.9 14.6-36.9 18-30.6" class="w"/></g><g style="mix-blend-mode:multiply"><path d="M372.5 59.9c-4.9 3.3 13.6 113.9 13.1 222.1-.5 103.4 5 206 8 207.5 6.2 3.1 56.8-13.4 62.4-49.6s2.5-324.8-3.2-344.2c-6.2-21.3-70-42.8-80.3-35.8" class="b"/><path d="M373.8 60.9c-4.8 3.4 13 113.4 12.5 221-.5 102.8 4.6 204.9 7.5 206.4 6 3.1 55-13.3 60.4-49.4 5.4-36 2.4-323.1-3.1-342.4-6-21.2-67.3-42.5-77.3-35.6" class="c"/><path d="M375 62c-4.6 3.3 12.4 112.8 11.9 219.9-.5 102.2 4.3 203.6 7.1 205.1 5.8 3.1 53.2-13.2 58.4-49.1 5.2-35.8 2.3-321.4-3-340.6-5.8-21-64.7-42.3-74.4-35.3" class="d"/><path d="M376.3 63.1c-4.4 3.2 11.8 112.2 11.3 218.8-.5 101.7 3.9 202.4 6.6 203.9 5.6 3 51.4-13.2 56.4-48.8 5.1-35.7 2.2-319.8-2.9-338.9-5.6-20.9-62.1-42-71.4-35" class="e"/><path d="M377.6 64.1c-4.3 3.3 11.1 111.7 10.6 217.7-.4 101.1 3.6 201.3 6.2 202.8 5.4 3 49.5-13.1 54.4-48.6S451 118 446 98.9c-5.4-20.8-59.4-41.7-68.4-34.8" class="f"/><path d="M378.9 65.2c-4.2 3.2 10.4 111.1 10 216.6-.5 100.5 3.2 200 5.7 201.5 5.2 3 47.7-13 52.4-48.3s2.1-316.3-2.7-335.3c-5.2-20.7-56.8-41.4-65.4-34.5" class="g"/><path d="M380.1 66.2c-4 3.3 9.9 110.6 9.4 215.6-.4 99.9 2.9 198.8 5.3 200.3 5 3 45.9-13 50.4-48.1s2-314.6-2.6-333.5c-5-20.5-54.1-41.1-62.5-34.3" class="h"/><path d="M381.4 67.3c-3.8 3.2 9.2 110 8.8 214.4-.4 99.4 2.5 197.7 4.8 199.1 4.8 3 44.1-12.9 48.4-47.8 4.4-34.9 1.9-312.9-2.5-331.7-4.8-20.4-51.5-40.8-59.5-34" class="i"/><path d="M382.7 68.3c-3.7 3.3 8.6 109.5 8.2 213.4-.4 98.8 2.1 196.5 4.3 197.9 4.6 3 42.3-12.8 46.4-47.5 4.2-34.7 1.9-311.3-2.4-329.9-4.6-20.4-48.8-40.6-56.5-33.9" class="j"/><path d="M383.9 69.4c-3.5 3.2 8 108.9 7.6 212.2-.4 98.3 1.8 195.3 3.9 196.8 4.4 2.9 40.4-12.8 44.4-47.3 4-34.6 1.8-309.6-2.2-328.1-4.5-20.3-46.3-40.3-53.7-33.6" class="k"/><path d="M385.2 70.4c-3.3 3.2 7.3 108.4 7 211.2-.4 97.7 1.4 194.1 3.4 195.5 4.2 3 38.6-12.7 42.4-47s1.7-307.9-2.1-326.3c-4.2-20.2-43.7-40-50.7-33.4" class="l"/><path d="M386.5 71.5c-3.2 3.2 6.7 107.8 6.3 210.1-.3 97.1 1.1 192.9 3 194.3 4 2.9 36.8-12.6 40.4-46.8 3.7-34.1 1.6-306.2-2-324.5-4-20-41-39.7-47.7-33.1" class="m"/><path d="M387.7 72.6c-3 3.1 6.1 107.2 5.8 208.9-.4 96.6.7 191.7 2.5 193.1 3.8 2.9 35-12.5 38.4-46.5 3.5-33.9 1.6-304.5-1.9-322.7-3.8-19.9-38.4-39.4-44.8-32.8" class="n"/><path d="M389 73.6c-2.9 3.2 5.4 106.7 5.1 207.9-.3 96 .3 190.5 2.1 191.9 3.6 2.9 33.2-12.5 36.5-46.2 3.2-33.8 1.4-302.9-1.9-321-3.6-19.8-35.8-39.1-41.8-32.6" class="o"/><path d="M390.3 74.7c-2.7 3.1 4.8 106.1 4.5 206.8-.3 95.4 0 189.3 1.6 190.7 3.4 2.8 31.4-12.4 34.4-46 3.1-33.6 1.4-301.1-1.7-319.2-3.4-19.7-33.1-38.8-38.8-32.3" class="p"/><path d="M391.5 75.7c-2.5 3.1 4.2 105.6 3.9 205.7-.2 94.9-.4 188.1 1.2 189.5 3.2 2.9 29.6-12.3 32.5-45.7s1.2-299.5-1.7-317.4c-3.2-19.5-30.5-38.5-35.9-32.1" class="q"/><path d="M392.8 76.8c-2.4 3.1 3.6 105 3.3 204.6-.3 94.3-.8 186.9.7 188.3 3 2.8 27.7-12.3 30.5-45.5 2.7-33.2 1.2-297.7-1.6-315.6-3-19.4-27.8-38.3-32.9-31.8" class="r"/><path d="M394.1 77.8c-2.2 3.1 2.9 104.5 2.6 203.6-.2 93.7-1.1 185.7.3 187 2.8 2.9 25.9-12.1 28.5-45.2 2.5-33 1.1-296-1.5-313.8-2.8-19.3-25.2-38-29.9-31.6" class="s"/><path d="M395.4 78.9c-2.1 3.1 2.2 103.9 2 202.4-.2 93.2-1.5 184.5-.2 185.9 2.6 2.8 24.1-12.1 26.5-44.9 2.4-32.9 1-294.4-1.4-312.1-2.6-19.2-22.5-37.7-26.9-31.3" class="t"/><path d="M396.6 80c-1.9 3 1.7 103.3 1.4 201.3-.1 92.6-1.8 183.3-.6 184.7 2.4 2.8 22.3-12.1 24.5-44.7 2.2-32.7.9-292.7-1.3-310.2-2.4-19.2-19.9-37.5-24-31.1" class="u"/><path d="M397.9 81c-1.8 3 1 102.8.8 200.3-.2 92-2.2 182.1-1.1 183.4 2.2 2.8 20.5-12 22.5-44.4 2-32.5.9-291-1.2-308.4-2.2-19.1-17.3-37.2-21-30.9" class="v"/><path d="M399.2 82.1c-1.6 3 .3 102.2.2 199.1-.2 91.5-2.6 180.9-1.6 182.3 2 2.8 18.6-11.9 20.5-44.2 1.8-32.2.8-289.3-1.1-306.6-2-18.9-14.6-36.9-18-30.6" class="w"/></g><path d="M408.3 74.4H113.8l14.5 415.1h269.3z" style="mix-blend-mode:soft-light;fill:url(#g1)"/><path d="M13.4 320.3v90c0 58.3 47.3 105.6 105.6 105.6h277c58.3 0 105.6-47.3 105.6-105.6v-90z" style="mix-blend-mode:multiply;fill:url(#g2)"/><path d="M259.3 500.2c-122.6 0-211.5-49.8-251.5-.9-36.8 44.9-29.3 243.3 40 290.2s371.5 54.7 433.7-13.7 78.2-251 12.4-287.7-112 12.1-234.6 12.1" class="a"/><path d="M15 748.7 512.5 724c31.2-75.5 33.9-184.6-5.7-225.8-4.2-3.6-7.7-6.6-10.3-8.4-.9-.6-1.7-1.2-2.6-1.7-12.3-6.9-24-10.8-35.6-12.5-50.2-7.6-99.4 24.6-199 24.6-84.3 0-152.7-23.5-200.1-22.4-21.6.6-38.9 6.2-51.4 21.5C-22 535.7-22.8 673 15 748.7" style="mix-blend-mode:multiply;fill:url(#g3)"/><path d="M245.8 498.6c-110.7 0-178.3-38.4-214.4-9.5C-1.7 515.8-7.6 642.2 55 670c62.5 27.8 335.1 32.5 391.2-8.1 56.2-40.5 72.1-156.8 12.7-178.6-59.3-21.7-102.5 15.3-213.1 15.3" class="a"/><path d="M49.5 52.3C27.4 71.7 13.4 100 13.4 131.6v278.7c0 31.6 14 59.9 36.1 79.3z" style="mix-blend-mode:multiply;fill:url(#g4)"/><path d="M466.1 52.8v436.3c21.7-19.3 35.5-47.4 35.5-78.8V131.6c0-31.4-13.8-59.5-35.5-78.8" style="mix-blend-mode:multiply;fill:url(#g5)"/><path d="M458.9 483.3c-59.3-21.7-102.5 15.3-213.1 15.3-110.7 0-178.3-38.4-214.4-9.5-15.2 12.2-24.5 45.5-24.3 80.6h488.2c4.8-38.4-5.6-75.1-36.4-86.4" style="mix-blend-mode:multiply;fill:url(#g6)"/><path d="M95.1 283.6c2.4 94.9-12.7 172.3-33.7 172.8s-39.9-76-42.2-170.9c-2.4-94.9 12.7-172.3 33.7-172.8 20.9-.5 39.8 76 42.2 170.9" style="opacity:.5;mix-blend-mode:soft-light;fill:url(#g7)"/><path d="M495.7 273.7c2.3 94.9-10.4 172.2-28.4 172.6-18.1.5-34.6-76.1-36.9-171-2.4-94.9 10.3-172.2 28.4-172.6 18-.5 34.5 76.1 36.9 171" style="opacity:.5;mix-blend-mode:soft-light;fill:url(#g8)"/><path d="M256.4 469.7c-114.3.5-207.3-95.3-207.9-214.3-.7-119 91.2-215.7 205.5-216.2 114.4-.5 207.3 95.3 208 214.3.6 119-91.3 215.7-205.6 216.2" style="mix-blend-mode:soft-light;fill:url(#g9)"/><path d="M489.6 665c2.1 83.4-100.4 153.6-228.9 156.8C132.3 825 26.5 759.9 24.4 676.6 22.3 593.2 124.8 523 253.3 519.8c128.4-3.2 234.3 61.8 236.3 145.2" style="mix-blend-mode:soft-light;fill:url(#g10)"/><path d="M458.9 483.3c-21.3-7.8-40.6-8-61.6-5.1l35.8 190.9c5.2-2.2 9.6-4.6 13.1-7.2 56.2-40.5 72.1-156.8 12.7-178.6" style="opacity:.5;mix-blend-mode:soft-light;fill:url(#g11)"/><path d="M127.9 486c-44.1-7.8-75.6-13.6-96.5 3.1C-1.7 515.8-7.6 642.2 55 670c8.5 3.9 21.1 7.2 36.5 10.1z" style="opacity:.5;mix-blend-mode:soft-light;fill:url(#g12)"/><g style="opacity:.2;mix-blend-mode:soft-light"><path d="m139 83.2-5.9 1.2L173 284l6-1.2zm40 199.6-6 1.2q0 .3.1.5l6-1.3q-.1-.2-.1-.4m.1.4-6 1.3c2.6 13.5 15.5 24.1 29.3 23.9l.1-6c-11.1.1-21.4-8.4-23.4-19.2m23.4 19.2-.1 6c.2 0 .3.1.5.1v-6.1zm.4 0v6.1h107.6v-6.1zm107.6 0v6.1c.2 0 .3-.1.5-.1l-.1-6zm.4 0 .1 6c12.9.2 25.2-9.1 28.7-21.6l-5.8-1.7c-2.8 10-12.7 17.4-23 17.3m23-17.3 5.8 1.7q.1-.2.1-.4l-5.8-1.7q-.1.2-.1.4m.1-.4 5.8 1.7 58.4-204.6-5.9-1.7zM133.1 84.4l-6 1.2L167 285.2l6-1.2zM173 284l-6 1.2q.1.3.2.5 2.9-.6 5.9-1.2-.1-.2-.1-.5m.1.5q-3 .6-5.9 1.2c3.1 16.3 18.6 29 35.2 28.8v-6.1c-13.8.2-26.7-10.4-29.3-23.9m29.3 23.9v6.1h.5v-6c-.2 0-.3-.1-.5-.1m.5.1v6h107.6v-6zm107.6 0v6h.5v-6.1c-.2 0-.3.1-.5.1m.5-.1v6.1c15.6.2 30.3-10.9 34.5-25.9l-5.8-1.8c-3.5 12.5-15.8 21.8-28.7 21.6m28.7-21.6 5.8 1.8q.1-.3.2-.5-2.9-.9-5.9-1.7 0 .2-.1.4m.1-.4q3 .8 5.9 1.7L404 83.5c-1.9-.6-3.9-1.2-5.8-1.7zM127.1 85.6l-2.1.4 39.9 199.6 2.1-.4zM167 285.2l-2.1.4c.1.2.1.4.2.6l2.1-.5q-.1-.2-.2-.5m.2.5-2.1.5c3.3 17.2 19.7 30.7 37.2 30.5l.1-2.2c-16.6.2-32.1-12.5-35.2-28.8m35.2 28.8-.1 2.2h.6v-2.2zm.5 0v2.2h107.6v-2.2zm107.6 0v2.2h.5v-2.2zm.5 0v2.2c16.5.1 32.1-11.6 36.6-27.5l-2.1-.6c-4.2 15-18.9 26.1-34.5 25.9m34.5-25.9 2.1.6q0-.3.1-.6l-2-.5q-.1.2-.2.5m.2-.5 2 .5L406.1 84l-2.1-.5z" style="fill:url(#g13)"/></g><g style="opacity:.2;mix-blend-mode:soft-light"><path d="m134.9 487.6-6-1.3-40.1 176.5 5.9 1.4zM94.7 664.2l-5.9-1.4q0 .3-.1.5l6 1.2zm-.1.3-5.9-1.2c-.4 2-.5 4.1-.1 6.1l6-1c-.3-1.3-.2-2.6 0-3.9m0 3.9-6 1c1 6.1 5.8 11.4 11.8 12.9l1.5-5.9c-3.8-.9-6.7-4.2-7.3-8m7.3 8-1.5 5.9q.2 0 .4.1l1.5-5.9q-.2-.1-.4-.1m.4.1-1.5 5.9c53.9 12.7 109.2 19.2 164.5 19.4v-6.1c-54.8-.1-109.7-6.7-163-19.2m163 19.2v6.1h.5v-6.1zm.5 0v6.1c57-.2 113.8-12.5 166.3-34.5l-2.4-5.6c-51.7 21.7-107.9 33.8-163.9 34m163.9-34 2.4 5.6.4-.2s-.8-1.8-2.5-5.5q-.2 0-.3.1m.3-.1c1.7 3.7 2.5 5.5 2.5 5.5 5.2-2.2 8.9-7.4 9.4-13.1l-6.1-.6c-.3 3.6-2.6 6.8-5.8 8.2m5.8-8.2 6.1.6c.2-1.8 0-3.7-.4-5.5l-5.9 1.4c.3 1.2.3 2.4.2 3.5m-.2-3.5 5.9-1.4q-.1-.2-.1-.5l-5.9 1.6zm-.1-.3 5.9-1.6s-15-56.5-45.1-169.5c0 0-2 .5-5.9 1.6zM128.9 486.3q-2.9-.7-5.9-1.4L82.9 661.5q2.9.7 5.9 1.3zM88.8 662.8q-3-.6-5.9-1.3-.1.3-.2.5 3 .7 6 1.3.1-.2.1-.5m-.1.5q-3-.6-6-1.3c-.5 2.8-.6 5.7-.1 8.5q3-.6 6-1.1c-.4-2-.3-4.1.1-6.1m-.1 6.1q-3 .5-6 1.1c1.3 8.3 8 15.6 16.3 17.6q.8-2.9 1.5-5.9c-6-1.4-10.8-6.7-11.8-12.8m11.8 12.8q-.7 3-1.5 5.9.3.1.5.2.7-3 1.5-5.9-.2-.1-.5-.2m.5.2q-.8 2.9-1.5 5.9c54.4 12.8 110.1 19.4 166 19.5v-6c-55.4-.2-110.7-6.8-164.5-19.4m164.5 19.4v6h.4v-6zm.4 0v6c57.9-.2 115.4-12.6 168.7-34.9l-2.4-5.6c-52.5 22-109.3 34.2-166.3 34.5m166.3-34.5 2.4 5.6q.2-.2.5-.3-1.3-2.7-2.5-5.5zm.4-.2q1.2 2.8 2.5 5.5c7.2-3.1 12.3-10.2 13-18q-3.1-.3-6.1-.6c-.5 5.6-4.2 10.8-9.4 13.1m9.4-13.1q3 .3 6.1.6c.2-2.5 0-5.1-.6-7.6q-3 .7-5.9 1.5c.5 1.8.6 3.6.4 5.5m-.4-5.5q2.9-.8 5.9-1.5-.1-.3-.1-.5-3 .7-5.9 1.5 0 .2.1.5m-.1-.5q2.9-.8 5.9-1.5 0-.1-45.1-169.5-3 .7-5.9 1.5c30.1 113 45.1 169.5 45.1 169.5M123 484.9l-2.1-.4L80.8 661l2.1.5zM82.9 661.5l-2.1-.5q-.1.3-.1.6l2 .4q.1-.2.2-.5m-.2.5-2-.4c-.7 3-.7 6.2-.2 9.2l2.1-.3c-.5-2.8-.4-5.7.1-8.5m-.1 8.5-2.1.3c1.5 9.2 8.8 17.2 17.9 19.4l.5-2.1c-8.3-2-15-9.3-16.3-17.6m16.3 17.6-.5 2.1q.2.1.5.1l.5-2q-.2-.1-.5-.2m.5.2-.5 2c54.6 12.9 110.4 19.5 166.5 19.7v-2.2c-55.9-.1-111.6-6.7-166-19.5m166 19.5v2.2h.4v-2.2zm.4 0v2.2c58.3-.3 115.9-12.7 169.5-35.2l-.8-1.9c-53.3 22.3-110.8 34.7-168.7 34.9m168.7-34.9.8 1.9c.2-.1.4-.1.5-.2l-.8-2q-.3.1-.5.3m.5-.3.8 2c7.9-3.4 13.5-11.3 14.3-19.7l-2.1-.3c-.7 7.8-5.8 14.9-13 18m13-18 2.1.3q.45-4.35-.6-8.4l-2.1.5c.6 2.5.8 5.1.6 7.6m-.6-7.6 2.1-.5-.2-.6q-2 .5-2 .6 0 .2.1.5m-.1-.5q0-.1 2-.6l-45.1-169.5-2 .6q45.1 169.4 45.1 169.5" style="fill:url(#g14)"/></g><g style="opacity:.2;mix-blend-mode:soft-light"><path d="M214.8 639.1c-28-1.3-71.3-2.1-125.9-12.2q-1.4 5.9-1.3 5.9c55.8 10.4 98.7 11 127 12.3l42.7.7v-6.1zm42.5.6v6.1h.5l-.1-6.1zm46.7-.7c-30.8.9-46.3.7-46.3.7l.1 6.1s15.4.2 46.4-.8c30.9-1.2 77.5-2.7 138.7-12.2l-1.1-6c-60.4 9.4-107.1 10.9-137.8 12.2m-89.4 6.1c-28.3-1.3-71.2-1.9-127-12.3q-.7 3-1.4 5.9c56.9 10.6 99.7 11.2 128.2 12.5l42.9.7v-6.1zm42.7.7v6.1h.5v-6.1zm46.9-.8c-31 1-46.4.8-46.4.8v6.1s15.5.1 46.6-.8c31.1-1.2 77.7-2.7 139.6-12.3q-.6-3-1.1-6c-61.2 9.5-107.8 11-138.7 12.2m-89.8 6.2c-28.5-1.3-71.3-1.9-128.2-12.5l-.5 2.1c57.4 10.7 100 11.2 128.7 12.6l42.9.6v-2.1zm42.9.7v2.1h.5v-2.1zm47.1-.8c-31.1.9-46.6.8-46.6.8v2.1s15.5.2 46.7-.8c31.1-1.2 77.7-2.7 139.9-12.3l-.4-2.1c-61.9 9.6-108.5 11.1-139.6 12.3" style="fill:url(#g15)"/></g><g style="opacity:.2;mix-blend-mode:soft-light"><path d="M217.3 600.5c-26.8-1.3-68.2-2.1-120.2-12.2l-1.5 6c53.3 10.3 94.5 10.9 121.5 12.3l40.8.6v-6.1zm40.6.6v6.1h.5v-6.1zm44.7-.7c-29.4.9-44.2.7-44.2.7v6.1s14.8.2 44.4-.7c29.6-1.3 74.2-2.8 132.7-12.3l-1.2-5.9c-57.6 9.3-102.3 10.9-131.7 12.1m-85.5 6.2c-27-1.4-68.2-2-121.5-12.3q-.7 2.9-1.4 5.9c54.5 10.5 95.4 11.1 122.7 12.4l41 .7v-6.1zm40.8.6v6.1h.5v-6.1zm44.9-.7c-29.6.9-44.4.7-44.4.7v6.1s14.9.2 44.6-.8c29.8-1.2 74.4-2.7 133.6-12.3q-.6-3-1.1-6c-58.5 9.5-103.1 11-132.7 12.3m-85.9 6.1c-27.3-1.3-68.2-1.9-122.7-12.4l-.5 2c54.9 10.7 95.7 11.2 123.2 12.6l41 .6v-2.1zm41 .7v2.1h.5v-2.1zm45.1-.8c-29.7 1-44.6.8-44.6.8v2.1s14.9.2 44.7-.7c29.9-1.3 74.4-2.7 133.9-12.4l-.4-2.1c-59.2 9.6-103.8 11.1-133.6 12.3" style="fill:url(#g16)"/></g><g style="opacity:.2;mix-blend-mode:soft-light"><path d="M219.3 568.4c-25.6-1.3-65.3-2-114.9-12.1l-1.5 5.9c50.9 10.3 90.3 11 116.2 12.3l39 .6v-6zm38.8.7v6h.5v-6zm42.8-.8c-28.2.9-42.3.8-42.3.8v6s14.1.2 42.5-.7c28.2-1.2 70.9-2.8 126.8-12.2l-1.2-6c-55 9.3-97.8 10.9-125.8 12.1m-81.8 6.2c-25.9-1.3-65.3-2-116.2-12.3q-.7 2.9-1.5 5.9c52.1 10.6 91.3 11.1 117.5 12.5l39.2.6v-6.1zm39 .6v6.1h.5v-6.1zm43-.7c-28.4.9-42.5.7-42.5.7v6.1s14.2.2 42.7-.7c28.5-1.3 71.1-2.7 127.8-12.4-.4-2-.8-3.9-1.2-5.9-55.9 9.4-98.6 11-126.8 12.2m-82.2 6.2c-26.2-1.4-65.4-1.9-117.5-12.5l-.5 2c52.6 10.7 91.6 11.2 117.9 12.6 26.2.4 39.3.7 39.3.7v-2.2zm39.2.6v2.2h.5v-2.2zm43.2-.7c-28.5.9-42.7.7-42.7.7v2.2s14.2.1 42.7-.8c28.6-1.3 71.2-2.7 128.2-12.4l-.4-2.1c-56.7 9.7-99.3 11.1-127.8 12.4" style="fill:url(#g17)"/></g><g style="opacity:.2;mix-blend-mode:soft-light"><path d="M220.2 543.4c-24.3-1.3-62.2-2.1-109.3-12.1l-1.6 5.8c48.5 10.3 86 11 110.7 12.3 24.8.9 37.2.7 37.2.7V544s-12.3.2-37-.6m37 .6v6.1h.5V544zm40.8-.7c-26.9.9-40.3.7-40.3.7v6.1s13.5.2 40.5-.7c27-1.3 67.7-2.8 120.8-12.3l-1.2-5.9c-52.3 9.3-93.1 10.9-119.8 12.1m-78 6.1c-24.7-1.3-62.2-2-110.7-12.3q-.8 3-1.5 5.9c49.7 10.6 87 11.2 112 12.5 24.9.8 37.4.7 37.4.7v-6.1s-12.4.2-37.2-.7m37.2.7v6.1h.5v-6.1zm41-.7c-27 .9-40.5.7-40.5.7v6.1s13.6.2 40.7-.8c27.2-1.2 67.9-2.7 121.9-12.3q-.6-3-1.3-6c-53.1 9.5-93.8 11-120.8 12.3m-78.4 6.1c-25-1.3-62.3-1.9-112-12.5l-.6 2.1c50.2 10.7 87.4 11.2 112.5 12.6 25 .8 37.5.6 37.5.6v-2.1s-12.5.1-37.4-.7m37.4.7v2.1h.5v-2.1zm41.2-.8c-27.1 1-40.7.8-40.7.8v2.1s13.6.2 40.8-.7c27.3-1.3 67.9-2.7 122.2-12.4l-.4-2.1c-54 9.6-94.7 11.1-121.9 12.3" style="fill:url(#g18)"/></g><g style="opacity:.2;mix-blend-mode:soft-light"><path d="M220.4 514.6c-23.4-1.3-59.9-2.1-105-12.1l-1.6 5.9c46.5 10.2 82.7 11 106.4 12.2 23.8.9 35.8.7 35.8.7v-6.1s-11.9.2-35.6-.6m35.6.6v6.1h.4v-6.1zm39.2-.7c-25.8.9-38.8.7-38.8.7v6.1s13 .2 39-.7c25.9-1.3 65.1-2.8 116.2-12.3l-1.3-5.9c-50.2 9.3-89.5 10.9-115.1 12.1m-75 6.1c-23.7-1.2-59.9-2-106.4-12.2q-.8 2.9-1.7 5.8c47.9 10.6 83.8 11.2 107.9 12.5 24 .8 36 .7 36 .7v-6.1s-12 .2-35.8-.7m35.8.7v6.1h.4v-6.1zm39.4-.7c-26 .9-39 .7-39 .7v6.1s13.1.1 39.3-.8c26.1-1.2 65.3-2.7 117.2-12.3q-.6-3-1.3-6c-51.1 9.5-90.3 11-116.2 12.3m-75.4 6.1c-24.1-1.3-60-1.9-107.9-12.5l-.5 2.1c48.3 10.7 84.1 11.2 108.3 12.6 24.1.8 36.1.6 36.1.6v-2.1s-12 .1-36-.7m36 .7v2.1h.4v-2.1zm39.7-.8c-26.2.9-39.3.8-39.3.8v2.1s13.1.2 39.4-.7c26.2-1.3 65.3-2.8 117.5-12.4l-.4-2.1c-51.9 9.6-91.1 11.1-117.2 12.3" style="fill:url(#g19)"/></g><g style="mix-blend-mode:soft-light"><path d="M14.1 606.2c12.6-4.3 91 6 127.3 21.8 36.4 15.8 74.7 70.9 81.1 72.9 52.4 16.4 35.8 112.9-46.4 109.1-9.3-.4-108-1-143.3-44.3S-2.7 611.8 14.1 606.2" class="Q"/><path d="M219.8 703.2c50 16 34.3 108.3-44.2 105.2-9.1-.3-105.5-1.2-140.2-43.3C.6 722.8-.1 616.7 16.1 611.2c12.1-4.1 88.4 6.8 123.8 21.9 35.3 15.2 73.6 68.1 79.9 70.1" class="R"/><path d="M217.1 705.4c47.5 15.7 32.8 103.8-42 101.5-8.8-.3-103-1.6-137-42.5C3.7 723.3 2.4 621.7 18 616.4c11.8-4.1 85.9 7.3 120.3 21.9 34.3 14.5 72.6 65.1 78.8 67.1" class="S"/><path d="M214.4 707.7c45 15.3 31.3 99.3-39.8 97.6-8.6-.2-100.5-1.9-133.9-41.5C6.8 723.8 4.9 626.6 20 621.5c11.3-3.9 83.2 8 116.7 21.9 33.3 13.8 71.7 62.3 77.7 64.3" class="T"/><path d="M211.7 710c42.6 14.9 29.8 94.8-37.6 93.7-8.3-.1-98-2.2-130.8-40.6C9.9 724.3 7.5 631.6 21.9 626.6c11-3.8 80.7 8.7 113.2 21.9 32.2 13.2 70.7 59.4 76.6 61.5" class="U"/><path d="M209 712.3c40.1 14.4 28.4 90.3-35.4 89.9-8.1-.1-95.4-2.7-127.6-39.7-32.9-37.8-36-126-22.2-130.8 10.7-3.7 78.2 9.3 109.8 21.9 31.1 12.6 69.6 56.6 75.4 58.7" class="V"/><path d="M206.3 714.5c37.7 14.1 26.9 86-33.1 86.1-7.9 0-93-3-124.6-38.8-32.4-36.7-36-120.3-22.8-125 10.2-3.6 75.6 10 106.2 22 30.1 11.9 68.7 53.6 74.3 55.7" class="W"/><path d="M203.6 716.8c35.2 13.6 25.4 81.6-30.9 82.2-7.7.1-90.5-3.3-121.4-37.8-31.9-35.6-36.2-114.8-23.5-119.3 9.8-3.5 73 10.6 102.6 22 29.1 11.2 67.7 50.8 73.2 52.9" class="X"/><path d="M200.9 719c32.8 13.1 23.9 77.3-28.7 78.5-7.4.1-88-3.7-118.3-36.9C22.5 726 17.6 651.4 29.7 647c9.5-3.4 70.5 11.2 99.2 22 28 10.5 66.7 47.9 72 50" class="Y"/><path d="M198.2 721.3c30.3 12.6 22.4 73-26.5 74.6-7.2.3-85.5-4-115.1-36-31-33.4-36.4-103.6-24.9-107.8 9-3.2 67.8 11.9 95.6 22 27 9.9 65.7 45.1 70.9 47.2" class="Z"/><path d="M195.5 723.6c27.9 12 20.8 68.7-24.3 70.8-6.9.3-83-4.4-112-35.1-30.5-32.3-36.5-98-25.6-102 8.7-3.2 65.3 12.4 92.1 22 26 9.2 64.7 42.1 69.8 44.3" class="a0"/><path d="M192.7 725.8c25.6 11.4 19.4 64.5-21.9 67-6.8.4-80.6-4.7-109-34.2-30-31.2-36.5-92.4-26.2-96.2 8.2-3.1 62.7 13.1 88.5 22 24.9 8.6 63.7 39.3 68.6 41.4" class="a1"/><path d="M190 728.1c23.2 10.7 17.9 60.3-19.7 63.1-6.6.5-78.1-5-105.8-33.2-29.6-30.1-36.7-86.9-27-90.5 7.9-3 60.2 13.7 85 22 23.9 7.9 62.8 36.4 67.5 38.6" class="a2"/><path d="M187.3 730.4c20.8 10 16.4 56.2-17.5 59.2-6.4.6-75.6-5.3-102.7-32.3-29.1-28.9-36.8-81.2-27.7-84.7 7.6-2.9 57.7 14.4 81.6 22 22.8 7.3 61.7 33.5 66.3 35.8" class="a3"/><path d="M184.6 732.6c18.5 9.3 14.9 52.2-15.3 55.5-6.1.6-73.1-5.7-99.6-31.4-28.6-27.9-36.8-75.7-28.3-79 7.1-2.8 55.1 15.1 78 22.1 21.8 6.6 60.8 30.6 65.2 32.8" class="a4"/><path d="M181.9 734.9c16.1 8.5 13.3 48.2-13.1 51.6-5.9.8-70.6-6-96.4-30.5-28.1-26.7-37-70-29.1-73.2 6.8-2.7 52.5 15.7 74.5 22.1 20.8 6 59.8 27.7 64.1 30" class="a5"/><path d="M179.2 737.2c13.8 7.7 11.8 44.3-10.9 47.8-5.7.8-68.2-6.4-93.3-29.6-27.7-25.6-37.1-64.5-29.7-67.5 6.4-2.5 49.9 16.4 70.9 22.1 19.7 5.3 58.8 24.8 63 27.2" class="a6"/><path d="M176.5 739.4c11.5 6.8 10.3 40.6-8.7 44-5.4 1-65.7-6.6-90.2-28.7-27.2-24.5-37.1-58.9-30.4-61.7 6-2.4 47.4 17 67.5 22.1 18.6 4.7 57.7 21.9 61.8 24.3" class="a7"/><path d="M173.8 741.7c9.3 5.9 8.8 36.9-6.4 40.1-5.3 1.2-63.3-6.9-87.1-27.7-26.8-23.4-37.3-53.3-31.1-56 5.6-2.3 44.8 17.7 63.9 22.2 17.6 4 56.8 18.9 60.7 21.4" class="a8"/><path d="M171.1 743.9c7 4.9 7.3 33.4-4.2 36.4-5.1 1.2-60.8-7.3-84-26.8-26.3-22.3-37.4-47.8-31.8-50.2 5.2-2.3 42.2 18.3 60.4 22.1 16.6 3.4 55.9 16 59.6 18.5" class="a9"/><path d="M168.4 746.2c4.9 3.9 5.9 29.9-2 32.5-4.8 1.6-58.4-7.5-80.8-25.9-25.9-21-37.5-42.2-32.5-44.4 4.8-2.2 39.6 19 56.8 22.1 15.5 2.8 55 13 58.5 15.7" class="aa"/><path d="M165.7 748.5c2.8 2.8 4.6 26.5.2 28.6-4.4 2.2-55.9-7.8-77.7-24.9-25.4-20-37.6-36.6-33.2-38.7 4.5-2.1 37.1 19.7 53.4 22.1 14.4 2.2 54.2 9.8 57.3 12.9" class="ab"/></g><g style="mix-blend-mode:soft-light"><path d="M508.2 606.2c-12.6-4.3-91 6-127.3 21.8-36.4 15.8-74.7 70.9-81.1 72.9-52.4 16.4-35.8 112.9 46.5 109.1 9.2-.4 107.9-1 143.2-44.3s35.5-153.9 18.7-159.5" class="Q"/><path d="M302.5 703.2c-50 16-34.3 108.3 44.2 105.2 9.1-.3 105.5-1.2 140.2-43.3 34.8-42.3 35.5-148.4 19.3-153.9-12.1-4.1-88.4 6.8-123.8 21.9-35.3 15.2-73.6 68.1-79.9 70.1" class="R"/><path d="M305.2 705.4c-47.5 15.7-32.8 103.8 42 101.5 8.8-.3 103-1.6 137-42.5 34.4-41.1 35.7-142.7 20.1-148-11.8-4.1-85.8 7.3-120.3 21.9-34.3 14.5-72.6 65.1-78.8 67.1" class="S"/><path d="M307.9 707.7c-45 15.3-31.3 99.3 39.8 97.6 8.6-.2 100.5-1.9 133.9-41.5 33.9-40 35.8-137.2 20.8-142.3-11.4-3.9-83.3 8-116.8 21.9-33.2 13.8-71.7 62.3-77.7 64.3" class="T"/><path d="M310.6 710c-42.6 14.9-29.8 91.6 37.6 93.7 8.3.3 98-2.2 130.8-40.6 33.4-38.8 35.8-131.5 21.4-136.5-11-3.8-80.7 8.7-113.2 21.9-32.2 13.2-70.7 59.4-76.6 61.5" class="U"/><path d="M313.3 712.3c-40.1 14.4-28.3 86.5 35.4 89.9 8.1.4 95.4-2.7 127.6-39.7 32.9-37.8 36-126 22.2-130.8-10.7-3.7-78.2 9.3-109.8 21.9-31.1 12.6-69.6 56.6-75.4 58.7" class="V"/><path d="M316 714.5c-37.7 14.1-26.7 81.6 33.1 86.1 7.9.6 93-3 124.6-38.8 32.4-36.7 36.1-120.3 22.8-125-10.2-3.6-75.6 10-106.2 22-30.1 11.9-68.7 53.6-74.3 55.7" class="W"/><path d="M318.7 716.8c-35.2 13.6-25.1 76.6 30.9 82.2 7.6.8 90.5-3.3 121.4-37.8 32-35.6 36.2-114.8 23.5-119.3-9.8-3.5-73 10.6-102.6 22-29.1 11.2-67.7 50.8-73.2 52.9" class="X"/><path d="M321.4 719c-32.8 13.1-23.5 71.9 28.7 78.5 7.4.9 88-3.7 118.3-36.9 31.4-34.6 36.3-109.2 24.2-113.6-9.5-3.4-70.4 11.2-99.1 22-28.1 10.5-66.8 47.9-72.1 50" class="Y"/><path d="M324.2 721.3c-30.4 12.6-21.9 67.2 26.4 74.6 7.1 1.1 85.5-4 115.2-36 30.9-33.4 36.3-103.6 24.8-107.8-9-3.2-67.8 11.9-95.6 22-27 9.9-65.7 45.1-70.8 47.2" class="Z"/><path d="M326.9 723.6c-28 12-20.2 62.6 24.2 70.8 6.9 1.2 83-4.4 112-35.1 30.5-32.3 36.5-98 25.6-102-8.7-3.2-65.3 12.4-92.1 22-26 9.2-64.7 42.1-69.7 44.3" class="a0"/><path d="M329.6 725.8c-25.6 11.4-18.6 58.3 22 67 6.6 1.4 80.5-4.7 108.9-34.2 30-31.2 36.5-92.4 26.3-96.2-8.3-3.1-62.8 13.1-88.6 22-24.9 8.6-63.7 39.3-68.6 41.4" class="a1"/><path d="M332.3 728.1c-23.2 10.7-16.9 54 19.7 63.1 6.4 1.6 78.1-5 105.8-33.2 29.6-30.1 36.7-86.9 27-90.5-7.9-3-60.2 13.7-85 22-23.9 7.9-62.8 36.4-67.5 38.6" class="a2"/><path d="M335 730.4c-20.8 10-15.2 50 17.5 59.2 6.1 1.8 75.6-5.3 102.7-32.3 29.1-28.9 36.8-81.2 27.7-84.7-7.6-2.9-57.6 14.4-81.5 22-22.9 7.3-61.8 33.5-66.4 35.8" class="a3"/><path d="M337.7 732.6c-18.5 9.3-14.8 52.2 15.3 55.5 6.1.6 73.1-5.7 99.6-31.4 28.6-27.9 36.9-75.7 28.3-79-7.1-2.8-55 15.1-78 22.1-21.8 6.6-60.7 30.6-65.2 32.8" class="a4"/><path d="M340.4 734.9c-16.1 8.5-13.3 48.2 13.1 51.6 5.9.8 70.7-6 96.4-30.5 28.2-26.7 37-70 29.1-73.2-6.8-2.7-52.5 15.7-74.5 22.1-20.7 6-59.8 27.7-64.1 30" class="a5"/><path d="M343.1 737.2c-13.8 7.7-11.8 44.3 10.9 47.8 5.7.8 68.2-6.4 93.3-29.6 27.7-25.6 37.1-64.5 29.7-67.5-6.4-2.5-49.9 16.4-70.9 22.1-19.7 5.3-58.8 24.8-63 27.2" class="a6"/><path d="M345.8 739.4c-11.5 6.8-10.3 40.6 8.7 44 5.5 1 65.7-6.6 90.2-28.7 27.2-24.4 37.1-58.9 30.4-61.7-6-2.4-47.4 17-67.4 22.1-18.7 4.7-57.8 21.9-61.9 24.3" class="a7"/><path d="M348.5 741.7c-9.2 5.9-8.8 36.9 6.5 40.1 5.2 1.2 63.2-6.9 87-27.7 26.8-23.4 37.3-53.3 31.1-56-5.6-2.3-44.8 17.7-63.9 22.2-17.6 4-56.8 18.9-60.7 21.4" class="a8"/><path d="M351.2 743.9c-7 4.9-7.3 33.4 4.2 36.4 5.1 1.3 60.8-7.3 84-26.8 26.3-22.3 37.4-47.8 31.8-50.2-5.2-2.3-42.2 18.3-60.4 22.1-16.6 3.4-55.9 16-59.6 18.5" class="a9"/><path d="M353.9 746.2c-4.8 3.9-5.9 29.9 2 32.5 4.8 1.6 58.4-7.5 80.8-25.9 25.9-21 37.5-42.2 32.5-44.4-4.8-2.2-39.6 19-56.8 22.1-15.5 2.8-55 13-58.5 15.7" class="aa"/><path d="M356.6 748.5c-2.8 2.8-4.6 26.5-.2 28.6 4.4 2.2 55.9-7.8 77.7-24.9 25.4-20 37.6-36.6 33.2-38.7-4.5-2.1-37.1 19.7-53.3 22.1-14.5 2.2-54.3 9.8-57.4 12.9" class="ab"/></g><path d="M170.7 810.5H352c13.4 0 25-10.1 28.2-24.5l14.5-66.4c4.3-20-9.5-39.3-28.2-39.3H163.4c-17.4 0-30.8 16.7-28.8 35.7l7.3 66.4c1.7 16 14.1 28.1 28.8 28.1" class="a"/><path d="M171 808h180.5c13.3 0 24.9-9.7 28-23.6l14.5-64.3c4.4-19.4-9.4-38.1-28.1-38.1H163.8c-17.4 0-30.8 16.2-28.7 34.6l7.2 64.2c1.8 15.6 14.1 27.2 28.7 27.2" style="fill:#92562e"/><path d="M171.3 805.6H351c13.3 0 24.8-9.5 27.9-22.9l14.4-62.2c4.3-18.7-9.4-36.8-27.9-36.8H164.1c-17.2 0-30.6 15.7-28.5 33.4l7.2 62.2c1.7 15 13.9 26.3 28.5 26.3" style="fill:#935830"/><path d="M171.6 803.1h178.9c13.2 0 24.7-9.1 27.8-22.1l14.3-60c4.3-18.1-9.3-35.6-27.8-35.6H164.4c-17.1 0-30.4 15.1-28.4 32.3l7.2 60.1c1.7 14.4 13.9 25.3 28.4 25.3" style="fill:#955a31"/><path d="M171.9 800.7H350c13.2 0 24.6-8.8 27.7-21.3l14.2-57.9c4.4-17.5-9.2-34.4-27.7-34.4H164.8c-17.1 0-30.4 14.6-28.3 31.2l7.1 57.9c1.8 14 13.9 24.5 28.3 24.5" style="fill:#975b33"/><path d="M172.2 798.3h177.3c13.1 0 24.5-8.5 27.6-20.6l14.2-55.8c4.2-16.8-9.3-33-27.6-33H165.1c-17 0-30.2 14-28.1 29.9l7.1 55.9c1.7 13.4 13.7 23.6 28.1 23.6" style="fill:#985d34"/><path d="M172.5 795.8H349c13.1 0 24.4-8.1 27.5-19.7l14.1-53.7c4.3-16.2-9.2-31.8-27.5-31.8H165.5c-17 0-30.1 13.5-28.1 28.8l7.1 53.7c1.7 13 13.7 22.7 28 22.7" style="fill:#9a5f36"/><path d="M172.8 793.4h175.7c13 0 24.3-7.9 27.4-19l14-51.6c4.3-15.5-9.1-30.5-27.3-30.5H165.8c-16.9 0-29.9 13-27.9 27.7l7 51.6c1.7 12.4 13.7 21.8 27.9 21.8" style="fill:#9c6137"/><path d="M173.1 791H348c13 0 24.2-7.6 27.2-18.3l14-49.4c4.2-14.9-9.1-29.3-27.2-29.3H166.1c-16.7 0-29.7 12.4-27.7 26.6l7 49.4c1.6 12 13.6 21 27.7 21" style="fill:#9d6339"/><path d="M173.4 788.5h174.1c12.9 0 24.1-7.2 27.1-17.4l13.9-47.3c4.3-14.3-9-28.1-27-28.1h-195c-16.7 0-29.7 11.9-27.7 25.5l7 47.3c1.7 11.4 13.5 20 27.6 20" style="fill:#9f653a"/><path d="M173.7 786.1h173.4c12.8 0 23.9-6.9 26.9-16.7l13.9-45.2c4.2-13.6-9.1-26.8-27-26.8H166.8c-16.6 0-29.5 11.4-27.5 24.3l6.9 45.3c1.7 10.9 13.5 19.1 27.5 19.1" style="fill:#a1673c"/><path d="M174.1 783.6h172.5c12.7 0 23.8-6.5 26.8-15.8l13.8-43.1c4.2-13-9-25.5-26.8-25.5H167.2c-16.6 0-29.4 10.8-27.4 23.1l6.9 43.1c1.6 10.4 13.4 18.2 27.4 18.2" style="fill:#a2683d"/><path d="M174.4 781.2h171.7c12.7 0 23.7-6.2 26.7-15.1l13.7-41c4.2-12.3-8.9-24.2-26.7-24.2H167.5c-16.5 0-29.2 10.3-27.3 22l6.9 41c1.7 9.8 13.4 17.3 27.3 17.3" style="fill:#a46a3f"/><path d="M174.7 778.7h170.9c12.6 0 23.6-5.9 26.6-14.2l13.6-38.9c4.2-11.7-8.9-23-26.6-23H167.8c-16.4 0-29.1 9.7-27.1 20.9l6.8 38.8c1.7 9.4 13.3 16.4 27.2 16.4" style="fill:#a66c40"/><path d="M175 776.3h170.1c12.6 0 23.5-5.6 26.4-13.5l13.7-36.7c4.1-11.1-8.9-21.8-26.5-21.8H168.2c-16.3 0-29 9.2-27 19.7l6.8 36.8c1.6 8.8 13.2 15.5 27 15.5" style="fill:#a76e42"/><path d="M175.3 773.9h169.3c12.5 0 23.4-5.3 26.3-12.8l13.6-34.6c4.1-10.4-8.8-20.5-26.4-20.5H168.5c-16.2 0-28.8 8.7-26.9 18.6l6.8 34.6c1.6 8.4 13.2 14.7 26.9 14.7" style="fill:#a97043"/><path d="M175.6 771.4h168.5c12.5 0 23.3-4.9 26.2-11.9l13.5-32.5c4.1-9.8-8.8-19.3-26.2-19.3H168.9c-16.2 0-28.7 8.2-26.8 17.5l6.7 32.5c1.7 7.8 13.2 13.7 26.8 13.7" style="fill:#ab7245"/><path d="M175.9 769h167.7c12.4 0 23.2-4.6 26.1-11.2l13.4-30.4c4.1-9.1-8.7-18-26.1-18H169.2c-16.1 0-28.6 7.7-26.6 16.4l6.7 30.3c1.6 7.4 13 12.9 26.6 12.9" style="fill:#ac7446"/><path d="M176.2 766.6h166.9c12.4 0 23.1-4.4 26-10.5l13.3-28.2c4.1-8.5-8.7-16.7-25.9-16.7h-187c-16 0-28.4 7.1-26.5 15.1l6.7 28.3c1.6 6.8 13 12 26.5 12" style="fill:#ae7548"/><path d="M176.5 764.1h166.1c12.3 0 23-4 25.9-9.6l13.3-26.2c4-7.8-8.7-15.4-25.9-15.4h-186c-16 0-28.3 6.5-26.4 14l6.6 26.2c1.7 6.3 13 11 26.4 11" style="fill:#b07749"/><path d="M176.8 761.6h165.3c12.3 0 22.9-3.6 25.8-8.8l13.2-24c4-7.2-8.6-14.2-25.7-14.2H170.2c-15.8 0-28.1 6-26.2 12.9l6.6 24c1.6 5.8 12.8 10.1 26.2 10.1" style="fill:#b1794b"/><path d="M177.1 759.2h164.5c12.2 0 22.8-3.3 25.6-8.1l13.2-21.8c4-6.6-8.6-13-25.6-13H170.6c-15.8 0-28.1 5.5-26.2 11.8L151 750c1.6 5.2 12.8 9.2 26.1 9.2" style="fill:#b37b4c"/><path d="M3.2 719.4c10.1 31 24.8 56.7 44.6 70.1 69.3 46.9 371.5 54.7 433.7-13.7 13.1-14.5 24.2-34.1 32.9-56.4z" style="mix-blend-mode:multiply;fill:url(#g20)"/><g style="opacity:.2;mix-blend-mode:soft-light"><path d="M144.7 704.1c1.7-4.6 7.4-11.3 17.3-16.7l-.5-.9c-10.1 5.4-15.9 12.3-17.8 17.2-2 4.9-.9 7.5-1.1 7.5l1.1-.2c.2 0-.8-2.3 1-6.9m-1 6.9-1.1.2q.4 2.3 1.4 4.6l1-.5c-.7-1.4-1.1-2.8-1.3-4.3m1.3 4.3-1 .5c0 .1.2.3.2.3l.9-.5s-.1-.2-.1-.3m55.9 10.1c-10.2-.2-20.4-.6-30.4-1.7-9.3-1-21.5-2.9-25.4-8.1l-.9.5c4.7 6.2 16.8 7.5 26.2 8.7 10.1 1.1 20.3 1.4 30.5 1.6 20.4.3 40.9-.1 61.5-.4q-.1 0-.1-1.1c-20.5.3-41 .8-61.4.5m61.4-.5q0 1.1.1 1.1h.4v-1.1zm93.3-3.1c-10.2 1-20.5 1.5-30.8 1.9-20.6.4-41.3.8-62 1.2v1.1l62.1-1.2c10.3-.5 20.6-1 30.8-2 9.6-1.1 21.9-2.1 27.6-6.9l-.9-.6c-4.7 4-17.4 5.5-26.8 6.5m26.8-6.5.9.6s.2-.1.2-.2l-.9-.6c0 .1-.2.2-.2.2m.2-.2.9.6c1.3-2.1 1.9-4.6 2-7.1l-1-.1c-.1 2.4-.7 4.7-1.9 6.6m1.9-6.6 1 .1c.4-10-7.2-19.2-17-21.7q.1 0-.3 1c9.4 2.5 16.6 11.2 16.3 20.6m-16.3-20.6q.4-1 .3-1-.2-.1-.4-.1l-.2 1c.1.1.2.1.3.1m-.3-.1.2-1c-11.3-1.8-24.4-1.2-36.7-1.4v1.1c12.2.1 25.5-.4 36.5 1.3m-36.5-1.3v-1.1q-33.1.2-66.2.3v1.1q33.1-.2 66.2-.3m-66.2.3v-1.1h-.5v1.1zm-.5 0v-1.1c-22.1-.1-44.2-1.2-66.2-1.8v1c22 .6 44.1 1.8 66.2 1.9m-75.8-2 9.6.1v-1l-9.6-.2c-6.1.3-16.7-.9-27.4 2.8l.5.9c10-3.4 21-2.4 26.9-2.6m-45.2 18.9c1.9-4.9 7.7-11.8 17.8-17.2l-2.8-5.4c-11.2 6.1-17.9 13.7-20.6 20.2-2.7 6.7-1.3 10.7-1.5 10.6q6-.8 6-.7c.2 0-.9-2.6 1.1-7.5m-1.1 7.5q0-.1-6 .7c.3 2.3 1 4.5 1.9 6.5l5.5-2.6q-1-2.3-1.4-4.6m1.4 4.6-5.5 2.6c.1.2.1.3.3.5l5.4-2.8s-.2-.2-.2-.3m56.9 10.6c-10.2-.2-20.4-.5-30.5-1.6-9.4-1.2-21.5-2.5-26.2-8.7l-5.4 2.8c4.2 6.5 10.2 7.7 15.3 9.3 5.2 1.3 10.4 2.1 15.6 2.6 10.4 1.2 20.8 1.5 31.1 1.7 20.6.3 41.1-.1 61.6-.4q-.1-6.1 0-6.1c-20.6.3-41.1.7-61.5.4m61.5-.4q-.1 0 0 6.1h.5l-.1-6.1zm93.3-3.2c-10.2 1-20.5 1.5-30.8 2l-62.1 1.2.1 6.1q31.1-.6 62.2-1.3c10.4-.4 20.8-.9 31.2-1.9q7.9-.7 15.7-2.2c5.3-1.5 10.7-1.5 16.4-7.4l-5.1-3.4c-5.7 4.8-18 5.8-27.6 6.9m27.6-6.9 5.1 3.4c.1-.1.3-.3.4-.5l-5.3-3.1c0 .1-.2.2-.2.2m.2-.2 5.3 3.1c1.8-3.1 2.7-6.6 2.8-10l-6.1-.2c-.1 2.5-.7 5-2 7.1m2-7.1 6.1.2c.5-13.1-9.4-24.7-21.4-27.7l-1.7 5.8c9.8 2.5 17.4 11.7 17 21.7m-17-21.7 1.7-5.8q-.2-.1-.5-.2l-1.6 5.9q.2 0 .4.1m-.4-.1 1.6-5.9c-13.7-2.1-25.6-1.3-38.3-1.5v6c12.3.2 25.4-.4 36.7 1.4m-36.7-1.4v-6l-66.2.2v6.1q33.1-.1 66.2-.3m-66.2.3v-6.1h-.4l-.1 6.1zm-.5 0 .1-6.1c-22-.1-44-1.2-66.1-1.8l-.2 6.1c22 .6 44.1 1.7 66.2 1.8m-75.8-2 9.6.2.2-6.1-9.8-.2c-6.6.6-15.8-1.4-30.2 3.5l2.8 5.4c10.7-3.7 21.3-2.5 27.4-2.8" style="fill:url(#g21)"/></g><path d="M160.4 728.5h211.8c8.7 0 16.7-3.5 22.5-9.2 4.2-19.9-9.6-39-28.2-39H163.4c-17.2 0-30.6 16.4-28.8 35.2 6 7.8 15.3 13 25.8 13" style="opacity:.5;mix-blend-mode:soft-light;fill:url(#g22)"/></svg>