<svg xmlns="http://www.w3.org/2000/svg" width="704" height="1440" viewBox="0 0 22 45"><title>6845832_27788</title><defs><linearGradient id="g1" x2="1" gradientTransform="matrix(3.572 0 0 1.66 4 43.108)" gradientUnits="userSpaceOnUse"><stop offset="0" stop-color="#e00000"/><stop offset="1" stop-color="#830000"/></linearGradient><linearGradient id="g2" x2="1" gradientTransform="matrix(3.572 0 0 1.66 13.998 43.108)" gradientUnits="userSpaceOnUse"><stop offset="0" stop-color="#e00000"/><stop offset="1" stop-color="#830000"/></linearGradient><linearGradient id="g3" x2="1" gradientTransform="matrix(-3.904 0 0 8.573 19.781 7.489)" gradientUnits="userSpaceOnUse"><stop offset=".005" stop-color="#c0c0bf"/><stop offset=".033" stop-color="#e2e5e4"/><stop offset=".908" stop-color="#d2d2d1"/><stop offset=".981" stop-color="#b4b7b3"/><stop offset=".992" stop-color="#adb1ad"/></linearGradient><linearGradient id="g4" x2="1" gradientTransform="matrix(0 -4.475 -5.713 0 21.009 15.63)" gradientUnits="userSpaceOnUse"><stop offset="0" stop-color="gray"/><stop offset="1" stop-color="#fff"/></linearGradient><linearGradient id="g6" x2="1" gradientTransform="matrix(.979 0 0 8.227 18.296 7.516)" gradientUnits="userSpaceOnUse"><stop offset=".496" stop-color="#acacac"/><stop offset="1" stop-color="#fff"/></linearGradient><linearGradient id="g7" x2="1" gradientTransform="matrix(3.904 0 0 8.573 1.755 7.489)" gradientUnits="userSpaceOnUse"><stop offset=".005" stop-color="#c0c0bf"/><stop offset=".033" stop-color="#e2e5e4"/><stop offset=".908" stop-color="#d2d2d1"/><stop offset=".981" stop-color="#b4b7b3"/><stop offset=".992" stop-color="#adb1ad"/></linearGradient><linearGradient id="g8" x2="1" gradientTransform="matrix(0 -4.475 5.714 0 .526 15.63)" gradientUnits="userSpaceOnUse"><stop offset="0" stop-color="gray"/><stop offset="1" stop-color="#fff"/></linearGradient><linearGradient id="g10" x2="1" gradientTransform="matrix(-3.904 0 0 8.573 19.781 30.607)" gradientUnits="userSpaceOnUse"><stop offset=".005" stop-color="#c0c0bf"/><stop offset=".033" stop-color="#e2e5e4"/><stop offset=".908" stop-color="#d2d2d1"/><stop offset=".981" stop-color="#b4b7b3"/><stop offset=".992" stop-color="#adb1ad"/></linearGradient><linearGradient id="g11" x2="1" gradientTransform="matrix(0 -4.475 -5.714 0 21.01 38.747)" gradientUnits="userSpaceOnUse"><stop offset="0" stop-color="gray"/><stop offset="1" stop-color="#fff"/></linearGradient><linearGradient id="g13" x2="1" gradientTransform="matrix(.979 0 0 8.227 18.296 30.633)" gradientUnits="userSpaceOnUse"><stop offset=".496" stop-color="#acacac"/><stop offset="1" stop-color="#fff"/></linearGradient><linearGradient id="g14" x2="1" gradientTransform="matrix(3.904 0 0 8.573 1.755 30.607)" gradientUnits="userSpaceOnUse"><stop offset=".005" stop-color="#c0c0bf"/><stop offset=".033" stop-color="#e2e5e4"/><stop offset=".908" stop-color="#d2d2d1"/><stop offset=".981" stop-color="#b4b7b3"/><stop offset=".992" stop-color="#adb1ad"/></linearGradient><linearGradient id="g15" x2="1" gradientTransform="matrix(0 -4.475 5.714 0 .525 38.747)" gradientUnits="userSpaceOnUse"><stop offset="0" stop-color="gray"/><stop offset="1" stop-color="#fff"/></linearGradient><linearGradient id="g17" x2="1" gradientTransform="matrix(17.372 0 0 45 2.082 0)" gradientUnits="userSpaceOnUse"><stop offset=".005" stop-color="#c0c0bf"/><stop offset=".033" stop-color="#e2e5e4"/><stop offset=".908" stop-color="#d2d2d1"/><stop offset=".981" stop-color="#b4b7b3"/><stop offset=".992" stop-color="#adb1ad"/></linearGradient><linearGradient id="g18" x2="1" gradientTransform="matrix(13.952 0 0 6.443 3.867 38.315)" gradientUnits="userSpaceOnUse"><stop offset=".005" stop-color="#cacac9"/><stop offset=".033" stop-color="#f2f4f3"/><stop offset=".9" stop-color="#dcdcdb"/><stop offset="1" stop-color="#b7bbb7"/></linearGradient><linearGradient id="g19" x2="1" gradientTransform="matrix(0 -5.921 2.07 0 9.769 45.133)" gradientUnits="userSpaceOnUse"><stop offset="0" stop-color="#c9c9c9"/><stop offset=".512" stop-color="#fff"/></linearGradient><linearGradient id="g20" x2="1" gradientTransform="matrix(8.939 0 0 6.443 3.867 38.315)" gradientUnits="userSpaceOnUse"><stop offset=".171" stop-color="#fff"/><stop offset=".539" stop-color="#dcdcdb"/><stop offset=".825" stop-color="#808780"/></linearGradient><linearGradient id="g21" x2="1" gradientTransform="matrix(8.094 0 0 17.398 3.1 16.871)" gradientUnits="userSpaceOnUse"><stop offset=".171" stop-color="#fff"/><stop offset=".539" stop-color="#dcdcdb"/><stop offset=".825" stop-color="#808780"/></linearGradient><linearGradient id="g22" x2="1" gradientTransform="rotate(11.896 13.872 8.912)scale(19.304 13.895)" gradientUnits="userSpaceOnUse"><stop offset=".005" stop-color="#cacac9"/><stop offset=".386" stop-color="#f2f4f3"/><stop offset=".9" stop-color="#dcdcdb"/><stop offset="1" stop-color="#b7bbb7"/></linearGradient><linearGradient id="g23" x2="1" gradientTransform="matrix(.936 .564 -.472 .784 2.125 13.258)" gradientUnits="userSpaceOnUse"><stop offset="0" stop-color="#242424"/><stop offset="1" stop-color="#010101"/></linearGradient><linearGradient id="g24" x2="1" gradientTransform="matrix(1.986 1.314 -.987 1.491 .601 13.168)" gradientUnits="userSpaceOnUse"><stop offset=".005" stop-color="#c0c0bf"/><stop offset=".295" stop-color="#edefee"/><stop offset="1" stop-color="#adb1ad"/></linearGradient><linearGradient id="g25" x2="1" gradientTransform="matrix(2.099 0 0 .872 .009 15.125)" gradientUnits="userSpaceOnUse"><stop offset="0" stop-color="#5a5a57"/><stop offset=".995" stop-color="#d9d9d8"/></linearGradient><linearGradient id="g26" x2="1" gradientTransform="matrix(-.936 .564 .472 .784 19.453 13.258)" gradientUnits="userSpaceOnUse"><stop offset="0" stop-color="#242424"/><stop offset="1" stop-color="#010101"/></linearGradient><linearGradient id="g27" x2="1" gradientTransform="matrix(-1.986 1.314 .987 1.491 20.977 13.168)" gradientUnits="userSpaceOnUse"><stop offset=".005" stop-color="#c0c0bf"/><stop offset=".295" stop-color="#edefee"/><stop offset="1" stop-color="#adb1ad"/></linearGradient><linearGradient id="g28" x2="1" gradientTransform="matrix(-2.099 0 0 .872 21.57 15.125)" gradientUnits="userSpaceOnUse"><stop offset="0" stop-color="#5a5a57"/><stop offset=".995" stop-color="#d9d9d8"/></linearGradient><linearGradient id="g29" x2="1" gradientTransform="matrix(1.368 0 0 11.65 2.693 12.672)" gradientUnits="userSpaceOnUse"><stop offset="0" stop-color="#404040"/><stop offset="1" stop-color="#010101"/></linearGradient><linearGradient id="g30" x2="1" gradientTransform="matrix(1.336 0 0 10.108 2.682 24.71)" gradientUnits="userSpaceOnUse"><stop offset="0" stop-color="#404040"/><stop offset="1" stop-color="#010101"/></linearGradient><linearGradient id="g31" x2="1" gradientTransform="matrix(15.341 0 0 8.235 3.097 9.325)" gradientUnits="userSpaceOnUse"><stop offset="0" stop-color="#242424"/><stop offset="1" stop-color="#010101"/></linearGradient><linearGradient id="g32" x2="1" gradientTransform="matrix(1.368 0 0 11.65 17.475 12.672)" gradientUnits="userSpaceOnUse"><stop offset="0" stop-color="#010101"/><stop offset="1" stop-color="#404040"/></linearGradient><linearGradient id="g33" x2="1" gradientTransform="matrix(1.336 0 0 10.108 17.518 24.71)" gradientUnits="userSpaceOnUse"><stop offset="0" stop-color="#242424"/><stop offset="1" stop-color="#010101"/></linearGradient><linearGradient id="g36" x2="1" gradientTransform="matrix(7.933 9.475 -10.172 8.516 7.265 4.442)" gradientUnits="userSpaceOnUse"><stop offset="0" stop-color="#f2f4f3"/><stop offset=".849" stop-color="#dcdcdb"/><stop offset="1" stop-color="gray"/></linearGradient><linearGradient id="g37" x2="1" gradientTransform="matrix(0 -.09 .187 0 15.243 23.453)" gradientUnits="userSpaceOnUse"><stop offset="0" stop-color="#fff"/><stop offset="1"/></linearGradient><linearGradient id="g38" x2="1" gradientTransform="matrix(3.921 0 0 4.713 5.554 18.951)" gradientUnits="userSpaceOnUse"><stop offset="0" stop-color="#fff"/><stop offset=".887" stop-color="#dcdcdb"/><stop offset="1" stop-color="gray"/></linearGradient><linearGradient id="g39" x2="1" gradientTransform="matrix(0 -.09 .187 0 15.243 23.453)" gradientUnits="userSpaceOnUse"><stop offset="0" stop-color="#fff"/><stop offset="1"/></linearGradient><linearGradient id="g45" x2="1" gradientTransform="matrix(-.018 .004 -.019 -.085 4.247 17.555)" gradientUnits="userSpaceOnUse"><stop offset="0" stop-color="#fff"/><stop offset="1"/></linearGradient><linearGradient id="g46" x2="1" gradientTransform="matrix(-.025 -.006 .026 -.118 17.317 17.552)" gradientUnits="userSpaceOnUse"><stop offset="0" stop-color="#fff"/><stop offset="1"/></linearGradient><linearGradient id="g50" x2="1" gradientTransform="matrix(0 -.064 .134 0 10.768 40.296)" gradientUnits="userSpaceOnUse"><stop offset="0" stop-color="#fff"/><stop offset="1" stop-color="#717071"/></linearGradient><linearGradient id="g51" x2="1" gradientTransform="matrix(13.952 0 0 6.919 3.867 33.301)" gradientUnits="userSpaceOnUse"><stop offset="0" stop-color="#242424"/><stop offset="1" stop-color="#010101"/></linearGradient><linearGradient id="g52" x2="1" gradientTransform="matrix(7.877 0 0 6.919 3.867 33.301)" gradientUnits="userSpaceOnUse"><stop offset="0" stop-color="#f2f4f3"/><stop offset=".849" stop-color="#dcdcdb"/><stop offset="1" stop-color="gray"/></linearGradient><linearGradient id="g56" x2="1" gradientTransform="matrix(7.436 0 0 .593 7.047 .419)" gradientUnits="userSpaceOnUse"><stop offset=".005" stop-color="#cacac9"/><stop offset=".386" stop-color="#f2f4f3"/><stop offset=".9" stop-color="#dcdcdb"/><stop offset="1" stop-color="#b7bbb7"/></linearGradient><linearGradient id="g57" x2="1" gradientTransform="matrix(6.885 0 0 .496 7.327 .261)" gradientUnits="userSpaceOnUse"><stop offset=".005" stop-color="#cacac9"/><stop offset=".386" stop-color="#f2f4f3"/><stop offset=".9" stop-color="#dcdcdb"/><stop offset="1" stop-color="#b7bbb7"/></linearGradient><linearGradient id="g58" x2="1" gradientTransform="matrix(6.455 0 0 .472 7.549 .091)" gradientUnits="userSpaceOnUse"><stop offset=".005" stop-color="#cacac9"/><stop offset=".386" stop-color="#f2f4f3"/><stop offset=".9" stop-color="#dcdcdb"/><stop offset="1" stop-color="#b7bbb7"/></linearGradient><linearGradient id="g59" x2="1" gradientTransform="matrix(1.368 0 0 11.65 2.693 12.672)" gradientUnits="userSpaceOnUse"><stop offset="0" stop-color="#2d2721"/><stop offset=".398" stop-color="#8a8a83"/><stop offset=".995" stop-color="#9c9c9a"/></linearGradient><linearGradient id="g60" x2="1" gradientTransform="matrix(1.336 0 0 10.108 2.682 24.71)" gradientUnits="userSpaceOnUse"><stop offset="0" stop-color="#2d2721"/><stop offset=".398" stop-color="#8a8a83"/><stop offset=".995" stop-color="#9c9c9a"/></linearGradient><linearGradient id="g61" x2="1" gradientTransform="matrix(1.368 0 0 11.65 17.475 12.672)" gradientUnits="userSpaceOnUse"><stop offset=".005" stop-color="#9c9c9a"/><stop offset=".602" stop-color="#8a8a83"/><stop offset="1" stop-color="#2d2721"/></linearGradient><linearGradient id="g62" x2="1" gradientTransform="matrix(1.336 0 0 10.108 17.518 24.71)" gradientUnits="userSpaceOnUse"><stop offset="0" stop-color="#010101"/><stop offset="1" stop-color="#404040"/></linearGradient><linearGradient id="g63" x2="1" gradientTransform="matrix(1.336 0 0 10.108 17.504 24.71)" gradientUnits="userSpaceOnUse"><stop offset="0" stop-color="#2d2721"/><stop offset=".398" stop-color="#8a8a83"/><stop offset=".995" stop-color="#9c9c9a"/></linearGradient><linearGradient id="g64" x2="1" gradientTransform="matrix(.037 -.066 .085 .047 17.031 33.522)" gradientUnits="userSpaceOnUse"><stop offset="0"/><stop offset="1" stop-color="#fff"/></linearGradient><linearGradient id="g65" x2="1" gradientTransform="matrix(.612 0 0 .822 4.658 17.971)" gradientUnits="userSpaceOnUse"><stop offset="0" stop-color="#010101"/><stop offset="1" stop-color="#242424"/></linearGradient><linearGradient id="g66" x2="1" gradientTransform="matrix(.299 0 0 .68 4.814 18.244)" gradientUnits="userSpaceOnUse"><stop offset="0" stop-color="#242424"/><stop offset="1" stop-color="#010101"/></linearGradient><linearGradient id="g67" x2="1" gradientTransform="matrix(.295 0 0 .397 4.816 18.541)" gradientUnits="userSpaceOnUse"><stop offset="0" stop-color="#010101"/><stop offset="1" stop-color="#242424"/></linearGradient><linearGradient id="g68" x2="1" gradientTransform="matrix(.067 0 0 2.571 4.93 18.736)" gradientUnits="userSpaceOnUse"><stop offset="0" stop-color="#242424"/><stop offset="1" stop-color="#010101"/></linearGradient><linearGradient id="g69" x2="1" gradientTransform="rotate(203.295 12.308 28.661)scale(25.531 54.413)" gradientUnits="userSpaceOnUse"><stop offset="0" stop-color="#a2a2a2"/><stop offset=".512" stop-color="#fff"/></linearGradient><linearGradient id="g70" x2="1" gradientTransform="matrix(3.438 0 0 2.202 2.852 1.233)" gradientUnits="userSpaceOnUse"><stop offset="0" stop-color="#535350"/><stop offset=".995" stop-color="#8c8c89"/></linearGradient><linearGradient id="g71" x2="1" gradientTransform="matrix(3.276 0 0 1.835 2.852 1.6)" gradientUnits="userSpaceOnUse"><stop offset="0" stop-color="#5a5a57"/><stop offset=".995" stop-color="#d9d9d8"/></linearGradient><linearGradient id="g72" x2="1" gradientTransform="matrix(.851 -.2 .056 .238 5.243 1.49)" gradientUnits="userSpaceOnUse"><stop offset="0" stop-color="#535350"/><stop offset=".995" stop-color="#8c8c89"/></linearGradient><linearGradient id="g73" x2="1" gradientTransform="matrix(.652 -.255 .071 .182 4.456 1.846)" gradientUnits="userSpaceOnUse"><stop offset="0" stop-color="#535350"/><stop offset=".995" stop-color="#8c8c89"/></linearGradient><linearGradient id="g75" x2="1" gradientTransform="matrix(3.151 0 0 1.549 2.852 1.886)" gradientUnits="userSpaceOnUse"><stop offset="0" stop-color="#535350"/><stop offset=".995" stop-color="#8c8c89"/></linearGradient><linearGradient id="g76" x2="1" gradientTransform="matrix(-3.438 0 0 2.202 18.684 1.233)" gradientUnits="userSpaceOnUse"><stop offset="0" stop-color="#535350"/><stop offset=".995" stop-color="#8c8c89"/></linearGradient><linearGradient id="g77" x2="1" gradientTransform="matrix(-3.276 0 0 1.835 18.684 1.6)" gradientUnits="userSpaceOnUse"><stop offset="0" stop-color="#5a5a57"/><stop offset=".995" stop-color="#d9d9d8"/></linearGradient><linearGradient id="g78" x2="1" gradientTransform="matrix(-.851 -.199 -.056 .238 16.293 1.49)" gradientUnits="userSpaceOnUse"><stop offset="0" stop-color="#535350"/><stop offset=".995" stop-color="#8c8c89"/></linearGradient><linearGradient id="g79" x2="1" gradientTransform="matrix(-.652 -.255 -.071 .182 17.08 1.846)" gradientUnits="userSpaceOnUse"><stop offset="0" stop-color="#535350"/><stop offset=".995" stop-color="#8c8c89"/></linearGradient><linearGradient id="g81" x2="1" gradientTransform="matrix(-3.151 0 0 1.549 18.684 1.886)" gradientUnits="userSpaceOnUse"><stop offset="0" stop-color="#535350"/><stop offset=".995" stop-color="#8c8c89"/></linearGradient><linearGradient id="g82" x2="1" gradientTransform="matrix(.325 0 0 2.639 1.92 20.022)" gradientUnits="userSpaceOnUse"><stop offset=".005" stop-color="#c0c0bf"/><stop offset=".105" stop-color="#fff"/><stop offset=".295" stop-color="#edefee"/><stop offset=".845" stop-color="#adb1ad"/><stop offset="1" stop-color="#bfc5c1"/></linearGradient><linearGradient id="g83" x2="1" gradientTransform="matrix(-.326 0 0 2.639 19.513 20.022)" gradientUnits="userSpaceOnUse"><stop offset=".005" stop-color="#c0c0bf"/><stop offset=".105" stop-color="#fff"/><stop offset=".295" stop-color="#edefee"/><stop offset=".845" stop-color="#adb1ad"/><stop offset="1" stop-color="#bfc5c1"/></linearGradient><linearGradient id="g84" x2="1" gradientTransform="matrix(.325 0 0 2.639 1.92 30.103)" gradientUnits="userSpaceOnUse"><stop offset=".005" stop-color="#c0c0bf"/><stop offset=".105" stop-color="#fff"/><stop offset=".295" stop-color="#edefee"/><stop offset=".845" stop-color="#adb1ad"/><stop offset="1" stop-color="#bfc5c1"/></linearGradient><linearGradient id="g85" x2="1" gradientTransform="matrix(-.326 0 0 2.639 19.513 30.103)" gradientUnits="userSpaceOnUse"><stop offset=".005" stop-color="#c0c0bf"/><stop offset=".105" stop-color="#fff"/><stop offset=".295" stop-color="#edefee"/><stop offset=".845" stop-color="#adb1ad"/><stop offset="1" stop-color="#bfc5c1"/></linearGradient><linearGradient id="g86" x2="1" gradientTransform="matrix(1.887 -.14 .012 .157 6.92 9.312)" gradientUnits="userSpaceOnUse"><stop offset="0"/><stop offset=".905" stop-color="#454545"/></linearGradient><linearGradient id="g87" x2="1" gradientTransform="matrix(5.45 -.567 .054 .522 5.978 9.532)" gradientUnits="userSpaceOnUse"><stop offset="0" stop-color="#262626"/><stop offset=".905" stop-color="#454545"/></linearGradient><linearGradient id="g88" x2="1" gradientTransform="matrix(.015 .143 -.03 .003 8.752 9.254)" gradientUnits="userSpaceOnUse"><stop offset="0" stop-color="#9c9c9a"/><stop offset=".061" stop-color="#515148"/><stop offset=".226" stop-color="#b7bbb7"/><stop offset=".719" stop-color="#9c9c9a"/><stop offset=".843" stop-color="#e5e5e4"/><stop offset=".995" stop-color="#9c9c9a"/></linearGradient><linearGradient id="g89" x2="1" gradientTransform="matrix(1.762 .69 -.057 .147 13.45 9.098)" gradientUnits="userSpaceOnUse"><stop offset="0"/><stop offset=".905" stop-color="#454545"/></linearGradient><linearGradient id="g90" x2="1" gradientTransform="matrix(5.265 1.885 -.185 .517 12.397 8.85)" gradientUnits="userSpaceOnUse"><stop offset="0" stop-color="#262626"/><stop offset=".905" stop-color="#454545"/></linearGradient><linearGradient id="g91" x2="1" gradientTransform="matrix(-.049 .136 -.028 -.01 15.126 9.838)" gradientUnits="userSpaceOnUse"><stop offset="0" stop-color="#9c9c9a"/><stop offset=".061" stop-color="#515148"/><stop offset=".226" stop-color="#b7bbb7"/><stop offset=".719" stop-color="#9c9c9a"/><stop offset=".843" stop-color="#e5e5e4"/><stop offset=".995" stop-color="#9c9c9a"/></linearGradient><linearGradient id="g92" x2="1" gradientTransform="matrix(0 -.045 .082 0 10.768 9.476)" gradientUnits="userSpaceOnUse"><stop offset="0"/><stop offset="1" stop-color="#fff"/></linearGradient><radialGradient id="g5" cx="0" cy="0" r="1" gradientTransform="matrix(.477 .013 -.083 3.107 19.275 11.72)" gradientUnits="userSpaceOnUse"><stop offset="0" stop-color="#f2f4f3"/><stop offset="1" stop-color="gray"/></radialGradient><radialGradient id="g9" cx="0" cy="0" r="1" gradientTransform="matrix(.477 -.012 .076 3.108 2.276 11.557)" gradientUnits="userSpaceOnUse"><stop offset="0" stop-color="#f2f4f3"/><stop offset="1" stop-color="gray"/></radialGradient><radialGradient id="g12" cx="0" cy="0" r="1" gradientTransform="matrix(.477 .013 -.083 3.107 19.275 34.837)" gradientUnits="userSpaceOnUse"><stop offset="0" stop-color="#f2f4f3"/><stop offset="1" stop-color="gray"/></radialGradient><radialGradient id="g16" cx="0" cy="0" r="1" gradientTransform="matrix(.477 -.012 .076 3.108 2.276 34.675)" gradientUnits="userSpaceOnUse"><stop offset="0" stop-color="#f2f4f3"/><stop offset="1" stop-color="gray"/></radialGradient><radialGradient id="g34" cx="0" cy="0" r="1" gradientTransform="matrix(.094 0 0 9.751 2.462 24.71)" gradientUnits="userSpaceOnUse"><stop offset="0" stop-color="#b2b2b2"/><stop offset="1" stop-color="#fff"/></radialGradient><radialGradient id="g35" cx="0" cy="0" r="1" gradientTransform="matrix(.094 0 0 9.751 19.179 24.71)" gradientUnits="userSpaceOnUse"><stop offset="0" stop-color="#b2b2b2"/><stop offset="1" stop-color="#fff"/></radialGradient><radialGradient id="g40" cx="0" cy="0" r="1" gradientTransform="matrix(1.085 .094 -.411 4.737 3.377 6.851)" gradientUnits="userSpaceOnUse"><stop offset="0" stop-color="#f2f4f3"/><stop offset="1" stop-color="gray"/></radialGradient><radialGradient id="g41" cx="0" cy="0" r="1" gradientTransform="matrix(1.087 -.08 .363 4.904 18.23 7.248)" gradientUnits="userSpaceOnUse"><stop offset="0" stop-color="#f2f4f3"/><stop offset="1" stop-color="gray"/></radialGradient><radialGradient id="g42" cx="0" cy="0" r="1" gradientTransform="matrix(.856 .288 -1.302 3.865 5.957 5.759)" gradientUnits="userSpaceOnUse"><stop offset="0" stop-color="#f2f4f3"/><stop offset="1" stop-color="gray"/></radialGradient><radialGradient id="g43" cx="0" cy="0" r="1" gradientTransform="matrix(.214 0 0 4.365 10.554 4.366)" gradientUnits="userSpaceOnUse"><stop offset="0" stop-color="#f2f4f3"/><stop offset="1" stop-color="gray"/></radialGradient><radialGradient id="g44" cx="0" cy="0" r="1" gradientTransform="matrix(.464 .017 -.164 4.501 2.86 9.325)" gradientUnits="userSpaceOnUse"><stop offset="0" stop-color="#f2f4f3"/><stop offset="1" stop-color="gray"/></radialGradient><radialGradient id="g47" cx="0" cy="0" r="1" gradientTransform="matrix(1.149 .245 -1.474 6.921 17.929 14.717)" gradientUnits="userSpaceOnUse"><stop offset="0" stop-color="#f2f4f3"/><stop offset="1" stop-color="gray"/></radialGradient><radialGradient id="g48" cx="0" cy="0" r="1" gradientTransform="matrix(.079 3.175 -7.68 .215 9.778 7.931)" gradientUnits="userSpaceOnUse"><stop offset="0" stop-color="#f2f4f3"/><stop offset="1" stop-color="gray"/></radialGradient><radialGradient id="g49" cx="0" cy="0" r="1" gradientTransform="matrix(2.196 -.434 .008 7.265 4.705 17.78)" gradientUnits="userSpaceOnUse"><stop offset="0" stop-color="#f2f4f3"/><stop offset="1" stop-color="gray"/></radialGradient><radialGradient id="g53" cx="0" cy="0" r="1" gradientTransform="rotate(174.95 8.137 17.911)scale(-1.147 6.91)" gradientUnits="userSpaceOnUse"><stop offset="0" stop-color="#f2f4f3"/><stop offset="1" stop-color="gray"/></radialGradient><radialGradient id="g54" cx="0" cy="0" r="1" gradientTransform="matrix(.067 -2.705 -5.85 -.145 9.105 41.531)" gradientUnits="userSpaceOnUse"><stop offset="0" stop-color="#f2f4f3"/><stop offset="1" stop-color="gray"/></radialGradient><radialGradient id="g55" cx="0" cy="0" r="1" gradientTransform="matrix(3.281 .121 .116 -5.319 5.22 31.854)" gradientUnits="userSpaceOnUse"><stop offset="0" stop-color="#f2f4f3"/><stop offset="1" stop-color="gray"/></radialGradient><radialGradient id="g74" cx="0" cy="0" r="1" gradientTransform="matrix(.897 -.299 .064 .191 5.247 1.728)" gradientUnits="userSpaceOnUse"><stop offset="0" stop-color="#f2f4f3"/><stop offset="1" stop-color="gray"/></radialGradient><radialGradient id="g80" cx="0" cy="0" r="1" gradientTransform="matrix(-.898 -.299 -.064 .191 16.289 1.728)" gradientUnits="userSpaceOnUse"><stop offset="0" stop-color="#f2f4f3"/><stop offset="1" stop-color="gray"/></radialGradient></defs><style>.s25{fill:#1e1e1e}.s30{fill:#0e0e0e}.s32{fill:#272727}.s36{fill:#868686}.s36,.s37,.s38,.s55,.s56,.s57{mix-blend-mode:soft-light}.s37{fill:#8c8c8c}.s38{fill:#929292}.s55{fill:#f3f3f3}.s56{fill:#f9f9f9}.s57{fill:#fff}.s66{fill:gray}.s67{fill:#868686}.s68{fill:#8c8c8c}.s69{fill:#929292}.s70{fill:#989898}.s71{fill:#9e9e9e}.s72{fill:#a4a4a4}.s73{fill:#aaa}.s74{fill:#b0b0b0}.s75{fill:#b6b6b6}.s76{fill:#bcbcbc}.s77{fill:#c3c3c3}.s78{fill:#c9c9c9}.s79{fill:#cfcfcf}.s80{fill:#d5d5d5}.s81{fill:#dbdbdb}.s82{fill:#e1e1e1}.s83{fill:#e7e7e7}.s84{fill:#ededed}.s85{fill:#f3f3f3}.s86{fill:#f9f9f9}.s87{fill:#fff}.s91{fill:gray}.s91,.s92,.s93,.s94,.s95,.s96{mix-blend-mode:soft-light}.s92{fill:#989898}.s93{fill:#9e9e9e}.s94{fill:#a4a4a4}.s95{fill:#aaa}.s96{fill:#b0b0b0}.s100,.s101{mix-blend-mode:soft-light}.s97{fill:#b6b6b6}.s97,.s98,.s99{mix-blend-mode:soft-light}.s98{fill:#bcbcbc}.s99{fill:#c3c3c3}.s100{fill:#c9c9c9}.s101{fill:#cfcfcf}.s102{fill:#d5d5d5}.s102,.s103,.s104,.s105,.s106{mix-blend-mode:soft-light}.s103{fill:#dbdbdb}.s104{fill:#e1e1e1}.s105{fill:#e7e7e7}.s106{fill:#ededed}.s147{fill:#252125}.s154{fill:#231e22}</style><g id="Složka 2"><g id="&lt;Group&gt;"><path id="&lt;Path&gt;" d="M4 43.1s.2 1.1 1 1.3c.8.3 2.6.4 2.6.3 0-.3-3.6-1.6-3.6-1.6" style="fill:url(#g1)"/><path d="M17.6 43.1s-.2 1.1-1.1 1.3c-.8.3-2.5.4-2.5.3 0-.3 3.6-1.6 3.6-1.6" style="fill:url(#g2)"/><path d="m17.7 15.2.3.9c1 0 1.8-1.8 1.8-2.7V9.3c0-1-.8-1.8-1.8-1.8h-.3c-1 0-1.8.8-1.8 1.8v4.1c0 .9.8 1.8 1.8 1.8" style="fill:url(#g3)"/><path d="M19.8 13.4c0 .9-.8 2.7-1.8 2.7l-.3-.9c-1 0-1.8-.8-1.8-1.8v-2.3h3.9z" style="mix-blend-mode:multiply;fill:url(#g4)"/><path d="M19.8 11.7c-.1 1.7-.3 3.1-.6 3.1s-.4-1.4-.4-3.1.3-3.1.6-3.1c.2 0 .4 1.4.4 3.1" style="mix-blend-mode:hard-light;fill:url(#g5)"/><path d="M19.3 8q-.4-.4-1-.5v8.2h.4q.3-.2.6-.6z" style="mix-blend-mode:multiply;fill:url(#g6)"/><path d="m3.9 15.2-.4.9c-.9 0-1.7-1.8-1.7-2.7V9.3c0-1 .8-1.8 1.7-1.8h.4c1 0 1.8.8 1.8 1.8v4.1c0 .9-.8 1.8-1.8 1.8" style="fill:url(#g7)"/><path d="M1.8 13.4c0 .9.8 2.7 1.7 2.7l.4-.9c.9 0 1.7-.8 1.8-1.8v-2.3H1.8z" style="mix-blend-mode:multiply;fill:url(#g8)"/><path d="M2.8 11.5c0 1.8-.2 3.2-.4 3.2-.3 0-.6-1.4-.6-3.1s.1-3.1.4-3.2c.3 0 .5 1.4.6 3.1" style="mix-blend-mode:hard-light;fill:url(#g9)"/><path d="m17.7 38.3.3.9c1 0 1.8-1.7 1.8-2.7v-4.1c0-1-.8-1.8-1.8-1.8h-.3c-1 0-1.8.8-1.8 1.8v4.1c0 1 .8 1.8 1.8 1.8" style="fill:url(#g10)"/><path d="M19.8 36.5c0 1-.8 2.7-1.8 2.7l-.3-.9c-1 0-1.8-.8-1.8-1.8v-2.3h3.9z" style="mix-blend-mode:multiply;fill:url(#g11)"/><path d="M19.8 34.9c-.1 1.7-.3 3.1-.6 3-.3 0-.4-1.4-.4-3.1s.3-3.1.6-3.1c.2 0 .4 1.4.4 3.2" style="mix-blend-mode:hard-light;fill:url(#g12)"/><path d="M19.3 31.2q-.4-.5-1-.6v8.3h.4q.3-.3.6-.7z" style="mix-blend-mode:multiply;fill:url(#g13)"/><path d="m3.9 38.3-.4.9c-.9 0-1.7-1.7-1.7-2.7v-4.1c0-1 .8-1.8 1.7-1.8h.4c1 0 1.8.8 1.8 1.8v4.1c0 1-.8 1.8-1.8 1.8" style="fill:url(#g14)"/><path d="M1.8 36.5c0 1 .8 2.7 1.7 2.7l.4-.9c.9 0 1.7-.8 1.8-1.8v-2.3H1.8z" style="mix-blend-mode:multiply;fill:url(#g15)"/><path d="M2.8 34.7c0 1.7-.2 3.1-.4 3.1-.3 0-.6-1.4-.6-3.1s.1-3.1.4-3.1.5 1.3.6 3.1" style="mix-blend-mode:hard-light;fill:url(#g16)"/><path d="M17.8 2c-1.2-.8-2.7-1-2.7-1s-1.7-1-4.3-1C8.1 0 6.4 1 6.4 1S5 1.2 3.7 2C2.3 3.1 2.1 4.6 2.1 5.6v28.8c0 1.2.4 4.4.6 5.4.3 1.6.7 2.9 1.5 3.8 1.4 1.6 6.6 1.4 6.6 1.4s5.1.2 6.6-1.4c.7-.9 1.1-2.2 1.5-3.8.1-1 .6-4.2.6-5.4V5.6c0-1-.2-2.5-1.7-3.6" style="fill:url(#g17)"/><path d="M10.8 40.2s-6.3-1-6.9-1.9l.6 4.1c.1.5.4 1 .8 1.2.8.5 2.5 1.2 5.5 1.2 2.9 0 4.6-.7 5.5-1.2.4-.2.7-.6.8-1.1l.7-4.2c-.6.9-7 1.9-7 1.9" style="fill:url(#g18)"/><path d="M2.6 39.3q0 .3.1.5c.3 1.6.7 2.9 1.5 3.8 1.4 1.6 6.6 1.4 6.6 1.4s5.1.2 6.6-1.4c.7-.9 1.1-2.2 1.5-3.8v-.5z" style="mix-blend-mode:multiply;fill:url(#g19)"/><path d="m3.9 38.3.7 4.8s1.4 1.7 6.2 1.7q.9 0 1.6-.1l.4-4.6-.6-.1c-.9.1-1.4.2-1.4.2s-6.3-1-6.9-1.9" style="mix-blend-mode:soft-light;fill:url(#g20)"/><path d="M10.7 16.9s-1.1 3-1.1 8.9 1.6 8.4 1.6 8.4-5.1.3-6.7-.7c-2.4-1.6-1.2-15.9-.3-15.9 1-.1 4-1 6.5-.7" style="mix-blend-mode:soft-light;fill:url(#g21)"/><path d="M15.1 1c-.7-.6-2.6-1-4.3-1S7.1.4 6.4 1C5.8 1.7 3 11.2 3 11.2s2.1-2.5 7.8-2.5c5.6 0 7.8 2.5 7.8 2.5S15.8 1.7 15.1 1" style="fill:url(#g22)"/><path d="m2.8 13.5-1 .6.1.1c-.8.5-1.9 1.5-1.9 1.5s.1.2.3.3c.2 0 1.8-.7 1.8-.7l.1-.4s.1-.1.3-.1c.2-.1.5 0 .5 0z" style="fill:url(#g23)"/><path d="M2.3 14q.15 0 0 0c-.1.2-.4.4-.5.6-.1.3-.2.5-.2.5l-1.6.6s.2-.5.6-.9c.6-.7 1.5-.8 1.7-.8" style="fill:url(#g24)"/><path d="M2.1 15.3s-1 .6-1.7.7c-.1 0-.3 0-.4-.1v-.2c.4-.5 1.6-.6 1.6-.6z" style="fill:url(#g25)"/><path id="&lt;Compound Path&gt;" d="M1.6 15.1s-1.2.1-1.6.6v.2q.1.1.3.1h.1c.7-.1 1.7-.7 1.7-.7zm0 .1.5.1c-.3.2-1.1.6-1.7.7H.3q-.1 0-.2-.1v-.2c.3-.4 1.4-.5 1.5-.5" class="s25"/><path d="m18.8 13.5 1 .6-.1.1c.8.5 1.9 1.5 1.9 1.5s-.1.2-.3.3c-.2 0-1.8-.7-1.8-.7l-.1-.4c-.1 0-.2-.1-.3-.1-.2-.1-.5 0-.5 0z" style="fill:url(#g26)"/><path d="M19.3 14h-.1c.2.2.5.4.6.6.1.3.2.5.2.5l1.6.6s-.2-.5-.6-.9c-.6-.7-1.5-.8-1.7-.8" style="fill:url(#g27)"/><path d="M19.5 15.3s1 .6 1.7.7c.1 0 .2 0 .3-.1q.1-.1.1-.2c-.5-.5-1.6-.6-1.6-.6z" style="fill:url(#g28)"/><path d="m20 15.1-.5.2s1 .6 1.7.7h.1q.1 0 .2-.1c.1-.1.1-.2 0-.2-.3-.5-1.5-.6-1.5-.6m0 .1c.1 0 1.2.1 1.5.5 0 .1.1.1 0 .2q-.1.1-.2.1h-.1c-.6-.1-1.4-.5-1.6-.7z" class="s25"/><path d="M2.7 12.7s1.1 4.4 1.3 6.1c.1 1.7 0 5.5 0 5.5l-1.3-1.2z" style="fill:url(#g29)"/><path d="M15.2 23.7H6.3c-.4 0-.7-.4-.7-.8v-3.2c0-.4.3-.7.7-.7h8.9c.5 0 .8.3.8.7v3.2c0 .4-.3.8-.8.8" class="s30"/><path d="m2.7 24.7 1.3.7s0 4.8-.2 6.6-.8 2.8-.8 2.8l-.3-1.3z" style="fill:url(#g30)"/><path d="M2.7 23.1v1.6l1.3.7v-1.1z" class="s32"/><path d="M10.8 9.3s-5.9-.1-7.7 3l1.1 5.3s2.7-.6 6.6-.6c3.8 0 6.5.6 6.5.6l1.1-5.3c-1.8-3.1-7.6-3-7.6-3" style="fill:url(#g31)"/><path d="M18.8 12.7s-1.1 4.4-1.2 6.1c-.2 1.7-.1 5.5-.1 5.5l1.3-1.2z" style="fill:url(#g32)"/><path d="m18.9 24.7-1.4.7s.1 4.8.2 6.6c.2 1.8.9 2.8.9 2.8l.3-1.3z" style="fill:url(#g33)"/><path d="M18.9 23.2v1.5l-1.4.7v-1.1z" class="s32"/><path d="M10.7 0C9 0 7.1.4 6.4 1 5.8 1.7 3 11.2 3 11.2s2.1-2.5 7.7-2.5z" class="s36"/><path d="M10.7 0C9 0 7.2.4 6.5 1c-.7.7-3.4 10.1-3.4 10.1s2-2.4 7.6-2.4z" class="s37"/><path d="M10.7 0C9 0 7.2.4 6.5 1.1c-.6.6-3.4 9.9-3.4 9.9s2-2.3 7.6-2.3z" class="s38"/><path d="M10.7 0C9 0 7.3.4 6.6 1.1c-.7.6-3.4 9.8-3.4 9.8s1.9-2.2 7.5-2.2z" style="mix-blend-mode:soft-light;fill:#979797"/><path d="M10.7 0C9 0 7.3.5 6.7 1.1c-.7.6-3.4 9.7-3.4 9.7s1.8-2.1 7.4-2.1z" style="mix-blend-mode:soft-light;fill:#9d9d9d"/><path d="M10.7 0C9 0 7.4.5 6.7 1.1c-.6.7-3.3 9.7-3.3 9.7s1.7-2.1 7.3-2.2z" style="mix-blend-mode:soft-light;fill:#a3a3a3"/><path d="M10.7 0C9 0 7.4.5 6.8 1.1c-.7.7-3.4 9.6-3.4 9.6s1.8-2.1 7.3-2.1z" style="mix-blend-mode:soft-light;fill:#a9a9a9"/><path d="M10.7 0C9 0 7.5.5 6.8 1.2c-.6.6-3.3 9.4-3.3 9.4s1.7-2 7.2-2z" style="mix-blend-mode:soft-light;fill:#aeaeae"/><path d="M10.7 0C9 0 7.5.6 6.9 1.2c-.7.6-3.3 9.3-3.3 9.3s1.6-1.9 7.1-1.9z" style="mix-blend-mode:soft-light;fill:#b4b4b4"/><path d="M10.7 0C9 0 7.6.6 6.9 1.2c-.6.6-3.2 9.2-3.2 9.2s1.5-1.8 7-1.8z" style="mix-blend-mode:soft-light;fill:#bababa"/><path d="M10.6 0C9 0 7.6.6 7 1.2c-.7.7-3.3 9.1-3.3 9.1s1.5-1.7 6.9-1.7z" style="mix-blend-mode:soft-light;fill:silver"/><path d="M10.6 0C9 0 7.7.6 7 1.3c-.6.6-3.2 8.9-3.2 8.9s1.4-1.6 6.8-1.7z" style="mix-blend-mode:soft-light;fill:#c5c5c5"/><path d="M10.6 0C9 0 7.7.7 7.1 1.3c-.7.6-3.2 8.8-3.2 8.8s1.3-1.6 6.7-1.6z" style="mix-blend-mode:soft-light;fill:#cbcbcb"/><path d="M10.6 0C9 0 7.8.7 7.1 1.3 6.5 1.9 4 10 4 10s1.2-1.5 6.6-1.5z" style="mix-blend-mode:soft-light;fill:#d1d1d1"/><path d="M10.6 0C9 0 7.8.7 7.2 1.3S4 10 4 10s1.2-1.5 6.6-1.5z" style="mix-blend-mode:soft-light;fill:#d7d7d7"/><path d="M10.6 0C9 0 7.9.7 7.3 1.3c-.7.7-3.2 8.6-3.2 8.6s1.1-1.4 6.5-1.4z" style="mix-blend-mode:soft-light;fill:#dcdcdc"/><path d="M10.6 0C9 0 7.9.7 7.3 1.4c-.6.6-3.1 8.4-3.1 8.4s1-1.3 6.4-1.3z" style="mix-blend-mode:soft-light;fill:#e2e2e2"/><path d="M10.6 0C9 0 8 .8 7.4 1.4c-.7.6-3.1 8.3-3.1 8.3s.9-1.2 6.3-1.2z" style="mix-blend-mode:soft-light;fill:#e8e8e8"/><path d="M10.6 0C9 0 8 .8 7.4 1.4S4.3 9.6 4.3 9.6s.9-1.1 6.3-1.2z" style="mix-blend-mode:soft-light;fill:#eee"/><path d="M10.6 0C9 0 8.1.8 7.5 1.4c-.7.6-3.1 8.1-3.1 8.1s.8-1.1 6.2-1.1z" class="s55"/><path d="M10.6 0C9 0 8.2.8 7.5 1.4c-.6.7-3 8-3 8s.7-1 6.1-1z" class="s56"/><path d="M10.5 0C8.9 0 8.2.9 7.6 1.5s-3 7.8-3 7.8.6-.9 5.9-.9z" class="s57"/><path d="M2.6 24.7c0 5.4-.1 9.8-.1 9.8-.1 0-.1-4.4-.1-9.8s0-9.7.1-9.7c0 0 .1 4.3.1 9.7" style="mix-blend-mode:multiply;fill:url(#g34)"/><path d="M19.3 24.7c0 5.4-.1 9.8-.1 9.8-.1 0-.1-4.4-.1-9.8s0-9.7.1-9.7c0 0 .1 4.3.1 9.7" style="mix-blend-mode:multiply;fill:url(#g35)"/><path d="M10.8 9.3s-5.9-.1-7.7 3l1.1 5.3s1.9-.4 4.8-.5z" style="mix-blend-mode:soft-light;fill:url(#g36)"/><g style="mix-blend-mode:soft-light"><path id="&lt;Mesh&gt;" d="M15.2 24v-.1H6.3v.1zm-8.9 0v-.1zm-.7-.3c.1.2.4.3.7.3v-.1c-.3 0-.5-.1-.7-.3s-.3-.4-.3-.7c0 .3.1.6.3.8m-.3-.8v-3.2zm.3-3.9c-.2.1-.3.4-.3.7 0-.3.1-.5.3-.7s.4-.3.7-.3c-.3-.1-.6.1-.7.3m.7-.3h8.9zm9.7.3c-.2-.2-.5-.4-.8-.3.3 0 .6.1.7.3.2.2.3.4.3.7h.1c0-.3-.1-.6-.3-.7m.3.7h-.1zm0 0h-.1v3.2h.1zm0 3.2h-.1zm-.4.8q.2-.2.3-.4t.1-.3v-.1h-.1v.1q0 .1-.1.3 0 .2-.2.4c-.2.1-.4.2-.7.2v.1c.3 0 .5-.1.7-.3m-.7.2v-.1H6.3v.1zm-8.9 0v-.1zm-.7-.3c.2.2.4.3.7.3v-.1c-.2 0-.5-.1-.7-.2-.1-.2-.2-.4-.2-.7h-.1c0 .3.1.5.3.7m-.3-.7h.1zm0 0h.1v-3.2h-.1zm0-3.2h.1zm.3-.7c-.2.2-.3.4-.3.7h.1c0-.3.1-.5.2-.7.2-.1.5-.2.7-.2v-.1c-.3 0-.5.1-.7.3m.7-.3v.1zm0 0v.1h8.9v-.1zm8.9 0v.1zm.7.3c-.1-.2-.4-.3-.7-.3v.1c.3 0 .5.1.7.2.2.2.3.5.3.7 0-.3-.1-.5-.3-.7m.3.7v3.2zm-.3 4q.2-.2.2-.4.1-.2.1-.3v-.1.1q-.1.1-.1.3l-.3.3c-.1.1-.3.2-.6.2v.1c.3 0 .5-.1.7-.2m-.7.1H6.3zm-9.6-.2c.2.1.5.2.7.2-.2 0-.5-.1-.6-.3-.2-.1-.3-.4-.3-.6 0 .3.1.5.2.7m-.2-.7v-3.2zm.2-3.9c-.1.2-.2.4-.2.7 0-.2.1-.5.3-.6.1-.2.4-.3.6-.3-.2 0-.5.1-.7.2m.7-.2h8.9zm9.6.2c-.2-.1-.4-.2-.7-.2q.45 0 .6.3c.2.1.3.4.3.6h.1c0-.2-.1-.5-.3-.7m.3.7h-.1zm0 0h-.1v3.2h.1zm0 3.2h-.1zm-.4.7.3-.3q0-.2.1-.3v-.1h-.1v.1q0 .1-.1.3 0 .1-.2.3c-.1.1-.3.2-.6.2.3 0 .5-.1.6-.2m-.6.2v-.1H6.3v.1zm-8.9 0v-.1zm-.6-.3c.1.2.4.3.6.3v-.1c-.2 0-.4-.1-.6-.2q-.2-.3-.2-.6h-.1c0 .2.1.5.3.6m-.3-.6h.1zm0 0h.1v-3.2h-.1zm0-3.2h.1zm.3-.6c-.2.1-.3.4-.3.6h.1q0-.3.2-.6.3-.2.6-.2v-.1c-.2 0-.5.1-.6.3m.6-.3v.1zm0 0v.1h8.9v-.1zm8.9 0v.1zm.6.3q-.15-.3-.6-.3v.1q.4 0 .6.2.2.3.2.6h.1c0-.2-.1-.5-.3-.6m.3.6H16zm0 0H16v3.2h.1zm0 3.2H16zm-.3.7q.2-.2.2-.3.1-.2.1-.3v-.1H16v.3q-.1.2-.3.3c-.1.1-.3.2-.5.2v.1c.3 0 .5-.1.6-.2m-.6.1v-.1H6.3v.1zm-8.9 0v-.1zm-.6-.2c.2.1.4.2.6.2v-.1q-.3 0-.5-.2t-.2-.5h-.1q0 .3.2.6m-.2-.6h.1zm0 0h.1v-3.2h-.1zm0-3.2h.1zm.2-.6q-.2.3-.2.6h.1q0-.3.2-.5t.5-.2v-.1q-.3 0-.6.2m.6-.2v.1zm0 0v.1h8.9v-.1zm8.9 0v.1zm.6.2q-.2-.2-.6-.2v.1q.3 0 .6.2.2.2.2.5 0-.3-.2-.6m.2.6v3.2zm-.3 3.8q.2-.1.3-.3v-.3.1q0 .1-.1.2 0 .1-.2.3-.2.1-.5.1v.1c.2 0 .4-.1.5-.2m-.5.1H6.3zm-9.4-.2q.2.2.5.2c-.4 0-.7-.3-.7-.7q0 .3.2.5m-.2-.5v-3.2zm.2-3.7q-.2.2-.2.5c0-.4.3-.7.7-.7q-.3 0-.5.2m.5-.2h8.9zm9.5.2q-.3-.2-.6-.2c.4 0 .7.3.7.7h.1q0-.3-.2-.5m.2.5h-.1zm0 0h-.1v3.2h.1zm0 3.2h-.1zm-.3.6q.2-.2.2-.3.1-.1.1-.2v-.1h-.1v.1q0 .1-.1.2 0 .1-.1.2-.2.2-.5.2.3 0 .5-.1m-.5.1v-.1H6.3v.1zm-8.9 0v-.1zm0 0v-.1c-.3 0-.6-.3-.6-.6h-.1c0 .4.3.7.7.7m-.7-.7h.1zm0 0h.1v-3.2h-.1zm0-3.2h.1zm0 0h.1c0-.3.3-.6.6-.6V19c-.4 0-.7.3-.7.7m.7-.7v.1zm0 0v.1h8.9V19zm8.9 0v.1zm0 0v.1c.4 0 .6.3.6.6h.1c0-.4-.3-.7-.7-.7m.7.7h-.1zm0 0h-.1v3.2h.1zm0 3.2h-.1zm-.2.5q.1-.1.1-.2.1-.1.1-.2v-.1h-.1v.3c-.1.1-.2.3-.6.3v.1q.3 0 .5-.2m-.5.1H6.3zm-8.9 0c-.3 0-.5-.3-.5-.6h-.1c0 .3.3.6.6.6m-.6-.6h.1zm0 0h.1v-3.2h-.1zm0-3.2h.1zm0 0h.1c0-.3.2-.5.5-.5v-.1c-.3 0-.6.3-.6.6m.6-.6v.1zm0 0v.1h8.9v-.1zm8.9 0v.1zm0 0v.1c.3 0 .6.2.6.5 0-.3-.2-.6-.6-.6m.6.6v3.2zm0 3.5v-.3.1l-.1.1c0 .1-.2.3-.5.4.4 0 .5-.2.6-.3m-.6.3v-.1H6.3v.1zm-8.9 0v-.1zm0 0v-.1c-.2 0-.5-.2-.4-.5h-.1c0 .3.2.6.5.6m-.5-.6h.1zm0 0h.1v-3.2h-.1zm0-3.2h.1zm0 0h.1c-.1-.2.2-.5.4-.4v-.1c-.3 0-.5.2-.5.5m.5-.5v.1zm0 0v.1h8.9v-.1zm8.9 0v.1zm0 0v.1c.3-.1.5.2.5.4h.1c0-.3-.3-.5-.6-.5m.6.5h-.1zm0 0h-.1v3.2h.1zm0 3.2h-.1zm-.1.2.1-.1v-.1h-.1v.1l-.1.1c0 .1-.1.3-.4.3v.1c.3-.1.5-.3.5-.4" style="fill:url(#g37)"/></g><path d="M15.2 23.7H6.3c-.4 0-.7-.4-.7-.8v-3.2c0-.4.3-.7.7-.7h8.9c.5 0 .8.3.8.7v3.2c0 .4-.3.8-.8.8" class="s30"/><path d="M9.5 19H6.3c-.4 0-.7.3-.7.7v3.2c0 .4.3.8.7.8h2.9z" style="mix-blend-mode:soft-light;fill:url(#g38)"/><g style="mix-blend-mode:soft-light"><path d="M15.2 24v-.1H6.3v.1zm-8.9 0v-.1zm-.7-.3c.1.2.4.3.7.3v-.1c-.3 0-.5-.1-.7-.3s-.3-.4-.3-.7c0 .3.1.6.3.8m-.3-.8v-3.2zm.3-3.9c-.2.1-.3.4-.3.7 0-.3.1-.5.3-.7s.4-.3.7-.3c-.3-.1-.6.1-.7.3m.7-.3h8.9zm9.7.3c-.2-.2-.5-.4-.8-.3.3 0 .6.1.7.3.2.2.3.4.3.7h.1c0-.3-.1-.6-.3-.7m.3.7h-.1zm0 0h-.1v3.2h.1zm0 3.2h-.1zm-.4.8q.2-.2.3-.4t.1-.3v-.1h-.1v.1q0 .1-.1.3 0 .2-.2.4c-.2.1-.4.2-.7.2v.1c.3 0 .5-.1.7-.3m-.7.2v-.1H6.3v.1zm-8.9 0v-.1zm-.7-.3c.2.2.4.3.7.3v-.1c-.2 0-.5-.1-.7-.2-.1-.2-.2-.4-.2-.7h-.1c0 .3.1.5.3.7m-.3-.7h.1zm0 0h.1v-3.2h-.1zm0-3.2h.1zm.3-.7c-.2.2-.3.4-.3.7h.1c0-.3.1-.5.2-.7.2-.1.5-.2.7-.2v-.1c-.3 0-.5.1-.7.3m.7-.3v.1zm0 0v.1h8.9v-.1zm8.9 0v.1zm.7.3c-.1-.2-.4-.3-.7-.3v.1c.3 0 .5.1.7.2.2.2.3.5.3.7 0-.3-.1-.5-.3-.7m.3.7v3.2zm-.3 4q.2-.2.2-.4.1-.2.1-.3v-.1.1q-.1.1-.1.3l-.3.3c-.1.1-.3.2-.6.2v.1c.3 0 .5-.1.7-.2m-.7.1H6.3zm-9.6-.2c.2.1.5.2.7.2-.2 0-.5-.1-.6-.3-.2-.1-.3-.4-.3-.6 0 .3.1.5.2.7m-.2-.7v-3.2zm.2-3.9c-.1.2-.2.4-.2.7 0-.2.1-.5.3-.6.1-.2.4-.3.6-.3-.2 0-.5.1-.7.2m.7-.2h8.9zm9.6.2c-.2-.1-.4-.2-.7-.2q.45 0 .6.3c.2.1.3.4.3.6h.1c0-.2-.1-.5-.3-.7m.3.7h-.1zm0 0h-.1v3.2h.1zm0 3.2h-.1zm-.4.7.3-.3q0-.2.1-.3v-.1h-.1v.1q0 .1-.1.3 0 .1-.2.3c-.1.1-.3.2-.6.2.3 0 .5-.1.6-.2m-.6.2v-.1H6.3v.1zm-8.9 0v-.1zm-.6-.3c.1.2.4.3.6.3v-.1c-.2 0-.4-.1-.6-.2q-.2-.3-.2-.6h-.1c0 .2.1.5.3.6m-.3-.6h.1zm0 0h.1v-3.2h-.1zm0-3.2h.1zm.3-.6c-.2.1-.3.4-.3.6h.1q0-.3.2-.6.3-.2.6-.2v-.1c-.2 0-.5.1-.6.3m.6-.3v.1zm0 0v.1h8.9v-.1zm8.9 0v.1zm.6.3q-.15-.3-.6-.3v.1q.4 0 .6.2.2.3.2.6h.1c0-.2-.1-.5-.3-.6m.3.6H16zm0 0H16v3.2h.1zm0 3.2H16zm-.3.7q.2-.2.2-.3.1-.2.1-.3v-.1H16v.3q-.1.2-.3.3c-.1.1-.3.2-.5.2v.1c.3 0 .5-.1.6-.2m-.6.1v-.1H6.3v.1zm-8.9 0v-.1zm-.6-.2c.2.1.4.2.6.2v-.1q-.3 0-.5-.2t-.2-.5h-.1q0 .3.2.6m-.2-.6h.1zm0 0h.1v-3.2h-.1zm0-3.2h.1zm.2-.6q-.2.3-.2.6h.1q0-.3.2-.5t.5-.2v-.1q-.3 0-.6.2m.6-.2v.1zm0 0v.1h8.9v-.1zm8.9 0v.1zm.6.2q-.2-.2-.6-.2v.1q.3 0 .6.2.2.2.2.5 0-.3-.2-.6m.2.6v3.2zm-.3 3.8q.2-.1.3-.3v-.3.1q0 .1-.1.2 0 .1-.2.3-.2.1-.5.1v.1c.2 0 .4-.1.5-.2m-.5.1H6.3zm-9.4-.2q.2.2.5.2c-.4 0-.7-.3-.7-.7q0 .3.2.5m-.2-.5v-3.2zm.2-3.7q-.2.2-.2.5c0-.4.3-.7.7-.7q-.3 0-.5.2m.5-.2h8.9zm9.5.2q-.3-.2-.6-.2c.4 0 .7.3.7.7h.1q0-.3-.2-.5m.2.5h-.1zm0 0h-.1v3.2h.1zm0 3.2h-.1zm-.3.6q.2-.2.2-.3.1-.1.1-.2v-.1h-.1v.1q0 .1-.1.2 0 .1-.1.2-.2.2-.5.2.3 0 .5-.1m-.5.1v-.1H6.3v.1zm-8.9 0v-.1zm0 0v-.1c-.3 0-.6-.3-.6-.6h-.1c0 .4.3.7.7.7m-.7-.7h.1zm0 0h.1v-3.2h-.1zm0-3.2h.1zm0 0h.1c0-.3.3-.6.6-.6V19c-.4 0-.7.3-.7.7m.7-.7v.1zm0 0v.1h8.9V19zm8.9 0v.1zm0 0v.1c.4 0 .6.3.6.6h.1c0-.4-.3-.7-.7-.7m.7.7h-.1zm0 0h-.1v3.2h.1zm0 3.2h-.1zm-.2.5q.1-.1.1-.2.1-.1.1-.2v-.1h-.1v.3c-.1.1-.2.3-.6.3v.1q.3 0 .5-.2m-.5.1H6.3zm-8.9 0c-.3 0-.5-.3-.5-.6h-.1c0 .3.3.6.6.6m-.6-.6h.1zm0 0h.1v-3.2h-.1zm0-3.2h.1zm0 0h.1c0-.3.2-.5.5-.5v-.1c-.3 0-.6.3-.6.6m.6-.6v.1zm0 0v.1h8.9v-.1zm8.9 0v.1zm0 0v.1c.3 0 .6.2.6.5 0-.3-.2-.6-.6-.6m.6.6v3.2zm0 3.5v-.3.1l-.1.1c0 .1-.2.3-.5.4.4 0 .5-.2.6-.3m-.6.3v-.1H6.3v.1zm-8.9 0v-.1zm0 0v-.1c-.2 0-.5-.2-.4-.5h-.1c0 .3.2.6.5.6m-.5-.6h.1zm0 0h.1v-3.2h-.1zm0-3.2h.1zm0 0h.1c-.1-.2.2-.5.4-.4v-.1c-.3 0-.5.2-.5.5m.5-.5v.1zm0 0v.1h8.9v-.1zm8.9 0v.1zm0 0v.1c.3-.1.5.2.5.4h.1c0-.3-.3-.5-.6-.5m.6.5h-.1zm0 0h-.1v3.2h.1zm0 3.2h-.1zm-.1.2.1-.1v-.1h-.1v.1l-.1.1c0 .1-.1.3-.4.3v.1c.3-.1.5-.3.5-.4" style="fill:url(#g39)"/></g><path d="M4.5 6.9c-.3 2.7-.9 4.7-1.5 4.7-.6-.1-.9-2.2-.7-4.8.2-2.7.9-4.7 1.5-4.7.6.1.9 2.2.7 4.8" style="opacity:.5;mix-blend-mode:hard-light;fill:url(#g40)"/><path d="M19.3 7.2c.2 2.7-.1 4.9-.7 5-.6 0-1.3-2.2-1.5-4.9s.2-4.9.8-5c.6 0 1.2 2.2 1.4 4.9" style="opacity:.5;mix-blend-mode:hard-light;fill:url(#g41)"/><g style="mix-blend-mode:soft-light"><path d="M7.5 44.4c-.1.3-3 .1-4.2-2.7-.5-1.2-1.2-8.8-.6-9.1.2-.1 5 11.4 4.8 11.8" class="s66"/><path d="M7.5 44.4c-.2.3-3 0-4.2-2.7-.5-1.2-1.2-8.6-.6-8.8.2-.1 4.9 11.1 4.8 11.5" class="s67"/><path d="M7.4 44.4c-.1.3-3-.1-4.1-2.7-.5-1.2-1.1-8.3-.6-8.6.2-.1 4.9 10.9 4.7 11.3" class="s68"/><path d="M7.3 44.4c-.1.2-2.9-.1-4-2.7-.5-1.2-1.1-8.1-.6-8.4.3-.1 4.8 10.7 4.6 11.1" class="s69"/><path d="M7.3 44.3c-.1.3-2.9-.1-4-2.6-.4-1.2-1.1-7.9-.5-8.2.2-.1 4.6 10.5 4.5 10.8" class="s70"/><path d="M7.2 44.3c-.1.3-2.8-.2-3.8-2.6-.5-1.2-1.1-7.7-.6-7.9.2-.1 4.6 10.1 4.4 10.5" class="s71"/><path d="M7.1 44.3c-.1.2-2.8-.3-3.7-2.6-.5-1.2-1.1-7.5-.6-7.7.2-.1 4.5 9.9 4.3 10.3" class="s72"/><path d="M7.1 44.2c-.1.3-2.8-.3-3.7-2.5-.5-1.2-1.1-7.2-.6-7.5.2-.1 4.4 9.7 4.3 10" class="s73"/><path d="M7 44.2c-.1.2-2.7-.3-3.6-2.6-.5-1.1-1-6.9-.6-7.2.3-.1 4.4 9.5 4.2 9.8" class="s74"/><path d="M7 44.2c-.2.2-2.7-.4-3.6-2.6-.4-1-1-6.7-.6-6.9.3-.2 4.3 9.2 4.2 9.5" class="s75"/><path d="M6.9 44.2c-.1.2-2.6-.5-3.5-2.6-.4-1-1-6.5-.5-6.7.2-.1 4.1 8.9 4 9.3" class="s76"/><path d="M6.8 44.1c-.1.2-2.6-.5-3.4-2.5-.4-1-.9-6.2-.5-6.5.2-.1 4.1 8.7 3.9 9" class="s77"/><path d="M6.8 44.1c-.1.2-2.6-.5-3.4-2.5-.4-1-.9-6-.5-6.3.2-.1 4 8.5 3.9 8.8" class="s78"/><path d="M6.7 44.1c-.1.1-2.5-.6-3.3-2.5-.4-1-.9-5.8-.5-6 .2-.2 4 8.2 3.8 8.5" class="s79"/><path d="M6.6 44c-.1.2-2.4-.6-3.2-2.4-.4-1-.8-5.6-.5-5.8s3.9 8 3.7 8.2" class="s80"/><path d="M6.6 44c-.1.2-2.5-.7-3.2-2.4-.3-1-.8-5.4-.5-5.6.3-.1 3.8 7.8 3.7 8" class="s81"/><path d="M6.5 44c-.1.1-2.4-.7-3-2.4-.4-1-.8-5.1-.5-5.4.2-.1 3.7 7.5 3.5 7.8" class="s82"/><path d="M6.4 43.9c-.1.2-2.3-.7-2.9-2.3-.4-1-.8-4.9-.5-5.1.2-.2 3.6 7.2 3.4 7.4" class="s83"/><path d="M6.4 43.9c-.1.1-2.3-.8-2.9-2.3-.4-1-.8-4.7-.5-4.9.2-.2 3.5 7 3.4 7.2" class="s84"/><path d="M6.3 43.9c-.1.1-2.2-.9-2.8-2.4-.4-.9-.7-4.4-.5-4.6s3.5 6.8 3.3 7" class="s85"/><path d="M6.3 43.9c-.1.1-2.3-.9-2.8-2.4-.3-.9-.7-4.2-.5-4.4.2-.1 3.4 6.6 3.3 6.8" class="s86"/><path d="M6.2 43.8c-.1.1-2.2-.9-2.7-2.3-.3-.9-.7-3.9-.5-4.1.3-.2 3.4 6.2 3.2 6.4" class="s87"/></g><path d="M6.8 6c-.7 2.2-1.7 3.8-2.1 3.6-.5-.1-.3-2 .4-4.1.7-2.2 1.7-3.8 2.2-3.6.4.2.2 2-.5 4.1" style="mix-blend-mode:hard-light;fill:url(#g42)"/><path d="M10.8 4.4c0 2.4-.1 4.3-.2 4.3-.2 0-.3-1.9-.3-4.3s.1-4.4.3-4.4c.1 0 .2 2 .2 4.4" style="mix-blend-mode:hard-light;fill:url(#g43)"/><path d="M3.3 9.3c-.1 2.5-.3 4.5-.6 4.5s-.4-2-.3-4.5.4-4.5.6-4.5c.3 0 .4 2.1.3 4.5" style="mix-blend-mode:hard-light;fill:url(#g44)"/><path d="M4 32.7c-.5.8-1 3.2-1 3.7 0 .4.6 2 .8 2 .2-.1.6-5.1.6-5.4-.1-.3-.3-.5-.4-.3" class="s91"/><path d="M4 32.7c-.5.8-1 3.2-1 3.7 0 .4.6 2 .8 1.9.2 0 .6-5 .6-5.3-.1-.3-.3-.5-.4-.3" class="s36"/><path d="M4 32.7c-.5.8-1 3.2-1 3.7 0 .4.6 2 .8 1.9s.6-5 .6-5.3c-.1-.3-.3-.5-.4-.3" class="s37"/><path d="M4 32.7c-.4.8-1 3.2-1 3.7 0 .4.6 1.9.8 1.8.2 0 .6-4.9.6-5.2-.1-.3-.3-.5-.4-.3" class="s38"/><path d="M4 32.7c-.4.8-1 3.2-1 3.7 0 .4.6 1.9.8 1.8s.6-4.9.6-5.2c-.1-.3-.3-.5-.4-.3" class="s92"/><path d="M4 32.8c-.4.7-1 3.1-1 3.6 0 .4.6 1.8.8 1.8.2-.1.6-4.9.5-5.2 0-.3-.2-.4-.3-.2" class="s93"/><path d="M4 32.8c-.4.7-1 3.1-1 3.6 0 .4.6 1.8.8 1.7.2 0 .6-4.8.5-5.1 0-.2-.2-.4-.3-.2" class="s94"/><path d="M4 32.8c-.4.6-1 3.1-1 3.6.1.4.6 1.8.8 1.7s.6-4.8.5-5c0-.3-.2-.5-.3-.3" class="s95"/><path d="M4 32.8c-.3.6-.9 3.1-.9 3.6 0 .4.5 1.7.7 1.7.2-.1.6-4.8.5-5 0-.3-.2-.5-.3-.3" class="s96"/><path d="M4 32.8c-.3.6-.9 3.1-.9 3.6 0 .4.5 1.7.7 1.6.2 0 .6-4.6.5-4.9 0-.3-.2-.5-.3-.3" class="s97"/><path d="M4 32.8c-.3.6-.9 3.1-.9 3.6 0 .4.5 1.6.7 1.6.2-.1.6-4.6.5-4.9 0-.3-.2-.4-.3-.3" class="s98"/><path d="M4 32.8c-.3.6-.9 3.2-.9 3.6s.5 1.6.7 1.5c.2 0 .5-4.5.5-4.8s-.2-.4-.3-.3" class="s99"/><path d="M4 32.9c-.3.5-.9 3.1-.9 3.5s.5 1.6.7 1.5.5-4.5.5-4.8-.2-.4-.3-.2" class="s100"/><path d="M4 32.9c-.2.5-.9 3.1-.9 3.5 0 .3.5 1.5.7 1.5.2-.1.5-4.5.5-4.8s-.2-.4-.3-.2" class="s101"/><path d="M4 32.9c-.2.5-.9 3.1-.9 3.5 0 .3.5 1.5.7 1.4.2 0 .5-4.4.5-4.7s-.2-.4-.3-.2" class="s102"/><path d="M4 32.9c-.2.5-.9 3.1-.9 3.5 0 .3.5 1.4.7 1.4.2-.1.5-4.4.5-4.7s-.2-.3-.3-.2" class="s103"/><path d="M4.1 32.9c-.3.5-1 3.1-.9 3.5 0 .3.4 1.4.6 1.4.1-.1.5-4.4.5-4.7 0-.2-.2-.3-.2-.2" class="s104"/><path d="M4.1 32.9c-.3.4-.9 3.1-.9 3.5 0 .3.4 1.4.6 1.3.1 0 .5-4.3.5-4.6-.1-.2-.2-.3-.2-.2" class="s105"/><path d="M4.1 32.9c-.2.4-.9 3.1-.9 3.5 0 .3.4 1.3.6 1.3.1-.1.5-4.3.5-4.6-.1-.2-.2-.3-.2-.2" class="s106"/><path d="M4.1 33c-.2.3-.9 3-.9 3.4 0 .3.4 1.3.6 1.2.1 0 .5-4.2.5-4.5-.1-.2-.2-.3-.2-.1" class="s55"/><path d="M4.1 33c-.2.3-.9 3-.9 3.4 0 .3.4 1.3.6 1.2.1-.1.5-4.2.5-4.5-.1-.2-.2-.3-.2-.1" class="s56"/><path d="M4.1 33c-.2.3-.9 3-.9 3.4 0 .3.4 1.2.6 1.2.1-.1.5-4.2.5-4.4-.1-.3-.2-.3-.2-.2" class="s57"/><path d="M17.5 32.7c.6.8 1.2 3.4 1.3 3.8 0 .5-.9 2.2-1.1 2.1-.2 0-.6-5.1-.6-5.4s.3-.7.4-.5" class="s91"/><path d="M17.5 32.7c.6.8 1.2 3.4 1.2 3.8.1.5-.8 2.1-1 2.1-.2-.1-.6-5.1-.6-5.4s.3-.7.4-.5" class="s36"/><path d="M17.5 32.8c.6.7 1.2 3.3 1.2 3.7 0 .5-.8 2.1-1 2-.2 0-.6-5-.6-5.3s.3-.6.4-.4" class="s37"/><path d="M17.5 32.8c.6.7 1.2 3.3 1.2 3.7 0 .5-.8 2.1-1 2s-.6-5-.6-5.3c0-.2.3-.6.4-.4" class="s38"/><path d="M17.5 32.8c.5.7 1.2 3.3 1.2 3.7 0 .5-.8 2-1 2-.2-.1-.6-4.9-.6-5.2s.3-.7.4-.5" class="s92"/><path d="M17.5 32.8c.5.7 1.1 3.3 1.2 3.7 0 .5-.8 2-1 1.9-.2 0-.6-4.8-.6-5.1.1-.3.3-.6.4-.5" class="s93"/><path d="M17.5 32.9c.5.6 1.1 3.2 1.1 3.6.1.5-.7 1.9-.9 1.9-.2-.1-.6-4.8-.5-5.1 0-.3.2-.6.3-.4" class="s94"/><path d="M17.5 32.9c.5.6 1.1 3.2 1.1 3.6s-.7 1.9-.9 1.8c-.2 0-.5-4.7-.5-5s.2-.6.3-.4" class="s95"/><path d="M17.5 32.9c.5.6 1.1 3.2 1.1 3.6s-.7 1.8-.9 1.8c-.2-.1-.5-4.7-.5-5 0-.2.2-.5.3-.4" class="s96"/><path d="M17.5 32.9c.5.6 1 3.2 1.1 3.6 0 .4-.7 1.8-.9 1.8-.1-.1-.5-4.7-.5-5 0-.2.2-.5.3-.4" class="s97"/><path d="M17.5 33c.5.5 1 3.1 1 3.5.1.4-.6 1.8-.8 1.7-.1 0-.5-4.6-.5-4.9 0-.2.2-.5.3-.3" class="s98"/><path d="M17.5 33c.5.5 1 3.1 1 3.5s-.6 1.7-.7 1.7c-.2-.1-.6-4.6-.6-4.9 0-.2.2-.5.3-.3" class="s99"/><path d="M17.5 33c.5.5 1 3.1 1 3.5s-.6 1.7-.7 1.6c-.2 0-.6-4.5-.5-4.8 0-.2.1-.4.2-.3" class="s100"/><path d="M17.5 33c.5.5 1 3.1 1 3.5s-.6 1.6-.7 1.6c-.2-.1-.6-4.5-.5-4.8 0-.1.1-.4.2-.3" class="s101"/><path d="M17.6 33.1c.4.4.8 3 .9 3.4 0 .4-.5 1.6-.7 1.5-.2 0-.5-4.4-.5-4.7 0-.1.1-.4.3-.2" class="s102"/><path d="M17.6 33.1c.4.4.8 3 .8 3.4.1.4-.4 1.6-.6 1.5-.2 0-.5-4.4-.5-4.7 0-.1.1-.3.3-.2" class="s103"/><path d="M17.6 33.1c.4.4.8 3 .8 3.4S18 38 17.8 38c-.2-.1-.5-4.4-.5-4.7 0-.1.1-.3.3-.2" class="s104"/><path d="M17.6 33.1c.4.4.8 3 .8 3.4s-.4 1.5-.6 1.4c-.2 0-.5-4.3-.5-4.5s.1-.4.3-.3" class="s105"/><path d="M17.6 33.2c.3.3.8 3 .8 3.3 0 .4-.4 1.4-.6 1.4-.2-.1-.5-4.3-.5-4.5 0-.1.1-.3.3-.2" class="s106"/><path d="M17.6 33.2c.3.3.7 3 .7 3.3.1.4-.3 1.4-.5 1.3-.2 0-.5-4.2-.4-4.4 0-.1 0-.3.2-.2" class="s55"/><path d="M17.6 33.2c.3.3.7 3 .7 3.3 0 .4-.3 1.3-.5 1.3s-.5-4.2-.4-4.4c0-.1 0-.3.2-.2" class="s56"/><path d="M17.6 33.2c.3.2.7 3 .7 3.3 0 .4-.3 1.3-.5 1.3-.1-.1-.4-4.2-.4-4.4 0-.1 0-.2.2-.2" class="s57"/><g style="mix-blend-mode:multiply"><path d="M4.6 21.4v-.8c-.1-.7-.1-1.7-.4-3 .3 1.3.3 2.3.3 3q.1.5.1.8v.2zm0 .2v3.2zm-.1 8.1V27l.1-2.2q-.1 0-.1 2.2zc0 1 0 2.3-.1 3.7.1-1.4.1-2.7.1-3.7m.1-8.3q0-.3-.1-.8c0-.7 0-1.7-.3-3 .3 1.3.3 2.3.3 3q.1.5.1.8v.2zm0 .2v3.2zm-.1 8.1V27q0-2.2.1-2.2-.1 0-.1 2.2zc0 1 0 2.3-.1 3.7.1-1.4.1-2.7.1-3.7m.1-8.3q0-.3-.1-.8c0-.7 0-1.7-.3-3 .3 1.3.3 2.3.3 3q.1.5.1.8v.2zm0 .2v3.2zm0 3.2h-.1zm-.1 4.9V27q0-2.2.1-2.2h-.1zc0 1 0 2.3-.1 3.7.1-1.4.1-2.7.1-3.7m.1-8.3q0-.3-.1-.8c0-.7 0-1.7-.3-3q.3 1.95.3 3v.8l.1.2zm0 .2q0 1.6-.1 3.2h.1zm0 3.2h-.1q.1 0 0 0zm-.1 4.9v-4.9q.1 0 0 0zc-.1 1 0 2.3-.1 3.7.1-1.4.1-2.7.1-3.7" style="fill:url(#g45)"/></g><g style="mix-blend-mode:multiply"><path d="M17 21.3v-.7q0-1.05.3-3v-.1c-.2 1.4-.3 2.4-.3 3.1zl-.1.3h.1zm0 .3h-.1q0 1.6.1 3.2-.1-1.6 0-3.2m.1 8v-2.7l-.1-2.1v2.1q0 1.1.1 2.7v3.8h.1c-.1-1.4-.1-2.7-.1-3.8m-.1-8.3v-.7c0-.7.1-1.7.3-3.1-.2 1.4-.3 2.4-.3 3.1zl-.1.3zm-.1.3q0 1.6.1 3.2-.1-1.6-.1-3.2m.2 8Q17 28 17 26.9v-2.1 2.1q0 1.1.1 2.7v3.8zm-.1-8.3v-.7c0-.7.1-1.7.3-3.1-.2 1.4-.3 2.4-.3 3.1q0 .5-.1.7v.3zm-.1.3q0 1.6.1 3.2-.1-1.6-.1-3.2m.2 8Q17 28 17 26.9v-2.1 2.1q0 1.1.1 2.7v3.8zm-.2-8.3q.1-.2.1-.7c0-.7.1-1.7.3-3.1-.3 1.4-.3 2.4-.3 3.1q-.1.5-.1.7v.3zm0 .3v3.2h.1q-.1-1.6-.1-3.2m.1 3.2h-.1zm.1 4.8Q17 28 17 26.9v-2.1 4.8c.1 1.1 0 2.4.1 3.8z" style="fill:url(#g46)"/></g><g id="&lt;Clip Group&gt;"><path d="M19.1 15c-.8 3.8-2 6.8-2.6 6.6-.7-.1-.5-3.3.3-7.1.8-3.9 2-6.8 2.6-6.7s.5 3.3-.3 7.2" style="mix-blend-mode:hard-light;fill:url(#g47)"/><path d="M9.8 11.1c-4.2 0-7.7-1.5-7.7-3.3 0-1.7 3.4-3.1 7.6-3 4.3 0 7.7 1.5 7.7 3.2 0 1.8-3.4 3.2-7.6 3.1" style="mix-blend-mode:hard-light;fill:url(#g48)"/><path d="M4.3 25c-1.2-.5-2-4.1-1.8-8.1.3-3.9 1.4-6.8 2.6-6.3 1.2.4 2 4 1.8 8-.3 4-1.4 6.9-2.6 6.4" style="mix-blend-mode:hard-light;fill:url(#g49)"/></g><g style="mix-blend-mode:multiply"><path d="M4 38.5q.1.1.2.1.2.2.4.2.4.2.9.3.8.3 1.7.5c1.2.3 2.4.5 3.6.7Q9 40 7.2 39.5q-.8-.2-1.7-.4-.4-.1-.9-.3l-.4-.2q-.1 0-.2-.1l-.1-.1zm10.4 1.1q.9-.2 1.8-.5.4-.1.8-.3.3 0 .5-.1l.2-.2.1-.1q-.1 0-.1.1-.1.1-.2.1-.3.1-.5.2-.4.2-.8.3-.9.3-1.8.5-1.8.4-3.6.7c1.2-.2 2.4-.4 3.6-.7M3.9 38.4l.1.1q.1.1.2.1l.4.2q.5.2.9.3.9.2 1.7.4 1.8.5 3.6.8v-.1q-1.8-.3-3.6-.7-.8-.2-1.7-.4-.4-.1-.9-.3l-.4-.2q-.1 0-.2-.1v-.1zm.1.1-.1-.1.6 4h.1q-.3-1.9-.6-3.9m.6 3.9h-.1zm0 0h-.1c.1.5.4 1 .8 1.2-.4-.3-.7-.7-.7-1.2M8 44.5c-.9-.2-1.9-.5-2.7-.9.8.5 1.7.7 2.7.9q1.4.2 2.8.2-1.4 0-2.8-.2m5.6 0q-1.4.2-2.8.2 1.4 0 2.8-.2c.9-.2 1.8-.4 2.6-.9-.8.4-1.7.7-2.6.9m2.6-.9c.5-.2.8-.7.8-1.1-.1.4-.4.8-.8 1.1m.8-1.1q.4-2 .8-4.1l-.1.1q-.3 2-.7 4m0 0q.4-2.1.8-4.1-.4 2.1-.8 4.1m-2.6-2.9q.9-.2 1.8-.5.4-.1.8-.3.2-.1.5-.2.1 0 .2-.1 0-.1.1-.1c-.1 0-.1.1-.2.1q0 .1-.2.1l-.4.2q-.4.2-.8.3l-1.8.4q-1.8.4-3.6.7v.1q1.8-.3 3.6-.7M3.9 38.4l.6 4zm0 0H4v.1q.1.1.2.1l.4.2q.5.2.9.3.9.2 1.7.4 1.8.4 3.6.7-1.8-.3-3.6-.7-.8-.2-1.7-.4-.4-.2-.9-.3l-.4-.2q-.1-.1-.2-.1 0-.1-.1-.1m0 0 .6 4zm.6 4c.1.5.4 1 .8 1.2-.4-.2-.7-.7-.8-1.2M8 44.5c-1-.2-1.9-.4-2.7-.9.8.5 1.7.7 2.7.9q1.4.2 2.8.2-1.4 0-2.8-.2m5.6 0q-1.4.2-2.8.2 1.4 0 2.8-.2c.9-.2 1.8-.4 2.7-.9h-.1c-.8.5-1.7.7-2.6.9m2.6-.9h.1zm0 0h.1c.4-.2.7-.7.7-1.1 0 .4-.3.9-.8 1.1m.8-1.1h.1q.3-2.1.7-4.1-.4 2-.8 4.1m-2.6-3 1.8-.4q.4-.1.8-.3l.4-.2q.2 0 .2-.1c.1 0 .1-.1.2-.1q-.1 0-.2.1t-.2.1l-.4.2q-.4.2-.9.3-.8.2-1.7.4-1.8.4-3.6.7 1.8-.3 3.6-.7m-3.6.8v-.1zm0 0v-.1zm-6.9-1.9q.1 0 .1.1.1 0 .2.1l.4.2q.5.1.9.3.9.2 1.7.4 1.8.4 3.6.7-1.8-.3-3.6-.7-.8-.2-1.7-.4-.4-.2-.9-.3l-.4-.2q-.1-.1-.2-.1 0-.1-.1-.1v-.1zm0 0v-.1q.3 2.1.6 4.1zm0 0q.1 0 .1.1.1 0 .2.1l.4.2q.5.1.9.3.9.2 1.7.4 1.8.4 3.6.7-1.8-.3-3.6-.7-.8-.2-1.7-.4-.4-.2-.8-.3-.3-.1-.5-.2t-.3-.3zm.6 4c.1.5.4 1 .8 1.2-.4-.2-.7-.7-.8-1.2M8 44.5c-1-.2-1.9-.4-2.7-.9.8.5 1.7.7 2.7.9q1.4.2 2.8.2-1.4 0-2.8-.2m5.6 0q-1.4.2-2.8.2 1.4 0 2.8-.2c.9-.2 1.8-.4 2.7-.9-.9.5-1.8.7-2.7.9m2.7-.9c.4-.2.7-.7.8-1.1H17c0 .4-.3.9-.7 1.1m.7-1.1h.1zm.1 0q.3-2.1.7-4.2v.1q-.4 2-.7 4.1m-2.7-3q.9-.2 1.7-.4.5-.1.9-.3l.4-.2q.1 0 .2-.1t.2-.1v-.1.1q-.1 0-.2.1-.1 0-.2.1l-.4.2q-.4.1-.9.3-.8.2-1.7.4-1.8.4-3.6.7 1.8-.3 3.6-.7m2.7 3q.3-2.1.7-4.2-.4 2.1-.7 4.2M3.9 38.3q.3 2.1.6 4.1-.3-2-.6-4.1m0 0q.1.2.3.3t.5.2q.4.1.8.3.9.2 1.7.4 1.8.4 3.6.7-1.8-.3-3.5-.7-.9-.2-1.8-.5-.4-.1-.8-.3l-.4-.2q-.1 0-.2-.1-.1 0-.2-.1 0-.1-.1-.1zm0 0-.1-.1q.3 2.1.6 4.3 0-.1.1-.1-.3-2-.6-4.1m.6 4.1c.1.5.4 1 .8 1.2-.4-.2-.7-.7-.8-1.2M8 44.5c-1-.2-1.9-.4-2.7-.9q1.2.75 2.7.9 1.4.3 2.8.2-1.4 0-2.8-.2m5.6 0q-1.4.2-2.8.2 1.4.1 2.8-.2c.9-.2 1.8-.4 2.7-.9-.9.5-1.8.7-2.7.9m2.7-.9c.4-.2.7-.6.8-1.1-.1.4-.4.9-.8 1.1m-1.9-4.1q.9-.2 1.7-.4.5-.2.9-.3l.4-.2q.1-.1.2-.1.1-.1.2-.1v-.1q-.2.2-.4.3l-.4.2q-.4.1-.9.3-.8.2-1.7.4-1.8.4-3.6.7 1.8-.3 3.6-.7m2.7 3q.4-2.2.8-4.3l-.1.1q-.4 2.1-.7 4.2m-2.7-3q.9-.2 1.7-.4.5-.2.9-.3l.4-.2q.2-.1.4-.3l.1-.1v-.1l-.2.2-.1.1q-.1.1-.2.1l-.4.2q-.4.2-.9.3-.9.3-1.7.5-1.8.4-3.6.7 1.8-.3 3.6-.7M3.8 38.2q.1 0 .1.1.1.1.2.1.1.1.2.1l.4.2q.4.2.8.3.9.3 1.8.5 1.7.4 3.5.7v-.1c-1.2-.2-2.4-.4-3.5-.7L5.5 39q-.4-.1-.8-.3l-.4-.2q-.1 0-.2-.1s-.1 0-.2-.1q-.1-.1-.1-.2zm0 0v-.1l.6 4.4q-.3-2.2-.6-4.3m.7 4.2v.1zm0 0v.1c0 .4.4.9.8 1.1-.4-.2-.7-.7-.8-1.2M8 44.5q-1.5-.15-2.7-.9 1.2.75 2.7.9 1.4.3 2.8.3v-.1q-1.4.1-2.8-.2m2.8.2v.1zm2.8-.2q-1.4.3-2.8.2v.1q1.4 0 2.8-.3 1.35-.15 2.7-.9c-.9.5-1.8.7-2.7.9m2.7-.9c.4-.2.7-.6.8-1.1-.1.5-.4.9-.8 1.1m.8-1.1.8-4.4v.1q-.4 2.1-.8 4.3m-2.7-3q.8-.2 1.7-.5.5-.1.9-.3l.4-.2q.1 0 .2-.1l.1-.1.2-.2v.1-.1l-.2.2v.1h-.1q-.1.1-.2.1l-.4.2q-.4.2-.9.3-.9.2-1.7.4c-1.2.3-2.5.5-3.6.7v.1q1.8-.3 3.6-.7m3.3-1 .1-.1zm-13.8-.1v-.1zm0-.1-.1-.1zm.6 4.1q-.1 0-.1.1h.1zm0 .1h-.1q.15.75.9 1.2v-.1c-.4-.2-.8-.7-.8-1.1m.8 1.1v.1zm2.7.9q-1.5-.15-2.7-.9v.1c.8.5 1.7.7 2.6.9q1.4.2 2.9.2-1.4 0-2.8-.3m5.6 0q-1.4.3-2.8.3 1.4 0 2.8-.2c.9-.2 1.9-.5 2.7-.9v-.1q-1.35.75-2.7.9m2.7-.9v.1zm0 0v.1c.4-.3.7-.7.8-1.2-.1.5-.4.9-.8 1.1m1.5-5.2v-.1zm0-.1.1-.1zm-7 1.9v-.1zM4 38.5l-.1-.1zm-.2-.3v-.1zm.6 4.3q.15.75.9 1.2-.75-.45-.9-1.2m3.5 2.1c-.9-.2-1.8-.4-2.6-.9.8.5 1.7.7 2.6.9q1.4.2 2.9.2-1.5 0-2.9-.2m5.7 0q-1.4.2-2.8.2 1.4 0 2.8-.2c.9-.2 1.9-.4 2.7-.9-.8.4-1.8.7-2.7.9m2.7-.9c.4-.3.8-.7.8-1.2-.1.5-.4.9-.8 1.2m1.6-5.5v-.1zm-7.1 2v-.1z" style="fill:url(#g50)"/></g><path d="M17.2 33.3c-1.6.8-6.4.9-6.4.9s-4.9-.1-6.4-.9l-.5 5c1.6 1.5 5.1 1.9 6.9 1.9s5.4-.4 7-1.9z" style="fill:url(#g51)"/><path d="M11.2 34.2h-.4s-4.9-.1-6.4-.9l-.5 5c1.6 1.5 5.1 1.9 6.9 1.9h.9z" style="mix-blend-mode:soft-light;fill:url(#g52)"/><path d="M17.8 41.2c-.6 0-1.1-2.8-1.1-6.2 0-3.3.5-6.1 1.1-6.1.7 0 1.2 2.8 1.2 6.1 0 3.4-.5 6.2-1.2 6.2" style="mix-blend-mode:hard-light;fill:url(#g53)"/><path d="M9.1 44.2c-3.2.1-5.8-1-5.8-2.5s2.6-2.8 5.8-2.9c3.3 0 5.9 1.1 5.8 2.6 0 1.5-2.6 2.8-5.8 2.8" style="mix-blend-mode:hard-light;fill:url(#g54)"/><path d="M5.7 37.1c-1.8.4-3.5-1.5-3.7-4.4-.3-2.9.9-5.6 2.7-6.1 1.8-.4 3.5 1.5 3.8 4.4.2 3-1 5.7-2.8 6.1" style="mix-blend-mode:hard-light;fill:url(#g55)"/><path d="M13.8.4c-.1 0-1.3-.4-3-.4C9 0 7.8.4 7.7.4L7 1c0 .1 0 .1.1.1C8.6.6 10.8.6 10.8.6s2.2 0 3.7.5c0 0 .1 0 0-.1z" class="s30"/><path d="M7 1S8.2.5 10.8.5c2.5 0 3.7.5 3.7.5l-.2-.2S12.9.4 10.8.4C8.6.4 7.2.8 7.2.8z" style="fill:url(#g56)"/><path d="m7.4.7-.1.1C7.8.6 8.9.3 10.8.3c1.8 0 2.9.3 3.4.5l-.1-.1c-.5-.2-1.7-.4-3.3-.4-1.7 0-2.9.2-3.4.4" style="fill:url(#g57)"/><path d="M7.6.5h-.1C8.1.4 9.1.2 10.8.2c1.6 0 2.6.2 3.2.4l-.1-.1c-.5-.2-1.7-.4-3.1-.4-1.5 0-2.6.2-3.2.4" style="fill:url(#g58)"/><path d="M10.8 0C9 0 7.8.4 7.7.4L7 1v.1h.1C8.5.6 10.5.6 10.7.6h.1c.2 0 2.3 0 3.7.5 0 0 .1 0 0-.1l-.7-.6c-.1 0-1.3-.4-3-.4m0 0c1.7 0 2.9.4 3 .4l.7.7C13.1.6 11 .6 10.8.6h-.1c-.2 0-2.2 0-3.6.5H7l.7-.7C7.8.4 9 0 10.8 0" style="fill:#4d4d4d"/><path d="M2.7 12.7v10.4L4 24.3s.1-3.8 0-5.5c-.2-1.7-1.3-6.1-1.3-6.1m.1.6c.3 1.3 1 4.2 1.1 5.5.1 1.4.1 4.6.1 5.4l-1.2-1.1z" style="fill:url(#g59)"/><path d="M2.7 24.7v8.8l.3 1.3s.6-1 .8-2.8.2-6.6.2-6.6zm.1.1 1.2.7c0 .5-.1 4.9-.2 6.5-.2 1.3-.6 2.2-.8 2.6l-.2-1.1z" style="fill:url(#g60)"/><path d="M18.8 12.7s-1.1 4.4-1.2 6.1c-.2 1.7-.1 5.5-.1 5.5l1.3-1.2zm0 .7v9.8l-1.2 1c0-.7-.1-3.9 0-5.3.2-1.3.9-4.3 1.2-5.5" style="fill:url(#g61)"/><path d="m18.9 24.7-1.4.7s.1 4.8.2 6.6c.2 1.8.9 2.8.9 2.8l.3-1.3z" style="fill:url(#g62)"/><path d="M3.1 12.3 3 11.2s2-2.5 7.8-2.5c5.7 0 7.8 2.5 7.8 2.5l-.2 1.1s-1.6-2.9-7.6-2.9c-5.9 0-7.7 2.9-7.7 2.9" style="fill:#010101"/><path d="m18.8 24.7-1.3.7s.1 4.8.2 6.6c.2 1.8.9 2.8.9 2.8l.2-1.3zm0 .1v8.6l-.3 1.2c-.2-.4-.6-1.3-.7-2.6-.2-1.7-.2-6.1-.2-6.6z" style="fill:url(#g63)"/><g style="mix-blend-mode:soft-light"><path d="M14 34.1q.8 0 1.6-.2.2 0 .4-.1.2 0 .4-.1.2 0 .4-.1.1 0 .2-.1h.1-.1q-.1 0-.2.1-.2 0-.4.1-.2 0-.4.1-.2 0-.4.1zq-1.6.2-3.2.2 1.6 0 3.2-.2m3.7 4.2-.6-4.8H17q.3 2.4.7 4.8M4.5 33.5q.1.1.2.1.2.1.4.1.2.1.4.1.2.1.4.1.8.2 1.6.2 1.6.2 3.3.2-1.7 0-3.3-.2l-1.6-.2q-.2-.1-.4-.1-.2-.1-.4-.1-.2-.1-.4-.1-.1-.1-.2-.1m0 0q.1 0 .2.1.2 0 .4.1.2 0 .4.1.2 0 .4.1l1.6.2q1.6.2 3.3.2v-.1q-1.7 0-3.3-.2-.8 0-1.6-.2-.2 0-.4-.1-.2 0-.4-.1-.2 0-.4-.1-.1 0-.1-.1h-.2zm0 0q-.3 2.4-.5 4.8v-.1q.3-2.3.5-4.7m0 0-.1-.1q-.2 2.4-.5 4.9H4q.2-2.4.5-4.8m2.7 6.2q-.9-.2-1.7-.6l-.4-.2-.4-.2-.4-.2-.2-.2-.1-.1v.1l.1.1q.1 0 .2.1.2.1.4.3l.4.2.4.2q.8.3 1.7.5 1.7.4 3.6.4-1.8 0-3.6-.4m10.3-1.4q0 .1-.1.2l-.4.2-.4.2-.4.2q-.9.4-1.8.6-1.8.4-3.6.4 1.8 0 3.6-.4.9-.2 1.8-.5l.4-.2.4-.2q.2-.2.4-.3.1 0 .2-.1 0-.1.1-.1zm.2 0h.1q-.4-2.5-.7-4.9v.1zM14 34.1l1.6-.2q.2-.1.4-.1.2-.1.4-.1.2-.1.4-.1.1-.1.2-.1h.1v-.1H17q-.1.1-.2.1-.2.1-.4.1-.2.1-.4.1-.2.1-.4.1-.8.2-1.6.2-1.6.2-3.2.2v.1q1.6 0 3.2-.2m0-.1q.8 0 1.6-.2.2 0 .4-.1.2 0 .4-.1.2 0 .4-.1.1 0 .2-.1h.1q0-.1.1-.1c-.5.2-1.1.4-1.6.5zq-1.6.2-3.2.2 1.6 0 3.2-.2m0 0 1.6-.2c.5-.1 1.1-.3 1.6-.5q-.1 0-.2.1h-.2l-.4.2q-.2 0-.4.1h-.4q-.8.2-1.6.3l-3.2.2q1.6 0 3.2-.2m0 0q.8-.1 1.6-.3h.4q.2-.1.4-.1l.4-.2h.2q.1-.1.2-.1v-.1q-.1 0-.3.1-.1 0-.1.1-.2 0-.4.1t-.4.1-.4.1l-1.6.2q-1.6.2-3.2.2v.1zm-3.2.3v-.1zm-6.2-.9q0 .1.1.1.2.1.4.1.2.1.4.1.2.1.4.1.8.2 1.6.2 1.6.2 3.3.2-1.7 0-3.3-.2l-1.6-.2c-.5-.1-1-.3-1.5-.5v.1zm1.3.4 1.6.2q1.6.2 3.3.2-1.7-.1-3.3-.2-.8-.1-1.6-.3h-.4q-.2-.1-.4-.1-.1-.1-.3-.2h-.2q-.1-.1-.2-.1c.5.2 1 .4 1.5.5m-1.5-.4v-.1q-.3 2.5-.5 5 .3-2.5.5-4.9m0-.1-.6 5h.1q.2-2.5.5-5m2.8 6.4q-.9-.2-1.7-.5l-.4-.2-.4-.2q-.2-.2-.4-.3-.1-.1-.2-.1l-.1-.1h-.1q.1.1.2.1.1.1.1.2l.4.2.4.2.4.2q.9.4 1.8.6 1.7.4 3.6.4v-.1q-1.9 0-3.6-.4m3.6.4v.1zm6.8-1.7q-.1.1-.2.1-.2.1-.4.3l-.4.2-.4.2q-.9.3-1.8.5-1.8.4-3.6.4v.1q1.8 0 3.6-.4 1-.2 1.8-.6l.4-.2.4-.2.4-.2zq.1 0 .2-.1h-.1q-.1 0-.1.1m.2-.1-.6-5q-.1 0-.1.1.3 2.4.7 4.9m0 0-.6-5zM14 33.9l1.6-.2q.2-.1.4-.1t.4-.1.4-.1q0-.1.1-.1.2-.1.3-.1l.1-.1q-.2.1-.4.1-.1.1-.2.1-.2.1-.3.1-.2.1-.4.1-.2.1-.4.1-.8.2-1.6.2-1.6.2-3.2.2v.1q1.6 0 3.2-.2m3.1-.5q0-.1.1-.1-.1 0-.1.1m-.1.1h.1zm-12.4-.1h.2q.2.1.3.2.2 0 .4.1h.4q.8.2 1.6.3 1.6.1 3.3.2v-.1q-1.6 0-3.3-.2l-1.6-.2q-.2-.1-.3-.1-.2 0-.4-.1t-.4-.1q-.1 0-.2-.1t-.3-.1l.1.1q.1 0 .2.1m0-.1q.1.1.2.1.2 0 .4.1t.4.1q.1 0 .3.1l1.6.2q1.7.2 3.3.2V34q-1.6 0-3.3-.2-.8 0-1.5-.2-.2 0-.4-.1-.2 0-.4-.1-.2 0-.4-.1-.1 0-.2-.1-.2 0-.3-.1v.1q.2 0 .3.1m-.2 0-.1-.1q-.3 2.6-.5 5.1zm-.1-.1v-.1q-.3 2.6-.6 5.3l.1-.1q.2-2.5.5-5.1m2.9 6.6q-.9-.2-1.8-.6L5 39l-.4-.2-.4-.2q0-.1-.1-.2-.1 0-.2-.1c.4.4 1 .7 1.5 1q.9.3 1.8.5 1.7.4 3.6.4-1.9 0-3.6-.4m10.4-1.4-.2.2-.4.2-.4.2-.4.2q-.8.4-1.8.6-1.8.4-3.6.4 1.8 0 3.7-.4.9-.2 1.7-.5c.6-.3 1.2-.6 1.6-1q-.1.1-.2.1m.2-.1h.1q-.3-2.5-.7-5.1v.1zm.1 0 .1.1q-.4-2.7-.7-5.3l-.1.1q.4 2.6.7 5.1m-.8-4.9q0-.1.1-.1-.1 0-.1.1m0 .1v-.1zm-12.6 0-.1-.1zM4 38.3h-.1zm-.1 0h-.1zm3.3 1.5q-.9-.2-1.8-.5c-.5-.3-1.1-.6-1.5-1h-.1c.5.4 1 .7 1.6 1q.9.3 1.7.5 1.8.4 3.7.4-1.9 0-3.6-.4m9-.5q-.8.3-1.7.5-1.9.4-3.7.4 1.8 0 3.7-.4.9-.2 1.7-.5c.6-.3 1.2-.5 1.6-1-.4.4-1 .7-1.6 1m1-6v-.1zm-.2.2h.1zm-6.2.7v-.1zm-6.4-.9-.1-.1zM4 38.2v.1zm-.2.1v.1zm3.3 1.5q-.8-.2-1.7-.5c-.6-.3-1.1-.6-1.6-1v.1q.1 0 .2.1l.2.2.4.2.4.2.4.2q.8.4 1.7.6 1.8.4 3.7.4v-.1q-1.9 0-3.7-.4m3.7.4v.1zm5.4-.9q-.8.3-1.7.5-1.9.4-3.7.4v.1q1.8 0 3.7-.4.9-.2 1.8-.6.2 0 .4-.1.2-.2.4-.3l.4-.2.2-.2q.1-.1.2-.1 0-.1-.1-.1c-.4.5-1 .7-1.6 1m1.6-1q.1 0 .1.1v-.1zm-.6-5v-.1zm0-.1.1-.1zm-.1.3v-.1zm-6.3.6V34zm-6.4-.7v-.1zm-.1-.2v-.1zm-.5 5.1-.1.1h.1zm3.3 1.6q-.9-.2-1.7-.6l-.4-.2-.4-.2-.4-.2-.2-.2q-.1-.1-.2-.1h-.1q.1.1.3.2 0 .1.1.1.2.2.4.3l.4.2q.3.1.5.2.8.3 1.7.5 1.8.5 3.7.5v-.1q-1.9 0-3.7-.4m3.7.4v.1zm6.9-1.8-.2.2-.4.2q-.2.1-.4.3-.2.1-.4.1-.9.4-1.8.6-1.9.4-3.7.4v.1q1.9 0 3.7-.4.9-.2 1.8-.6l.4-.2.4-.2q.2-.1.4-.3.1 0 .2-.1.2-.1.3-.2h-.1q-.1 0-.2.1m.2-.1h.1l-.1-.1zm-.2-.1h.1zm-.5-5.1.1-.1z" style="fill:url(#g64)"/></g><path d="M5.3 18.4c0 .2-.2.4-.3.4-.2 0-.3-.2-.3-.4s.1-.4.3-.4c.1 0 .3.2.3.4" style="fill:url(#g65)"/><path d="M5 18.9c-.1 0-.2 0-.2-.1v-.4c0-.1.1-.2.2-.2 0 0 .1.1.1.2v.4c0 .1-.1.1-.1.1" style="fill:url(#g66)"/><path d="M5.1 18.7c0 .1-.1.2-.1.2-.1 0-.2-.1-.2-.2s.1-.2.2-.2c0 0 .1.1.1.2" style="fill:url(#g67)"/><path d="M5 21.3h-.1v-2.5q0-.1.1-.1z" style="fill:url(#g68)"/><path d="M17.5 12.9 4.4 43.8c1.7 1.4 6.4 1.2 6.4 1.2s5.1.2 6.6-1.4c.7-.9 1.1-2.2 1.5-3.8.1-1 .6-4.2.6-5.4V14.6z" style="mix-blend-mode:multiply;fill:url(#g69)"/><path d="M6.3 1.2S5 1.5 4.1 2c-.9.7-1.2 1.4-1.2 1.4s.9-.6 1.8-1c.9-.5 1.3-.5 1.3-.5z" style="fill:url(#g70)"/><path d="m6 1.9.1-.3s-.8.1-1.5.5c-.8.4-1.4.8-1.7 1.3 0 0 .9-.6 1.8-1 .9-.5 1.3-.5 1.3-.5" style="fill:url(#g71)"/><path d="M6.1 1.4c0 .1-.1.2-.4.2-.2.1-.4.1-.4 0s.1-.2.4-.2c.2-.1.4-.1.4 0" style="fill:url(#g72)"/><path d="M5.1 1.7c.1 0-.1.1-.2.2-.2.1-.4.1-.4 0 0 0 .1-.1.3-.2q.3-.15.3 0" style="fill:url(#g73)"/><path d="M6.1 1.4c.1.1-.3.4-.8.5-.5.2-.9.2-1 .1 0-.1.4-.3.9-.5.5-.1.9-.2.9-.1" style="mix-blend-mode:hard-light;fill:url(#g74)"/><path d="M2.9 3.4s.9-.7 1.8-1.1c1-.4 1.3-.4 1.3-.4V2s-.3 0-1.3.4c-.9.4-1.8 1-1.8 1" style="fill:url(#g75)"/><path d="M15.2 1.2s1.3.3 2.2.8c1 .7 1.3 1.4 1.3 1.4s-1-.6-1.9-1c-.9-.5-1.2-.5-1.2-.5z" style="fill:url(#g76)"/><path d="m15.6 1.9-.2-.3s.8.1 1.6.5c.7.4 1.3.8 1.7 1.3 0 0-1-.6-1.9-1-.9-.5-1.2-.5-1.2-.5" style="fill:url(#g77)"/><path d="M15.4 1.4c0 .1.2.2.4.2.2.1.4.1.5 0 0-.1-.2-.2-.4-.2-.3-.1-.5-.1-.5 0" style="fill:url(#g78)"/><path d="M16.4 1.7s.1.1.3.2q.3.15.3 0c.1 0-.1-.1-.2-.2-.2-.1-.4-.1-.4 0" style="fill:url(#g79)"/><path d="M15.4 1.4c0 .1.3.4.8.5.5.2 1 .2 1 .1s-.4-.3-.8-.5c-.5-.1-1-.2-1-.1" style="mix-blend-mode:hard-light;fill:url(#g80)"/><path d="M18.7 3.4s-1-.7-1.9-1.1c-1-.4-1.3-.4-1.3-.4l.1.1s.2 0 1.2.4 1.9 1 1.9 1" style="fill:url(#g81)"/><g style="mix-blend-mode:soft-light"><path d="M6.6 1.6c-.1-.3-3.3 1.1-3.9 2.3-.7 1.1-.5 9.2-.3 9.3.2 0 4.3-11.2 4.2-11.6" class="s66"/><path d="M6.5 1.7c-.1-.3-3.2 1-3.8 2.2-.7 1.1-.5 8.9-.3 9S6.7 2.1 6.5 1.7" class="s67"/><path d="M6.5 1.7c-.1-.3-3.2 1-3.8 2.2-.6 1.1-.5 8.7-.3 8.8s4.2-10.6 4.1-11" class="s68"/><path d="M6.4 1.7c-.1-.2-3.1 1.1-3.7 2.2s-.5 8.5-.3 8.6c.2 0 4.2-10.4 4-10.8" class="s69"/><path d="M6.4 1.8c-.1-.3-3.1 1-3.7 2.1s-.5 8.2-.3 8.3 4.1-10.1 4-10.4" class="s70"/><path d="M6.3 1.8c-.1-.2-3 1-3.6 2.1s-.5 8-.3 8.1c.3.1 4.1-9.8 3.9-10.2" class="s71"/><path d="M6.3 1.8c-.1-.2-3 1-3.6 2.1-.5 1.1-.5 7.7-.3 7.9.3.1 4-9.6 3.9-10" class="s72"/><path d="M6.2 1.9c-.1-.3-3 .9-3.5 2s-.5 7.5-.3 7.6c.3.1 4-9.3 3.8-9.6" class="s73"/><path d="M6.2 1.9c-.1-.2-3 1-3.5 2-.5 1.1-.5 7.3-.3 7.4.3.1 3.9-9.1 3.8-9.4" class="s74"/><path d="M6.1 1.9c-.1-.2-2.9 1-3.4 2-.5 1.1-.5 7-.3 7.1.3.2 3.9-8.8 3.7-9.1" class="s75"/><path d="M6.1 2c-.2-.2-2.9.9-3.4 1.9-.4 1.1-.5 6.8-.2 6.9.2.1 3.7-8.5 3.6-8.8" class="s76"/><path d="M6 2c-.1-.2-2.8.9-3.2 2-.5 1-.6 6.4-.3 6.6.2.1 3.7-8.3 3.5-8.6" class="s77"/><path d="M6 2c-.2-.1-2.8 1-3.2 2-.5 1-.6 6.2-.3 6.3.2.2 3.6-8 3.5-8.3" class="s78"/><path d="M5.9 2.1C5.8 1.9 3.2 3 2.8 4s-.6 6-.3 6.1c.2.1 3.6-7.8 3.4-8" class="s79"/><path d="M5.9 2.1C5.7 1.9 3.2 3 2.8 4s-.6 5.7-.3 5.9c.2.1 3.5-7.5 3.4-7.8" class="s80"/><path d="M5.8 2.1C5.7 2 3.2 3 2.8 4s-.6 5.5-.3 5.6c.2.2 3.5-7.2 3.3-7.5" class="s81"/><path d="M5.7 2.2C5.6 2 3.2 3 2.8 4s-.5 5.2-.3 5.4 3.4-7 3.2-7.2" class="s82"/><path d="M5.7 2.2c-.1-.1-2.5.9-2.9 1.8-.3 1-.5 5-.3 5.2.2.1 3.4-6.8 3.2-7" class="s83"/><path d="M5.6 2.2c-.1-.1-2.4.9-2.8 1.8-.3.9-.5 4.7-.3 4.9s3.3-6.4 3.1-6.7" class="s84"/><path d="M5.6 2.3c-.1-.2-2.4.8-2.8 1.7-.3.9-.5 4.5-.3 4.7s3.3-6.2 3.1-6.4" class="s85"/><path d="M5.5 2.3c-.1-.1-2.3.8-2.7 1.7-.3.9-.5 4.3-.3 4.4.2.2 3.2-5.9 3-6.1" class="s86"/><path d="M5.5 2.3c-.1-.1-2.4.9-2.6 1.7-.3.9-.6 4-.4 4.2s3.2-5.7 3-5.9" class="s87"/></g><g style="mix-blend-mode:soft-light"><path d="M14.7 1.2c.1-.3 3.5 1.2 4.1 2.4.7 1.1.6 9 .4 9.1-.2 0-4.7-11.1-4.5-11.5" class="s66"/><path d="M14.7 1.3c.1-.3 3.5 1.1 4.1 2.3.6 1.1.6 8.8.4 8.8-.2.1-4.6-10.7-4.5-11.1" class="s67"/><path d="M14.8 1.3c.1-.3 3.4 1.2 4 2.3s.6 8.5.4 8.6-4.6-10.5-4.4-10.9" class="s68"/><path d="M14.9 1.3c.1-.2 3.3 1.2 3.9 2.3s.6 8.3.4 8.4-4.5-10.3-4.3-10.7" class="s69"/><path d="M14.9 1.4c.1-.3 3.3 1.1 3.9 2.2s.6 8.1.4 8.2c-.3.1-4.4-10-4.3-10.4" class="s70"/><path d="M15 1.4c.1-.2 3.2 1.1 3.8 2.2.5 1.1.6 7.8.4 7.9-.3.1-4.4-9.7-4.2-10.1" class="s71"/><path d="M15 1.5c.2-.3 3.2 1 3.8 2.1.5 1.1.6 7.6.3 7.7-.2.1-4.2-9.5-4.1-9.8" class="s72"/><path d="M15.1 1.5c.1-.2 3.1 1.1 3.7 2.1.5 1.1.6 7.4.3 7.5-.2.1-4.2-9.3-4-9.6" class="s73"/><path d="M15.2 1.5c.1-.2 3 1.1 3.5 2.1.6 1.1.6 7.1.4 7.3-.2.1-4.1-9-3.9-9.4" class="s74"/><path d="M15.2 1.6c.1-.2 3 1 3.5 2.1.5 1 .6 6.8.4 6.9-.2.2-4-8.7-3.9-9" class="s75"/><path d="M15.3 1.6c.1-.2 3 1 3.4 2.1.5 1 .6 6.6.4 6.7s-4-8.5-3.8-8.8" class="s76"/><path d="M15.4 1.7c.1-.2 2.9 1 3.3 2 .5 1 .6 6.4.4 6.5S15.2 2 15.4 1.7" class="s77"/><path d="M15.4 1.7c.1-.2 2.9 1 3.3 2 .5 1 .6 6.1.4 6.3-.2.1-3.8-8-3.7-8.3" class="s78"/><path d="M15.5 1.7c.1-.1 2.8 1 3.2 2s.6 5.9.4 6c-.3.2-3.8-7.7-3.6-8" class="s79"/><path d="M15.5 1.8c.2-.2 2.8.9 3.2 1.9s.6 5.7.4 5.8c-.3.2-3.7-7.5-3.6-7.7" class="s80"/><path d="M15.6 1.8c.1-.1 2.7.9 3.1 1.9s.6 5.4.3 5.6c-.2.1-3.6-7.2-3.4-7.5" class="s81"/><path d="M15.7 1.9c.1-.2 2.6.9 3 1.8.4 1 .6 5.2.3 5.4-.2.1-3.5-7-3.3-7.2" class="s82"/><path d="M15.7 1.9c.1-.1 2.6.9 3 1.8.3 1 .6 5 .3 5.1-.2.2-3.4-6.7-3.3-6.9" class="s83"/><path d="M15.8 1.9c.1-.1 2.5.9 2.9 1.8.3 1 .5 4.7.3 4.9s-3.4-6.4-3.2-6.7" class="s84"/><path d="M15.9 2c.1-.1 2.4.8 2.7 1.7.4 1 .6 4.5.4 4.7S15.7 2.2 15.9 2" class="s85"/><path d="M15.9 2c.1-.1 2.4.9 2.7 1.8s.6 4.2.4 4.4c-.2.1-3.2-6-3.1-6.2" class="s86"/><path d="M16 2.1c.1-.1 2.3.8 2.6 1.7s.6 3.9.4 4.1-3.2-5.7-3-5.8" class="s87"/></g><path d="M2.2 20s-.1 0-.1.1q-.2.2-.2 1.2c0 .7.2 1.5.3 1.5h.1V22l-.1-.1s-.1-.3-.1-.6c0-.4.1-.7.1-.7z" style="fill:url(#g82)"/><path d="M2.2 20.6s-.2.3-.2.7.2.6.2.6-.1-.2-.1-.6.1-.7.1-.7" class="s147"/><path d="M19.2 20s.1 0 .1.1q.2.2.2 1.2c0 .7-.1 1.5-.3 1.5V22l.1-.1s.1-.3.1-.6c0-.4-.1-.7-.1-.7h-.1z" style="fill:url(#g83)"/><path d="M19.3 20.6s.1.3.1.7-.1.6-.1.6z" class="s147"/><path d="M2.2 30.1h-.1q-.2.2-.2 1.3c0 .7.2 1.5.3 1.5h.1v-.8l-.1-.1s-.1-.3-.1-.6c0-.4.1-.7.1-.7z" style="fill:url(#g84)"/><path d="M2.2 30.7s-.2.3-.2.7.2.6.2.6-.1-.2-.1-.6.1-.7.1-.7" class="s147"/><path d="M19.2 30.1h.1q.2.2.2 1.3c0 .7-.1 1.5-.3 1.5v-.8l.1-.1s.1-.3.1-.6c0-.4-.1-.7-.1-.7h-.1z" style="fill:url(#g85)"/><path d="M19.3 30.7s.1.3.1.7-.1.6-.1.6z" class="s147"/><path d="M6.9 9.4v-.1l1.9-.1v.1z" style="fill:url(#g86)"/><path d="M6.1 10H6q0-.1.1-.1s1.4-.5 2.6-.7c1.4-.1 2.7-.1 2.7-.1v.1s-1.3 0-2.6.2c-1.3.1-2.7.6-2.7.6" style="fill:url(#g87)"/><path d="M9 9.4h-.5v-.1l.5-.1z" style="fill:url(#g88)"/><path d="M5.5 9.6 7 9.4v-.1h-.7z" class="s154"/><path d="m15.2 9.9-1.8-.7.1-.1 1.7.7z" style="fill:url(#g89)"/><path d="M17.5 11s-1.1-.6-2.4-1c-1.2-.4-2.8-.6-2.8-.6q-.1 0-.1-.1t.1-.1s1.6.2 2.8.6c1.3.5 2.4 1 2.5 1v.1q0 .1-.1.1" style="fill:url(#g90)"/><path d="m15.3 10.1-.5-.2.1-.2.5.2z" style="fill:url(#g91)"/><path d="m12 8.8 1.5.4v-.1l-.6-.2z" class="s154"/><g style="mix-blend-mode:soft-light"><path d="M3.3 12.3q.1-.1.2-.3c.2-.3.6-.7 1.2-1 1.1-.8 3.2-1.5 6.1-1.5v-.1c-2.9.1-5 .8-6.1 1.5-.6.4-1 .8-1.2 1.1q-.2.2-.2.3l-.1.1h.1zm-.1.1q0-.1-.1-.1l1.2 5.2v-.1q-.5-2.5-1.1-5m.1 0h-.1q.6 2.5 1.1 5zm4.2 4.7q-.8 0-1.7.1-.4.1-.8.1-.2.1-.4.1h-.3v.1q.1 0 .3-.1H5q.4-.1.8-.1.9-.1 1.7-.2 1.6-.1 3.3-.1v-.1q-1.7 0-3.3.2m0-.1q-.8.1-1.7.2-.4 0-.8.1h-.4q-.1.1-.3.1h.3q.2 0 .4-.1.4 0 .8-.1.9-.1 1.7-.1 1.6-.2 3.3-.2-1.7 0-3.3.1m9.4.3h-.4q-.4-.1-.8-.1l-1.6-.2q-1.7-.1-3.3-.1 1.6 0 3.3.2.8 0 1.6.1.4.1.8.1.2.1.4.1h.3q-.1 0-.3-.1m0 .1q-.2 0-.4-.1-.4 0-.8-.1-.8-.1-1.6-.1-1.7-.2-3.3-.2v.1q1.6 0 3.3.1l1.6.2q.4 0 .8.1zq.2.1.4.1l-.1-.1zm.3 0q.6-2.5 1.1-5-.6 2.5-1.1 5m0 0 .1.1q.5-2.6 1.1-5.2l-.1.1q-.5 2.5-1.1 5m-.3-6.4c.5.3.9.7 1.1 1q.2.2.2.3l.1.1v-.1L18 12c-.2-.3-.5-.7-1.1-1.1-1.2-.7-3.3-1.4-6.1-1.5v.1c2.8 0 4.9.7 6.1 1.5M3.3 12.3q0-.1.2-.3c.2-.3.6-.7 1.2-1.1 1.1-.7 3.2-1.4 6.1-1.5-2.9 0-5 .7-6.2 1.5-.6.3-.9.7-1.2 1q-.1.2-.2.3l-.1.1q.1 0 .1.1zm-.2 0q.5 2.7 1.1 5.3 0-.1.1-.1zm0 0H3l1.2 5.4v-.1q-.6-2.6-1.1-5.3m4.4 4.8q-.8.1-1.7.2-.4 0-.8.1h-.4q-.2.1-.3.1t-.1.1q.2-.1.4-.1H5q.4-.1.9-.2.8-.1 1.6-.1 1.6-.1 3.3-.1V17q-1.7 0-3.3.1m0 .1q-.8 0-1.6.1-.5.1-.9.2h-.4q-.2 0-.4.1v.1c.2-.1.3-.1.4-.1q.2-.1.5-.1.4 0 .8-.1zq1.6-.1 3.3-.1-1.7 0-3.3.1m3.3-.3v.1zm6.1.5h-.4q-.4-.1-.8-.1l-1.6-.2q-1.7-.1-3.3-.1v.1q1.6 0 3.2.1.9 0 1.7.1l.8.2h.4q.2 0 .4.1v-.1q-.2 0-.4-.1m0 .1h-.4l-.8-.2q-.8-.1-1.7-.1-1.6-.1-3.2-.1 1.6 0 3.2.1.9.1 1.7.2.4.1.8.1.2 0 .4.1c.1 0 .2 0 .5.1l-.1-.1q-.2-.1-.4-.1m.4 0v.1q.6-2.6 1.2-5.3h-.1q-.6 2.6-1.1 5.2m0 .1q.1 0 .1.1.6-2.7 1.1-5.4-.6 2.7-1.2 5.3m-.4-6.7c.6.4.9.8 1.1 1.1l.3.3v.1l.1-.1-.1-.1q0-.1-.2-.3c-.2-.3-.6-.7-1.2-1-1.2-.8-3.3-1.5-6.1-1.5 2.8.1 4.9.8 6.1 1.5M3.2 12.2q.1-.1.2-.3c.3-.3.6-.7 1.2-1 1.2-.8 3.3-1.5 6.2-1.5v-.1c-2.9.1-5 .7-6.2 1.5-.6.4-1 .8-1.2 1.1q-.2.2-.2.3l-.1.1zm-.2.1h-.1l1.2 5.4h.1zm.2.1q0-.1-.1-.1.1 0 .1.1m4.3 4.8-1.6.2q-.4.1-.9.1-.2 0-.4.1c-.1 0-.2 0-.4.1h-.1.4q.1 0 .2-.1h.4q.4-.1.8-.1l1.6-.2q1.6-.1 3.3-.1v-.1q-1.7 0-3.3.1m-3.2.2v.1zm6.5-.4v.1zm6.1.6q-.2-.1-.4-.1-.4 0-.8-.1-.8-.1-1.7-.2-1.6-.1-3.2-.1v.1q1.6 0 3.2.1.9.1 1.7.2.4 0 .8.1zq.1.1.2.1h.3c-.3-.1-.4-.1-.5-.1m.4-.1v.1zm.1.2 1.2-5.4h-.1q-.5 2.7-1.1 5.4m1-5.4h.1zm-1.5-1.4c.6.3 1 .7 1.2 1q.2.2.2.3l.1.1h.1l-.1-.1q-.1-.1-.2-.3c-.3-.3-.6-.7-1.3-1.1-1.2-.8-3.3-1.4-6.1-1.5v.1c2.8 0 4.9.7 6.1 1.5M3.2 12.2q0-.1.2-.3c.2-.3.6-.7 1.2-1.1 1.2-.8 3.3-1.4 6.2-1.5v-.1c-2.9.1-5 .8-6.2 1.6-.7.3-1 .8-1.3 1q-.1.3-.2.4l-.1.1h.1zm-.1.1H3zm.2.1h-.1zm.9 5.2v.1zm13-.2.1.1zm.1.2q.1 0 .1.1 0-.1-.1-.1m1-5.3h.1zM17 10.8c.6.4.9.8 1.2 1.1q.1.2.2.3l.1.1-.1-.1q0-.2-.2-.4c-.2-.3-.6-.7-1.2-1-1.2-.8-3.4-1.5-6.2-1.6v.1c2.8 0 5 .7 6.2 1.5M3.1 12.2l.2-.4c.3-.3.6-.7 1.3-1 1.2-.8 3.3-1.5 6.2-1.6-2.9 0-5 .7-6.3 1.5-.6.4-1 .8-1.2 1.1l-.3.3-.1.2H3zm-.1.1h-.1zm1.2 5.4v-.1l-.1.1zm.1-.2q-.1 0-.1.1 0-.1.1-.1m6.5-.4v.1zm6.6.6v-.1zm.9-5.3v-.1zm.2-.1h.1zM17 10.8c.6.3 1 .7 1.2 1q.2.2.2.4l.1.1h.1l-.1-.2q-.1-.1-.2-.3c-.3-.3-.7-.7-1.3-1.1-1.2-.8-3.3-1.5-6.2-1.5 2.8.1 5 .8 6.2 1.6" style="fill:url(#g92)"/></g></g></g></svg>