<svg width="1024" height="291" viewBox="0 0 1024 291" fill="none" xmlns="http://www.w3.org/2000/svg">
<path d="M872.609 231.959V135.797L887.553 174.457L785.868 4.54828H853.766L927.188 127.675H887.878L961.624 4.54828H1024L922.639 174.457L936.934 135.797V231.959H872.609Z" fill="currentColor"/>
<path d="M384.756 231.959V55.5534H314.909V4.54828H518.604V55.5534H449.081V231.959H384.756Z" fill="currentColor"/>
<path d="M226.261 231.959V4.54828H290.586V231.959H226.261Z" fill="currentColor"/>
<path d="M95.8376 236.508C77.2115 236.508 59.2352 234.234 41.9086 229.685C24.7986 224.921 10.8291 218.856 0 211.492L21.1167 164.061C31.2961 170.558 42.9915 175.973 56.203 180.305C69.6311 184.42 82.9509 186.477 96.1624 186.477C105.042 186.477 112.19 185.719 117.604 184.203C123.019 182.47 126.917 180.305 129.299 177.706C131.898 174.89 133.198 171.641 133.198 167.959C133.198 162.761 130.816 158.646 126.051 155.614C121.286 152.582 115.113 150.091 107.533 148.142C99.9526 146.193 91.5059 144.244 82.1929 142.294C73.0964 140.345 63.8917 137.854 54.5787 134.822C45.4822 131.79 37.1438 127.892 29.5635 123.127C21.9831 118.146 15.8105 111.756 11.0457 103.959C6.28088 95.9459 3.89848 85.8748 3.89848 73.7462C3.89848 60.1015 7.58037 47.7564 14.9442 36.7107C22.5245 25.665 33.7868 16.7851 48.731 10.0711C63.6751 3.35703 82.3012 0 104.609 0C119.553 0 134.173 1.73266 148.467 5.19798C162.978 8.44671 175.865 13.3198 187.127 19.8173L167.31 67.5736C156.481 61.7259 145.76 57.3943 135.147 54.5787C124.535 51.5466 114.247 50.0305 104.284 50.0305C95.4044 50.0305 88.2572 51.0051 82.8426 52.9543C77.4281 54.687 73.5296 57.0694 71.1472 60.1015C68.7648 63.1337 67.5736 66.599 67.5736 70.4975C67.5736 75.4789 69.8477 79.4856 74.3959 82.5178C79.1607 85.3333 85.3333 87.7157 92.9137 89.665C100.711 91.3976 109.157 93.2386 118.254 95.1878C127.567 97.1371 136.772 99.6278 145.868 102.66C155.181 105.475 163.628 109.374 171.208 114.355C178.788 119.12 184.853 125.509 189.401 133.523C194.166 141.32 196.548 151.174 196.548 163.086C196.548 176.298 192.758 188.535 185.178 199.797C177.814 210.843 166.66 219.723 151.716 226.437C136.988 233.151 118.362 236.508 95.8376 236.508Z" fill="currentColor"/>
<path d="M769.624 30.5381C769.624 46.6861 756.534 59.7767 740.386 59.7767C724.238 59.7767 711.147 46.6861 711.147 30.5381C711.147 14.3901 724.238 1.2995 740.386 1.2995C756.534 1.2995 769.624 14.3901 769.624 30.5381Z" fill="#7350F2"/>
<path d="M747.905 81.0901L702.422 211.039C698.017 223.624 684.564 230.593 671.744 226.931L601.613 206.893L621.652 277.023L573.232 290.855L540.744 177.15C538.233 168.358 540.684 158.894 547.15 152.429C553.615 145.964 563.079 143.512 571.87 146.023L662.74 171.985L700.379 64.4531L747.905 81.0901Z" fill="#7350F2"/>
</svg>
