<svg id="mermaid-svg" width="100%" xmlns="http://www.w3.org/2000/svg" class="flowchart" style="max-width: 2252.12890625px;" viewBox="0 0 2252.12890625 1056.7374267578125" role="graphics-document document" aria-roledescription="flowchart-v2" xmlns:xlink="http://www.w3.org/1999/xlink"><style xmlns="http://www.w3.org/1999/xhtml">@import url("https://cdnjs.cloudflare.com/ajax/libs/font-awesome/6.7.2/css/all.min.css");</style><style>#mermaid-svg{font-size:16px;fill:#000000;}@keyframes edge-animation-frame{from{stroke-dashoffset:0;}}@keyframes dash{to{stroke-dashoffset:0;}}#mermaid-svg .edge-animation-slow{stroke-dasharray:9,5!important;stroke-dashoffset:900;animation:dash 50s linear infinite;stroke-linecap:round;}#mermaid-svg .edge-animation-fast{stroke-dasharray:9,5!important;stroke-dashoffset:900;animation:dash 20s linear infinite;stroke-linecap:round;}#mermaid-svg .error-icon{fill:#552222;}#mermaid-svg .error-text{fill:#552222;stroke:#552222;}#mermaid-svg .edge-thickness-normal{stroke-width:1px;}#mermaid-svg .edge-thickness-thick{stroke-width:3.5px;}#mermaid-svg .edge-pattern-solid{stroke-dasharray:0;}#mermaid-svg .edge-thickness-invisible{stroke-width:0;fill:none;}#mermaid-svg .edge-pattern-dashed{stroke-dasharray:3;}#mermaid-svg .edge-pattern-dotted{stroke-dasharray:2;}#mermaid-svg .marker{fill:#666;stroke:#666;}#mermaid-svg .marker.cross{stroke:#666;}#mermaid-svg svg{font-size:16px;}#mermaid-svg p{margin:0;}#mermaid-svg .label{color:#000000;}#mermaid-svg .cluster-label text{fill:#333;}#mermaid-svg .cluster-label span{color:#333;}#mermaid-svg .cluster-label span p{background-color:transparent;}#mermaid-svg .label text,#mermaid-svg span{fill:#000000;color:#000000;}#mermaid-svg .node rect,#mermaid-svg .node circle,#mermaid-svg .node ellipse,#mermaid-svg .node polygon,#mermaid-svg .node path{fill:#eee;stroke:#000000;stroke-width:1px;}#mermaid-svg .rough-node .label text,#mermaid-svg .node .label text,#mermaid-svg .image-shape .label,#mermaid-svg .icon-shape .label{text-anchor:middle;}#mermaid-svg .node .katex path{fill:#000;stroke:#000;stroke-width:1px;}#mermaid-svg .rough-node .label,#mermaid-svg .node .label,#mermaid-svg .image-shape .label,#mermaid-svg .icon-shape .label{text-align:center;}#mermaid-svg .node.clickable{cursor:pointer;}#mermaid-svg .root .anchor path{fill:#666!important;stroke-width:0;stroke:#666;}#mermaid-svg .arrowheadPath{fill:#333333;}#mermaid-svg .edgePath .path{stroke:#666;stroke-width:2.0px;}#mermaid-svg .flowchart-link{stroke:#666;fill:none;}#mermaid-svg .edgeLabel{background-color:white;text-align:center;}#mermaid-svg .edgeLabel p{background-color:white;}#mermaid-svg .edgeLabel rect{opacity:0.5;background-color:white;fill:white;}#mermaid-svg .labelBkg{background-color:rgba(255, 255, 255, 0.5);}#mermaid-svg .cluster rect{fill:none;stroke:#000000;stroke-width:1px;}#mermaid-svg .cluster text{fill:#333;}#mermaid-svg .cluster span{color:#333;}#mermaid-svg div.mermaidTooltip{position:absolute;text-align:center;max-width:200px;padding:2px;font-size:12px;background:hsl(-160, 0%, 93.3333333333%);border:1px solid #707070;border-radius:2px;pointer-events:none;z-index:100;}#mermaid-svg .flowchartTitleText{text-anchor:middle;font-size:18px;fill:#000000;}#mermaid-svg rect.text{fill:none;stroke-width:0;}#mermaid-svg .icon-shape,#mermaid-svg .image-shape{background-color:white;text-align:center;}#mermaid-svg .icon-shape p,#mermaid-svg .image-shape p{background-color:white;padding:2px;}#mermaid-svg .icon-shape rect,#mermaid-svg .image-shape rect{opacity:0.5;background-color:white;fill:white;}#mermaid-svg .label-icon{display:inline-block;height:1em;overflow:visible;vertical-align:-0.125em;}#mermaid-svg .node .label-icon path{fill:currentColor;stroke:revert;stroke-width:revert;}#mermaid-svg :root{--mermaid-font-family:"trebuchet ms",verdana,arial,sans-serif;}</style><g><marker id="mermaid-svg_flowchart-v2-pointEnd" class="marker flowchart-v2" viewBox="0 0 10 10" refX="5" refY="5" markerUnits="userSpaceOnUse" markerWidth="8" markerHeight="8" orient="auto"><path d="M 0 0 L 10 5 L 0 10 z" class="arrowMarkerPath" style="stroke-width: 1; stroke-dasharray: 1, 0;"/></marker><marker id="mermaid-svg_flowchart-v2-pointStart" class="marker flowchart-v2" viewBox="0 0 10 10" refX="4.5" refY="5" markerUnits="userSpaceOnUse" markerWidth="8" markerHeight="8" orient="auto"><path d="M 0 5 L 10 10 L 10 0 z" class="arrowMarkerPath" style="stroke-width: 1; stroke-dasharray: 1, 0;"/></marker><marker id="mermaid-svg_flowchart-v2-circleEnd" class="marker flowchart-v2" viewBox="0 0 10 10" refX="11" refY="5" markerUnits="userSpaceOnUse" markerWidth="11" markerHeight="11" orient="auto"><circle cx="5" cy="5" r="5" class="arrowMarkerPath" style="stroke-width: 1; stroke-dasharray: 1, 0;"/></marker><marker id="mermaid-svg_flowchart-v2-circleStart" class="marker flowchart-v2" viewBox="0 0 10 10" refX="-1" refY="5" markerUnits="userSpaceOnUse" markerWidth="11" markerHeight="11" orient="auto"><circle cx="5" cy="5" r="5" class="arrowMarkerPath" style="stroke-width: 1; stroke-dasharray: 1, 0;"/></marker><marker id="mermaid-svg_flowchart-v2-crossEnd" class="marker cross flowchart-v2" viewBox="0 0 11 11" refX="12" refY="5.2" markerUnits="userSpaceOnUse" markerWidth="11" markerHeight="11" orient="auto"><path d="M 1,1 l 9,9 M 10,1 l -9,9" class="arrowMarkerPath" style="stroke-width: 2; stroke-dasharray: 1, 0;"/></marker><marker id="mermaid-svg_flowchart-v2-crossStart" class="marker cross flowchart-v2" viewBox="0 0 11 11" refX="-1" refY="5.2" markerUnits="userSpaceOnUse" markerWidth="11" markerHeight="11" orient="auto"><path d="M 1,1 l 9,9 M 10,1 l -9,9" class="arrowMarkerPath" style="stroke-width: 2; stroke-dasharray: 1, 0;"/></marker><g class="root"><g class="clusters"><g class="cluster " id="ExternalServices" data-look="classic"><rect style="fill:none !important;stroke:#000000 !important;stroke-width:1px !important" x="1177.10546875" y="890.0085220336914" width="639.34375" height="158.72885131835938"/><g class="cluster-label " transform="translate(1417.69140625, 890.0085220336914)"><foreignObject width="158.171875" height="24"><div xmlns="http://www.w3.org/1999/xhtml" style="display: table-cell; white-space: nowrap; line-height: 1.5; max-width: 200px; text-align: center;"><span class="nodeLabel "><p>Externí integrační vrstva</p></span></div></foreignObject></g></g><g class="cluster " id="BackendLayer" data-look="classic"><rect style="fill:none !important;stroke:#000000 !important;stroke-width:1px !important" x="8" y="688.0085220336914" width="806.7890625" height="360.7288513183594"/><g class="cluster-label " transform="translate(329.41796875, 688.0085220336914)"><foreignObject width="163.953125" height="24"><div xmlns="http://www.w3.org/1999/xhtml" style="display: table-cell; white-space: nowrap; line-height: 1.5; max-width: 200px; text-align: center;"><span class="nodeLabel "><p>Aplikační a datová vrstva</p></span></div></foreignObject></g></g><g class="cluster " id="FrontendLayer" data-look="classic"><rect style="fill:none !important;stroke:#000000 !important;stroke-width:1px !important" x="1950.11328125" y="458" width="294.015625" height="156.0085220336914"/><g class="cluster-label " transform="translate(2005.58984375, 458)"><foreignObject width="183.0625" height="24"><div xmlns="http://www.w3.org/1999/xhtml" style="display: table-cell; white-space: nowrap; line-height: 1.5; max-width: 200px; text-align: center;"><span class="nodeLabel "><p>Prezentační vrstva (Hosting)</p></span></div></foreignObject></g></g><g class="cluster " id="EdgeLayer" data-look="classic"><rect style="fill:none !important;stroke:#000000 !important;stroke-width:1px !important" x="123.890625" y="209" width="887.90234375" height="405.0085220336914"/><g class="cluster-label " transform="translate(467.841796875, 209)"><foreignObject width="200" height="48"><div xmlns="http://www.w3.org/1999/xhtml" style="display: table; white-space: break-spaces; line-height: 1.5; max-width: 200px; text-align: center; width: 200px;"><span class="nodeLabel "><p>Hraniční vrstva (Cloudflare Edge)</p></span></div></foreignObject></g></g><g class="cluster " id="ClientLayer" data-look="classic"><rect style="fill:none !important;stroke:#000000 !important;stroke-width:1px !important" x="1037.05078125" y="8" width="893.0625" height="808.0085220336914"/><g class="cluster-label " transform="translate(1383.58203125, 8)"><foreignObject width="200" height="48"><div xmlns="http://www.w3.org/1999/xhtml" style="display: table; white-space: break-spaces; line-height: 1.5; max-width: 200px; text-align: center; width: 200px;"><span class="nodeLabel "><p>Klientská vrstva (Aplikace v prohlížeči)</p></span></div></foreignObject></g></g></g><g class="edgePaths"><path d="M1985.113,501.463L1961.624,494.219C1938.134,486.975,1891.155,472.488,1867.665,453.077C1844.176,433.667,1844.176,409.333,1844.176,378.5C1844.176,347.667,1844.176,310.333,1844.176,281C1844.176,251.667,1844.176,230.333,1844.176,211.5C1844.176,192.667,1844.176,176.333,1798.296,156.939C1752.416,137.544,1660.657,115.088,1614.777,103.86L1568.897,92.632" id="L_Vercel_Browser_Driver_0" class=" edge-thickness-normal edge-pattern-dotted edge-thickness-normal edge-pattern-solid flowchart-link" style=";" data-edge="true" data-et="edge" data-id="L_Vercel_Browser_Driver_0" data-points="W3sieCI6MTk4NS4xMTMyODEyNSwieSI6NTAxLjQ2Mjg1NTM4MzI2Mjd9LHsieCI6MTg0NC4xNzU3ODEyNSwieSI6NDU4fSx7IngiOjE4NDQuMTc1NzgxMjUsInkiOjM4NX0seyJ4IjoxODQ0LjE3NTc4MTI1LCJ5IjoyNzN9LHsieCI6MTg0NC4xNzU3ODEyNSwieSI6MjA5fSx7IngiOjE4NDQuMTc1NzgxMjUsInkiOjE2MH0seyJ4IjoxNTY1LjAxMTcxODc1LCJ5Ijo5MS42ODEzMTc0ODc1NjE2NH1d" marker-end="url(#mermaid-svg_flowchart-v2-pointEnd)"/><path d="M2097.121,575.004L2097.121,581.505C2097.121,588.006,2097.121,601.007,2023.861,613.674C1950.6,626.342,1804.079,638.675,1730.819,651.009C1657.559,663.342,1657.559,675.675,1653.963,685.531C1650.368,695.387,1643.177,702.765,1639.582,706.455L1635.987,710.144" id="L_Vercel_Browser_Pass_0" class=" edge-thickness-normal edge-pattern-dotted edge-thickness-normal edge-pattern-solid flowchart-link" style=";" data-edge="true" data-et="edge" data-id="L_Vercel_Browser_Pass_0" data-points="W3sieCI6MjA5Ny4xMjEwOTM3NSwieSI6NTc1LjAwNDI2MTAxNjg0NTd9LHsieCI6MjA5Ny4xMjEwOTM3NSwieSI6NjE0LjAwODUyMjAzMzY5MTR9LHsieCI6MTY1Ny41NTg1OTM3NSwieSI6NjUxLjAwODUyMjAzMzY5MTR9LHsieCI6MTY1Ny41NTg1OTM3NSwieSI6Njg4LjAwODUyMjAzMzY5MTR9LHsieCI6MTYzMy4xOTQ4ODUyNTM5MDYyLCJ5Ijo3MTMuMDA4NTIyMDMzNjkxNH1d" marker-end="url(#mermaid-svg_flowchart-v2-pointEnd)"/><path d="M1415.53,111L1401.068,119.167C1386.607,127.333,1357.684,143.667,1343.223,160C1328.762,176.333,1328.762,192.667,1233.134,209.601C1137.506,226.535,946.251,244.071,850.623,252.838L754.995,261.606" id="L_Browser_Driver_CF_Worker_0" class=" edge-thickness-normal edge-pattern-solid edge-thickness-normal edge-pattern-solid flowchart-link" style=";" data-edge="true" data-et="edge" data-id="L_Browser_Driver_CF_Worker_0" data-points="W3sieCI6MTQxNS41Mjk2NTE5ODg2MzYzLCJ5IjoxMTF9LHsieCI6MTMyOC43NjE3MTg3NSwieSI6MTYwfSx7IngiOjEzMjguNzYxNzE4NzUsInkiOjIwOX0seyJ4Ijo3NTEuMDExNzE4NzUsInkiOjI2MS45NzEyNDc1Nzk3MTU1fV0=" marker-end="url(#mermaid-svg_flowchart-v2-pointEnd)"/><path d="M1523.161,111L1531.237,119.167C1539.314,127.333,1555.468,143.667,1563.544,160C1571.621,176.333,1571.621,192.667,1571.621,211.5C1571.621,230.333,1571.621,251.667,1571.621,281C1571.621,310.333,1571.621,347.667,1571.621,378.5C1571.621,409.333,1571.621,433.667,1571.621,458.834C1571.621,484.001,1571.621,510.003,1571.621,536.004C1571.621,562.006,1571.621,588.007,1571.621,607.174C1571.621,626.342,1571.621,638.675,1571.621,651.009C1571.621,663.342,1571.621,675.675,1572.925,685.383C1574.229,695.091,1576.837,702.173,1578.141,705.714L1579.445,709.255" id="L_Browser_Driver_Browser_Pass_0" class=" edge-thickness-normal edge-pattern-dotted edge-thickness-normal edge-pattern-solid flowchart-link" style=";" data-edge="true" data-et="edge" data-id="L_Browser_Driver_Browser_Pass_0" data-points="W3sieCI6MTUyMy4xNjA1MTEzNjM2MzYzLCJ5IjoxMTF9LHsieCI6MTU3MS42MjEwOTM3NSwieSI6MTYwfSx7IngiOjE1NzEuNjIxMDkzNzUsInkiOjIwOX0seyJ4IjoxNTcxLjYyMTA5Mzc1LCJ5IjoyNzN9LHsieCI6MTU3MS42MjEwOTM3NSwieSI6Mzg1fSx7IngiOjE1NzEuNjIxMDkzNzUsInkiOjQ1OH0seyJ4IjoxNTcxLjYyMTA5Mzc1LCJ5Ijo1MzYuMDA0MjYxMDE2ODQ1N30seyJ4IjoxNTcxLjYyMTA5Mzc1LCJ5Ijo2MTQuMDA4NTIyMDMzNjkxNH0seyJ4IjoxNTcxLjYyMTA5Mzc1LCJ5Ijo2NTEuMDA4NTIyMDMzNjkxNH0seyJ4IjoxNTcxLjYyMTA5Mzc1LCJ5Ijo2ODguMDA4NTIyMDMzNjkxNH0seyJ4IjoxNTgwLjgyNjcyMTE5MTQwNjIsInkiOjcxMy4wMDg1MjIwMzM2OTE0fV0=" marker-end="url(#mermaid-svg_flowchart-v2-pointEnd)"/><path d="M1548.913,713.009L1543.969,708.842C1539.025,704.675,1529.138,696.342,1524.194,686.009C1519.25,675.675,1519.25,663.342,1404.525,651.009C1289.799,638.675,1060.349,626.342,945.624,607.174C830.898,588.007,830.898,562.006,830.898,536.004C830.898,510.003,830.898,484.001,830.898,458.834C830.898,433.667,830.898,409.333,809.735,385.326C788.571,361.318,746.244,337.635,725.081,325.794L703.917,313.953" id="L_Browser_Pass_CF_Worker_0" class=" edge-thickness-normal edge-pattern-solid edge-thickness-normal edge-pattern-solid flowchart-link" style=";" data-edge="true" data-et="edge" data-id="L_Browser_Pass_CF_Worker_0" data-points="W3sieCI6MTU0OC45MTMwODU5Mzc1LCJ5Ijo3MTMuMDA4NTIyMDMzNjkxNH0seyJ4IjoxNTE5LjI1LCJ5Ijo2ODguMDA4NTIyMDMzNjkxNH0seyJ4IjoxNTE5LjI1LCJ5Ijo2NTEuMDA4NTIyMDMzNjkxNH0seyJ4Ijo4MzAuODk4NDM3NSwieSI6NjE0LjAwODUyMjAzMzY5MTR9LHsieCI6ODMwLjg5ODQzNzUsInkiOjUzNi4wMDQyNjEwMTY4NDU3fSx7IngiOjgzMC44OTg0Mzc1LCJ5Ijo0NTh9LHsieCI6ODMwLjg5ODQzNzUsInkiOjM4NX0seyJ4Ijo3MDAuNDI2NzIyOTM1MjY3OSwieSI6MzEyfV0=" marker-end="url(#mermaid-svg_flowchart-v2-pointEnd)"/><path d="M1404.168,92.68L1360.534,103.9C1316.9,115.12,1229.632,137.56,1185.997,156.947C1142.363,176.333,1142.363,192.667,1077.8,208.909C1013.236,225.152,884.108,241.305,819.545,249.381L754.981,257.457" id="L_Browser_Driver_CF_Worker_2" class=" edge-thickness-normal edge-pattern-solid edge-thickness-normal edge-pattern-solid flowchart-link" style=";" data-edge="true" data-et="edge" data-id="L_Browser_Driver_CF_Worker_2" data-points="W3sieCI6MTQwNC4xNjc5Njg3NSwieSI6OTIuNjc5NjQ4NDQxOTU4Njh9LHsieCI6MTE0Mi4zNjMyODEyNSwieSI6MTYwfSx7IngiOjExNDIuMzYzMjgxMjUsInkiOjIwOX0seyJ4Ijo3NTEuMDExNzE4NzUsInkiOjI1Ny45NTMzMDU4NDgyMjExfV0=" marker-end="url(#mermaid-svg_flowchart-v2-pointEnd)"/><path d="M1536.726,713.009L1530.48,708.842C1524.234,704.675,1511.742,696.342,1505.496,686.009C1499.25,675.675,1499.25,663.342,1351.529,651.009C1203.807,638.675,908.365,626.342,760.643,607.174C612.922,588.007,612.922,562.006,612.922,536.004C612.922,510.003,612.922,484.001,612.922,458.834C612.922,433.667,612.922,409.333,614.751,385.658C616.58,361.983,620.238,338.967,622.067,327.459L623.896,315.95" id="L_Browser_Pass_CF_Worker_2" class=" edge-thickness-normal edge-pattern-solid edge-thickness-normal edge-pattern-solid flowchart-link" style=";" data-edge="true" data-et="edge" data-id="L_Browser_Pass_CF_Worker_2" data-points="W3sieCI6MTUzNi43MjU1ODU5Mzc1LCJ5Ijo3MTMuMDA4NTIyMDMzNjkxNH0seyJ4IjoxNDk5LjI1LCJ5Ijo2ODguMDA4NTIyMDMzNjkxNH0seyJ4IjoxNDk5LjI1LCJ5Ijo2NTEuMDA4NTIyMDMzNjkxNH0seyJ4Ijo2MTIuOTIxODc1LCJ5Ijo2MTQuMDA4NTIyMDMzNjkxNH0seyJ4Ijo2MTIuOTIxODc1LCJ5Ijo1MzYuMDA0MjYxMDE2ODQ1N30seyJ4Ijo2MTIuOTIxODc1LCJ5Ijo0NTh9LHsieCI6NjEyLjkyMTg3NSwieSI6Mzg1fSx7IngiOjYyNC41MjQxNjk5MjE4NzUsInkiOjMxMn1d" marker-end="url(#mermaid-svg_flowchart-v2-pointEnd)"/><path d="M728.823,312L759.426,324.167C790.03,336.333,851.238,360.667,881.842,385C912.445,409.333,912.445,433.667,1090.558,457.561C1268.671,481.455,1624.896,504.911,1803.009,516.639L1981.122,528.366" id="L_CF_Worker_Vercel_0" class=" edge-thickness-normal edge-pattern-solid edge-thickness-normal edge-pattern-solid flowchart-link" style=";" data-edge="true" data-et="edge" data-id="L_CF_Worker_Vercel_0" data-points="W3sieCI6NzI4LjgyMjUwOTc2NTYyNSwieSI6MzEyfSx7IngiOjkxMi40NDUzMTI1LCJ5IjozODV9LHsieCI6OTEyLjQ0NTMxMjUsInkiOjQ1OH0seyJ4IjoxOTg1LjExMzI4MTI1LCJ5Ijo1MjguNjI5MTc0Mjc5NjQ4M31d" marker-end="url(#mermaid-svg_flowchart-v2-pointEnd)"/><path d="M510.434,309.311L468.644,321.926C426.854,334.541,343.275,359.77,301.485,384.552C259.695,409.333,259.695,433.667,259.695,449.333C259.695,465,259.695,472,259.695,475.5L259.695,479" id="L_CF_Worker_CF_KV_0" class=" edge-thickness-normal edge-pattern-solid edge-thickness-normal edge-pattern-solid flowchart-link" style=";" data-edge="true" data-et="edge" data-id="L_CF_Worker_CF_KV_0" data-points="W3sieCI6NTEwLjQzMzU5Mzc1LCJ5IjozMDkuMzExMDAzMDIxNTkzMzZ9LHsieCI6MjU5LjY5NTMxMjUsInkiOjM4NX0seyJ4IjoyNTkuNjk1MzEyNSwieSI6NDU4fSx7IngiOjI1OS42OTUzMTI1LCJ5Ijo0ODN9XQ==" marker-end="url(#mermaid-svg_flowchart-v2-pointEnd)"/><path d="M562.855,312L541.682,324.167C520.51,336.333,478.165,360.667,456.993,385C435.82,409.333,435.82,433.667,435.82,458.834C435.82,484.001,435.82,510.003,435.82,536.004C435.82,562.006,435.82,588.007,435.82,607.174C435.82,626.342,435.82,638.675,435.82,651.009C435.82,663.342,435.82,675.675,435.82,685.342C435.82,695.009,435.82,702.009,435.82,705.509L435.82,709.009" id="L_CF_Worker_FastAPI_0" class=" edge-thickness-normal edge-pattern-solid edge-thickness-normal edge-pattern-solid flowchart-link" style=";" data-edge="true" data-et="edge" data-id="L_CF_Worker_FastAPI_0" data-points="W3sieCI6NTYyLjg1NDg3NTgzNzA1MzYsInkiOjMxMn0seyJ4Ijo0MzUuODIwMzEyNSwieSI6Mzg1fSx7IngiOjQzNS44MjAzMTI1LCJ5Ijo0NTh9LHsieCI6NDM1LjgyMDMxMjUsInkiOjUzNi4wMDQyNjEwMTY4NDU3fSx7IngiOjQzNS44MjAzMTI1LCJ5Ijo2MTQuMDA4NTIyMDMzNjkxNH0seyJ4Ijo0MzUuODIwMzEyNSwieSI6NjUxLjAwODUyMjAzMzY5MTR9LHsieCI6NDM1LjgyMDMxMjUsInkiOjY4OC4wMDg1MjIwMzM2OTE0fSx7IngiOjQzNS44MjAzMTI1LCJ5Ijo3MTMuMDA4NTIyMDMzNjkxNH1d" marker-end="url(#mermaid-svg_flowchart-v2-pointEnd)"/><path d="M349.602,770.702L314.775,778.253C279.948,785.804,210.294,800.906,175.467,814.624C140.641,828.342,140.641,840.675,140.641,853.009C140.641,865.342,140.641,877.675,140.641,887.342C140.641,897.009,140.641,904.009,140.641,907.509L140.641,911.009" id="L_FastAPI_Redis_0" class=" edge-thickness-normal edge-pattern-solid edge-thickness-normal edge-pattern-solid flowchart-link" style=";" data-edge="true" data-et="edge" data-id="L_FastAPI_Redis_0" data-points="W3sieCI6MzQ5LjYwMTU2MjUsInkiOjc3MC43MDIyMjAyNTc3NjA1fSx7IngiOjE0MC42NDA2MjUsInkiOjgxNi4wMDg1MjIwMzM2OTE0fSx7IngiOjE0MC42NDA2MjUsInkiOjg1My4wMDg1MjIwMzM2OTE0fSx7IngiOjE0MC42NDA2MjUsInkiOjg5MC4wMDg1MjIwMzM2OTE0fSx7IngiOjE0MC42NDA2MjUsInkiOjkxNS4wMDg1MjIwMzM2OTE0fV0=" marker-end="url(#mermaid-svg_flowchart-v2-pointEnd)"/><path d="M395.149,791.009L390.804,795.175C386.459,799.342,377.769,807.675,373.423,818.009C369.078,828.342,369.078,840.675,369.078,853.009C369.078,865.342,369.078,877.675,369.078,887.629C369.078,897.582,369.078,905.155,369.078,908.942L369.078,912.729" id="L_FastAPI_Postgres_0" class=" edge-thickness-normal edge-pattern-solid edge-thickness-normal edge-pattern-solid flowchart-link" style=";" data-edge="true" data-et="edge" data-id="L_FastAPI_Postgres_0" data-points="W3sieCI6Mzk1LjE0OTI5MTk5MjE4NzUsInkiOjc5MS4wMDg1MjIwMzM2OTE0fSx7IngiOjM2OS4wNzgxMjUsInkiOjgxNi4wMDg1MjIwMzM2OTE0fSx7IngiOjM2OS4wNzgxMjUsInkiOjg1My4wMDg1MjIwMzM2OTE0fSx7IngiOjM2OS4wNzgxMjUsInkiOjg5MC4wMDg1MjIwMzM2OTE0fSx7IngiOjM2OS4wNzgxMjUsInkiOjkxNi43Mjg4NTUxMzMwNTY2fV0=" marker-end="url(#mermaid-svg_flowchart-v2-pointEnd)"/><path d="M498.186,791.009L504.849,795.175C511.512,799.342,524.838,807.675,531.501,818.009C538.164,828.342,538.164,840.675,538.164,853.009C538.164,865.342,538.164,877.675,649.824,895.127C761.485,912.579,984.805,935.149,1096.465,946.434L1208.126,957.719" id="L_FastAPI_FB_Auth_0" class=" edge-thickness-normal edge-pattern-solid edge-thickness-normal edge-pattern-solid flowchart-link" style=";" data-edge="true" data-et="edge" data-id="L_FastAPI_FB_Auth_0" data-points="W3sieCI6NDk4LjE4NjAzNTE1NjI1LCJ5Ijo3OTEuMDA4NTIyMDMzNjkxNH0seyJ4Ijo1MzguMTY0MDYyNSwieSI6ODE2LjAwODUyMjAzMzY5MTR9LHsieCI6NTM4LjE2NDA2MjUsInkiOjg1My4wMDg1MjIwMzM2OTE0fSx7IngiOjUzOC4xNjQwNjI1LCJ5Ijo4OTAuMDA4NTIyMDMzNjkxNH0seyJ4IjoxMjEyLjEwNTQ2ODc1LCJ5Ijo5NTguMTIxNDA2MjE3MzI5Nn1d" marker-end="url(#mermaid-svg_flowchart-v2-pointEnd)"/><path d="M522.039,771.709L554.352,779.092C586.664,786.476,651.289,801.242,683.602,814.792C715.914,828.342,715.914,840.675,715.914,853.009C715.914,865.342,715.914,877.675,843.391,895.288C970.869,912.9,1225.823,935.792,1353.3,947.238L1480.778,958.683" id="L_FastAPI_X_Auth_0" class=" edge-thickness-normal edge-pattern-solid edge-thickness-normal edge-pattern-solid flowchart-link" style=";" data-edge="true" data-et="edge" data-id="L_FastAPI_X_Auth_0" data-points="W3sieCI6NTIyLjAzOTA2MjUsInkiOjc3MS43MDkwNjg3MjU2NDcyfSx7IngiOjcxNS45MTQwNjI1LCJ5Ijo4MTYuMDA4NTIyMDMzNjkxNH0seyJ4Ijo3MTUuOTE0MDYyNSwieSI6ODUzLjAwODUyMjAzMzY5MTR9LHsieCI6NzE1LjkxNDA2MjUsInkiOjg5MC4wMDg1MjIwMzM2OTE0fSx7IngiOjE0ODQuNzYxNzE4NzUsInkiOjk1OS4wNDExMTg3Mzk0NDV9XQ==" marker-end="url(#mermaid-svg_flowchart-v2-pointEnd)"/><path d="M1460.329,111L1455.249,119.167C1450.169,127.333,1440.008,143.667,1434.928,160C1429.848,176.333,1429.848,192.667,1429.848,211.5C1429.848,230.333,1429.848,251.667,1429.848,281C1429.848,310.333,1429.848,347.667,1429.848,378.5C1429.848,409.333,1429.848,433.667,1429.848,458.834C1429.848,484.001,1429.848,510.003,1429.848,536.004C1429.848,562.006,1429.848,588.007,1429.848,607.174C1429.848,626.342,1429.848,638.675,1429.848,651.009C1429.848,663.342,1429.848,675.675,1429.848,692.509C1429.848,709.342,1429.848,730.675,1429.848,752.009C1429.848,773.342,1429.848,794.675,1429.848,811.509C1429.848,828.342,1429.848,840.675,1429.848,853.009C1429.848,865.342,1429.848,877.675,1418.68,892.171C1407.513,906.666,1385.177,923.324,1374.01,931.653L1362.842,939.982" id="L_Browser_Driver_FB_Auth_0" class=" edge-thickness-normal edge-pattern-dotted edge-thickness-normal edge-pattern-solid flowchart-link" style=";" data-edge="true" data-et="edge" data-id="L_Browser_Driver_FB_Auth_0" data-points="W3sieCI6MTQ2MC4zMjkxMDE1NjI1LCJ5IjoxMTF9LHsieCI6MTQyOS44NDc2NTYyNSwieSI6MTYwfSx7IngiOjE0MjkuODQ3NjU2MjUsInkiOjIwOX0seyJ4IjoxNDI5Ljg0NzY1NjI1LCJ5IjoyNzN9LHsieCI6MTQyOS44NDc2NTYyNSwieSI6Mzg1fSx7IngiOjE0MjkuODQ3NjU2MjUsInkiOjQ1OH0seyJ4IjoxNDI5Ljg0NzY1NjI1LCJ5Ijo1MzYuMDA0MjYxMDE2ODQ1N30seyJ4IjoxNDI5Ljg0NzY1NjI1LCJ5Ijo2MTQuMDA4NTIyMDMzNjkxNH0seyJ4IjoxNDI5Ljg0NzY1NjI1LCJ5Ijo2NTEuMDA4NTIyMDMzNjkxNH0seyJ4IjoxNDI5Ljg0NzY1NjI1LCJ5Ijo2ODguMDA4NTIyMDMzNjkxNH0seyJ4IjoxNDI5Ljg0NzY1NjI1LCJ5Ijo3NTIuMDA4NTIyMDMzNjkxNH0seyJ4IjoxNDI5Ljg0NzY1NjI1LCJ5Ijo4MTYuMDA4NTIyMDMzNjkxNH0seyJ4IjoxNDI5Ljg0NzY1NjI1LCJ5Ijo4NTMuMDA4NTIyMDMzNjkxNH0seyJ4IjoxNDI5Ljg0NzY1NjI1LCJ5Ijo4OTAuMDA4NTIyMDMzNjkxNH0seyJ4IjoxMzU5LjYzNTk1NjAwMDI5MiwieSI6OTQyLjM3Mjk0NzY5Mjg3MTF9XQ==" marker-end="url(#mermaid-svg_flowchart-v2-pointEnd)"/><path d="M1565.012,97.862L1597.216,108.218C1629.421,118.575,1693.829,139.287,1726.034,157.81C1758.238,176.333,1758.238,192.667,1758.238,211.5C1758.238,230.333,1758.238,251.667,1758.238,281C1758.238,310.333,1758.238,347.667,1758.238,378.5C1758.238,409.333,1758.238,433.667,1758.238,458.834C1758.238,484.001,1758.238,510.003,1758.238,536.004C1758.238,562.006,1758.238,588.007,1758.238,607.174C1758.238,626.342,1758.238,638.675,1758.238,651.009C1758.238,663.342,1758.238,675.675,1758.238,692.509C1758.238,709.342,1758.238,730.675,1758.238,752.009C1758.238,773.342,1758.238,794.675,1758.238,811.509C1758.238,828.342,1758.238,840.675,1758.238,853.009C1758.238,865.342,1758.238,877.675,1741.415,892.271C1724.592,906.866,1690.945,923.724,1674.122,932.152L1657.299,940.581" id="L_Browser_Driver_X_Auth_0" class=" edge-thickness-normal edge-pattern-dotted edge-thickness-normal edge-pattern-solid flowchart-link" style=";" data-edge="true" data-et="edge" data-id="L_Browser_Driver_X_Auth_0" data-points="W3sieCI6MTU2NS4wMTE3MTg3NSwieSI6OTcuODYyMTA2Mzc1MDgyMDh9LHsieCI6MTc1OC4yMzgyODEyNSwieSI6MTYwfSx7IngiOjE3NTguMjM4MjgxMjUsInkiOjIwOX0seyJ4IjoxNzU4LjIzODI4MTI1LCJ5IjoyNzN9LHsieCI6MTc1OC4yMzgyODEyNSwieSI6Mzg1fSx7IngiOjE3NTguMjM4MjgxMjUsInkiOjQ1OH0seyJ4IjoxNzU4LjIzODI4MTI1LCJ5Ijo1MzYuMDA0MjYxMDE2ODQ1N30seyJ4IjoxNzU4LjIzODI4MTI1LCJ5Ijo2MTQuMDA4NTIyMDMzNjkxNH0seyJ4IjoxNzU4LjIzODI4MTI1LCJ5Ijo2NTEuMDA4NTIyMDMzNjkxNH0seyJ4IjoxNzU4LjIzODI4MTI1LCJ5Ijo2ODguMDA4NTIyMDMzNjkxNH0seyJ4IjoxNzU4LjIzODI4MTI1LCJ5Ijo3NTIuMDA4NTIyMDMzNjkxNH0seyJ4IjoxNzU4LjIzODI4MTI1LCJ5Ijo4MTYuMDA4NTIyMDMzNjkxNH0seyJ4IjoxNzU4LjIzODI4MTI1LCJ5Ijo4NTMuMDA4NTIyMDMzNjkxNH0seyJ4IjoxNzU4LjIzODI4MTI1LCJ5Ijo4OTAuMDA4NTIyMDMzNjkxNH0seyJ4IjoxNjUzLjcyMjI4MTM3NzUxOCwieSI6OTQyLjM3Mjk0NzY5Mjg3MTF9XQ==" marker-end="url(#mermaid-svg_flowchart-v2-pointEnd)"/><path d="M1505.445,771.497L1471.284,778.916C1437.122,786.334,1368.799,801.171,1334.638,814.757C1300.477,828.342,1300.477,840.675,1300.477,853.009C1300.477,865.342,1300.477,877.675,1302.816,891.929C1305.155,906.183,1309.834,922.356,1312.173,930.443L1314.512,938.53" id="L_Browser_Pass_FB_Auth_0" class=" edge-thickness-normal edge-pattern-dotted edge-thickness-normal edge-pattern-solid flowchart-link" style=";" data-edge="true" data-et="edge" data-id="L_Browser_Pass_FB_Auth_0" data-points="W3sieCI6MTUwNS40NDUzMTI1LCJ5Ijo3NzEuNDk3MTA5ODk3ODU5MX0seyJ4IjoxMzAwLjQ3NjU2MjUsInkiOjgxNi4wMDg1MjIwMzM2OTE0fSx7IngiOjEzMDAuNDc2NTYyNSwieSI6ODUzLjAwODUyMjAzMzY5MTR9LHsieCI6MTMwMC40NzY1NjI1LCJ5Ijo4OTAuMDA4NTIyMDMzNjkxNH0seyJ4IjoxMzE1LjYyMzU0NzM4OTc4NTUsInkiOjk0Mi4zNzI5NDc2OTI4NzExfV0=" marker-end="url(#mermaid-svg_flowchart-v2-pointEnd)"/><path d="M1595.188,791.009L1595.188,795.175C1595.188,799.342,1595.188,807.675,1595.188,818.009C1595.188,828.342,1595.188,840.675,1595.188,853.009C1595.188,865.342,1595.188,877.675,1595.659,891.904C1596.131,906.132,1597.075,922.256,1597.546,930.318L1598.018,938.38" id="L_Browser_Pass_X_Auth_0" class=" edge-thickness-normal edge-pattern-dotted edge-thickness-normal edge-pattern-solid flowchart-link" style=";" data-edge="true" data-et="edge" data-id="L_Browser_Pass_X_Auth_0" data-points="W3sieCI6MTU5NS4xODc1LCJ5Ijo3OTEuMDA4NTIyMDMzNjkxNH0seyJ4IjoxNTk1LjE4NzUsInkiOjgxNi4wMDg1MjIwMzM2OTE0fSx7IngiOjE1OTUuMTg3NSwieSI6ODUzLjAwODUyMjAzMzY5MTR9LHsieCI6MTU5NS4xODc1LCJ5Ijo4OTAuMDA4NTIyMDMzNjkxNH0seyJ4IjoxNTk4LjI1MTk0ODcwNDA5MzEsInkiOjk0Mi4zNzI5NDc2OTI4NzExfV0=" marker-end="url(#mermaid-svg_flowchart-v2-pointEnd)"/></g><g class="edgeLabels"><g class="edgeLabel" transform="translate(1844.17578125, 273)"><g class="label" data-id="L_Vercel_Browser_Driver_0" transform="translate(-65.9375, -12)"><foreignObject width="131.875" height="24"><div xmlns="http://www.w3.org/1999/xhtml" class="labelBkg" style="display: table-cell; white-space: nowrap; line-height: 1.5; max-width: 200px; text-align: center;"><span class="edgeLabel "><p>Stahování kódu SPA</p></span></div></foreignObject></g></g><g class="edgeLabel" transform="translate(1657.55859375, 651.0085220336914)"><g class="label" data-id="L_Vercel_Browser_Pass_0" transform="translate(-65.9375, -12)"><foreignObject width="131.875" height="24"><div xmlns="http://www.w3.org/1999/xhtml" class="labelBkg" style="display: table-cell; white-space: nowrap; line-height: 1.5; max-width: 200px; text-align: center;"><span class="edgeLabel "><p>Stahování kódu SPA</p></span></div></foreignObject></g></g><g class="edgeLabel" transform="translate(1328.76171875, 160)"><g class="label" data-id="L_Browser_Driver_CF_Worker_0" transform="translate(-81.0859375, -24)"><foreignObject width="162.171875" height="48"><div xmlns="http://www.w3.org/1999/xhtml" class="labelBkg" style="display: table-cell; white-space: nowrap; line-height: 1.5; max-width: 200px; text-align: center;"><span class="edgeLabel ">1. Vytvoření pozvánky<br />(POST /rides/{id}/invite)</span></div></foreignObject></g></g><g class="edgeLabel" transform="translate(1571.62109375, 385)"><g class="label" data-id="L_Browser_Driver_Browser_Pass_0" transform="translate(-100, -48)"><foreignObject width="200" height="96"><div xmlns="http://www.w3.org/1999/xhtml" class="labelBkg" style="display: table; white-space: break-spaces; line-height: 1.5; max-width: 200px; text-align: center; width: 200px;"><span class="edgeLabel ">2. Manuální sdílení odkazu /i/:token<br />(Out-of-band: WhatsApp, Messenger, SMS)</span></div></foreignObject></g></g><g class="edgeLabel" transform="translate(830.8984375, 536.0042610168457)"><g class="label" data-id="L_Browser_Pass_CF_Worker_0" transform="translate(-97.9765625, -24)"><foreignObject width="195.953125" height="48"><div xmlns="http://www.w3.org/1999/xhtml" class="labelBkg" style="display: table-cell; white-space: nowrap; line-height: 1.5; max-width: 200px; text-align: center;"><span class="edgeLabel ">3. Rozlišení a přijetí pozvánky<br />(GET /resolve, POST /accept)</span></div></foreignObject></g></g><g class="edgeLabel" transform="translate(1142.36328125, 160)"><g class="label" data-id="L_Browser_Driver_CF_Worker_2" transform="translate(-85.3125, -12)"><foreignObject width="170.625" height="24"><div xmlns="http://www.w3.org/1999/xhtml" class="labelBkg" style="display: table-cell; white-space: nowrap; line-height: 1.5; max-width: 200px; text-align: center;"><span class="edgeLabel "><p>Správa aut a jízd (HTTPS)</p></span></div></foreignObject></g></g><g class="edgeLabel" transform="translate(612.921875, 536.0042610168457)"><g class="label" data-id="L_Browser_Pass_CF_Worker_2" transform="translate(-100, -24)"><foreignObject width="200" height="48"><div xmlns="http://www.w3.org/1999/xhtml" class="labelBkg" style="display: table; white-space: break-spaces; line-height: 1.5; max-width: 200px; text-align: center; width: 200px;"><span class="edgeLabel "><p>Zobrazení dashboardu (HTTPS)</p></span></div></foreignObject></g></g><g class="edgeLabel" transform="translate(912.4453125, 385)"><g class="label" data-id="L_CF_Worker_Vercel_0" transform="translate(-61.546875, -12)"><foreignObject width="123.09375" height="24"><div xmlns="http://www.w3.org/1999/xhtml" class="labelBkg" style="display: table-cell; white-space: nowrap; line-height: 1.5; max-width: 200px; text-align: center;"><span class="edgeLabel ">1. Statické soubory</span></div></foreignObject></g></g><g class="edgeLabel" transform="translate(259.6953125, 385)"><g class="label" data-id="L_CF_Worker_CF_KV_0" transform="translate(-58.203125, -12)"><foreignObject width="116.40625" height="24"><div xmlns="http://www.w3.org/1999/xhtml" class="labelBkg" style="display: table-cell; white-space: nowrap; line-height: 1.5; max-width: 200px; text-align: center;"><span class="edgeLabel ">2. Průběh a sezení</span></div></foreignObject></g></g><g class="edgeLabel" transform="translate(435.8203125, 536.0042610168457)"><g class="label" data-id="L_CF_Worker_FastAPI_0" transform="translate(-57.1015625, -12)"><foreignObject width="114.203125" height="24"><div xmlns="http://www.w3.org/1999/xhtml" class="labelBkg" style="display: table-cell; white-space: nowrap; line-height: 1.5; max-width: 200px; text-align: center;"><span class="edgeLabel ">3. API požadavky</span></div></foreignObject></g></g><g class="edgeLabel" transform="translate(140.640625, 853.0085220336914)"><g class="label" data-id="L_FastAPI_Redis_0" transform="translate(-60.21875, -12)"><foreignObject width="120.4375" height="24"><div xmlns="http://www.w3.org/1999/xhtml" class="labelBkg" style="display: table-cell; white-space: nowrap; line-height: 1.5; max-width: 200px; text-align: center;"><span class="edgeLabel "><p>Čtení / Zápis stavu</p></span></div></foreignObject></g></g><g class="edgeLabel" transform="translate(369.078125, 853.0085220336914)"><g class="label" data-id="L_FastAPI_Postgres_0" transform="translate(-70.2109375, -12)"><foreignObject width="140.421875" height="24"><div xmlns="http://www.w3.org/1999/xhtml" class="labelBkg" style="display: table-cell; white-space: nowrap; line-height: 1.5; max-width: 200px; text-align: center;"><span class="edgeLabel "><p>Perzistentní data SQL</p></span></div></foreignObject></g></g><g class="edgeLabel" transform="translate(538.1640625, 853.0085220336914)"><g class="label" data-id="L_FastAPI_FB_Auth_0" transform="translate(-78.875, -12)"><foreignObject width="157.75" height="24"><div xmlns="http://www.w3.org/1999/xhtml" class="labelBkg" style="display: table-cell; white-space: nowrap; line-height: 1.5; max-width: 200px; text-align: center;"><span class="edgeLabel "><p>Výměna tokenů &amp; profil</p></span></div></foreignObject></g></g><g class="edgeLabel" transform="translate(715.9140625, 853.0085220336914)"><g class="label" data-id="L_FastAPI_X_Auth_0" transform="translate(-78.875, -12)"><foreignObject width="157.75" height="24"><div xmlns="http://www.w3.org/1999/xhtml" class="labelBkg" style="display: table-cell; white-space: nowrap; line-height: 1.5; max-width: 200px; text-align: center;"><span class="edgeLabel "><p>Výměna tokenů &amp; profil</p></span></div></foreignObject></g></g><g class="edgeLabel" transform="translate(1429.84765625, 536.0042610168457)"><g class="label" data-id="L_Browser_Driver_FB_Auth_0" transform="translate(-87.0859375, -12)"><foreignObject width="174.171875" height="24"><div xmlns="http://www.w3.org/1999/xhtml" class="labelBkg" style="display: table-cell; white-space: nowrap; line-height: 1.5; max-width: 200px; text-align: center;"><span class="edgeLabel "><p>Přesměrování na přihlášení</p></span></div></foreignObject></g></g><g class="edgeLabel" transform="translate(1758.23828125, 536.0042610168457)"><g class="label" data-id="L_Browser_Driver_X_Auth_0" transform="translate(-87.0859375, -12)"><foreignObject width="174.171875" height="24"><div xmlns="http://www.w3.org/1999/xhtml" class="labelBkg" style="display: table-cell; white-space: nowrap; line-height: 1.5; max-width: 200px; text-align: center;"><span class="edgeLabel "><p>Přesměrování na přihlášení</p></span></div></foreignObject></g></g><g class="edgeLabel" transform="translate(1300.4765625, 853.0085220336914)"><g class="label" data-id="L_Browser_Pass_FB_Auth_0" transform="translate(-87.0859375, -12)"><foreignObject width="174.171875" height="24"><div xmlns="http://www.w3.org/1999/xhtml" class="labelBkg" style="display: table-cell; white-space: nowrap; line-height: 1.5; max-width: 200px; text-align: center;"><span class="edgeLabel "><p>Přesměrování na přihlášení</p></span></div></foreignObject></g></g><g class="edgeLabel" transform="translate(1595.1875, 853.0085220336914)"><g class="label" data-id="L_Browser_Pass_X_Auth_0" transform="translate(-87.0859375, -12)"><foreignObject width="174.171875" height="24"><div xmlns="http://www.w3.org/1999/xhtml" class="labelBkg" style="display: table-cell; white-space: nowrap; line-height: 1.5; max-width: 200px; text-align: center;"><span class="edgeLabel "><p>Přesměrování na přihlášení</p></span></div></foreignObject></g></g></g><g class="nodes"><g class="node default  " id="flowchart-Browser_Driver-0" transform="translate(1484.58984375, 72)"><rect class="basic label-container" style="" x="-80.421875" y="-39" width="160.84375" height="78"/><g class="label" style="" transform="translate(-50.421875, -24)"><rect/><foreignObject width="100.84375" height="48"><div xmlns="http://www.w3.org/1999/xhtml" style="display: table-cell; white-space: nowrap; line-height: 1.5; max-width: 200px; text-align: center;"><span class="nodeLabel "><p>Prohlížeč řidiče<br />(React SPA)</p></span></div></foreignObject></g></g><g class="node default  " id="flowchart-Browser_Pass-1" transform="translate(1595.1875, 752.0085220336914)"><rect class="basic label-container" style="" x="-89.7421875" y="-39" width="179.484375" height="78"/><g class="label" style="" transform="translate(-59.7421875, -24)"><rect/><foreignObject width="119.484375" height="48"><div xmlns="http://www.w3.org/1999/xhtml" style="display: table-cell; white-space: nowrap; line-height: 1.5; max-width: 200px; text-align: center;"><span class="nodeLabel "><p>Prohlížeč pasažéra<br />(React SPA)</p></span></div></foreignObject></g></g><g class="node default  " id="flowchart-CF_Worker-2" transform="translate(630.72265625, 273)"><rect class="basic label-container" style="" x="-120.2890625" y="-39" width="240.578125" height="78"/><g class="label" style="" transform="translate(-90.2890625, -24)"><rect/><foreignObject width="180.578125" height="48"><div xmlns="http://www.w3.org/1999/xhtml" style="display: table-cell; white-space: nowrap; line-height: 1.5; max-width: 200px; text-align: center;"><span class="nodeLabel "><p>Cloudflare Worker Gateway<br />(sitzy-access)</p></span></div></foreignObject></g></g><g class="node default  " id="flowchart-CF_KV-3" transform="translate(259.6953125, 536.0042610168457)"><path d="M0,14.336177019461475 a84.0234375,14.336177019461475 0,0,0 168.046875,0 a84.0234375,14.336177019461475 0,0,0 -168.046875,0 l0,77.33617701946147 a84.0234375,14.336177019461475 0,0,0 168.046875,0 l0,-77.33617701946147" class="basic label-container" style="" label-offset-y="14.336177019461475" transform="translate(-84.0234375, -53.00426552919221)"/><g class="label" style="" transform="translate(-76.5234375, -14)"><rect/><foreignObject width="153.046875" height="48"><div xmlns="http://www.w3.org/1999/xhtml" style="display: table-cell; white-space: nowrap; line-height: 1.5; max-width: 200px; text-align: center;"><span class="nodeLabel "><p>Cloudflare Workers KV<br />(SITZY_TOKENS)</p></span></div></foreignObject></g></g><g class="node default  " id="flowchart-Vercel-4" transform="translate(2097.12109375, 536.0042610168457)"><rect class="basic label-container" style="" x="-112.0078125" y="-39" width="224.015625" height="78"/><g class="label" style="" transform="translate(-82.0078125, -24)"><rect/><foreignObject width="164.015625" height="48"><div xmlns="http://www.w3.org/1999/xhtml" style="display: table-cell; white-space: nowrap; line-height: 1.5; max-width: 200px; text-align: center;"><span class="nodeLabel "><p>Vercel Platform<br />(Statické HTML/JS/CSS)</p></span></div></foreignObject></g></g><g class="node default  " id="flowchart-FastAPI-5" transform="translate(435.8203125, 752.0085220336914)"><rect class="basic label-container" style="" x="-86.21875" y="-39" width="172.4375" height="78"/><g class="label" style="" transform="translate(-56.21875, -24)"><rect/><foreignObject width="112.4375" height="48"><div xmlns="http://www.w3.org/1999/xhtml" style="display: table-cell; white-space: nowrap; line-height: 1.5; max-width: 200px; text-align: center;"><span class="nodeLabel "><p>FastAPI Backend<br />(api.sitzy.page)</p></span></div></foreignObject></g></g><g class="node default  " id="flowchart-Redis-6" transform="translate(140.640625, 969.3729476928711)"><path d="M0,15.242950531759195 a97.640625,15.242950531759195 0,0,0 195.28125,0 a97.640625,15.242950531759195 0,0,0 -195.28125,0 l0,78.24295053175919 a97.640625,15.242950531759195 0,0,0 195.28125,0 l0,-78.24295053175919" class="basic label-container" style="" label-offset-y="15.242950531759195" transform="translate(-97.640625, -54.36442579763879)"/><g class="label" style="" transform="translate(-90.140625, -14)"><rect/><foreignObject width="180.28125" height="48"><div xmlns="http://www.w3.org/1999/xhtml" style="display: table-cell; white-space: nowrap; line-height: 1.5; max-width: 200px; text-align: center;"><span class="nodeLabel "><p>Redis Cache<br />(PKCE stavy, Rate limiting)</p></span></div></foreignObject></g></g><g class="node default  " id="flowchart-Postgres-7" transform="translate(369.078125, 969.3729476928711)"><path d="M0,14.096063678988113 a80.796875,14.096063678988113 0,0,0 161.59375,0 a80.796875,14.096063678988113 0,0,0 -161.59375,0 l0,77.09606367898812 a80.796875,14.096063678988113 0,0,0 161.59375,0 l0,-77.09606367898812" class="basic label-container" style="" label-offset-y="14.096063678988113" transform="translate(-80.796875, -52.644095518482175)"/><g class="label" style="" transform="translate(-73.296875, -14)"><rect/><foreignObject width="146.59375" height="48"><div xmlns="http://www.w3.org/1999/xhtml" style="display: table-cell; white-space: nowrap; line-height: 1.5; max-width: 200px; text-align: center;"><span class="nodeLabel "><p>PostgreSQL DB<br />(Uživatelé, auta, jízdy)</p></span></div></foreignObject></g></g><g class="node default  " id="flowchart-FB_Auth-8" transform="translate(1323.43359375, 969.3729476928711)"><rect class="basic label-container" style="" x="-111.328125" y="-27" width="222.65625" height="54"/><g class="label" style="" transform="translate(-81.328125, -12)"><rect/><foreignObject width="162.65625" height="24"><div xmlns="http://www.w3.org/1999/xhtml" style="display: table-cell; white-space: nowrap; line-height: 1.5; max-width: 200px; text-align: center;"><span class="nodeLabel "><p>Facebook OAuth 2.0 API</p></span></div></foreignObject></g></g><g class="node default  " id="flowchart-X_Auth-9" transform="translate(1599.83203125, 969.3729476928711)"><rect class="basic label-container" style="" x="-115.0703125" y="-27" width="230.140625" height="54"/><g class="label" style="" transform="translate(-85.0703125, -12)"><rect/><foreignObject width="170.140625" height="24"><div xmlns="http://www.w3.org/1999/xhtml" style="display: table-cell; white-space: nowrap; line-height: 1.5; max-width: 200px; text-align: center;"><span class="nodeLabel "><p>X / Twitter OAuth 2.0 API</p></span></div></foreignObject></g></g></g></g></g></svg>