<svg xmlns="http://www.w3.org/2000/svg" xmlns:xlink="http://www.w3.org/1999/xlink" version="1.1" data-diagram-type="DESCRIPTION" style="width:804px;height:1373px;background:#FFFFFF;" width="804px" height="1373px" viewBox="0 0 804 1373" zoomAndPan="magnify" preserveAspectRatio="none" contentStyleType="text/css"><?plantuml 1.2026.7beta8?><defs/><g font-family="sans-serif" lengthAdjust="spacing"><!--cluster React Frontend--><g class="cluster" data-qualified-name="React Frontend" id="ent0001" data-source-line="6"><rect x="7" y="7" width="500" height="343.89" fill="none" style="stroke:#181818;stroke-width:1;" rx="2.5" ry="2.5"/><text x="196.092" y="21.995" fill="#000" font-size="14" textLength="121.816" font-weight="700" font-family="'sans-serif'">React Frontend</text></g><!--cluster FastAPI Backend--><g class="cluster" data-qualified-name="FastAPI Backend" id="ent0014" data-source-line="23"><rect x="186" y="518.89" width="467" height="602.18" fill="none" style="stroke:#181818;stroke-width:1;" rx="2.5" ry="2.5"/><text x="353.287" y="533.885" fill="#000" font-size="14" textLength="132.426" font-weight="700" font-family="'sans-serif'">FastAPI Backend</text></g><!--entity FE_Router--><g class="entity" data-qualified-name="React Frontend.FE_Router" id="ent0002" data-source-line="7"><rect x="23.21" y="165.29" width="131.581" height="46.297" fill="#F1F1F1" style="stroke:#181818;stroke-width:0.5;" rx="2.5" ry="2.5"/><rect x="134.791" y="170.29" width="15" height="10" fill="#F1F1F1" style="stroke:#181818;stroke-width:0.5;"/><rect x="132.791" y="172.29" width="4" height="2" fill="#F1F1F1" style="stroke:#181818;stroke-width:0.5;"/><rect x="132.791" y="176.29" width="4" height="2" fill="#F1F1F1" style="stroke:#181818;stroke-width:0.5;"/><text x="38.21" y="198.285" fill="#000" font-size="14" textLength="91.581" font-family="'sans-serif'">React Router</text></g><!--entity FE_Pages--><g class="entity" data-qualified-name="React Frontend.FE_Pages" id="ent0003" data-source-line="8"><rect x="202.67" y="42" width="156.669" height="46.297" fill="#F1F1F1" style="stroke:#181818;stroke-width:0.5;" rx="2.5" ry="2.5"/><rect x="339.339" y="47" width="15" height="10" fill="#F1F1F1" style="stroke:#181818;stroke-width:0.5;"/><rect x="337.339" y="49" width="4" height="2" fill="#F1F1F1" style="stroke:#181818;stroke-width:0.5;"/><rect x="337.339" y="53" width="4" height="2" fill="#F1F1F1" style="stroke:#181818;stroke-width:0.5;"/><text x="217.67" y="74.995" fill="#000" font-size="14" textLength="116.669" font-family="'sans-serif'">Stránky aplikace</text></g><!--entity FE_UI--><g class="entity" data-qualified-name="React Frontend.FE_UI" id="ent0004" data-source-line="9"><rect x="189.78" y="165.29" width="182.447" height="46.297" fill="#F1F1F1" style="stroke:#181818;stroke-width:0.5;" rx="2.5" ry="2.5"/><rect x="352.227" y="170.29" width="15" height="10" fill="#F1F1F1" style="stroke:#181818;stroke-width:0.5;"/><rect x="350.227" y="172.29" width="4" height="2" fill="#F1F1F1" style="stroke:#181818;stroke-width:0.5;"/><rect x="350.227" y="176.29" width="4" height="2" fill="#F1F1F1" style="stroke:#181818;stroke-width:0.5;"/><text x="204.78" y="198.285" fill="#000" font-size="14" textLength="142.447" font-family="'sans-serif'">Uživatelské rozhraní</text></g><!--entity FE_Hooks--><g class="entity" data-qualified-name="React Frontend.FE_Hooks" id="ent0005" data-source-line="10"><rect x="407.47" y="165.29" width="83.06" height="46.297" fill="#F1F1F1" style="stroke:#181818;stroke-width:0.5;" rx="2.5" ry="2.5"/><rect x="470.53" y="170.29" width="15" height="10" fill="#F1F1F1" style="stroke:#181818;stroke-width:0.5;"/><rect x="468.53" y="172.29" width="4" height="2" fill="#F1F1F1" style="stroke:#181818;stroke-width:0.5;"/><rect x="468.53" y="176.29" width="4" height="2" fill="#F1F1F1" style="stroke:#181818;stroke-width:0.5;"/><text x="422.47" y="198.285" fill="#000" font-size="14" textLength="43.06" font-family="'sans-serif'">Hooks</text></g><!--entity FE_Context--><g class="entity" data-qualified-name="React Frontend.FE_Context" id="ent0006" data-source-line="11"><rect x="94.01" y="288.59" width="201.984" height="46.297" fill="#F1F1F1" style="stroke:#181818;stroke-width:0.5;" rx="2.5" ry="2.5"/><rect x="275.994" y="293.59" width="15" height="10" fill="#F1F1F1" style="stroke:#181818;stroke-width:0.5;"/><rect x="273.994" y="295.59" width="4" height="2" fill="#F1F1F1" style="stroke:#181818;stroke-width:0.5;"/><rect x="273.994" y="299.59" width="4" height="2" fill="#F1F1F1" style="stroke:#181818;stroke-width:0.5;"/><text x="109.01" y="321.585" fill="#000" font-size="14" textLength="161.984" font-family="'sans-serif'">Globální stav (Context)</text></g><!--entity FE_API--><g class="entity" data-qualified-name="React Frontend.FE_API" id="ent0007" data-source-line="12"><rect x="331.24" y="288.59" width="159.52" height="46.297" fill="#F1F1F1" style="stroke:#181818;stroke-width:0.5;" rx="2.5" ry="2.5"/><rect x="470.76" y="293.59" width="15" height="10" fill="#F1F1F1" style="stroke:#181818;stroke-width:0.5;"/><rect x="468.76" y="295.59" width="4" height="2" fill="#F1F1F1" style="stroke:#181818;stroke-width:0.5;"/><rect x="468.76" y="299.59" width="4" height="2" fill="#F1F1F1" style="stroke:#181818;stroke-width:0.5;"/><text x="346.24" y="321.585" fill="#000" font-size="14" textLength="119.52" font-family="'sans-serif'">API Klient (Axios)</text></g><!--entity BE_Middleware--><g class="entity" data-qualified-name="FastAPI Backend.BE_Middleware" id="ent0015" data-source-line="24"><rect x="303.46" y="553.89" width="215.082" height="46.297" fill="#F1F1F1" style="stroke:#181818;stroke-width:0.5;" rx="2.5" ry="2.5"/><rect x="498.542" y="558.89" width="15" height="10" fill="#F1F1F1" style="stroke:#181818;stroke-width:0.5;"/><rect x="496.542" y="560.89" width="4" height="2" fill="#F1F1F1" style="stroke:#181818;stroke-width:0.5;"/><rect x="496.542" y="564.89" width="4" height="2" fill="#F1F1F1" style="stroke:#181818;stroke-width:0.5;"/><text x="318.46" y="586.885" fill="#000" font-size="14" textLength="175.082" font-family="'sans-serif'">Bezpečnostní mezivrstvy</text></g><!--entity BE_Routers--><g class="entity" data-qualified-name="FastAPI Backend.BE_Routers" id="ent0016" data-source-line="25"><rect x="350.54" y="677.18" width="120.917" height="46.297" fill="#F1F1F1" style="stroke:#181818;stroke-width:0.5;" rx="2.5" ry="2.5"/><rect x="451.457" y="682.18" width="15" height="10" fill="#F1F1F1" style="stroke:#181818;stroke-width:0.5;"/><rect x="449.457" y="684.18" width="4" height="2" fill="#F1F1F1" style="stroke:#181818;stroke-width:0.5;"/><rect x="449.457" y="688.18" width="4" height="2" fill="#F1F1F1" style="stroke:#181818;stroke-width:0.5;"/><text x="365.54" y="710.175" fill="#000" font-size="14" textLength="80.917" font-family="'sans-serif'">API Routers</text></g><!--entity BE_Auth--><g class="entity" data-qualified-name="FastAPI Backend.BE_Auth" id="ent0017" data-source-line="26"><rect x="461.25" y="800.48" width="175.495" height="46.297" fill="#F1F1F1" style="stroke:#181818;stroke-width:0.5;" rx="2.5" ry="2.5"/><rect x="616.745" y="805.48" width="15" height="10" fill="#F1F1F1" style="stroke:#181818;stroke-width:0.5;"/><rect x="614.745" y="807.48" width="4" height="2" fill="#F1F1F1" style="stroke:#181818;stroke-width:0.5;"/><rect x="614.745" y="811.48" width="4" height="2" fill="#F1F1F1" style="stroke:#181818;stroke-width:0.5;"/><text x="476.25" y="833.475" fill="#000" font-size="14" textLength="135.495" font-family="'sans-serif'">Autentizační modul</text></g><!--entity BE_Services--><g class="entity" data-qualified-name="FastAPI Backend.BE_Services" id="ent0018" data-source-line="27"><rect x="201.92" y="800.48" width="224.167" height="46.297" fill="#F1F1F1" style="stroke:#181818;stroke-width:0.5;" rx="2.5" ry="2.5"/><rect x="406.087" y="805.48" width="15" height="10" fill="#F1F1F1" style="stroke:#181818;stroke-width:0.5;"/><rect x="404.087" y="807.48" width="4" height="2" fill="#F1F1F1" style="stroke:#181818;stroke-width:0.5;"/><rect x="404.087" y="811.48" width="4" height="2" fill="#F1F1F1" style="stroke:#181818;stroke-width:0.5;"/><text x="216.92" y="833.475" fill="#000" font-size="14" textLength="184.167" font-family="'sans-serif'">Aplikační logika (Services)</text></g><!--entity BE_ORM--><g class="entity" data-qualified-name="FastAPI Backend.BE_ORM" id="ent0019" data-source-line="28"><rect x="202.38" y="929.63" width="231.249" height="46.297" fill="#F1F1F1" style="stroke:#181818;stroke-width:0.5;" rx="2.5" ry="2.5"/><rect x="413.629" y="934.63" width="15" height="10" fill="#F1F1F1" style="stroke:#181818;stroke-width:0.5;"/><rect x="411.629" y="936.63" width="4" height="2" fill="#F1F1F1" style="stroke:#181818;stroke-width:0.5;"/><rect x="411.629" y="940.63" width="4" height="2" fill="#F1F1F1" style="stroke:#181818;stroke-width:0.5;"/><text x="217.38" y="962.625" fill="#000" font-size="14" textLength="191.249" font-family="'sans-serif'">ORM Modely (SQLAlchemy)</text></g><!--entity BE_DB--><g class="entity" data-qualified-name="FastAPI Backend.BE_DB" id="ent0020" data-source-line="29"><rect x="230" y="1058.78" width="176.001" height="46.297" fill="#F1F1F1" style="stroke:#181818;stroke-width:0.5;" rx="2.5" ry="2.5"/><rect x="386.001" y="1063.78" width="15" height="10" fill="#F1F1F1" style="stroke:#181818;stroke-width:0.5;"/><rect x="384.001" y="1065.78" width="4" height="2" fill="#F1F1F1" style="stroke:#181818;stroke-width:0.5;"/><rect x="384.001" y="1069.78" width="4" height="2" fill="#F1F1F1" style="stroke:#181818;stroke-width:0.5;"/><text x="245" y="1091.775" fill="#000" font-size="14" textLength="136.001" font-family="'sans-serif'">Správce DB spojení</text></g><!--entity REST_API--><g class="entity" data-qualified-name="REST_API" id="ent0013" data-source-line="21"><ellipse cx="411" cy="442.89" rx="8" ry="8" fill="#F1F1F1" style="stroke:#181818;stroke-width:0.5;"/><text x="329.916" y="472.885" fill="#000" font-size="14" textLength="162.169" font-family="'sans-serif'">REST API (HTTPS/JSON)</text></g><!--entity Postgres--><g class="entity" data-qualified-name="Postgres" id="ent0026" data-source-line="38"><path d="M255.21,1313.07 C255.21,1303.07 318.004,1303.07 318.004,1303.07 C318.004,1303.07 380.798,1303.07 380.798,1313.07 L380.798,1338.367 C380.798,1348.367 318.004,1348.367 318.004,1348.367 C318.004,1348.367 255.21,1348.367 255.21,1338.367 L255.21,1313.07" style="stroke:#181818;stroke-width:0.5;" fill="#F1F1F1"/><path d="M255.21,1313.07 C255.21,1323.07 318.004,1323.07 318.004,1323.07 C318.004,1323.07 380.798,1323.07 380.798,1313.07" style="stroke:#181818;stroke-width:0.5;" fill="none"/><text x="265.21" y="1340.065" fill="#000" font-size="14" textLength="105.588" font-family="'sans-serif'">PostgreSQL DB</text></g><!--entity Redis--><g class="entity" data-qualified-name="Redis" id="ent0027" data-source-line="39"><path d="M672.8,1069.28 C672.8,1059.28 726,1059.28 726,1059.28 C726,1059.28 779.199,1059.28 779.199,1069.28 L779.199,1094.577 C779.199,1104.577 726,1104.577 726,1104.577 C726,1104.577 672.8,1104.577 672.8,1094.577 L672.8,1069.28" style="stroke:#181818;stroke-width:0.5;" fill="#F1F1F1"/><path d="M672.8,1069.28 C672.8,1079.28 726,1079.28 726,1079.28 C726,1079.28 779.199,1079.28 779.199,1069.28" style="stroke:#181818;stroke-width:0.5;" fill="none"/><text x="682.8" y="1096.275" fill="#000" font-size="14" textLength="86.399" font-family="'sans-serif'">Redis Cache</text></g><!--entity SQL_Interface--><g class="entity" data-qualified-name="SQL_Interface" id="ent0028" data-source-line="41"><ellipse cx="318" cy="1213.07" rx="8" ry="8" fill="#F1F1F1" style="stroke:#181818;stroke-width:0.5;"/><text x="262.755" y="1243.065" fill="#000" font-size="14" textLength="110.489" font-family="'sans-serif'">psycopg2 (SQL)</text></g><!--entity Redis_Interface--><g class="entity" data-qualified-name="Redis_Interface" id="ent0029" data-source-line="42"><ellipse cx="726" cy="952.78" rx="8" ry="8" fill="#F1F1F1" style="stroke:#181818;stroke-width:0.5;"/><text x="676.084" y="982.775" fill="#000" font-size="14" textLength="99.832" font-family="'sans-serif'">Redis Protocol</text></g><!--link FE_Pages to FE_Router--><g class="link" data-entity-1="ent0003" data-entity-2="ent0002" id="lnk8" data-source-line="14" data-link-type="dependency"><path d="M245.34,88.67 C210.96,110.39 163.447,140.41 129.027,162.15" style="stroke:#181818;stroke-width:1;stroke-dasharray:7,7;" fill="none" id="FE_Pages-to-FE_Router"/><polygon points="124.8,164.82,134.545,163.396,129.027,162.15,130.273,156.632,124.8,164.82" fill="#181818" style="stroke:#181818;stroke-width:1;stroke-linejoin:miter;stroke-miterlimit:10;"/><text x="198" y="131.357" fill="#000" font-size="13" textLength="50.54" font-family="'sans-serif'">používá</text></g><!--link FE_Pages to FE_UI--><g class="link" data-entity-1="ent0003" data-entity-2="ent0004" id="lnk9" data-source-line="15" data-link-type="dependency"><path d="M281,88.67 C281,110.46 281,138.28 281,160.03" style="stroke:#181818;stroke-width:1;stroke-dasharray:7,7;" fill="none" id="FE_Pages-to-FE_UI"/><polygon points="281,165.03,285,156.03,281,160.03,277,156.03,281,165.03" fill="#181818" style="stroke:#181818;stroke-width:1;stroke-linejoin:miter;stroke-miterlimit:10;"/><text x="282" y="131.357" fill="#000" font-size="13" textLength="66.492" font-family="'sans-serif'">vykresluje</text></g><!--link FE_Pages to FE_Hooks--><g class="link" data-entity-1="ent0003" data-entity-2="ent0005" id="lnk10" data-source-line="16" data-link-type="dependency"><path d="M314.51,88.68 C327.83,97.75 343.22,108.4 357,118.29 C378.26,133.56 397.873,148.28 415.843,161.97" style="stroke:#181818;stroke-width:1;stroke-dasharray:7,7;" fill="none" id="FE_Pages-to-FE_Hooks"/><polygon points="419.82,165,415.085,156.364,415.843,161.97,410.237,162.728,419.82,165" fill="#181818" style="stroke:#181818;stroke-width:1;stroke-linejoin:miter;stroke-miterlimit:10;"/><text x="380" y="131.357" fill="#000" font-size="13" textLength="81.383" font-family="'sans-serif'">využívá stav</text></g><!--link FE_Hooks to FE_Context--><g class="link" data-entity-1="ent0005" data-entity-2="ent0006" id="lnk11" data-source-line="17" data-link-type="dependency"><path d="M407.06,209.47 C361.69,231.14 294.022,263.445 246.702,286.045" style="stroke:#181818;stroke-width:1;stroke-dasharray:7,7;" fill="none" id="FE_Hooks-to-FE_Context"/><polygon points="242.19,288.2,252.035,287.931,246.702,286.045,248.587,280.712,242.19,288.2" fill="#181818" style="stroke:#181818;stroke-width:1;stroke-linejoin:miter;stroke-miterlimit:10;"/><text x="338" y="254.657" fill="#000" font-size="13" textLength="77.898" font-family="'sans-serif'">čte/zapisuje</text></g><!--link FE_Hooks to FE_API--><g class="link" data-entity-1="ent0005" data-entity-2="ent0007" id="lnk12" data-source-line="18" data-link-type="dependency"><path d="M441.94,211.97 C435.12,233.76 426.324,261.808 419.514,283.558" style="stroke:#181818;stroke-width:1;stroke-dasharray:7,7;" fill="none" id="FE_Hooks-to-FE_API"/><polygon points="418.02,288.33,424.526,280.936,419.514,283.558,416.892,278.546,418.02,288.33" fill="#181818" style="stroke:#181818;stroke-width:1;stroke-linejoin:miter;stroke-miterlimit:10;"/><text x="433" y="254.657" fill="#000" font-size="13" textLength="27.225" font-family="'sans-serif'">volá</text></g><!--link BE_Middleware to BE_Routers--><g class="link" data-entity-1="ent0015" data-entity-2="ent0016" id="lnk21" data-source-line="31" data-link-type="dependency"><path d="M411,600.56 C411,622.35 411,650.17 411,671.92" style="stroke:#181818;stroke-width:1;" fill="none" id="BE_Middleware-to-BE_Routers"/><polygon points="411,676.92,415,667.92,411,671.92,407,667.92,411,676.92" fill="#181818" style="stroke:#181818;stroke-width:1;stroke-linejoin:miter;stroke-miterlimit:10;"/><text x="412" y="643.247" fill="#000" font-size="13" textLength="116.353" font-family="'sans-serif'">filtruje požadavky</text></g><!--link BE_Routers to BE_Auth--><g class="link" data-entity-1="ent0016" data-entity-2="ent0017" id="lnk22" data-source-line="32" data-link-type="dependency"><path d="M448.98,723.82 C462.21,732.39 476.78,742.71 489,753.48 C504.97,767.57 517.546,781.938 528.876,796.168" style="stroke:#181818;stroke-width:1;" fill="none" id="BE_Routers-to-BE_Auth"/><polygon points="531.99,800.08,529.513,790.548,528.876,796.168,523.255,795.531,531.99,800.08" fill="#181818" style="stroke:#181818;stroke-width:1;stroke-linejoin:miter;stroke-miterlimit:10;"/><text x="506" y="766.547" fill="#000" font-size="13" textLength="77.6" font-family="'sans-serif'">ověřuje JWT</text></g><!--link BE_Routers to BE_Services--><g class="link" data-entity-1="ent0016" data-entity-2="ent0018" id="lnk23" data-source-line="33" data-link-type="dependency"><path d="M392.98,723.86 C375.56,745.65 352.432,774.565 335.042,796.315" style="stroke:#181818;stroke-width:1;" fill="none" id="BE_Routers-to-BE_Services"/><polygon points="331.92,800.22,340.664,795.689,335.042,796.315,334.416,790.693,331.92,800.22" fill="#181818" style="stroke:#181818;stroke-width:1;stroke-linejoin:miter;stroke-miterlimit:10;"/><text x="369" y="766.547" fill="#000" font-size="13" textLength="112.753" font-family="'sans-serif'">deleguje operace</text></g><!--link BE_Services to BE_ORM--><g class="link" data-entity-1="ent0018" data-entity-2="ent0019" id="lnk24" data-source-line="34" data-link-type="dependency"><path d="M314.71,847.07 C315.43,870.17 316.403,900.962 317.133,924.132" style="stroke:#181818;stroke-width:1;" fill="none" id="BE_Services-to-BE_ORM"/><polygon points="317.29,929.13,321.005,920.009,317.133,924.132,313.009,920.26,317.29,929.13" fill="#181818" style="stroke:#181818;stroke-width:1;stroke-linejoin:miter;stroke-miterlimit:10;"/><text x="317" y="889.847" fill="#000" font-size="13" textLength="141.756" font-family="'sans-serif'">manipuluje s entitami</text></g><!--link BE_ORM to BE_DB--><g class="link" data-entity-1="ent0019" data-entity-2="ent0020" id="lnk25" data-source-line="35" data-link-type="dependency"><path d="M318,976.22 C318,999.31 318,1030.11 318,1053.28" style="stroke:#181818;stroke-width:1;" fill="none" id="BE_ORM-to-BE_DB"/><polygon points="318,1058.28,322,1049.28,318,1053.28,314,1049.28,318,1058.28" fill="#181818" style="stroke:#181818;stroke-width:1;stroke-linejoin:miter;stroke-miterlimit:10;"/><text x="319" y="1024.847" fill="#000" font-size="13" textLength="99.049" font-family="'sans-serif'">předává sezení</text></g><!--link FE_API to REST_API--><g class="link" data-entity-1="ent0007" data-entity-2="ent0013" id="lnk30" data-source-line="45" data-link-type="dependency"><path d="M411,335.23 C411,364.72 411,409.94 411,429.12" style="stroke:#181818;stroke-width:1;stroke-dasharray:7,7;" fill="none" id="FE_API-to-REST_API"/><polygon points="411,434.12,415,425.12,411,429.12,407,425.12,411,434.12" fill="#181818" style="stroke:#181818;stroke-width:1;stroke-linejoin:miter;stroke-miterlimit:10;"/><text x="412" y="379.957" fill="#000" font-size="13" textLength="120.428" font-family="'sans-serif'">odesílá požadavky</text></g><!--link REST_API to BE_Middleware--><g class="link" data-entity-1="ent0013" data-entity-2="ent0015" id="lnk31" data-source-line="46" data-link-type="association"><path d="M411,451.76 C411,471.43 411,523.31 411,553.45" style="stroke:#181818;stroke-width:1;" fill="none" id="REST_API-BE_Middleware"/></g><!--link BE_Auth to Redis_Interface--><g class="link" data-entity-1="ent0017" data-entity-2="ent0029" id="lnk32" data-source-line="48" data-link-type="dependency"><path d="M580.24,847.07 C621.72,876.87 688.559,924.883 713.199,942.583" style="stroke:#181818;stroke-width:1;stroke-dasharray:7,7;" fill="none" id="BE_Auth-to-Redis_Interface"/><polygon points="717.26,945.5,712.284,937.001,713.199,942.583,707.617,943.498,717.26,945.5" fill="#181818" style="stroke:#181818;stroke-width:1;stroke-linejoin:miter;stroke-miterlimit:10;"/><text x="643" y="889.847" fill="#000" font-size="13" textLength="125.836" font-family="'sans-serif'">validuje PKCE state</text></g><!--link Redis_Interface to Redis--><g class="link" data-entity-1="ent0029" data-entity-2="ent0027" id="lnk33" data-source-line="49" data-link-type="association"><path d="M726,961.73 C726,980.87 726,1030.03 726,1058.89" style="stroke:#181818;stroke-width:1;" fill="none" id="Redis_Interface-Redis"/></g><!--link BE_DB to SQL_Interface--><g class="link" data-entity-1="ent0020" data-entity-2="ent0028" id="lnk34" data-source-line="51" data-link-type="dependency"><path d="M318,1105.42 C318,1134.91 318,1180.12 318,1199.31" style="stroke:#181818;stroke-width:1;stroke-dasharray:7,7;" fill="none" id="BE_DB-to-SQL_Interface"/><polygon points="318,1204.31,322,1195.31,318,1199.31,314,1195.31,318,1204.31" fill="#181818" style="stroke:#181818;stroke-width:1;stroke-linejoin:miter;stroke-miterlimit:10;"/><text x="319" y="1150.137" fill="#000" font-size="13" textLength="117.267" font-family="'sans-serif'">provádí transakce</text></g><!--link SQL_Interface to Postgres--><g class="link" data-entity-1="ent0028" data-entity-2="ent0026" id="lnk35" data-source-line="52" data-link-type="association"><path d="M318,1222.03 C318,1238.78 318,1278.17 318,1303.01" style="stroke:#181818;stroke-width:1;" fill="none" id="SQL_Interface-Postgres"/></g><?plantuml-src TPJFJjj04CRlVefLBWs7WDGZ1oG2IGaKIFD7FLGL6kn9idZjjNOt1gVg8_00g2UEFV0AN4BUgxFsRc8ZoW5vTtupcldcs-YOfnaeI5WYKnakb4oG6RN4G6yZUW6HlEVfdCr0w7eamXaiXUdBr5m19ROqfBgZKV5PguPb4COmnx4f13A5eO5qBZ08t3rhZH12m_gAwc0QjTYlWD7VZ-fw99S6rKy6clLxDzMfYe-DMZ-dSS4W4po643qqfAgwOgQRLvw3GQ7ZzL-cv6gX85s_U78wgB0pAMFjByj3TVz5oDlriw0CfWtah7rYUtmmUvvrvue-7WxOXU2O6jO-Vk1IRp6Ab4ZvptV8zlUFTZEnGvR9vUPr_PAldp_afWDYyY9MgCNo3ZzaojvBp9Sg6_Ti5NQiwvtejqU31ol8kAxLRR1sDAeg1VNsEmWuPQePIKxBwuqdp8RRPvF9S7nmFhw-sclPkMsad7otwJveOzakNTHNtSLLXc-FgTJ6QftWYkTAcxme1UpsRYvv50cy1uKxgIlTj4VSqSNfEpLy1LJK5fJHKdYGOWj7bSQf427dzCtQOrGv3z7jZd1_KQLSZoxPfOnG58H--teimWKcnHQci3DdHkRCIQ3JBjEPl4FlEe9EkpipD6PZdSvHRHHIVCO5FSSx96ziNY62F2vyceTSZfsA4cJ-zcVpP3FElq_-W_g92AT1S6vfcQ6YVVgCBU9IxDY7B86KPqjhFgQPrTT0mdsAHHnDCvERDqyOaGRMWhYoyrldH63W5ZHvOKZBdYia4KcZqZ3kHjUW4KPSinCWbIjFsNF3VvakGfdDFvVhg8n77pS3JpIyMbORAcbaACMkO8qEFjcuMrXfH1RB99CfZMk7TM_1FWllRwjwX7hzGe-ZlgTjlDDvP-70xwiiq-p0FZCGFB8Y3ozEUlRz6WpUKrJJQL7fRIirvhORK9BKZsWEGxzw6cAQhybG5I_wFm00?></g></svg>